ISO-10303-21;
HEADER;
FILE_DESCRIPTION(('FreeCAD Model'),'2;1');
FILE_NAME('Open CASCADE Shape Model','2026-08-10T14:16:23',('FreeCAD'),(
    'FreeCAD'),'Open CASCADE STEP processor 7.8','FreeCAD','Unknown');
FILE_SCHEMA(('AUTOMOTIVE_DESIGN { 1 0 10303 214 1 1 1 1 }'));
ENDSEC;
DATA;
#1 = APPLICATION_PROTOCOL_DEFINITION('international standard',
  'automotive_design',2000,#2);
#2 = APPLICATION_CONTEXT(
  'core data for automotive mechanical design processes');
#3 = SHAPE_DEFINITION_REPRESENTATION(#4,#10);
#4 = PRODUCT_DEFINITION_SHAPE('','',#5);
#5 = PRODUCT_DEFINITION('design','',#6,#9);
#6 = PRODUCT_DEFINITION_FORMATION('','',#7);
#7 = PRODUCT('Open CASCADE STEP translator 7.8 2',
  'Open CASCADE STEP translator 7.8 2','',(#8));
#8 = PRODUCT_CONTEXT('',#2,'mechanical');
#9 = PRODUCT_DEFINITION_CONTEXT('part definition',#2,'design');
#10 = ADVANCED_BREP_SHAPE_REPRESENTATION('',(#11,#15),#2175);
#11 = AXIS2_PLACEMENT_3D('',#12,#13,#14);
#12 = CARTESIAN_POINT('',(0.,0.,0.));
#13 = DIRECTION('',(0.,0.,1.));
#14 = DIRECTION('',(1.,0.,-0.));
#15 = MANIFOLD_SOLID_BREP('',#16);
#16 = CLOSED_SHELL('',(#17,#537,#593,#618,#643,#692,#716,#740,#765,#790,
    #814,#838,#863,#898,#922,#946,#970,#994,#1019,#1043,#1067,#1091,
    #1116,#1140,#1164,#1188,#1213,#1238,#1262,#1286,#1310,#1335,#1370,
    #1394,#1418,#1442,#1466,#1490,#1514,#1538,#1562,#1587,#1611,#1635,
    #1684,#1709,#1733,#1758,#1783,#1808,#1832,#1881,#1906,#1930,#1954,
    #1972,#1997,#2015,#2033,#2118,#2146,#2163));
#17 = ADVANCED_FACE('',(#18,#521),#532,.T.);
#18 = FACE_BOUND('',#19,.T.);
#19 = EDGE_LOOP('',(#20,#30,#38,#47,#55,#63,#72,#80,#89,#98,#106,#115,
    #123,#132,#140,#149,#157,#165,#174,#183,#191,#199,#207,#216,#224,
    #233,#241,#250,#258,#267,#275,#284,#292,#300,#308,#317,#326,#334,
    #342,#350,#358,#366,#374,#382,#390,#399,#407,#416,#424,#432,#440,
    #448,#456,#464,#472,#481,#489,#498,#506,#514));
#20 = ORIENTED_EDGE('',*,*,#21,.F.);
#21 = EDGE_CURVE('',#22,#24,#26,.T.);
#22 = VERTEX_POINT('',#23);
#23 = CARTESIAN_POINT('',(150.,-16.,39.25));
#24 = VERTEX_POINT('',#25);
#25 = CARTESIAN_POINT('',(150.,-16.,38.5));
#26 = LINE('',#27,#28);
#27 = CARTESIAN_POINT('',(150.,-16.,12.447865789883));
#28 = VECTOR('',#29,1.);
#29 = DIRECTION('',(-0.,0.,-1.));
#30 = ORIENTED_EDGE('',*,*,#31,.T.);
#31 = EDGE_CURVE('',#22,#32,#34,.T.);
#32 = VERTEX_POINT('',#33);
#33 = CARTESIAN_POINT('',(150.,-16.,40.));
#34 = LINE('',#35,#36);
#35 = CARTESIAN_POINT('',(150.,-16.,12.447865789883));
#36 = VECTOR('',#37,1.);
#37 = DIRECTION('',(0.,-0.,1.));
#38 = ORIENTED_EDGE('',*,*,#39,.T.);
#39 = EDGE_CURVE('',#32,#40,#42,.T.);
#40 = VERTEX_POINT('',#41);
#41 = CARTESIAN_POINT('',(152.9632707354,-16.,38.886595126181));
#42 = CIRCLE('',#43,4.5);
#43 = AXIS2_PLACEMENT_3D('',#44,#45,#46);
#44 = CARTESIAN_POINT('',(150.,-16.,35.5));
#45 = DIRECTION('',(0.,1.,0.));
#46 = DIRECTION('',(0.,-0.,1.));
#47 = ORIENTED_EDGE('',*,*,#48,.T.);
#48 = EDGE_CURVE('',#40,#49,#51,.T.);
#49 = VERTEX_POINT('',#50);
#50 = CARTESIAN_POINT('',(149.62919900363,-16.,41.803907891485));
#51 = LINE('',#52,#53);
#52 = CARTESIAN_POINT('',(152.9632707354,-16.,38.886595126181));
#53 = VECTOR('',#54,1.);
#54 = DIRECTION('',(-0.752576694707,0.,0.658504607869));
#55 = ORIENTED_EDGE('',*,*,#56,.T.);
#56 = EDGE_CURVE('',#49,#57,#59,.T.);
#57 = VERTEX_POINT('',#58);
#58 = CARTESIAN_POINT('',(146.0249223595,-16.,49.01246117975));
#59 = LINE('',#60,#61);
#60 = CARTESIAN_POINT('',(150.0249223595,-16.,41.01246117975));
#61 = VECTOR('',#62,1.);
#62 = DIRECTION('',(-0.4472135955,0.,0.894427191));
#63 = ORIENTED_EDGE('',*,*,#64,.F.);
#64 = EDGE_CURVE('',#65,#57,#67,.T.);
#65 = VERTEX_POINT('',#66);
#66 = CARTESIAN_POINT('',(142.94288089928,-16.,51.400110863348));
#67 = CIRCLE('',#68,4.5);
#68 = AXIS2_PLACEMENT_3D('',#69,#70,#71);
#69 = CARTESIAN_POINT('',(142.,-16.,47.));
#70 = DIRECTION('',(0.,1.,0.));
#71 = DIRECTION('',(0.,0.,1.));
#72 = ORIENTED_EDGE('',*,*,#73,.T.);
#73 = EDGE_CURVE('',#65,#74,#76,.T.);
#74 = VERTEX_POINT('',#75);
#75 = CARTESIAN_POINT('',(128.94288089928,-16.,54.400110863348));
#76 = LINE('',#77,#78);
#77 = CARTESIAN_POINT('',(142.94288089928,-16.,51.400110863348));
#78 = VECTOR('',#79,1.);
#79 = DIRECTION('',(-0.977802414077,0.,0.209529088731));
#80 = ORIENTED_EDGE('',*,*,#81,.F.);
#81 = EDGE_CURVE('',#82,#74,#84,.T.);
#82 = VERTEX_POINT('',#83);
#83 = CARTESIAN_POINT('',(128.,-16.,54.5));
#84 = CIRCLE('',#85,4.5);
#85 = AXIS2_PLACEMENT_3D('',#86,#87,#88);
#86 = CARTESIAN_POINT('',(128.,-16.,50.));
#87 = DIRECTION('',(0.,1.,0.));
#88 = DIRECTION('',(0.,0.,1.));
#89 = ORIENTED_EDGE('',*,*,#90,.F.);
#90 = EDGE_CURVE('',#91,#82,#93,.T.);
#91 = VERTEX_POINT('',#92);
#92 = CARTESIAN_POINT('',(126.3287419564,-16.,54.178145108984));
#93 = CIRCLE('',#94,4.5);
#94 = AXIS2_PLACEMENT_3D('',#95,#96,#97);
#95 = CARTESIAN_POINT('',(128.,-16.,50.));
#96 = DIRECTION('',(0.,1.,0.));
#97 = DIRECTION('',(0.,0.,1.));
#98 = ORIENTED_EDGE('',*,*,#99,.T.);
#99 = EDGE_CURVE('',#91,#100,#102,.T.);
#100 = VERTEX_POINT('',#101);
#101 = CARTESIAN_POINT('',(111.3287419564,-16.,48.178145108984));
#102 = LINE('',#103,#104);
#103 = CARTESIAN_POINT('',(126.3287419564,-16.,54.178145108984));
#104 = VECTOR('',#105,1.);
#105 = DIRECTION('',(-0.928476690885,0.,-0.371390676354));
#106 = ORIENTED_EDGE('',*,*,#107,.F.);
#107 = EDGE_CURVE('',#108,#100,#110,.T.);
#108 = VERTEX_POINT('',#109);
#109 = CARTESIAN_POINT('',(109.2146968608,-16.,46.433409160911));
#110 = CIRCLE('',#111,4.5);
#111 = AXIS2_PLACEMENT_3D('',#112,#113,#114);
#112 = CARTESIAN_POINT('',(113.,-16.,44.));
#113 = DIRECTION('',(0.,1.,0.));
#114 = DIRECTION('',(0.,0.,1.));
#115 = ORIENTED_EDGE('',*,*,#116,.T.);
#116 = EDGE_CURVE('',#108,#117,#119,.T.);
#117 = VERTEX_POINT('',#118);
#118 = CARTESIAN_POINT('',(100.2146968608,-16.,32.433409160911));
#119 = LINE('',#120,#121);
#120 = CARTESIAN_POINT('',(109.2146968608,-16.,46.433409160911));
#121 = VECTOR('',#122,1.);
#122 = DIRECTION('',(-0.540757591313,0.,-0.841178475377));
#123 = ORIENTED_EDGE('',*,*,#124,.F.);
#124 = EDGE_CURVE('',#125,#117,#127,.T.);
#125 = VERTEX_POINT('',#126);
#126 = CARTESIAN_POINT('',(99.607158229172,-16.,30.976187060184));
#127 = CIRCLE('',#128,4.5);
#128 = AXIS2_PLACEMENT_3D('',#129,#130,#131);
#129 = CARTESIAN_POINT('',(104.,-16.,30.));
#130 = DIRECTION('',(0.,1.,0.));
#131 = DIRECTION('',(0.,0.,1.));
#132 = ORIENTED_EDGE('',*,*,#133,.T.);
#133 = EDGE_CURVE('',#125,#134,#136,.T.);
#134 = VERTEX_POINT('',#135);
#135 = CARTESIAN_POINT('',(97.302433315197,-16.,20.604924947295));
#136 = LINE('',#137,#138);
#137 = CARTESIAN_POINT('',(99.607158229172,-16.,30.976187060184));
#138 = VECTOR('',#139,1.);
#139 = DIRECTION('',(-0.216930457819,0.,-0.976187060184));
#140 = ORIENTED_EDGE('',*,*,#141,.F.);
#141 = EDGE_CURVE('',#142,#134,#144,.T.);
#142 = VERTEX_POINT('',#143);
#143 = CARTESIAN_POINT('',(96.721910214544,-16.,19.82116099192));
#144 = CIRCLE('',#145,3.75);
#145 = AXIS2_PLACEMENT_3D('',#146,#147,#148);
#146 = CARTESIAN_POINT('',(100.,-16.,18.));
#147 = DIRECTION('',(0.,1.,0.));
#148 = DIRECTION('',(0.,0.,1.));
#149 = ORIENTED_EDGE('',*,*,#150,.T.);
#150 = EDGE_CURVE('',#142,#151,#153,.T.);
#151 = VERTEX_POINT('',#152);
#152 = CARTESIAN_POINT('',(88.4879318857,-16.,5.));
#153 = LINE('',#154,#155);
#154 = CARTESIAN_POINT('',(96.721910214544,-16.,19.82116099192));
#155 = VECTOR('',#156,1.);
#156 = DIRECTION('',(-0.485642931179,0.,-0.874157276121));
#157 = ORIENTED_EDGE('',*,*,#158,.T.);
#158 = EDGE_CURVE('',#151,#159,#161,.T.);
#159 = VERTEX_POINT('',#160);
#160 = CARTESIAN_POINT('',(29.580398915498,-16.,5.));
#161 = LINE('',#162,#163);
#162 = CARTESIAN_POINT('',(145.,-16.,5.));
#163 = VECTOR('',#164,1.);
#164 = DIRECTION('',(-1.,0.,0.));
#165 = ORIENTED_EDGE('',*,*,#166,.F.);
#166 = EDGE_CURVE('',#167,#159,#169,.T.);
#167 = VERTEX_POINT('',#168);
#168 = CARTESIAN_POINT('',(-7.347880794884E-15,-16.,30.));
#169 = CIRCLE('',#170,30.);
#170 = AXIS2_PLACEMENT_3D('',#171,#172,#173);
#171 = CARTESIAN_POINT('',(0.,-16.,0.));
#172 = DIRECTION('',(0.,1.,0.));
#173 = DIRECTION('',(0.,0.,1.));
#174 = ORIENTED_EDGE('',*,*,#175,.F.);
#175 = EDGE_CURVE('',#176,#167,#178,.T.);
#176 = VERTEX_POINT('',#177);
#177 = CARTESIAN_POINT('',(29.580398915498,-16.,-4.999999999999));
#178 = CIRCLE('',#179,30.);
#179 = AXIS2_PLACEMENT_3D('',#180,#181,#182);
#180 = CARTESIAN_POINT('',(0.,-16.,0.));
#181 = DIRECTION('',(0.,1.,0.));
#182 = DIRECTION('',(0.,0.,1.));
#183 = ORIENTED_EDGE('',*,*,#184,.T.);
#184 = EDGE_CURVE('',#176,#185,#187,.T.);
#185 = VERTEX_POINT('',#186);
#186 = CARTESIAN_POINT('',(136.79404231842,-16.,-5.));
#187 = LINE('',#188,#189);
#188 = CARTESIAN_POINT('',(18.,-16.,-5.));
#189 = VECTOR('',#190,1.);
#190 = DIRECTION('',(1.,0.,0.));
#191 = ORIENTED_EDGE('',*,*,#192,.T.);
#192 = EDGE_CURVE('',#185,#193,#195,.T.);
#193 = VERTEX_POINT('',#194);
#194 = CARTESIAN_POINT('',(160.06514914099,-16.,-17.53059598138));
#195 = LINE('',#196,#197);
#196 = CARTESIAN_POINT('',(134.86655079634,-16.,-3.96211994965));
#197 = VECTOR('',#198,1.);
#198 = DIRECTION('',(0.880471099922,0.,-0.474099823035));
#199 = ORIENTED_EDGE('',*,*,#200,.T.);
#200 = EDGE_CURVE('',#193,#201,#203,.T.);
#201 = VERTEX_POINT('',#202);
#202 = CARTESIAN_POINT('',(192.49444741631,-16.,-57.82154232345));
#203 = LINE('',#204,#205);
#204 = CARTESIAN_POINT('',(159.49444741631,-16.,-16.82154232345));
#205 = VECTOR('',#206,1.);
#206 = DIRECTION('',(0.627009405212,0.,-0.779011685263));
#207 = ORIENTED_EDGE('',*,*,#208,.F.);
#208 = EDGE_CURVE('',#209,#201,#211,.T.);
#209 = VERTEX_POINT('',#210);
#210 = CARTESIAN_POINT('',(193.68476910057,-16.,-58.8587181657));
#211 = CIRCLE('',#212,4.5);
#212 = AXIS2_PLACEMENT_3D('',#213,#214,#215);
#213 = CARTESIAN_POINT('',(196.,-16.,-55.));
#214 = DIRECTION('',(0.,1.,0.));
#215 = DIRECTION('',(0.,0.,1.));
#216 = ORIENTED_EDGE('',*,*,#217,.T.);
#217 = EDGE_CURVE('',#209,#218,#220,.T.);
#218 = VERTEX_POINT('',#219);
#219 = CARTESIAN_POINT('',(203.68476910057,-16.,-64.8587181657));
#220 = LINE('',#221,#222);
#221 = CARTESIAN_POINT('',(193.68476910057,-16.,-58.8587181657));
#222 = VECTOR('',#223,1.);
#223 = DIRECTION('',(0.857492925712,0.,-0.514495755428));
#224 = ORIENTED_EDGE('',*,*,#225,.F.);
#225 = EDGE_CURVE('',#226,#218,#228,.T.);
#226 = VERTEX_POINT('',#227);
#227 = CARTESIAN_POINT('',(206.44776673559,-16.,-65.47766735594));
#228 = CIRCLE('',#229,4.5);
#229 = AXIS2_PLACEMENT_3D('',#230,#231,#232);
#230 = CARTESIAN_POINT('',(206.,-16.,-61.));
#231 = DIRECTION('',(0.,1.,0.));
#232 = DIRECTION('',(0.,0.,1.));
#233 = ORIENTED_EDGE('',*,*,#234,.T.);
#234 = EDGE_CURVE('',#226,#235,#237,.T.);
#235 = VERTEX_POINT('',#236);
#236 = CARTESIAN_POINT('',(216.44776673559,-16.,-64.47766735594));
#237 = LINE('',#238,#239);
#238 = CARTESIAN_POINT('',(206.44776673559,-16.,-65.47766735594));
#239 = VECTOR('',#240,1.);
#240 = DIRECTION('',(0.99503719021,0.,9.9503719021E-02));
#241 = ORIENTED_EDGE('',*,*,#242,.F.);
#242 = EDGE_CURVE('',#243,#235,#245,.T.);
#243 = VERTEX_POINT('',#244);
#244 = CARTESIAN_POINT('',(219.18198051533,-16.,-63.18198051533));
#245 = CIRCLE('',#246,4.5);
#246 = AXIS2_PLACEMENT_3D('',#247,#248,#249);
#247 = CARTESIAN_POINT('',(216.,-16.,-60.));
#248 = DIRECTION('',(0.,1.,0.));
#249 = DIRECTION('',(0.,0.,1.));
#250 = ORIENTED_EDGE('',*,*,#251,.T.);
#251 = EDGE_CURVE('',#243,#252,#254,.T.);
#252 = VERTEX_POINT('',#253);
#253 = CARTESIAN_POINT('',(225.18198051533,-16.,-57.18198051533));
#254 = LINE('',#255,#256);
#255 = CARTESIAN_POINT('',(219.18198051533,-16.,-63.18198051533));
#256 = VECTOR('',#257,1.);
#257 = DIRECTION('',(0.707106781187,0.,0.707106781187));
#258 = ORIENTED_EDGE('',*,*,#259,.F.);
#259 = EDGE_CURVE('',#260,#252,#262,.T.);
#260 = VERTEX_POINT('',#261);
#261 = CARTESIAN_POINT('',(226.40347403244,-16.,-54.92704716472));
#262 = CIRCLE('',#263,4.5);
#263 = AXIS2_PLACEMENT_3D('',#264,#265,#266);
#264 = CARTESIAN_POINT('',(222.,-16.,-54.));
#265 = DIRECTION('',(0.,1.,0.));
#266 = DIRECTION('',(0.,0.,1.));
#267 = ORIENTED_EDGE('',*,*,#268,.T.);
#268 = EDGE_CURVE('',#260,#269,#271,.T.);
#269 = VERTEX_POINT('',#270);
#270 = CARTESIAN_POINT('',(228.40347403244,-16.,-45.42704716472));
#271 = LINE('',#272,#273);
#272 = CARTESIAN_POINT('',(226.40347403244,-16.,-54.92704716472));
#273 = VECTOR('',#274,1.);
#274 = DIRECTION('',(0.20601048105,0.,0.978549784987));
#275 = ORIENTED_EDGE('',*,*,#276,.F.);
#276 = EDGE_CURVE('',#277,#269,#279,.T.);
#277 = VERTEX_POINT('',#278);
#278 = CARTESIAN_POINT('',(228.5,-16.,-44.5));
#279 = CIRCLE('',#280,4.5);
#280 = AXIS2_PLACEMENT_3D('',#281,#282,#283);
#281 = CARTESIAN_POINT('',(224.,-16.,-44.5));
#282 = DIRECTION('',(0.,1.,0.));
#283 = DIRECTION('',(0.,0.,1.));
#284 = ORIENTED_EDGE('',*,*,#285,.T.);
#285 = EDGE_CURVE('',#277,#286,#288,.T.);
#286 = VERTEX_POINT('',#287);
#287 = CARTESIAN_POINT('',(228.5,-16.,-40.));
#288 = LINE('',#289,#290);
#289 = CARTESIAN_POINT('',(228.5,-16.,-44.5));
#290 = VECTOR('',#291,1.);
#291 = DIRECTION('',(0.,0.,1.));
#292 = ORIENTED_EDGE('',*,*,#293,.T.);
#293 = EDGE_CURVE('',#286,#294,#296,.T.);
#294 = VERTEX_POINT('',#295);
#295 = CARTESIAN_POINT('',(227.75,-16.,-40.));
#296 = LINE('',#297,#298);
#297 = CARTESIAN_POINT('',(162.3319653452,-16.,-40.));
#298 = VECTOR('',#299,1.);
#299 = DIRECTION('',(-1.,0.,0.));
#300 = ORIENTED_EDGE('',*,*,#301,.T.);
#301 = EDGE_CURVE('',#294,#302,#304,.T.);
#302 = VERTEX_POINT('',#303);
#303 = CARTESIAN_POINT('',(227.,-16.,-40.));
#304 = LINE('',#305,#306);
#305 = CARTESIAN_POINT('',(162.3319653452,-16.,-40.));
#306 = VECTOR('',#307,1.);
#307 = DIRECTION('',(-1.,0.,0.));
#308 = ORIENTED_EDGE('',*,*,#309,.F.);
#309 = EDGE_CURVE('',#310,#302,#312,.T.);
#310 = VERTEX_POINT('',#311);
#311 = CARTESIAN_POINT('',(224.,-16.,-37.));
#312 = CIRCLE('',#313,3.);
#313 = AXIS2_PLACEMENT_3D('',#314,#315,#316);
#314 = CARTESIAN_POINT('',(224.,-16.,-40.));
#315 = DIRECTION('',(-0.,1.,0.));
#316 = DIRECTION('',(0.,0.,1.));
#317 = ORIENTED_EDGE('',*,*,#318,.F.);
#318 = EDGE_CURVE('',#319,#310,#321,.T.);
#319 = VERTEX_POINT('',#320);
#320 = CARTESIAN_POINT('',(221.,-16.,-40.));
#321 = CIRCLE('',#322,3.);
#322 = AXIS2_PLACEMENT_3D('',#323,#324,#325);
#323 = CARTESIAN_POINT('',(224.,-16.,-40.));
#324 = DIRECTION('',(0.,1.,-0.));
#325 = DIRECTION('',(-1.,0.,0.));
#326 = ORIENTED_EDGE('',*,*,#327,.F.);
#327 = EDGE_CURVE('',#328,#319,#330,.T.);
#328 = VERTEX_POINT('',#329);
#329 = CARTESIAN_POINT('',(220.25,-16.,-40.));
#330 = LINE('',#331,#332);
#331 = CARTESIAN_POINT('',(162.3319653452,-16.,-40.));
#332 = VECTOR('',#333,1.);
#333 = DIRECTION('',(1.,-0.,-0.));
#334 = ORIENTED_EDGE('',*,*,#335,.T.);
#335 = EDGE_CURVE('',#328,#336,#338,.T.);
#336 = VERTEX_POINT('',#337);
#337 = CARTESIAN_POINT('',(219.5,-16.,-40.));
#338 = LINE('',#339,#340);
#339 = CARTESIAN_POINT('',(162.3319653452,-16.,-40.));
#340 = VECTOR('',#341,1.);
#341 = DIRECTION('',(-1.,0.,0.));
#342 = ORIENTED_EDGE('',*,*,#343,.T.);
#343 = EDGE_CURVE('',#336,#344,#346,.T.);
#344 = VERTEX_POINT('',#345);
#345 = CARTESIAN_POINT('',(219.5,-16.,-44.03145118118));
#346 = LINE('',#347,#348);
#347 = CARTESIAN_POINT('',(219.5,-16.,-40.));
#348 = VECTOR('',#349,1.);
#349 = DIRECTION('',(0.,0.,-1.));
#350 = ORIENTED_EDGE('',*,*,#351,.T.);
#351 = EDGE_CURVE('',#344,#352,#354,.T.);
#352 = VERTEX_POINT('',#353);
#353 = CARTESIAN_POINT('',(217.87210992316,-16.,-51.76392904615));
#354 = LINE('',#355,#356);
#355 = CARTESIAN_POINT('',(219.59652596756,-16.,-43.57295283527));
#356 = VECTOR('',#357,1.);
#357 = DIRECTION('',(-0.20601048105,0.,-0.978549784987));
#358 = ORIENTED_EDGE('',*,*,#359,.T.);
#359 = EDGE_CURVE('',#352,#360,#362,.T.);
#360 = VERTEX_POINT('',#361);
#361 = CARTESIAN_POINT('',(213.95386999869,-16.,-55.68216897062));
#362 = LINE('',#363,#364);
#363 = CARTESIAN_POINT('',(218.81801948466,-16.,-50.81801948466));
#364 = VECTOR('',#365,1.);
#365 = DIRECTION('',(-0.707106781187,0.,-0.707106781187));
#366 = ORIENTED_EDGE('',*,*,#367,.T.);
#367 = EDGE_CURVE('',#360,#368,#370,.T.);
#368 = VERTEX_POINT('',#369);
#369 = CARTESIAN_POINT('',(207.03630382265,-16.,-56.37392558823));
#370 = LINE('',#371,#372);
#371 = CARTESIAN_POINT('',(215.5522332644,-16.,-55.52233264405));
#372 = VECTOR('',#373,1.);
#373 = DIRECTION('',(-0.99503719021,0.,-9.9503719021E-02));
#374 = ORIENTED_EDGE('',*,*,#375,.T.);
#375 = EDGE_CURVE('',#368,#376,#378,.T.);
#376 = VERTEX_POINT('',#377);
#377 = CARTESIAN_POINT('',(199.00279628905,-16.,-51.55382106807));
#378 = LINE('',#379,#380);
#379 = CARTESIAN_POINT('',(208.31523089942,-16.,-57.14128183429));
#380 = VECTOR('',#381,1.);
#381 = DIRECTION('',(-0.857492925712,0.,0.514495755428));
#382 = ORIENTED_EDGE('',*,*,#383,.T.);
#383 = EDGE_CURVE('',#376,#384,#386,.T.);
#384 = VERTEX_POINT('',#385);
#385 = CARTESIAN_POINT('',(166.50555258368,-16.,-11.17845767654));
#386 = LINE('',#387,#388);
#387 = CARTESIAN_POINT('',(199.50555258368,-16.,-52.17845767654));
#388 = VECTOR('',#389,1.);
#389 = DIRECTION('',(-0.627009405212,0.,0.779011685263));
#390 = ORIENTED_EDGE('',*,*,#391,.F.);
#391 = EDGE_CURVE('',#392,#384,#394,.T.);
#392 = VERTEX_POINT('',#393);
#393 = CARTESIAN_POINT('',(165.13344920365,-16.,-10.03788005035));
#394 = CIRCLE('',#395,4.5);
#395 = AXIS2_PLACEMENT_3D('',#396,#397,#398);
#396 = CARTESIAN_POINT('',(163.,-16.,-14.));
#397 = DIRECTION('',(0.,1.,0.));
#398 = DIRECTION('',(0.,0.,1.));
#399 = ORIENTED_EDGE('',*,*,#400,.T.);
#400 = EDGE_CURVE('',#392,#401,#403,.T.);
#401 = VERTEX_POINT('',#402);
#402 = CARTESIAN_POINT('',(149.6933817597,-16.,-1.723997580529));
#403 = LINE('',#404,#405);
#404 = CARTESIAN_POINT('',(165.13344920365,-16.,-10.03788005035));
#405 = VECTOR('',#406,1.);
#406 = DIRECTION('',(-0.880471099922,0.,0.474099823035));
#407 = ORIENTED_EDGE('',*,*,#408,.F.);
#408 = EDGE_CURVE('',#409,#401,#411,.T.);
#409 = VERTEX_POINT('',#410);
#410 = CARTESIAN_POINT('',(145.,-16.,5.));
#411 = CIRCLE('',#412,5.);
#412 = AXIS2_PLACEMENT_3D('',#413,#414,#415);
#413 = CARTESIAN_POINT('',(145.,-16.,0.));
#414 = DIRECTION('',(0.,1.,0.));
#415 = DIRECTION('',(0.,0.,1.));
#416 = ORIENTED_EDGE('',*,*,#417,.T.);
#417 = EDGE_CURVE('',#409,#418,#420,.T.);
#418 = VERTEX_POINT('',#419);
#419 = CARTESIAN_POINT('',(104.5,-16.,5.));
#420 = LINE('',#421,#422);
#421 = CARTESIAN_POINT('',(145.,-16.,5.));
#422 = VECTOR('',#423,1.);
#423 = DIRECTION('',(-1.,0.,0.));
#424 = ORIENTED_EDGE('',*,*,#425,.T.);
#425 = EDGE_CURVE('',#418,#426,#428,.T.);
#426 = VERTEX_POINT('',#427);
#427 = CARTESIAN_POINT('',(104.5,-16.,11.506024971091));
#428 = LINE('',#429,#430);
#429 = CARTESIAN_POINT('',(104.5,-16.,0.));
#430 = VECTOR('',#431,1.);
#431 = DIRECTION('',(0.,0.,1.));
#432 = ORIENTED_EDGE('',*,*,#433,.T.);
#433 = EDGE_CURVE('',#426,#434,#436,.T.);
#434 = VERTEX_POINT('',#435);
#435 = CARTESIAN_POINT('',(108.2188999571,-16.,28.24107477806));
#436 = LINE('',#437,#438);
#437 = CARTESIAN_POINT('',(104.39284177082,-16.,11.023812939816));
#438 = VECTOR('',#439,1.);
#439 = DIRECTION('',(0.216930457819,0.,0.976187060184));
#440 = ORIENTED_EDGE('',*,*,#441,.T.);
#441 = EDGE_CURVE('',#434,#442,#444,.T.);
#442 = VERTEX_POINT('',#443);
#443 = CARTESIAN_POINT('',(116.0072203326,-16.,40.356239806622));
#444 = LINE('',#445,#446);
#445 = CARTESIAN_POINT('',(107.78530313919,-16.,27.566590839089));
#446 = VECTOR('',#447,1.);
#447 = DIRECTION('',(0.540757591313,0.,0.841178475377));
#448 = ORIENTED_EDGE('',*,*,#449,.T.);
#449 = EDGE_CURVE('',#442,#450,#452,.T.);
#450 = VERTEX_POINT('',#451);
#451 = CARTESIAN_POINT('',(128.3980095099,-16.,45.312555477539));
#452 = LINE('',#453,#454);
#453 = CARTESIAN_POINT('',(114.67125804359,-16.,39.821854891016));
#454 = VECTOR('',#455,1.);
#455 = DIRECTION('',(0.928476690885,0.,0.371390676354));
#456 = ORIENTED_EDGE('',*,*,#457,.T.);
#457 = EDGE_CURVE('',#450,#458,#460,.T.);
#458 = VERTEX_POINT('',#459);
#459 = CARTESIAN_POINT('',(138.94231648809,-16.,43.05306112507));
#460 = LINE('',#461,#462);
#461 = CARTESIAN_POINT('',(127.05711910071,-16.,45.599889136652));
#462 = VECTOR('',#463,1.);
#463 = DIRECTION('',(0.977802414077,0.,-0.209529088731));
#464 = ORIENTED_EDGE('',*,*,#465,.T.);
#465 = EDGE_CURVE('',#458,#466,#468,.T.);
#466 = VERTEX_POINT('',#467);
#467 = CARTESIAN_POINT('',(141.9750776405,-16.,36.98753882025));
#468 = LINE('',#469,#470);
#469 = CARTESIAN_POINT('',(137.9750776405,-16.,44.98753882025));
#470 = VECTOR('',#471,1.);
#471 = DIRECTION('',(0.4472135955,0.,-0.894427191));
#472 = ORIENTED_EDGE('',*,*,#473,.F.);
#473 = EDGE_CURVE('',#474,#466,#476,.T.);
#474 = VERTEX_POINT('',#475);
#475 = CARTESIAN_POINT('',(143.03672926459,-16.,35.613404873819));
#476 = CIRCLE('',#477,4.5);
#477 = AXIS2_PLACEMENT_3D('',#478,#479,#480);
#478 = CARTESIAN_POINT('',(146.,-16.,39.));
#479 = DIRECTION('',(0.,1.,0.));
#480 = DIRECTION('',(0.,0.,1.));
#481 = ORIENTED_EDGE('',*,*,#482,.T.);
#482 = EDGE_CURVE('',#474,#483,#485,.T.);
#483 = VERTEX_POINT('',#484);
#484 = CARTESIAN_POINT('',(147.03672926459,-16.,32.113404873819));
#485 = LINE('',#486,#487);
#486 = CARTESIAN_POINT('',(143.03672926459,-16.,35.613404873819));
#487 = VECTOR('',#488,1.);
#488 = DIRECTION('',(0.752576694707,0.,-0.658504607869));
#489 = ORIENTED_EDGE('',*,*,#490,.F.);
#490 = EDGE_CURVE('',#491,#483,#493,.T.);
#491 = VERTEX_POINT('',#492);
#492 = CARTESIAN_POINT('',(150.,-16.,31.));
#493 = CIRCLE('',#494,4.5);
#494 = AXIS2_PLACEMENT_3D('',#495,#496,#497);
#495 = CARTESIAN_POINT('',(150.,-16.,35.5));
#496 = DIRECTION('',(0.,1.,0.));
#497 = DIRECTION('',(0.,0.,1.));
#498 = ORIENTED_EDGE('',*,*,#499,.T.);
#499 = EDGE_CURVE('',#491,#500,#502,.T.);
#500 = VERTEX_POINT('',#501);
#501 = CARTESIAN_POINT('',(150.,-16.,31.75));
#502 = LINE('',#503,#504);
#503 = CARTESIAN_POINT('',(150.,-16.,12.447865789883));
#504 = VECTOR('',#505,1.);
#505 = DIRECTION('',(0.,-0.,1.));
#506 = ORIENTED_EDGE('',*,*,#507,.T.);
#507 = EDGE_CURVE('',#500,#508,#510,.T.);
#508 = VERTEX_POINT('',#509);
#509 = CARTESIAN_POINT('',(150.,-16.,32.5));
#510 = LINE('',#511,#512);
#511 = CARTESIAN_POINT('',(150.,-16.,12.447865789883));
#512 = VECTOR('',#513,1.);
#513 = DIRECTION('',(0.,-0.,1.));
#514 = ORIENTED_EDGE('',*,*,#515,.F.);
#515 = EDGE_CURVE('',#24,#508,#516,.T.);
#516 = CIRCLE('',#517,3.);
#517 = AXIS2_PLACEMENT_3D('',#518,#519,#520);
#518 = CARTESIAN_POINT('',(150.,-16.,35.5));
#519 = DIRECTION('',(-0.,1.,0.));
#520 = DIRECTION('',(0.,0.,1.));
#521 = FACE_BOUND('',#522,.T.);
#522 = EDGE_LOOP('',(#523));
#523 = ORIENTED_EDGE('',*,*,#524,.T.);
#524 = EDGE_CURVE('',#525,#525,#527,.T.);
#525 = VERTEX_POINT('',#526);
#526 = CARTESIAN_POINT('',(-1.959434878636E-15,-16.,8.));
#527 = CIRCLE('',#528,8.);
#528 = AXIS2_PLACEMENT_3D('',#529,#530,#531);
#529 = CARTESIAN_POINT('',(0.,-16.,0.));
#530 = DIRECTION('',(0.,1.,0.));
#531 = DIRECTION('',(0.,0.,1.));
#532 = PLANE('',#533);
#533 = AXIS2_PLACEMENT_3D('',#534,#535,#536);
#534 = CARTESIAN_POINT('',(108.6639306904,-16.,-3.104268420234));
#535 = DIRECTION('',(-0.,-1.,-0.));
#536 = DIRECTION('',(0.,0.,-1.));
#537 = ADVANCED_FACE('',(#538),#588,.T.);
#538 = FACE_BOUND('',#539,.T.);
#539 = EDGE_LOOP('',(#540,#550,#558,#566,#574,#580,#581,#582));
#540 = ORIENTED_EDGE('',*,*,#541,.T.);
#541 = EDGE_CURVE('',#542,#544,#546,.T.);
#542 = VERTEX_POINT('',#543);
#543 = CARTESIAN_POINT('',(150.,-15.25,39.25));
#544 = VERTEX_POINT('',#545);
#545 = CARTESIAN_POINT('',(150.,15.25,39.25));
#546 = LINE('',#547,#548);
#547 = CARTESIAN_POINT('',(150.,-17.,39.25));
#548 = VECTOR('',#549,1.);
#549 = DIRECTION('',(0.,1.,0.));
#550 = ORIENTED_EDGE('',*,*,#551,.F.);
#551 = EDGE_CURVE('',#552,#544,#554,.T.);
#552 = VERTEX_POINT('',#553);
#553 = CARTESIAN_POINT('',(150.,16.,38.5));
#554 = LINE('',#555,#556);
#555 = CARTESIAN_POINT('',(150.,19.,35.5));
#556 = VECTOR('',#557,1.);
#557 = DIRECTION('',(0.,-0.707106781187,0.707106781187));
#558 = ORIENTED_EDGE('',*,*,#559,.F.);
#559 = EDGE_CURVE('',#560,#552,#562,.T.);
#560 = VERTEX_POINT('',#561);
#561 = CARTESIAN_POINT('',(150.,16.,39.25));
#562 = LINE('',#563,#564);
#563 = CARTESIAN_POINT('',(150.,16.,12.447865789883));
#564 = VECTOR('',#565,1.);
#565 = DIRECTION('',(-0.,0.,-1.));
#566 = ORIENTED_EDGE('',*,*,#567,.F.);
#567 = EDGE_CURVE('',#568,#560,#570,.T.);
#568 = VERTEX_POINT('',#569);
#569 = CARTESIAN_POINT('',(150.,16.,40.));
#570 = LINE('',#571,#572);
#571 = CARTESIAN_POINT('',(150.,16.,12.447865789883));
#572 = VECTOR('',#573,1.);
#573 = DIRECTION('',(-0.,0.,-1.));
#574 = ORIENTED_EDGE('',*,*,#575,.F.);
#575 = EDGE_CURVE('',#32,#568,#576,.T.);
#576 = LINE('',#577,#578);
#577 = CARTESIAN_POINT('',(150.,-17.,40.));
#578 = VECTOR('',#579,1.);
#579 = DIRECTION('',(0.,1.,0.));
#580 = ORIENTED_EDGE('',*,*,#31,.F.);
#581 = ORIENTED_EDGE('',*,*,#21,.T.);
#582 = ORIENTED_EDGE('',*,*,#583,.T.);
#583 = EDGE_CURVE('',#24,#542,#584,.T.);
#584 = LINE('',#585,#586);
#585 = CARTESIAN_POINT('',(150.,-19.,35.5));
#586 = VECTOR('',#587,1.);
#587 = DIRECTION('',(0.,0.707106781187,0.707106781187));
#588 = PLANE('',#589);
#589 = AXIS2_PLACEMENT_3D('',#590,#591,#592);
#590 = CARTESIAN_POINT('',(150.,-20.,28.));
#591 = DIRECTION('',(1.,0.,-0.));
#592 = DIRECTION('',(0.,0.,1.));
#593 = ADVANCED_FACE('',(#594),#613,.T.);
#594 = FACE_BOUND('',#595,.T.);
#595 = EDGE_LOOP('',(#596,#597,#598,#606));
#596 = ORIENTED_EDGE('',*,*,#583,.F.);
#597 = ORIENTED_EDGE('',*,*,#515,.T.);
#598 = ORIENTED_EDGE('',*,*,#599,.T.);
#599 = EDGE_CURVE('',#508,#600,#602,.T.);
#600 = VERTEX_POINT('',#601);
#601 = CARTESIAN_POINT('',(150.,-15.25,31.75));
#602 = LINE('',#603,#604);
#603 = CARTESIAN_POINT('',(150.,-19.,35.5));
#604 = VECTOR('',#605,1.);
#605 = DIRECTION('',(-0.,0.707106781187,-0.707106781187));
#606 = ORIENTED_EDGE('',*,*,#607,.F.);
#607 = EDGE_CURVE('',#542,#600,#608,.T.);
#608 = CIRCLE('',#609,3.75);
#609 = AXIS2_PLACEMENT_3D('',#610,#611,#612);
#610 = CARTESIAN_POINT('',(150.,-15.25,35.5));
#611 = DIRECTION('',(-0.,1.,0.));
#612 = DIRECTION('',(0.,0.,1.));
#613 = CONICAL_SURFACE('',#614,3.75,0.785398163397);
#614 = AXIS2_PLACEMENT_3D('',#615,#616,#617);
#615 = CARTESIAN_POINT('',(150.,-15.25,35.5));
#616 = DIRECTION('',(-0.,1.,-0.));
#617 = DIRECTION('',(0.,0.,1.));
#618 = ADVANCED_FACE('',(#619),#638,.F.);
#619 = FACE_BOUND('',#620,.F.);
#620 = EDGE_LOOP('',(#621,#630,#631,#632));
#621 = ORIENTED_EDGE('',*,*,#622,.F.);
#622 = EDGE_CURVE('',#568,#623,#625,.T.);
#623 = VERTEX_POINT('',#624);
#624 = CARTESIAN_POINT('',(152.9632707354,16.,38.886595126181));
#625 = CIRCLE('',#626,4.5);
#626 = AXIS2_PLACEMENT_3D('',#627,#628,#629);
#627 = CARTESIAN_POINT('',(150.,16.,35.5));
#628 = DIRECTION('',(0.,1.,0.));
#629 = DIRECTION('',(0.,-0.,1.));
#630 = ORIENTED_EDGE('',*,*,#575,.F.);
#631 = ORIENTED_EDGE('',*,*,#39,.T.);
#632 = ORIENTED_EDGE('',*,*,#633,.T.);
#633 = EDGE_CURVE('',#40,#623,#634,.T.);
#634 = LINE('',#635,#636);
#635 = CARTESIAN_POINT('',(152.9632707354,-16.,38.886595126181));
#636 = VECTOR('',#637,1.);
#637 = DIRECTION('',(0.,1.,0.));
#638 = CYLINDRICAL_SURFACE('',#639,4.5);
#639 = AXIS2_PLACEMENT_3D('',#640,#641,#642);
#640 = CARTESIAN_POINT('',(150.,-17.,35.5));
#641 = DIRECTION('',(0.,1.,0.));
#642 = DIRECTION('',(0.,-0.,1.));
#643 = ADVANCED_FACE('',(#644),#687,.T.);
#644 = FACE_BOUND('',#645,.T.);
#645 = EDGE_LOOP('',(#646,#654,#655,#656,#657,#665,#673,#681));
#646 = ORIENTED_EDGE('',*,*,#647,.F.);
#647 = EDGE_CURVE('',#600,#648,#650,.T.);
#648 = VERTEX_POINT('',#649);
#649 = CARTESIAN_POINT('',(150.,15.25,31.75));
#650 = LINE('',#651,#652);
#651 = CARTESIAN_POINT('',(150.,-17.,31.75));
#652 = VECTOR('',#653,1.);
#653 = DIRECTION('',(0.,1.,0.));
#654 = ORIENTED_EDGE('',*,*,#599,.F.);
#655 = ORIENTED_EDGE('',*,*,#507,.F.);
#656 = ORIENTED_EDGE('',*,*,#499,.F.);
#657 = ORIENTED_EDGE('',*,*,#658,.T.);
#658 = EDGE_CURVE('',#491,#659,#661,.T.);
#659 = VERTEX_POINT('',#660);
#660 = CARTESIAN_POINT('',(150.,16.,31.));
#661 = LINE('',#662,#663);
#662 = CARTESIAN_POINT('',(150.,-17.,31.));
#663 = VECTOR('',#664,1.);
#664 = DIRECTION('',(0.,1.,0.));
#665 = ORIENTED_EDGE('',*,*,#666,.F.);
#666 = EDGE_CURVE('',#667,#659,#669,.T.);
#667 = VERTEX_POINT('',#668);
#668 = CARTESIAN_POINT('',(150.,16.,31.75));
#669 = LINE('',#670,#671);
#670 = CARTESIAN_POINT('',(150.,16.,12.447865789883));
#671 = VECTOR('',#672,1.);
#672 = DIRECTION('',(-0.,0.,-1.));
#673 = ORIENTED_EDGE('',*,*,#674,.T.);
#674 = EDGE_CURVE('',#667,#675,#677,.T.);
#675 = VERTEX_POINT('',#676);
#676 = CARTESIAN_POINT('',(150.,16.,32.5));
#677 = LINE('',#678,#679);
#678 = CARTESIAN_POINT('',(150.,16.,12.447865789883));
#679 = VECTOR('',#680,1.);
#680 = DIRECTION('',(0.,-0.,1.));
#681 = ORIENTED_EDGE('',*,*,#682,.T.);
#682 = EDGE_CURVE('',#675,#648,#683,.T.);
#683 = LINE('',#684,#685);
#684 = CARTESIAN_POINT('',(150.,19.,35.5));
#685 = VECTOR('',#686,1.);
#686 = DIRECTION('',(0.,-0.707106781187,-0.707106781187));
#687 = PLANE('',#688);
#688 = AXIS2_PLACEMENT_3D('',#689,#690,#691);
#689 = CARTESIAN_POINT('',(150.,-20.,28.));
#690 = DIRECTION('',(1.,0.,-0.));
#691 = DIRECTION('',(0.,0.,1.));
#692 = ADVANCED_FACE('',(#693),#711,.T.);
#693 = FACE_BOUND('',#694,.T.);
#694 = EDGE_LOOP('',(#695,#696,#697,#705));
#695 = ORIENTED_EDGE('',*,*,#48,.F.);
#696 = ORIENTED_EDGE('',*,*,#633,.T.);
#697 = ORIENTED_EDGE('',*,*,#698,.T.);
#698 = EDGE_CURVE('',#623,#699,#701,.T.);
#699 = VERTEX_POINT('',#700);
#700 = CARTESIAN_POINT('',(149.62919900363,16.,41.803907891485));
#701 = LINE('',#702,#703);
#702 = CARTESIAN_POINT('',(152.9632707354,16.,38.886595126181));
#703 = VECTOR('',#704,1.);
#704 = DIRECTION('',(-0.752576694707,0.,0.658504607869));
#705 = ORIENTED_EDGE('',*,*,#706,.T.);
#706 = EDGE_CURVE('',#699,#49,#707,.T.);
#707 = LINE('',#708,#709);
#708 = CARTESIAN_POINT('',(149.62919900363,-16.,41.803907891485));
#709 = VECTOR('',#710,1.);
#710 = DIRECTION('',(0.,-1.,0.));
#711 = PLANE('',#712);
#712 = AXIS2_PLACEMENT_3D('',#713,#714,#715);
#713 = CARTESIAN_POINT('',(152.9632707354,-16.,38.886595126181));
#714 = DIRECTION('',(0.658504607869,0.,0.752576694707));
#715 = DIRECTION('',(-0.752576694707,0.,0.658504607869));
#716 = ADVANCED_FACE('',(#717),#735,.T.);
#717 = FACE_BOUND('',#718,.T.);
#718 = EDGE_LOOP('',(#719,#720,#721,#729));
#719 = ORIENTED_EDGE('',*,*,#56,.F.);
#720 = ORIENTED_EDGE('',*,*,#706,.F.);
#721 = ORIENTED_EDGE('',*,*,#722,.T.);
#722 = EDGE_CURVE('',#699,#723,#725,.T.);
#723 = VERTEX_POINT('',#724);
#724 = CARTESIAN_POINT('',(146.0249223595,16.,49.01246117975));
#725 = LINE('',#726,#727);
#726 = CARTESIAN_POINT('',(150.0249223595,16.,41.01246117975));
#727 = VECTOR('',#728,1.);
#728 = DIRECTION('',(-0.4472135955,0.,0.894427191));
#729 = ORIENTED_EDGE('',*,*,#730,.F.);
#730 = EDGE_CURVE('',#57,#723,#731,.T.);
#731 = LINE('',#732,#733);
#732 = CARTESIAN_POINT('',(146.0249223595,-16.,49.01246117975));
#733 = VECTOR('',#734,1.);
#734 = DIRECTION('',(0.,1.,0.));
#735 = PLANE('',#736);
#736 = AXIS2_PLACEMENT_3D('',#737,#738,#739);
#737 = CARTESIAN_POINT('',(150.0249223595,-16.,41.01246117975));
#738 = DIRECTION('',(0.894427191,0.,0.4472135955));
#739 = DIRECTION('',(-0.4472135955,0.,0.894427191));
#740 = ADVANCED_FACE('',(#741),#760,.T.);
#741 = FACE_BOUND('',#742,.T.);
#742 = EDGE_LOOP('',(#743,#752,#753,#754));
#743 = ORIENTED_EDGE('',*,*,#744,.F.);
#744 = EDGE_CURVE('',#659,#745,#747,.T.);
#745 = VERTEX_POINT('',#746);
#746 = CARTESIAN_POINT('',(147.03672926459,16.,32.113404873819));
#747 = CIRCLE('',#748,4.5);
#748 = AXIS2_PLACEMENT_3D('',#749,#750,#751);
#749 = CARTESIAN_POINT('',(150.,16.,35.5));
#750 = DIRECTION('',(0.,1.,0.));
#751 = DIRECTION('',(0.,0.,1.));
#752 = ORIENTED_EDGE('',*,*,#658,.F.);
#753 = ORIENTED_EDGE('',*,*,#490,.T.);
#754 = ORIENTED_EDGE('',*,*,#755,.T.);
#755 = EDGE_CURVE('',#483,#745,#756,.T.);
#756 = LINE('',#757,#758);
#757 = CARTESIAN_POINT('',(147.03672926459,-16.,32.113404873819));
#758 = VECTOR('',#759,1.);
#759 = DIRECTION('',(0.,1.,0.));
#760 = CYLINDRICAL_SURFACE('',#761,4.5);
#761 = AXIS2_PLACEMENT_3D('',#762,#763,#764);
#762 = CARTESIAN_POINT('',(150.,-16.,35.5));
#763 = DIRECTION('',(0.,1.,0.));
#764 = DIRECTION('',(0.,0.,1.));
#765 = ADVANCED_FACE('',(#766),#785,.T.);
#766 = FACE_BOUND('',#767,.T.);
#767 = EDGE_LOOP('',(#768,#777,#783,#784));
#768 = ORIENTED_EDGE('',*,*,#769,.F.);
#769 = EDGE_CURVE('',#770,#723,#772,.T.);
#770 = VERTEX_POINT('',#771);
#771 = CARTESIAN_POINT('',(142.94288089928,16.,51.400110863348));
#772 = CIRCLE('',#773,4.5);
#773 = AXIS2_PLACEMENT_3D('',#774,#775,#776);
#774 = CARTESIAN_POINT('',(142.,16.,47.));
#775 = DIRECTION('',(0.,1.,0.));
#776 = DIRECTION('',(0.,0.,1.));
#777 = ORIENTED_EDGE('',*,*,#778,.F.);
#778 = EDGE_CURVE('',#65,#770,#779,.T.);
#779 = LINE('',#780,#781);
#780 = CARTESIAN_POINT('',(142.94288089928,-16.,51.400110863348));
#781 = VECTOR('',#782,1.);
#782 = DIRECTION('',(0.,1.,0.));
#783 = ORIENTED_EDGE('',*,*,#64,.T.);
#784 = ORIENTED_EDGE('',*,*,#730,.T.);
#785 = CYLINDRICAL_SURFACE('',#786,4.5);
#786 = AXIS2_PLACEMENT_3D('',#787,#788,#789);
#787 = CARTESIAN_POINT('',(142.,-16.,47.));
#788 = DIRECTION('',(0.,1.,0.));
#789 = DIRECTION('',(0.,0.,1.));
#790 = ADVANCED_FACE('',(#791),#809,.T.);
#791 = FACE_BOUND('',#792,.T.);
#792 = EDGE_LOOP('',(#793,#801,#807,#808));
#793 = ORIENTED_EDGE('',*,*,#794,.T.);
#794 = EDGE_CURVE('',#474,#795,#797,.T.);
#795 = VERTEX_POINT('',#796);
#796 = CARTESIAN_POINT('',(143.03672926459,16.,35.613404873819));
#797 = LINE('',#798,#799);
#798 = CARTESIAN_POINT('',(143.03672926459,-16.,35.613404873819));
#799 = VECTOR('',#800,1.);
#800 = DIRECTION('',(0.,1.,0.));
#801 = ORIENTED_EDGE('',*,*,#802,.T.);
#802 = EDGE_CURVE('',#795,#745,#803,.T.);
#803 = LINE('',#804,#805);
#804 = CARTESIAN_POINT('',(143.03672926459,16.,35.613404873819));
#805 = VECTOR('',#806,1.);
#806 = DIRECTION('',(0.752576694707,0.,-0.658504607869));
#807 = ORIENTED_EDGE('',*,*,#755,.F.);
#808 = ORIENTED_EDGE('',*,*,#482,.F.);
#809 = PLANE('',#810);
#810 = AXIS2_PLACEMENT_3D('',#811,#812,#813);
#811 = CARTESIAN_POINT('',(143.03672926459,-16.,35.613404873819));
#812 = DIRECTION('',(-0.658504607869,0.,-0.752576694707));
#813 = DIRECTION('',(0.752576694707,0.,-0.658504607869));
#814 = ADVANCED_FACE('',(#815),#833,.T.);
#815 = FACE_BOUND('',#816,.T.);
#816 = EDGE_LOOP('',(#817,#818,#826,#832));
#817 = ORIENTED_EDGE('',*,*,#778,.T.);
#818 = ORIENTED_EDGE('',*,*,#819,.T.);
#819 = EDGE_CURVE('',#770,#820,#822,.T.);
#820 = VERTEX_POINT('',#821);
#821 = CARTESIAN_POINT('',(128.94288089928,16.,54.400110863348));
#822 = LINE('',#823,#824);
#823 = CARTESIAN_POINT('',(142.94288089928,16.,51.400110863348));
#824 = VECTOR('',#825,1.);
#825 = DIRECTION('',(-0.977802414077,0.,0.209529088731));
#826 = ORIENTED_EDGE('',*,*,#827,.F.);
#827 = EDGE_CURVE('',#74,#820,#828,.T.);
#828 = LINE('',#829,#830);
#829 = CARTESIAN_POINT('',(128.94288089928,-16.,54.400110863348));
#830 = VECTOR('',#831,1.);
#831 = DIRECTION('',(0.,1.,0.));
#832 = ORIENTED_EDGE('',*,*,#73,.F.);
#833 = PLANE('',#834);
#834 = AXIS2_PLACEMENT_3D('',#835,#836,#837);
#835 = CARTESIAN_POINT('',(142.94288089928,-16.,51.400110863348));
#836 = DIRECTION('',(0.209529088731,0.,0.977802414077));
#837 = DIRECTION('',(-0.977802414077,0.,0.209529088731));
#838 = ADVANCED_FACE('',(#839),#858,.T.);
#839 = FACE_BOUND('',#840,.T.);
#840 = EDGE_LOOP('',(#841,#850,#851,#852));
#841 = ORIENTED_EDGE('',*,*,#842,.F.);
#842 = EDGE_CURVE('',#795,#843,#845,.T.);
#843 = VERTEX_POINT('',#844);
#844 = CARTESIAN_POINT('',(141.9750776405,16.,36.98753882025));
#845 = CIRCLE('',#846,4.5);
#846 = AXIS2_PLACEMENT_3D('',#847,#848,#849);
#847 = CARTESIAN_POINT('',(146.,16.,39.));
#848 = DIRECTION('',(0.,1.,0.));
#849 = DIRECTION('',(0.,0.,1.));
#850 = ORIENTED_EDGE('',*,*,#794,.F.);
#851 = ORIENTED_EDGE('',*,*,#473,.T.);
#852 = ORIENTED_EDGE('',*,*,#853,.T.);
#853 = EDGE_CURVE('',#466,#843,#854,.T.);
#854 = LINE('',#855,#856);
#855 = CARTESIAN_POINT('',(141.9750776405,-16.,36.98753882025));
#856 = VECTOR('',#857,1.);
#857 = DIRECTION('',(0.,1.,0.));
#858 = CYLINDRICAL_SURFACE('',#859,4.5);
#859 = AXIS2_PLACEMENT_3D('',#860,#861,#862);
#860 = CARTESIAN_POINT('',(146.,-16.,39.));
#861 = DIRECTION('',(0.,1.,0.));
#862 = DIRECTION('',(0.,0.,1.));
#863 = ADVANCED_FACE('',(#864),#893,.T.);
#864 = FACE_BOUND('',#865,.T.);
#865 = EDGE_LOOP('',(#866,#867,#868,#877,#886,#892));
#866 = ORIENTED_EDGE('',*,*,#81,.T.);
#867 = ORIENTED_EDGE('',*,*,#827,.T.);
#868 = ORIENTED_EDGE('',*,*,#869,.F.);
#869 = EDGE_CURVE('',#870,#820,#872,.T.);
#870 = VERTEX_POINT('',#871);
#871 = CARTESIAN_POINT('',(128.,16.,54.5));
#872 = CIRCLE('',#873,4.5);
#873 = AXIS2_PLACEMENT_3D('',#874,#875,#876);
#874 = CARTESIAN_POINT('',(128.,16.,50.));
#875 = DIRECTION('',(0.,1.,0.));
#876 = DIRECTION('',(0.,0.,1.));
#877 = ORIENTED_EDGE('',*,*,#878,.F.);
#878 = EDGE_CURVE('',#879,#870,#881,.T.);
#879 = VERTEX_POINT('',#880);
#880 = CARTESIAN_POINT('',(126.3287419564,16.,54.178145108984));
#881 = CIRCLE('',#882,4.5);
#882 = AXIS2_PLACEMENT_3D('',#883,#884,#885);
#883 = CARTESIAN_POINT('',(128.,16.,50.));
#884 = DIRECTION('',(0.,1.,0.));
#885 = DIRECTION('',(0.,0.,1.));
#886 = ORIENTED_EDGE('',*,*,#887,.F.);
#887 = EDGE_CURVE('',#91,#879,#888,.T.);
#888 = LINE('',#889,#890);
#889 = CARTESIAN_POINT('',(126.3287419564,-16.,54.178145108984));
#890 = VECTOR('',#891,1.);
#891 = DIRECTION('',(0.,1.,0.));
#892 = ORIENTED_EDGE('',*,*,#90,.T.);
#893 = CYLINDRICAL_SURFACE('',#894,4.5);
#894 = AXIS2_PLACEMENT_3D('',#895,#896,#897);
#895 = CARTESIAN_POINT('',(128.,-16.,50.));
#896 = DIRECTION('',(0.,1.,0.));
#897 = DIRECTION('',(0.,0.,1.));
#898 = ADVANCED_FACE('',(#899),#917,.T.);
#899 = FACE_BOUND('',#900,.T.);
#900 = EDGE_LOOP('',(#901,#902,#910,#916));
#901 = ORIENTED_EDGE('',*,*,#465,.F.);
#902 = ORIENTED_EDGE('',*,*,#903,.T.);
#903 = EDGE_CURVE('',#458,#904,#906,.T.);
#904 = VERTEX_POINT('',#905);
#905 = CARTESIAN_POINT('',(138.94231648809,16.,43.05306112507));
#906 = LINE('',#907,#908);
#907 = CARTESIAN_POINT('',(138.94231648809,-16.,43.05306112507));
#908 = VECTOR('',#909,1.);
#909 = DIRECTION('',(0.,1.,0.));
#910 = ORIENTED_EDGE('',*,*,#911,.T.);
#911 = EDGE_CURVE('',#904,#843,#912,.T.);
#912 = LINE('',#913,#914);
#913 = CARTESIAN_POINT('',(137.9750776405,16.,44.98753882025));
#914 = VECTOR('',#915,1.);
#915 = DIRECTION('',(0.4472135955,0.,-0.894427191));
#916 = ORIENTED_EDGE('',*,*,#853,.F.);
#917 = PLANE('',#918);
#918 = AXIS2_PLACEMENT_3D('',#919,#920,#921);
#919 = CARTESIAN_POINT('',(137.9750776405,-16.,44.98753882025));
#920 = DIRECTION('',(-0.894427191,0.,-0.4472135955));
#921 = DIRECTION('',(0.4472135955,0.,-0.894427191));
#922 = ADVANCED_FACE('',(#923),#941,.T.);
#923 = FACE_BOUND('',#924,.T.);
#924 = EDGE_LOOP('',(#925,#926,#934,#940));
#925 = ORIENTED_EDGE('',*,*,#457,.F.);
#926 = ORIENTED_EDGE('',*,*,#927,.T.);
#927 = EDGE_CURVE('',#450,#928,#930,.T.);
#928 = VERTEX_POINT('',#929);
#929 = CARTESIAN_POINT('',(128.3980095099,16.,45.312555477539));
#930 = LINE('',#931,#932);
#931 = CARTESIAN_POINT('',(128.3980095099,-16.,45.312555477539));
#932 = VECTOR('',#933,1.);
#933 = DIRECTION('',(0.,1.,0.));
#934 = ORIENTED_EDGE('',*,*,#935,.T.);
#935 = EDGE_CURVE('',#928,#904,#936,.T.);
#936 = LINE('',#937,#938);
#937 = CARTESIAN_POINT('',(127.05711910071,16.,45.599889136652));
#938 = VECTOR('',#939,1.);
#939 = DIRECTION('',(0.977802414077,0.,-0.209529088731));
#940 = ORIENTED_EDGE('',*,*,#903,.F.);
#941 = PLANE('',#942);
#942 = AXIS2_PLACEMENT_3D('',#943,#944,#945);
#943 = CARTESIAN_POINT('',(127.05711910071,-16.,45.599889136652));
#944 = DIRECTION('',(-0.209529088731,0.,-0.977802414077));
#945 = DIRECTION('',(0.977802414077,0.,-0.209529088731));
#946 = ADVANCED_FACE('',(#947),#965,.T.);
#947 = FACE_BOUND('',#948,.T.);
#948 = EDGE_LOOP('',(#949,#950,#958,#964));
#949 = ORIENTED_EDGE('',*,*,#887,.T.);
#950 = ORIENTED_EDGE('',*,*,#951,.T.);
#951 = EDGE_CURVE('',#879,#952,#954,.T.);
#952 = VERTEX_POINT('',#953);
#953 = CARTESIAN_POINT('',(111.3287419564,16.,48.178145108984));
#954 = LINE('',#955,#956);
#955 = CARTESIAN_POINT('',(126.3287419564,16.,54.178145108984));
#956 = VECTOR('',#957,1.);
#957 = DIRECTION('',(-0.928476690885,0.,-0.371390676354));
#958 = ORIENTED_EDGE('',*,*,#959,.F.);
#959 = EDGE_CURVE('',#100,#952,#960,.T.);
#960 = LINE('',#961,#962);
#961 = CARTESIAN_POINT('',(111.3287419564,-16.,48.178145108984));
#962 = VECTOR('',#963,1.);
#963 = DIRECTION('',(0.,1.,0.));
#964 = ORIENTED_EDGE('',*,*,#99,.F.);
#965 = PLANE('',#966);
#966 = AXIS2_PLACEMENT_3D('',#967,#968,#969);
#967 = CARTESIAN_POINT('',(126.3287419564,-16.,54.178145108984));
#968 = DIRECTION('',(-0.371390676354,0.,0.928476690885));
#969 = DIRECTION('',(-0.928476690885,0.,-0.371390676354));
#970 = ADVANCED_FACE('',(#971),#989,.T.);
#971 = FACE_BOUND('',#972,.T.);
#972 = EDGE_LOOP('',(#973,#974,#982,#988));
#973 = ORIENTED_EDGE('',*,*,#449,.F.);
#974 = ORIENTED_EDGE('',*,*,#975,.T.);
#975 = EDGE_CURVE('',#442,#976,#978,.T.);
#976 = VERTEX_POINT('',#977);
#977 = CARTESIAN_POINT('',(116.0072203326,16.,40.356239806622));
#978 = LINE('',#979,#980);
#979 = CARTESIAN_POINT('',(116.0072203326,-16.,40.356239806622));
#980 = VECTOR('',#981,1.);
#981 = DIRECTION('',(0.,1.,0.));
#982 = ORIENTED_EDGE('',*,*,#983,.T.);
#983 = EDGE_CURVE('',#976,#928,#984,.T.);
#984 = LINE('',#985,#986);
#985 = CARTESIAN_POINT('',(114.67125804359,16.,39.821854891016));
#986 = VECTOR('',#987,1.);
#987 = DIRECTION('',(0.928476690885,0.,0.371390676354));
#988 = ORIENTED_EDGE('',*,*,#927,.F.);
#989 = PLANE('',#990);
#990 = AXIS2_PLACEMENT_3D('',#991,#992,#993);
#991 = CARTESIAN_POINT('',(114.67125804359,-16.,39.821854891016));
#992 = DIRECTION('',(0.371390676354,0.,-0.928476690885));
#993 = DIRECTION('',(0.928476690885,0.,0.371390676354));
#994 = ADVANCED_FACE('',(#995),#1014,.T.);
#995 = FACE_BOUND('',#996,.T.);
#996 = EDGE_LOOP('',(#997,#998,#999,#1008));
#997 = ORIENTED_EDGE('',*,*,#107,.T.);
#998 = ORIENTED_EDGE('',*,*,#959,.T.);
#999 = ORIENTED_EDGE('',*,*,#1000,.F.);
#1000 = EDGE_CURVE('',#1001,#952,#1003,.T.);
#1001 = VERTEX_POINT('',#1002);
#1002 = CARTESIAN_POINT('',(109.2146968608,16.,46.433409160911));
#1003 = CIRCLE('',#1004,4.5);
#1004 = AXIS2_PLACEMENT_3D('',#1005,#1006,#1007);
#1005 = CARTESIAN_POINT('',(113.,16.,44.));
#1006 = DIRECTION('',(0.,1.,0.));
#1007 = DIRECTION('',(0.,0.,1.));
#1008 = ORIENTED_EDGE('',*,*,#1009,.F.);
#1009 = EDGE_CURVE('',#108,#1001,#1010,.T.);
#1010 = LINE('',#1011,#1012);
#1011 = CARTESIAN_POINT('',(109.2146968608,-16.,46.433409160911));
#1012 = VECTOR('',#1013,1.);
#1013 = DIRECTION('',(0.,1.,0.));
#1014 = CYLINDRICAL_SURFACE('',#1015,4.5);
#1015 = AXIS2_PLACEMENT_3D('',#1016,#1017,#1018);
#1016 = CARTESIAN_POINT('',(113.,-16.,44.));
#1017 = DIRECTION('',(0.,1.,0.));
#1018 = DIRECTION('',(0.,0.,1.));
#1019 = ADVANCED_FACE('',(#1020),#1038,.T.);
#1020 = FACE_BOUND('',#1021,.T.);
#1021 = EDGE_LOOP('',(#1022,#1023,#1031,#1037));
#1022 = ORIENTED_EDGE('',*,*,#441,.F.);
#1023 = ORIENTED_EDGE('',*,*,#1024,.T.);
#1024 = EDGE_CURVE('',#434,#1025,#1027,.T.);
#1025 = VERTEX_POINT('',#1026);
#1026 = CARTESIAN_POINT('',(108.2188999571,16.,28.24107477806));
#1027 = LINE('',#1028,#1029);
#1028 = CARTESIAN_POINT('',(108.2188999571,-16.,28.24107477806));
#1029 = VECTOR('',#1030,1.);
#1030 = DIRECTION('',(0.,1.,0.));
#1031 = ORIENTED_EDGE('',*,*,#1032,.T.);
#1032 = EDGE_CURVE('',#1025,#976,#1033,.T.);
#1033 = LINE('',#1034,#1035);
#1034 = CARTESIAN_POINT('',(107.78530313919,16.,27.566590839089));
#1035 = VECTOR('',#1036,1.);
#1036 = DIRECTION('',(0.540757591313,0.,0.841178475377));
#1037 = ORIENTED_EDGE('',*,*,#975,.F.);
#1038 = PLANE('',#1039);
#1039 = AXIS2_PLACEMENT_3D('',#1040,#1041,#1042);
#1040 = CARTESIAN_POINT('',(107.78530313919,-16.,27.566590839089));
#1041 = DIRECTION('',(0.841178475377,0.,-0.540757591313));
#1042 = DIRECTION('',(0.540757591313,0.,0.841178475377));
#1043 = ADVANCED_FACE('',(#1044),#1062,.T.);
#1044 = FACE_BOUND('',#1045,.T.);
#1045 = EDGE_LOOP('',(#1046,#1047,#1055,#1061));
#1046 = ORIENTED_EDGE('',*,*,#1009,.T.);
#1047 = ORIENTED_EDGE('',*,*,#1048,.T.);
#1048 = EDGE_CURVE('',#1001,#1049,#1051,.T.);
#1049 = VERTEX_POINT('',#1050);
#1050 = CARTESIAN_POINT('',(100.2146968608,16.,32.433409160911));
#1051 = LINE('',#1052,#1053);
#1052 = CARTESIAN_POINT('',(109.2146968608,16.,46.433409160911));
#1053 = VECTOR('',#1054,1.);
#1054 = DIRECTION('',(-0.540757591313,0.,-0.841178475377));
#1055 = ORIENTED_EDGE('',*,*,#1056,.F.);
#1056 = EDGE_CURVE('',#117,#1049,#1057,.T.);
#1057 = LINE('',#1058,#1059);
#1058 = CARTESIAN_POINT('',(100.2146968608,-16.,32.433409160911));
#1059 = VECTOR('',#1060,1.);
#1060 = DIRECTION('',(0.,1.,0.));
#1061 = ORIENTED_EDGE('',*,*,#116,.F.);
#1062 = PLANE('',#1063);
#1063 = AXIS2_PLACEMENT_3D('',#1064,#1065,#1066);
#1064 = CARTESIAN_POINT('',(109.2146968608,-16.,46.433409160911));
#1065 = DIRECTION('',(-0.841178475377,0.,0.540757591313));
#1066 = DIRECTION('',(-0.540757591313,0.,-0.841178475377));
#1067 = ADVANCED_FACE('',(#1068),#1086,.T.);
#1068 = FACE_BOUND('',#1069,.T.);
#1069 = EDGE_LOOP('',(#1070,#1071,#1079,#1085));
#1070 = ORIENTED_EDGE('',*,*,#433,.F.);
#1071 = ORIENTED_EDGE('',*,*,#1072,.T.);
#1072 = EDGE_CURVE('',#426,#1073,#1075,.T.);
#1073 = VERTEX_POINT('',#1074);
#1074 = CARTESIAN_POINT('',(104.5,16.,11.506024971091));
#1075 = LINE('',#1076,#1077);
#1076 = CARTESIAN_POINT('',(104.5,-16.,11.506024971091));
#1077 = VECTOR('',#1078,1.);
#1078 = DIRECTION('',(0.,1.,0.));
#1079 = ORIENTED_EDGE('',*,*,#1080,.T.);
#1080 = EDGE_CURVE('',#1073,#1025,#1081,.T.);
#1081 = LINE('',#1082,#1083);
#1082 = CARTESIAN_POINT('',(104.39284177082,16.,11.023812939816));
#1083 = VECTOR('',#1084,1.);
#1084 = DIRECTION('',(0.216930457819,0.,0.976187060184));
#1085 = ORIENTED_EDGE('',*,*,#1024,.F.);
#1086 = PLANE('',#1087);
#1087 = AXIS2_PLACEMENT_3D('',#1088,#1089,#1090);
#1088 = CARTESIAN_POINT('',(104.39284177082,-16.,11.023812939816));
#1089 = DIRECTION('',(0.976187060184,0.,-0.216930457819));
#1090 = DIRECTION('',(0.216930457819,0.,0.976187060184));
#1091 = ADVANCED_FACE('',(#1092),#1111,.T.);
#1092 = FACE_BOUND('',#1093,.T.);
#1093 = EDGE_LOOP('',(#1094,#1095,#1096,#1105));
#1094 = ORIENTED_EDGE('',*,*,#124,.T.);
#1095 = ORIENTED_EDGE('',*,*,#1056,.T.);
#1096 = ORIENTED_EDGE('',*,*,#1097,.F.);
#1097 = EDGE_CURVE('',#1098,#1049,#1100,.T.);
#1098 = VERTEX_POINT('',#1099);
#1099 = CARTESIAN_POINT('',(99.607158229172,16.,30.976187060184));
#1100 = CIRCLE('',#1101,4.5);
#1101 = AXIS2_PLACEMENT_3D('',#1102,#1103,#1104);
#1102 = CARTESIAN_POINT('',(104.,16.,30.));
#1103 = DIRECTION('',(0.,1.,0.));
#1104 = DIRECTION('',(0.,0.,1.));
#1105 = ORIENTED_EDGE('',*,*,#1106,.F.);
#1106 = EDGE_CURVE('',#125,#1098,#1107,.T.);
#1107 = LINE('',#1108,#1109);
#1108 = CARTESIAN_POINT('',(99.607158229172,-16.,30.976187060184));
#1109 = VECTOR('',#1110,1.);
#1110 = DIRECTION('',(0.,1.,0.));
#1111 = CYLINDRICAL_SURFACE('',#1112,4.5);
#1112 = AXIS2_PLACEMENT_3D('',#1113,#1114,#1115);
#1113 = CARTESIAN_POINT('',(104.,-16.,30.));
#1114 = DIRECTION('',(0.,1.,0.));
#1115 = DIRECTION('',(0.,0.,1.));
#1116 = ADVANCED_FACE('',(#1117),#1135,.T.);
#1117 = FACE_BOUND('',#1118,.T.);
#1118 = EDGE_LOOP('',(#1119,#1120,#1128,#1134));
#1119 = ORIENTED_EDGE('',*,*,#425,.F.);
#1120 = ORIENTED_EDGE('',*,*,#1121,.T.);
#1121 = EDGE_CURVE('',#418,#1122,#1124,.T.);
#1122 = VERTEX_POINT('',#1123);
#1123 = CARTESIAN_POINT('',(104.5,16.,5.));
#1124 = LINE('',#1125,#1126);
#1125 = CARTESIAN_POINT('',(104.5,-16.,5.));
#1126 = VECTOR('',#1127,1.);
#1127 = DIRECTION('',(0.,1.,0.));
#1128 = ORIENTED_EDGE('',*,*,#1129,.T.);
#1129 = EDGE_CURVE('',#1122,#1073,#1130,.T.);
#1130 = LINE('',#1131,#1132);
#1131 = CARTESIAN_POINT('',(104.5,16.,0.));
#1132 = VECTOR('',#1133,1.);
#1133 = DIRECTION('',(0.,0.,1.));
#1134 = ORIENTED_EDGE('',*,*,#1072,.F.);
#1135 = PLANE('',#1136);
#1136 = AXIS2_PLACEMENT_3D('',#1137,#1138,#1139);
#1137 = CARTESIAN_POINT('',(104.5,-16.,0.));
#1138 = DIRECTION('',(1.,0.,0.));
#1139 = DIRECTION('',(0.,0.,1.));
#1140 = ADVANCED_FACE('',(#1141),#1159,.T.);
#1141 = FACE_BOUND('',#1142,.T.);
#1142 = EDGE_LOOP('',(#1143,#1144,#1145,#1153));
#1143 = ORIENTED_EDGE('',*,*,#133,.F.);
#1144 = ORIENTED_EDGE('',*,*,#1106,.T.);
#1145 = ORIENTED_EDGE('',*,*,#1146,.T.);
#1146 = EDGE_CURVE('',#1098,#1147,#1149,.T.);
#1147 = VERTEX_POINT('',#1148);
#1148 = CARTESIAN_POINT('',(97.302433315197,16.,20.604924947295));
#1149 = LINE('',#1150,#1151);
#1150 = CARTESIAN_POINT('',(99.607158229172,16.,30.976187060184));
#1151 = VECTOR('',#1152,1.);
#1152 = DIRECTION('',(-0.216930457819,0.,-0.976187060184));
#1153 = ORIENTED_EDGE('',*,*,#1154,.F.);
#1154 = EDGE_CURVE('',#134,#1147,#1155,.T.);
#1155 = LINE('',#1156,#1157);
#1156 = CARTESIAN_POINT('',(97.302433315197,-16.,20.604924947295));
#1157 = VECTOR('',#1158,1.);
#1158 = DIRECTION('',(0.,1.,0.));
#1159 = PLANE('',#1160);
#1160 = AXIS2_PLACEMENT_3D('',#1161,#1162,#1163);
#1161 = CARTESIAN_POINT('',(99.607158229172,-16.,30.976187060184));
#1162 = DIRECTION('',(-0.976187060184,0.,0.216930457819));
#1163 = DIRECTION('',(-0.216930457819,0.,-0.976187060184));
#1164 = ADVANCED_FACE('',(#1165),#1183,.T.);
#1165 = FACE_BOUND('',#1166,.T.);
#1166 = EDGE_LOOP('',(#1167,#1168,#1176,#1182));
#1167 = ORIENTED_EDGE('',*,*,#417,.F.);
#1168 = ORIENTED_EDGE('',*,*,#1169,.T.);
#1169 = EDGE_CURVE('',#409,#1170,#1172,.T.);
#1170 = VERTEX_POINT('',#1171);
#1171 = CARTESIAN_POINT('',(145.,16.,5.));
#1172 = LINE('',#1173,#1174);
#1173 = CARTESIAN_POINT('',(145.,-16.,5.));
#1174 = VECTOR('',#1175,1.);
#1175 = DIRECTION('',(0.,1.,0.));
#1176 = ORIENTED_EDGE('',*,*,#1177,.T.);
#1177 = EDGE_CURVE('',#1170,#1122,#1178,.T.);
#1178 = LINE('',#1179,#1180);
#1179 = CARTESIAN_POINT('',(145.,16.,5.));
#1180 = VECTOR('',#1181,1.);
#1181 = DIRECTION('',(-1.,0.,0.));
#1182 = ORIENTED_EDGE('',*,*,#1121,.F.);
#1183 = PLANE('',#1184);
#1184 = AXIS2_PLACEMENT_3D('',#1185,#1186,#1187);
#1185 = CARTESIAN_POINT('',(145.,-16.,5.));
#1186 = DIRECTION('',(0.,0.,1.));
#1187 = DIRECTION('',(-1.,0.,0.));
#1188 = ADVANCED_FACE('',(#1189),#1208,.T.);
#1189 = FACE_BOUND('',#1190,.T.);
#1190 = EDGE_LOOP('',(#1191,#1192,#1193,#1202));
#1191 = ORIENTED_EDGE('',*,*,#141,.T.);
#1192 = ORIENTED_EDGE('',*,*,#1154,.T.);
#1193 = ORIENTED_EDGE('',*,*,#1194,.F.);
#1194 = EDGE_CURVE('',#1195,#1147,#1197,.T.);
#1195 = VERTEX_POINT('',#1196);
#1196 = CARTESIAN_POINT('',(96.721910214544,16.,19.82116099192));
#1197 = CIRCLE('',#1198,3.75);
#1198 = AXIS2_PLACEMENT_3D('',#1199,#1200,#1201);
#1199 = CARTESIAN_POINT('',(100.,16.,18.));
#1200 = DIRECTION('',(0.,1.,0.));
#1201 = DIRECTION('',(0.,0.,1.));
#1202 = ORIENTED_EDGE('',*,*,#1203,.F.);
#1203 = EDGE_CURVE('',#142,#1195,#1204,.T.);
#1204 = LINE('',#1205,#1206);
#1205 = CARTESIAN_POINT('',(96.721910214544,-16.,19.82116099192));
#1206 = VECTOR('',#1207,1.);
#1207 = DIRECTION('',(0.,1.,0.));
#1208 = CYLINDRICAL_SURFACE('',#1209,3.75);
#1209 = AXIS2_PLACEMENT_3D('',#1210,#1211,#1212);
#1210 = CARTESIAN_POINT('',(100.,-16.,18.));
#1211 = DIRECTION('',(0.,1.,0.));
#1212 = DIRECTION('',(0.,0.,1.));
#1213 = ADVANCED_FACE('',(#1214),#1233,.T.);
#1214 = FACE_BOUND('',#1215,.T.);
#1215 = EDGE_LOOP('',(#1216,#1225,#1226,#1227));
#1216 = ORIENTED_EDGE('',*,*,#1217,.F.);
#1217 = EDGE_CURVE('',#1170,#1218,#1220,.T.);
#1218 = VERTEX_POINT('',#1219);
#1219 = CARTESIAN_POINT('',(149.6933817597,16.,-1.723997580529));
#1220 = CIRCLE('',#1221,5.);
#1221 = AXIS2_PLACEMENT_3D('',#1222,#1223,#1224);
#1222 = CARTESIAN_POINT('',(145.,16.,0.));
#1223 = DIRECTION('',(0.,1.,0.));
#1224 = DIRECTION('',(0.,0.,1.));
#1225 = ORIENTED_EDGE('',*,*,#1169,.F.);
#1226 = ORIENTED_EDGE('',*,*,#408,.T.);
#1227 = ORIENTED_EDGE('',*,*,#1228,.T.);
#1228 = EDGE_CURVE('',#401,#1218,#1229,.T.);
#1229 = LINE('',#1230,#1231);
#1230 = CARTESIAN_POINT('',(149.6933817597,-16.,-1.723997580529));
#1231 = VECTOR('',#1232,1.);
#1232 = DIRECTION('',(0.,1.,0.));
#1233 = CYLINDRICAL_SURFACE('',#1234,5.);
#1234 = AXIS2_PLACEMENT_3D('',#1235,#1236,#1237);
#1235 = CARTESIAN_POINT('',(145.,-16.,0.));
#1236 = DIRECTION('',(0.,1.,0.));
#1237 = DIRECTION('',(0.,0.,1.));
#1238 = ADVANCED_FACE('',(#1239),#1257,.T.);
#1239 = FACE_BOUND('',#1240,.T.);
#1240 = EDGE_LOOP('',(#1241,#1242,#1243,#1251));
#1241 = ORIENTED_EDGE('',*,*,#150,.F.);
#1242 = ORIENTED_EDGE('',*,*,#1203,.T.);
#1243 = ORIENTED_EDGE('',*,*,#1244,.T.);
#1244 = EDGE_CURVE('',#1195,#1245,#1247,.T.);
#1245 = VERTEX_POINT('',#1246);
#1246 = CARTESIAN_POINT('',(88.4879318857,16.,5.));
#1247 = LINE('',#1248,#1249);
#1248 = CARTESIAN_POINT('',(96.721910214544,16.,19.82116099192));
#1249 = VECTOR('',#1250,1.);
#1250 = DIRECTION('',(-0.485642931179,0.,-0.874157276121));
#1251 = ORIENTED_EDGE('',*,*,#1252,.T.);
#1252 = EDGE_CURVE('',#1245,#151,#1253,.T.);
#1253 = LINE('',#1254,#1255);
#1254 = CARTESIAN_POINT('',(88.4879318857,-16.,5.));
#1255 = VECTOR('',#1256,1.);
#1256 = DIRECTION('',(0.,-1.,0.));
#1257 = PLANE('',#1258);
#1258 = AXIS2_PLACEMENT_3D('',#1259,#1260,#1261);
#1259 = CARTESIAN_POINT('',(96.721910214544,-16.,19.82116099192));
#1260 = DIRECTION('',(-0.874157276121,0.,0.485642931179));
#1261 = DIRECTION('',(-0.485642931179,0.,-0.874157276121));
#1262 = ADVANCED_FACE('',(#1263),#1281,.T.);
#1263 = FACE_BOUND('',#1264,.T.);
#1264 = EDGE_LOOP('',(#1265,#1266,#1274,#1280));
#1265 = ORIENTED_EDGE('',*,*,#400,.F.);
#1266 = ORIENTED_EDGE('',*,*,#1267,.T.);
#1267 = EDGE_CURVE('',#392,#1268,#1270,.T.);
#1268 = VERTEX_POINT('',#1269);
#1269 = CARTESIAN_POINT('',(165.13344920365,16.,-10.03788005035));
#1270 = LINE('',#1271,#1272);
#1271 = CARTESIAN_POINT('',(165.13344920365,-16.,-10.03788005035));
#1272 = VECTOR('',#1273,1.);
#1273 = DIRECTION('',(0.,1.,0.));
#1274 = ORIENTED_EDGE('',*,*,#1275,.T.);
#1275 = EDGE_CURVE('',#1268,#1218,#1276,.T.);
#1276 = LINE('',#1277,#1278);
#1277 = CARTESIAN_POINT('',(165.13344920365,16.,-10.03788005035));
#1278 = VECTOR('',#1279,1.);
#1279 = DIRECTION('',(-0.880471099922,0.,0.474099823035));
#1280 = ORIENTED_EDGE('',*,*,#1228,.F.);
#1281 = PLANE('',#1282);
#1282 = AXIS2_PLACEMENT_3D('',#1283,#1284,#1285);
#1283 = CARTESIAN_POINT('',(165.13344920365,-16.,-10.03788005035));
#1284 = DIRECTION('',(0.474099823035,0.,0.880471099922));
#1285 = DIRECTION('',(-0.880471099922,0.,0.474099823035));
#1286 = ADVANCED_FACE('',(#1287),#1305,.T.);
#1287 = FACE_BOUND('',#1288,.T.);
#1288 = EDGE_LOOP('',(#1289,#1290,#1291,#1299));
#1289 = ORIENTED_EDGE('',*,*,#158,.F.);
#1290 = ORIENTED_EDGE('',*,*,#1252,.F.);
#1291 = ORIENTED_EDGE('',*,*,#1292,.T.);
#1292 = EDGE_CURVE('',#1245,#1293,#1295,.T.);
#1293 = VERTEX_POINT('',#1294);
#1294 = CARTESIAN_POINT('',(29.580398915498,16.,5.));
#1295 = LINE('',#1296,#1297);
#1296 = CARTESIAN_POINT('',(38.,16.,5.));
#1297 = VECTOR('',#1298,1.);
#1298 = DIRECTION('',(-1.,0.,0.));
#1299 = ORIENTED_EDGE('',*,*,#1300,.F.);
#1300 = EDGE_CURVE('',#159,#1293,#1301,.T.);
#1301 = LINE('',#1302,#1303);
#1302 = CARTESIAN_POINT('',(29.580398915498,-16.,5.));
#1303 = VECTOR('',#1304,1.);
#1304 = DIRECTION('',(0.,1.,0.));
#1305 = PLANE('',#1306);
#1306 = AXIS2_PLACEMENT_3D('',#1307,#1308,#1309);
#1307 = CARTESIAN_POINT('',(59.034165400599,3.126441616199E-16,5.));
#1308 = DIRECTION('',(0.,0.,1.));
#1309 = DIRECTION('',(1.,0.,0.));
#1310 = ADVANCED_FACE('',(#1311),#1330,.T.);
#1311 = FACE_BOUND('',#1312,.T.);
#1312 = EDGE_LOOP('',(#1313,#1322,#1323,#1324));
#1313 = ORIENTED_EDGE('',*,*,#1314,.F.);
#1314 = EDGE_CURVE('',#1268,#1315,#1317,.T.);
#1315 = VERTEX_POINT('',#1316);
#1316 = CARTESIAN_POINT('',(166.50555258368,16.,-11.17845767654));
#1317 = CIRCLE('',#1318,4.5);
#1318 = AXIS2_PLACEMENT_3D('',#1319,#1320,#1321);
#1319 = CARTESIAN_POINT('',(163.,16.,-14.));
#1320 = DIRECTION('',(0.,1.,0.));
#1321 = DIRECTION('',(0.,0.,1.));
#1322 = ORIENTED_EDGE('',*,*,#1267,.F.);
#1323 = ORIENTED_EDGE('',*,*,#391,.T.);
#1324 = ORIENTED_EDGE('',*,*,#1325,.T.);
#1325 = EDGE_CURVE('',#384,#1315,#1326,.T.);
#1326 = LINE('',#1327,#1328);
#1327 = CARTESIAN_POINT('',(166.50555258368,-16.,-11.17845767654));
#1328 = VECTOR('',#1329,1.);
#1329 = DIRECTION('',(0.,1.,0.));
#1330 = CYLINDRICAL_SURFACE('',#1331,4.5);
#1331 = AXIS2_PLACEMENT_3D('',#1332,#1333,#1334);
#1332 = CARTESIAN_POINT('',(163.,-16.,-14.));
#1333 = DIRECTION('',(0.,1.,0.));
#1334 = DIRECTION('',(0.,0.,1.));
#1335 = ADVANCED_FACE('',(#1336),#1365,.T.);
#1336 = FACE_BOUND('',#1337,.T.);
#1337 = EDGE_LOOP('',(#1338,#1339,#1340,#1349,#1358,#1364));
#1338 = ORIENTED_EDGE('',*,*,#166,.T.);
#1339 = ORIENTED_EDGE('',*,*,#1300,.T.);
#1340 = ORIENTED_EDGE('',*,*,#1341,.F.);
#1341 = EDGE_CURVE('',#1342,#1293,#1344,.T.);
#1342 = VERTEX_POINT('',#1343);
#1343 = CARTESIAN_POINT('',(-7.347880794884E-15,16.,30.));
#1344 = CIRCLE('',#1345,30.);
#1345 = AXIS2_PLACEMENT_3D('',#1346,#1347,#1348);
#1346 = CARTESIAN_POINT('',(0.,16.,0.));
#1347 = DIRECTION('',(0.,1.,0.));
#1348 = DIRECTION('',(0.,0.,1.));
#1349 = ORIENTED_EDGE('',*,*,#1350,.F.);
#1350 = EDGE_CURVE('',#1351,#1342,#1353,.T.);
#1351 = VERTEX_POINT('',#1352);
#1352 = CARTESIAN_POINT('',(29.580398915498,16.,-4.999999999999));
#1353 = CIRCLE('',#1354,30.);
#1354 = AXIS2_PLACEMENT_3D('',#1355,#1356,#1357);
#1355 = CARTESIAN_POINT('',(0.,16.,0.));
#1356 = DIRECTION('',(0.,1.,0.));
#1357 = DIRECTION('',(0.,0.,1.));
#1358 = ORIENTED_EDGE('',*,*,#1359,.F.);
#1359 = EDGE_CURVE('',#176,#1351,#1360,.T.);
#1360 = LINE('',#1361,#1362);
#1361 = CARTESIAN_POINT('',(29.580398915498,-16.,-5.));
#1362 = VECTOR('',#1363,1.);
#1363 = DIRECTION('',(0.,1.,0.));
#1364 = ORIENTED_EDGE('',*,*,#175,.T.);
#1365 = CYLINDRICAL_SURFACE('',#1366,30.);
#1366 = AXIS2_PLACEMENT_3D('',#1367,#1368,#1369);
#1367 = CARTESIAN_POINT('',(0.,-16.,0.));
#1368 = DIRECTION('',(0.,1.,0.));
#1369 = DIRECTION('',(0.,0.,1.));
#1370 = ADVANCED_FACE('',(#1371),#1389,.T.);
#1371 = FACE_BOUND('',#1372,.T.);
#1372 = EDGE_LOOP('',(#1373,#1374,#1382,#1388));
#1373 = ORIENTED_EDGE('',*,*,#383,.F.);
#1374 = ORIENTED_EDGE('',*,*,#1375,.F.);
#1375 = EDGE_CURVE('',#1376,#376,#1378,.T.);
#1376 = VERTEX_POINT('',#1377);
#1377 = CARTESIAN_POINT('',(199.00279628905,16.,-51.55382106807));
#1378 = LINE('',#1379,#1380);
#1379 = CARTESIAN_POINT('',(199.00279628905,-16.,-51.55382106807));
#1380 = VECTOR('',#1381,1.);
#1381 = DIRECTION('',(0.,-1.,0.));
#1382 = ORIENTED_EDGE('',*,*,#1383,.T.);
#1383 = EDGE_CURVE('',#1376,#1315,#1384,.T.);
#1384 = LINE('',#1385,#1386);
#1385 = CARTESIAN_POINT('',(199.50555258368,16.,-52.17845767654));
#1386 = VECTOR('',#1387,1.);
#1387 = DIRECTION('',(-0.627009405212,0.,0.779011685263));
#1388 = ORIENTED_EDGE('',*,*,#1325,.F.);
#1389 = PLANE('',#1390);
#1390 = AXIS2_PLACEMENT_3D('',#1391,#1392,#1393);
#1391 = CARTESIAN_POINT('',(199.50555258368,-16.,-52.17845767654));
#1392 = DIRECTION('',(0.779011685263,0.,0.627009405212));
#1393 = DIRECTION('',(-0.627009405212,0.,0.779011685263));
#1394 = ADVANCED_FACE('',(#1395),#1413,.T.);
#1395 = FACE_BOUND('',#1396,.T.);
#1396 = EDGE_LOOP('',(#1397,#1398,#1406,#1412));
#1397 = ORIENTED_EDGE('',*,*,#375,.F.);
#1398 = ORIENTED_EDGE('',*,*,#1399,.F.);
#1399 = EDGE_CURVE('',#1400,#368,#1402,.T.);
#1400 = VERTEX_POINT('',#1401);
#1401 = CARTESIAN_POINT('',(207.03630382265,16.,-56.37392558823));
#1402 = LINE('',#1403,#1404);
#1403 = CARTESIAN_POINT('',(207.03630382265,-16.,-56.37392558823));
#1404 = VECTOR('',#1405,1.);
#1405 = DIRECTION('',(0.,-1.,0.));
#1406 = ORIENTED_EDGE('',*,*,#1407,.T.);
#1407 = EDGE_CURVE('',#1400,#1376,#1408,.T.);
#1408 = LINE('',#1409,#1410);
#1409 = CARTESIAN_POINT('',(208.31523089942,16.,-57.14128183429));
#1410 = VECTOR('',#1411,1.);
#1411 = DIRECTION('',(-0.857492925712,0.,0.514495755428));
#1412 = ORIENTED_EDGE('',*,*,#1375,.T.);
#1413 = PLANE('',#1414);
#1414 = AXIS2_PLACEMENT_3D('',#1415,#1416,#1417);
#1415 = CARTESIAN_POINT('',(208.31523089942,-16.,-57.14128183429));
#1416 = DIRECTION('',(0.514495755428,0.,0.857492925712));
#1417 = DIRECTION('',(-0.857492925712,0.,0.514495755428));
#1418 = ADVANCED_FACE('',(#1419),#1437,.T.);
#1419 = FACE_BOUND('',#1420,.T.);
#1420 = EDGE_LOOP('',(#1421,#1422,#1423,#1431));
#1421 = ORIENTED_EDGE('',*,*,#184,.F.);
#1422 = ORIENTED_EDGE('',*,*,#1359,.T.);
#1423 = ORIENTED_EDGE('',*,*,#1424,.T.);
#1424 = EDGE_CURVE('',#1351,#1425,#1427,.T.);
#1425 = VERTEX_POINT('',#1426);
#1426 = CARTESIAN_POINT('',(136.79404231842,16.,-5.));
#1427 = LINE('',#1428,#1429);
#1428 = CARTESIAN_POINT('',(18.,16.,-5.));
#1429 = VECTOR('',#1430,1.);
#1430 = DIRECTION('',(1.,0.,0.));
#1431 = ORIENTED_EDGE('',*,*,#1432,.F.);
#1432 = EDGE_CURVE('',#185,#1425,#1433,.T.);
#1433 = LINE('',#1434,#1435);
#1434 = CARTESIAN_POINT('',(136.79404231842,-16.,-5.));
#1435 = VECTOR('',#1436,1.);
#1436 = DIRECTION('',(0.,1.,0.));
#1437 = PLANE('',#1438);
#1438 = AXIS2_PLACEMENT_3D('',#1439,#1440,#1441);
#1439 = CARTESIAN_POINT('',(83.18722061696,0.,-5.));
#1440 = DIRECTION('',(-0.,-0.,-1.));
#1441 = DIRECTION('',(-1.,0.,0.));
#1442 = ADVANCED_FACE('',(#1443),#1461,.T.);
#1443 = FACE_BOUND('',#1444,.T.);
#1444 = EDGE_LOOP('',(#1445,#1446,#1454,#1460));
#1445 = ORIENTED_EDGE('',*,*,#367,.F.);
#1446 = ORIENTED_EDGE('',*,*,#1447,.F.);
#1447 = EDGE_CURVE('',#1448,#360,#1450,.T.);
#1448 = VERTEX_POINT('',#1449);
#1449 = CARTESIAN_POINT('',(213.95386999869,16.,-55.68216897062));
#1450 = LINE('',#1451,#1452);
#1451 = CARTESIAN_POINT('',(213.95386999869,-16.,-55.68216897062));
#1452 = VECTOR('',#1453,1.);
#1453 = DIRECTION('',(0.,-1.,0.));
#1454 = ORIENTED_EDGE('',*,*,#1455,.T.);
#1455 = EDGE_CURVE('',#1448,#1400,#1456,.T.);
#1456 = LINE('',#1457,#1458);
#1457 = CARTESIAN_POINT('',(215.5522332644,16.,-55.52233264405));
#1458 = VECTOR('',#1459,1.);
#1459 = DIRECTION('',(-0.99503719021,0.,-9.9503719021E-02));
#1460 = ORIENTED_EDGE('',*,*,#1399,.T.);
#1461 = PLANE('',#1462);
#1462 = AXIS2_PLACEMENT_3D('',#1463,#1464,#1465);
#1463 = CARTESIAN_POINT('',(215.5522332644,-16.,-55.52233264405));
#1464 = DIRECTION('',(-9.9503719021E-02,0.,0.99503719021));
#1465 = DIRECTION('',(-0.99503719021,0.,-9.9503719021E-02));
#1466 = ADVANCED_FACE('',(#1467),#1485,.T.);
#1467 = FACE_BOUND('',#1468,.T.);
#1468 = EDGE_LOOP('',(#1469,#1470,#1471,#1479));
#1469 = ORIENTED_EDGE('',*,*,#192,.F.);
#1470 = ORIENTED_EDGE('',*,*,#1432,.T.);
#1471 = ORIENTED_EDGE('',*,*,#1472,.T.);
#1472 = EDGE_CURVE('',#1425,#1473,#1475,.T.);
#1473 = VERTEX_POINT('',#1474);
#1474 = CARTESIAN_POINT('',(160.06514914099,16.,-17.53059598138));
#1475 = LINE('',#1476,#1477);
#1476 = CARTESIAN_POINT('',(134.86655079634,16.,-3.96211994965));
#1477 = VECTOR('',#1478,1.);
#1478 = DIRECTION('',(0.880471099922,0.,-0.474099823035));
#1479 = ORIENTED_EDGE('',*,*,#1480,.F.);
#1480 = EDGE_CURVE('',#193,#1473,#1481,.T.);
#1481 = LINE('',#1482,#1483);
#1482 = CARTESIAN_POINT('',(160.06514914099,-16.,-17.53059598138));
#1483 = VECTOR('',#1484,1.);
#1484 = DIRECTION('',(0.,1.,0.));
#1485 = PLANE('',#1486);
#1486 = AXIS2_PLACEMENT_3D('',#1487,#1488,#1489);
#1487 = CARTESIAN_POINT('',(134.86655079634,-16.,-3.96211994965));
#1488 = DIRECTION('',(-0.474099823035,0.,-0.880471099922));
#1489 = DIRECTION('',(0.880471099922,0.,-0.474099823035));
#1490 = ADVANCED_FACE('',(#1491),#1509,.T.);
#1491 = FACE_BOUND('',#1492,.T.);
#1492 = EDGE_LOOP('',(#1493,#1494,#1502,#1508));
#1493 = ORIENTED_EDGE('',*,*,#359,.F.);
#1494 = ORIENTED_EDGE('',*,*,#1495,.F.);
#1495 = EDGE_CURVE('',#1496,#352,#1498,.T.);
#1496 = VERTEX_POINT('',#1497);
#1497 = CARTESIAN_POINT('',(217.87210992316,16.,-51.76392904615));
#1498 = LINE('',#1499,#1500);
#1499 = CARTESIAN_POINT('',(217.87210992316,-16.,-51.76392904615));
#1500 = VECTOR('',#1501,1.);
#1501 = DIRECTION('',(0.,-1.,0.));
#1502 = ORIENTED_EDGE('',*,*,#1503,.T.);
#1503 = EDGE_CURVE('',#1496,#1448,#1504,.T.);
#1504 = LINE('',#1505,#1506);
#1505 = CARTESIAN_POINT('',(218.81801948466,16.,-50.81801948466));
#1506 = VECTOR('',#1507,1.);
#1507 = DIRECTION('',(-0.707106781187,0.,-0.707106781187));
#1508 = ORIENTED_EDGE('',*,*,#1447,.T.);
#1509 = PLANE('',#1510);
#1510 = AXIS2_PLACEMENT_3D('',#1511,#1512,#1513);
#1511 = CARTESIAN_POINT('',(218.81801948466,-16.,-50.81801948466));
#1512 = DIRECTION('',(-0.707106781187,0.,0.707106781187));
#1513 = DIRECTION('',(-0.707106781187,0.,-0.707106781187));
#1514 = ADVANCED_FACE('',(#1515),#1533,.T.);
#1515 = FACE_BOUND('',#1516,.T.);
#1516 = EDGE_LOOP('',(#1517,#1518,#1519,#1527));
#1517 = ORIENTED_EDGE('',*,*,#200,.F.);
#1518 = ORIENTED_EDGE('',*,*,#1480,.T.);
#1519 = ORIENTED_EDGE('',*,*,#1520,.T.);
#1520 = EDGE_CURVE('',#1473,#1521,#1523,.T.);
#1521 = VERTEX_POINT('',#1522);
#1522 = CARTESIAN_POINT('',(192.49444741631,16.,-57.82154232345));
#1523 = LINE('',#1524,#1525);
#1524 = CARTESIAN_POINT('',(159.49444741631,16.,-16.82154232345));
#1525 = VECTOR('',#1526,1.);
#1526 = DIRECTION('',(0.627009405212,0.,-0.779011685263));
#1527 = ORIENTED_EDGE('',*,*,#1528,.F.);
#1528 = EDGE_CURVE('',#201,#1521,#1529,.T.);
#1529 = LINE('',#1530,#1531);
#1530 = CARTESIAN_POINT('',(192.49444741631,-16.,-57.82154232345));
#1531 = VECTOR('',#1532,1.);
#1532 = DIRECTION('',(0.,1.,0.));
#1533 = PLANE('',#1534);
#1534 = AXIS2_PLACEMENT_3D('',#1535,#1536,#1537);
#1535 = CARTESIAN_POINT('',(159.49444741631,-16.,-16.82154232345));
#1536 = DIRECTION('',(-0.779011685263,0.,-0.627009405212));
#1537 = DIRECTION('',(0.627009405212,0.,-0.779011685263));
#1538 = ADVANCED_FACE('',(#1539),#1557,.T.);
#1539 = FACE_BOUND('',#1540,.T.);
#1540 = EDGE_LOOP('',(#1541,#1542,#1550,#1556));
#1541 = ORIENTED_EDGE('',*,*,#351,.F.);
#1542 = ORIENTED_EDGE('',*,*,#1543,.F.);
#1543 = EDGE_CURVE('',#1544,#344,#1546,.T.);
#1544 = VERTEX_POINT('',#1545);
#1545 = CARTESIAN_POINT('',(219.5,16.,-44.03145118118));
#1546 = LINE('',#1547,#1548);
#1547 = CARTESIAN_POINT('',(219.5,-16.,-44.03145118118));
#1548 = VECTOR('',#1549,1.);
#1549 = DIRECTION('',(0.,-1.,0.));
#1550 = ORIENTED_EDGE('',*,*,#1551,.T.);
#1551 = EDGE_CURVE('',#1544,#1496,#1552,.T.);
#1552 = LINE('',#1553,#1554);
#1553 = CARTESIAN_POINT('',(219.59652596756,16.,-43.57295283527));
#1554 = VECTOR('',#1555,1.);
#1555 = DIRECTION('',(-0.20601048105,0.,-0.978549784987));
#1556 = ORIENTED_EDGE('',*,*,#1495,.T.);
#1557 = PLANE('',#1558);
#1558 = AXIS2_PLACEMENT_3D('',#1559,#1560,#1561);
#1559 = CARTESIAN_POINT('',(219.59652596756,-16.,-43.57295283527));
#1560 = DIRECTION('',(-0.978549784987,0.,0.20601048105));
#1561 = DIRECTION('',(-0.20601048105,0.,-0.978549784987));
#1562 = ADVANCED_FACE('',(#1563),#1582,.T.);
#1563 = FACE_BOUND('',#1564,.T.);
#1564 = EDGE_LOOP('',(#1565,#1574,#1580,#1581));
#1565 = ORIENTED_EDGE('',*,*,#1566,.F.);
#1566 = EDGE_CURVE('',#1567,#1521,#1569,.T.);
#1567 = VERTEX_POINT('',#1568);
#1568 = CARTESIAN_POINT('',(193.68476910057,16.,-58.8587181657));
#1569 = CIRCLE('',#1570,4.5);
#1570 = AXIS2_PLACEMENT_3D('',#1571,#1572,#1573);
#1571 = CARTESIAN_POINT('',(196.,16.,-55.));
#1572 = DIRECTION('',(0.,1.,0.));
#1573 = DIRECTION('',(0.,0.,1.));
#1574 = ORIENTED_EDGE('',*,*,#1575,.F.);
#1575 = EDGE_CURVE('',#209,#1567,#1576,.T.);
#1576 = LINE('',#1577,#1578);
#1577 = CARTESIAN_POINT('',(193.68476910057,-16.,-58.8587181657));
#1578 = VECTOR('',#1579,1.);
#1579 = DIRECTION('',(0.,1.,0.));
#1580 = ORIENTED_EDGE('',*,*,#208,.T.);
#1581 = ORIENTED_EDGE('',*,*,#1528,.T.);
#1582 = CYLINDRICAL_SURFACE('',#1583,4.5);
#1583 = AXIS2_PLACEMENT_3D('',#1584,#1585,#1586);
#1584 = CARTESIAN_POINT('',(196.,-16.,-55.));
#1585 = DIRECTION('',(0.,1.,0.));
#1586 = DIRECTION('',(0.,0.,1.));
#1587 = ADVANCED_FACE('',(#1588),#1606,.T.);
#1588 = FACE_BOUND('',#1589,.T.);
#1589 = EDGE_LOOP('',(#1590,#1591,#1599,#1605));
#1590 = ORIENTED_EDGE('',*,*,#343,.F.);
#1591 = ORIENTED_EDGE('',*,*,#1592,.T.);
#1592 = EDGE_CURVE('',#336,#1593,#1595,.T.);
#1593 = VERTEX_POINT('',#1594);
#1594 = CARTESIAN_POINT('',(219.5,16.,-40.));
#1595 = LINE('',#1596,#1597);
#1596 = CARTESIAN_POINT('',(219.5,-16.,-40.));
#1597 = VECTOR('',#1598,1.);
#1598 = DIRECTION('',(0.,1.,0.));
#1599 = ORIENTED_EDGE('',*,*,#1600,.T.);
#1600 = EDGE_CURVE('',#1593,#1544,#1601,.T.);
#1601 = LINE('',#1602,#1603);
#1602 = CARTESIAN_POINT('',(219.5,16.,-40.));
#1603 = VECTOR('',#1604,1.);
#1604 = DIRECTION('',(0.,0.,-1.));
#1605 = ORIENTED_EDGE('',*,*,#1543,.T.);
#1606 = PLANE('',#1607);
#1607 = AXIS2_PLACEMENT_3D('',#1608,#1609,#1610);
#1608 = CARTESIAN_POINT('',(219.5,-16.,-40.));
#1609 = DIRECTION('',(-1.,0.,0.));
#1610 = DIRECTION('',(0.,0.,-1.));
#1611 = ADVANCED_FACE('',(#1612),#1630,.T.);
#1612 = FACE_BOUND('',#1613,.T.);
#1613 = EDGE_LOOP('',(#1614,#1615,#1623,#1629));
#1614 = ORIENTED_EDGE('',*,*,#1575,.T.);
#1615 = ORIENTED_EDGE('',*,*,#1616,.T.);
#1616 = EDGE_CURVE('',#1567,#1617,#1619,.T.);
#1617 = VERTEX_POINT('',#1618);
#1618 = CARTESIAN_POINT('',(203.68476910057,16.,-64.8587181657));
#1619 = LINE('',#1620,#1621);
#1620 = CARTESIAN_POINT('',(193.68476910057,16.,-58.8587181657));
#1621 = VECTOR('',#1622,1.);
#1622 = DIRECTION('',(0.857492925712,0.,-0.514495755428));
#1623 = ORIENTED_EDGE('',*,*,#1624,.F.);
#1624 = EDGE_CURVE('',#218,#1617,#1625,.T.);
#1625 = LINE('',#1626,#1627);
#1626 = CARTESIAN_POINT('',(203.68476910057,-16.,-64.8587181657));
#1627 = VECTOR('',#1628,1.);
#1628 = DIRECTION('',(0.,1.,0.));
#1629 = ORIENTED_EDGE('',*,*,#217,.F.);
#1630 = PLANE('',#1631);
#1631 = AXIS2_PLACEMENT_3D('',#1632,#1633,#1634);
#1632 = CARTESIAN_POINT('',(193.68476910057,-16.,-58.8587181657));
#1633 = DIRECTION('',(-0.514495755428,0.,-0.857492925712));
#1634 = DIRECTION('',(0.857492925712,0.,-0.514495755428));
#1635 = ADVANCED_FACE('',(#1636),#1679,.T.);
#1636 = FACE_BOUND('',#1637,.T.);
#1637 = EDGE_LOOP('',(#1638,#1648,#1656,#1664,#1670,#1671,#1672,#1673));
#1638 = ORIENTED_EDGE('',*,*,#1639,.T.);
#1639 = EDGE_CURVE('',#1640,#1642,#1644,.T.);
#1640 = VERTEX_POINT('',#1641);
#1641 = CARTESIAN_POINT('',(220.25,-15.25,-40.));
#1642 = VERTEX_POINT('',#1643);
#1643 = CARTESIAN_POINT('',(220.25,15.25,-40.));
#1644 = LINE('',#1645,#1646);
#1645 = CARTESIAN_POINT('',(220.25,-17.,-40.));
#1646 = VECTOR('',#1647,1.);
#1647 = DIRECTION('',(0.,1.,0.));
#1648 = ORIENTED_EDGE('',*,*,#1649,.F.);
#1649 = EDGE_CURVE('',#1650,#1642,#1652,.T.);
#1650 = VERTEX_POINT('',#1651);
#1651 = CARTESIAN_POINT('',(221.,16.,-40.));
#1652 = LINE('',#1653,#1654);
#1653 = CARTESIAN_POINT('',(224.,19.,-40.));
#1654 = VECTOR('',#1655,1.);
#1655 = DIRECTION('',(-0.707106781187,-0.707106781187,0.));
#1656 = ORIENTED_EDGE('',*,*,#1657,.F.);
#1657 = EDGE_CURVE('',#1658,#1650,#1660,.T.);
#1658 = VERTEX_POINT('',#1659);
#1659 = CARTESIAN_POINT('',(220.25,16.,-40.));
#1660 = LINE('',#1661,#1662);
#1661 = CARTESIAN_POINT('',(162.3319653452,16.,-40.));
#1662 = VECTOR('',#1663,1.);
#1663 = DIRECTION('',(1.,0.,0.));
#1664 = ORIENTED_EDGE('',*,*,#1665,.F.);
#1665 = EDGE_CURVE('',#1593,#1658,#1666,.T.);
#1666 = LINE('',#1667,#1668);
#1667 = CARTESIAN_POINT('',(162.3319653452,16.,-40.));
#1668 = VECTOR('',#1669,1.);
#1669 = DIRECTION('',(1.,0.,0.));
#1670 = ORIENTED_EDGE('',*,*,#1592,.F.);
#1671 = ORIENTED_EDGE('',*,*,#335,.F.);
#1672 = ORIENTED_EDGE('',*,*,#327,.T.);
#1673 = ORIENTED_EDGE('',*,*,#1674,.T.);
#1674 = EDGE_CURVE('',#319,#1640,#1675,.T.);
#1675 = LINE('',#1676,#1677);
#1676 = CARTESIAN_POINT('',(224.,-19.,-40.));
#1677 = VECTOR('',#1678,1.);
#1678 = DIRECTION('',(-0.707106781187,0.707106781187,0.));
#1679 = PLANE('',#1680);
#1680 = AXIS2_PLACEMENT_3D('',#1681,#1682,#1683);
#1681 = CARTESIAN_POINT('',(216.,-20.,-40.));
#1682 = DIRECTION('',(0.,0.,1.));
#1683 = DIRECTION('',(1.,0.,-0.));
#1684 = ADVANCED_FACE('',(#1685),#1704,.T.);
#1685 = FACE_BOUND('',#1686,.T.);
#1686 = EDGE_LOOP('',(#1687,#1696,#1702,#1703));
#1687 = ORIENTED_EDGE('',*,*,#1688,.F.);
#1688 = EDGE_CURVE('',#1689,#1617,#1691,.T.);
#1689 = VERTEX_POINT('',#1690);
#1690 = CARTESIAN_POINT('',(206.44776673559,16.,-65.47766735594));
#1691 = CIRCLE('',#1692,4.5);
#1692 = AXIS2_PLACEMENT_3D('',#1693,#1694,#1695);
#1693 = CARTESIAN_POINT('',(206.,16.,-61.));
#1694 = DIRECTION('',(0.,1.,0.));
#1695 = DIRECTION('',(0.,0.,1.));
#1696 = ORIENTED_EDGE('',*,*,#1697,.F.);
#1697 = EDGE_CURVE('',#226,#1689,#1698,.T.);
#1698 = LINE('',#1699,#1700);
#1699 = CARTESIAN_POINT('',(206.44776673559,-16.,-65.47766735594));
#1700 = VECTOR('',#1701,1.);
#1701 = DIRECTION('',(0.,1.,0.));
#1702 = ORIENTED_EDGE('',*,*,#225,.T.);
#1703 = ORIENTED_EDGE('',*,*,#1624,.T.);
#1704 = CYLINDRICAL_SURFACE('',#1705,4.5);
#1705 = AXIS2_PLACEMENT_3D('',#1706,#1707,#1708);
#1706 = CARTESIAN_POINT('',(206.,-16.,-61.));
#1707 = DIRECTION('',(0.,1.,0.));
#1708 = DIRECTION('',(0.,0.,1.));
#1709 = ADVANCED_FACE('',(#1710),#1728,.T.);
#1710 = FACE_BOUND('',#1711,.T.);
#1711 = EDGE_LOOP('',(#1712,#1713,#1721,#1727));
#1712 = ORIENTED_EDGE('',*,*,#1697,.T.);
#1713 = ORIENTED_EDGE('',*,*,#1714,.T.);
#1714 = EDGE_CURVE('',#1689,#1715,#1717,.T.);
#1715 = VERTEX_POINT('',#1716);
#1716 = CARTESIAN_POINT('',(216.44776673559,16.,-64.47766735594));
#1717 = LINE('',#1718,#1719);
#1718 = CARTESIAN_POINT('',(206.44776673559,16.,-65.47766735594));
#1719 = VECTOR('',#1720,1.);
#1720 = DIRECTION('',(0.99503719021,0.,9.9503719021E-02));
#1721 = ORIENTED_EDGE('',*,*,#1722,.F.);
#1722 = EDGE_CURVE('',#235,#1715,#1723,.T.);
#1723 = LINE('',#1724,#1725);
#1724 = CARTESIAN_POINT('',(216.44776673559,-16.,-64.47766735594));
#1725 = VECTOR('',#1726,1.);
#1726 = DIRECTION('',(0.,1.,0.));
#1727 = ORIENTED_EDGE('',*,*,#234,.F.);
#1728 = PLANE('',#1729);
#1729 = AXIS2_PLACEMENT_3D('',#1730,#1731,#1732);
#1730 = CARTESIAN_POINT('',(206.44776673559,-16.,-65.47766735594));
#1731 = DIRECTION('',(9.9503719021E-02,0.,-0.99503719021));
#1732 = DIRECTION('',(0.99503719021,0.,9.9503719021E-02));
#1733 = ADVANCED_FACE('',(#1734),#1753,.T.);
#1734 = FACE_BOUND('',#1735,.T.);
#1735 = EDGE_LOOP('',(#1736,#1737,#1738,#1746));
#1736 = ORIENTED_EDGE('',*,*,#1674,.F.);
#1737 = ORIENTED_EDGE('',*,*,#318,.T.);
#1738 = ORIENTED_EDGE('',*,*,#1739,.T.);
#1739 = EDGE_CURVE('',#310,#1740,#1742,.T.);
#1740 = VERTEX_POINT('',#1741);
#1741 = CARTESIAN_POINT('',(224.,-15.25,-36.25));
#1742 = LINE('',#1743,#1744);
#1743 = CARTESIAN_POINT('',(224.,-15.25,-36.25));
#1744 = VECTOR('',#1745,1.);
#1745 = DIRECTION('',(-4.329780281177E-17,0.707106781187,0.707106781187)
  );
#1746 = ORIENTED_EDGE('',*,*,#1747,.F.);
#1747 = EDGE_CURVE('',#1640,#1740,#1748,.T.);
#1748 = CIRCLE('',#1749,3.75);
#1749 = AXIS2_PLACEMENT_3D('',#1750,#1751,#1752);
#1750 = CARTESIAN_POINT('',(224.,-15.25,-40.));
#1751 = DIRECTION('',(0.,1.,-0.));
#1752 = DIRECTION('',(-1.,0.,0.));
#1753 = CONICAL_SURFACE('',#1754,3.75,0.785398163397);
#1754 = AXIS2_PLACEMENT_3D('',#1755,#1756,#1757);
#1755 = CARTESIAN_POINT('',(224.,-15.25,-40.));
#1756 = DIRECTION('',(-0.,1.,-0.));
#1757 = DIRECTION('',(-1.,0.,0.));
#1758 = ADVANCED_FACE('',(#1759),#1778,.T.);
#1759 = FACE_BOUND('',#1760,.T.);
#1760 = EDGE_LOOP('',(#1761,#1770,#1776,#1777));
#1761 = ORIENTED_EDGE('',*,*,#1762,.F.);
#1762 = EDGE_CURVE('',#1763,#1715,#1765,.T.);
#1763 = VERTEX_POINT('',#1764);
#1764 = CARTESIAN_POINT('',(219.18198051533,16.,-63.18198051533));
#1765 = CIRCLE('',#1766,4.5);
#1766 = AXIS2_PLACEMENT_3D('',#1767,#1768,#1769);
#1767 = CARTESIAN_POINT('',(216.,16.,-60.));
#1768 = DIRECTION('',(0.,1.,0.));
#1769 = DIRECTION('',(0.,0.,1.));
#1770 = ORIENTED_EDGE('',*,*,#1771,.F.);
#1771 = EDGE_CURVE('',#243,#1763,#1772,.T.);
#1772 = LINE('',#1773,#1774);
#1773 = CARTESIAN_POINT('',(219.18198051533,-16.,-63.18198051533));
#1774 = VECTOR('',#1775,1.);
#1775 = DIRECTION('',(0.,1.,0.));
#1776 = ORIENTED_EDGE('',*,*,#242,.T.);
#1777 = ORIENTED_EDGE('',*,*,#1722,.T.);
#1778 = CYLINDRICAL_SURFACE('',#1779,4.5);
#1779 = AXIS2_PLACEMENT_3D('',#1780,#1781,#1782);
#1780 = CARTESIAN_POINT('',(216.,-16.,-60.));
#1781 = DIRECTION('',(0.,1.,0.));
#1782 = DIRECTION('',(0.,0.,1.));
#1783 = ADVANCED_FACE('',(#1784),#1803,.T.);
#1784 = FACE_BOUND('',#1785,.T.);
#1785 = EDGE_LOOP('',(#1786,#1787,#1788,#1796));
#1786 = ORIENTED_EDGE('',*,*,#1739,.F.);
#1787 = ORIENTED_EDGE('',*,*,#309,.T.);
#1788 = ORIENTED_EDGE('',*,*,#1789,.T.);
#1789 = EDGE_CURVE('',#302,#1790,#1792,.T.);
#1790 = VERTEX_POINT('',#1791);
#1791 = CARTESIAN_POINT('',(227.75,-15.25,-40.));
#1792 = LINE('',#1793,#1794);
#1793 = CARTESIAN_POINT('',(224.,-19.,-40.));
#1794 = VECTOR('',#1795,1.);
#1795 = DIRECTION('',(0.707106781187,0.707106781187,-0.));
#1796 = ORIENTED_EDGE('',*,*,#1797,.F.);
#1797 = EDGE_CURVE('',#1740,#1790,#1798,.T.);
#1798 = CIRCLE('',#1799,3.75);
#1799 = AXIS2_PLACEMENT_3D('',#1800,#1801,#1802);
#1800 = CARTESIAN_POINT('',(224.,-15.25,-40.));
#1801 = DIRECTION('',(-0.,1.,0.));
#1802 = DIRECTION('',(0.,0.,1.));
#1803 = CONICAL_SURFACE('',#1804,3.75,0.785398163397);
#1804 = AXIS2_PLACEMENT_3D('',#1805,#1806,#1807);
#1805 = CARTESIAN_POINT('',(224.,-15.25,-40.));
#1806 = DIRECTION('',(-0.,1.,-0.));
#1807 = DIRECTION('',(0.,0.,1.));
#1808 = ADVANCED_FACE('',(#1809),#1827,.T.);
#1809 = FACE_BOUND('',#1810,.T.);
#1810 = EDGE_LOOP('',(#1811,#1812,#1820,#1826));
#1811 = ORIENTED_EDGE('',*,*,#1771,.T.);
#1812 = ORIENTED_EDGE('',*,*,#1813,.T.);
#1813 = EDGE_CURVE('',#1763,#1814,#1816,.T.);
#1814 = VERTEX_POINT('',#1815);
#1815 = CARTESIAN_POINT('',(225.18198051533,16.,-57.18198051533));
#1816 = LINE('',#1817,#1818);
#1817 = CARTESIAN_POINT('',(219.18198051533,16.,-63.18198051533));
#1818 = VECTOR('',#1819,1.);
#1819 = DIRECTION('',(0.707106781187,0.,0.707106781187));
#1820 = ORIENTED_EDGE('',*,*,#1821,.F.);
#1821 = EDGE_CURVE('',#252,#1814,#1822,.T.);
#1822 = LINE('',#1823,#1824);
#1823 = CARTESIAN_POINT('',(225.18198051533,-16.,-57.18198051533));
#1824 = VECTOR('',#1825,1.);
#1825 = DIRECTION('',(0.,1.,0.));
#1826 = ORIENTED_EDGE('',*,*,#251,.F.);
#1827 = PLANE('',#1828);
#1828 = AXIS2_PLACEMENT_3D('',#1829,#1830,#1831);
#1829 = CARTESIAN_POINT('',(219.18198051533,-16.,-63.18198051533));
#1830 = DIRECTION('',(0.707106781187,0.,-0.707106781187));
#1831 = DIRECTION('',(0.707106781187,0.,0.707106781187));
#1832 = ADVANCED_FACE('',(#1833),#1876,.T.);
#1833 = FACE_BOUND('',#1834,.T.);
#1834 = EDGE_LOOP('',(#1835,#1843,#1844,#1845,#1846,#1854,#1862,#1870));
#1835 = ORIENTED_EDGE('',*,*,#1836,.F.);
#1836 = EDGE_CURVE('',#1790,#1837,#1839,.T.);
#1837 = VERTEX_POINT('',#1838);
#1838 = CARTESIAN_POINT('',(227.75,15.25,-40.));
#1839 = LINE('',#1840,#1841);
#1840 = CARTESIAN_POINT('',(227.75,-17.,-40.));
#1841 = VECTOR('',#1842,1.);
#1842 = DIRECTION('',(0.,1.,0.));
#1843 = ORIENTED_EDGE('',*,*,#1789,.F.);
#1844 = ORIENTED_EDGE('',*,*,#301,.F.);
#1845 = ORIENTED_EDGE('',*,*,#293,.F.);
#1846 = ORIENTED_EDGE('',*,*,#1847,.T.);
#1847 = EDGE_CURVE('',#286,#1848,#1850,.T.);
#1848 = VERTEX_POINT('',#1849);
#1849 = CARTESIAN_POINT('',(228.5,16.,-40.));
#1850 = LINE('',#1851,#1852);
#1851 = CARTESIAN_POINT('',(228.5,-16.,-40.));
#1852 = VECTOR('',#1853,1.);
#1853 = DIRECTION('',(0.,1.,0.));
#1854 = ORIENTED_EDGE('',*,*,#1855,.F.);
#1855 = EDGE_CURVE('',#1856,#1848,#1858,.T.);
#1856 = VERTEX_POINT('',#1857);
#1857 = CARTESIAN_POINT('',(227.75,16.,-40.));
#1858 = LINE('',#1859,#1860);
#1859 = CARTESIAN_POINT('',(162.3319653452,16.,-40.));
#1860 = VECTOR('',#1861,1.);
#1861 = DIRECTION('',(1.,0.,0.));
#1862 = ORIENTED_EDGE('',*,*,#1863,.T.);
#1863 = EDGE_CURVE('',#1856,#1864,#1866,.T.);
#1864 = VERTEX_POINT('',#1865);
#1865 = CARTESIAN_POINT('',(227.,16.,-40.));
#1866 = LINE('',#1867,#1868);
#1867 = CARTESIAN_POINT('',(162.3319653452,16.,-40.));
#1868 = VECTOR('',#1869,1.);
#1869 = DIRECTION('',(-1.,-0.,-0.));
#1870 = ORIENTED_EDGE('',*,*,#1871,.T.);
#1871 = EDGE_CURVE('',#1864,#1837,#1872,.T.);
#1872 = LINE('',#1873,#1874);
#1873 = CARTESIAN_POINT('',(224.,19.,-40.));
#1874 = VECTOR('',#1875,1.);
#1875 = DIRECTION('',(0.707106781187,-0.707106781187,0.));
#1876 = PLANE('',#1877);
#1877 = AXIS2_PLACEMENT_3D('',#1878,#1879,#1880);
#1878 = CARTESIAN_POINT('',(216.,-20.,-40.));
#1879 = DIRECTION('',(0.,0.,1.));
#1880 = DIRECTION('',(1.,0.,-0.));
#1881 = ADVANCED_FACE('',(#1882),#1901,.T.);
#1882 = FACE_BOUND('',#1883,.T.);
#1883 = EDGE_LOOP('',(#1884,#1893,#1899,#1900));
#1884 = ORIENTED_EDGE('',*,*,#1885,.F.);
#1885 = EDGE_CURVE('',#1886,#1814,#1888,.T.);
#1886 = VERTEX_POINT('',#1887);
#1887 = CARTESIAN_POINT('',(226.40347403244,16.,-54.92704716472));
#1888 = CIRCLE('',#1889,4.5);
#1889 = AXIS2_PLACEMENT_3D('',#1890,#1891,#1892);
#1890 = CARTESIAN_POINT('',(222.,16.,-54.));
#1891 = DIRECTION('',(0.,1.,0.));
#1892 = DIRECTION('',(0.,0.,1.));
#1893 = ORIENTED_EDGE('',*,*,#1894,.F.);
#1894 = EDGE_CURVE('',#260,#1886,#1895,.T.);
#1895 = LINE('',#1896,#1897);
#1896 = CARTESIAN_POINT('',(226.40347403244,-16.,-54.92704716472));
#1897 = VECTOR('',#1898,1.);
#1898 = DIRECTION('',(0.,1.,0.));
#1899 = ORIENTED_EDGE('',*,*,#259,.T.);
#1900 = ORIENTED_EDGE('',*,*,#1821,.T.);
#1901 = CYLINDRICAL_SURFACE('',#1902,4.5);
#1902 = AXIS2_PLACEMENT_3D('',#1903,#1904,#1905);
#1903 = CARTESIAN_POINT('',(222.,-16.,-54.));
#1904 = DIRECTION('',(0.,1.,0.));
#1905 = DIRECTION('',(0.,0.,1.));
#1906 = ADVANCED_FACE('',(#1907),#1925,.T.);
#1907 = FACE_BOUND('',#1908,.T.);
#1908 = EDGE_LOOP('',(#1909,#1910,#1918,#1924));
#1909 = ORIENTED_EDGE('',*,*,#1894,.T.);
#1910 = ORIENTED_EDGE('',*,*,#1911,.T.);
#1911 = EDGE_CURVE('',#1886,#1912,#1914,.T.);
#1912 = VERTEX_POINT('',#1913);
#1913 = CARTESIAN_POINT('',(228.40347403244,16.,-45.42704716472));
#1914 = LINE('',#1915,#1916);
#1915 = CARTESIAN_POINT('',(226.40347403244,16.,-54.92704716472));
#1916 = VECTOR('',#1917,1.);
#1917 = DIRECTION('',(0.20601048105,0.,0.978549784987));
#1918 = ORIENTED_EDGE('',*,*,#1919,.F.);
#1919 = EDGE_CURVE('',#269,#1912,#1920,.T.);
#1920 = LINE('',#1921,#1922);
#1921 = CARTESIAN_POINT('',(228.40347403244,-16.,-45.42704716472));
#1922 = VECTOR('',#1923,1.);
#1923 = DIRECTION('',(0.,1.,0.));
#1924 = ORIENTED_EDGE('',*,*,#268,.F.);
#1925 = PLANE('',#1926);
#1926 = AXIS2_PLACEMENT_3D('',#1927,#1928,#1929);
#1927 = CARTESIAN_POINT('',(226.40347403244,-16.,-54.92704716472));
#1928 = DIRECTION('',(0.978549784987,0.,-0.20601048105));
#1929 = DIRECTION('',(0.20601048105,0.,0.978549784987));
#1930 = ADVANCED_FACE('',(#1931),#1949,.T.);
#1931 = FACE_BOUND('',#1932,.T.);
#1932 = EDGE_LOOP('',(#1933,#1941,#1947,#1948));
#1933 = ORIENTED_EDGE('',*,*,#1934,.T.);
#1934 = EDGE_CURVE('',#277,#1935,#1937,.T.);
#1935 = VERTEX_POINT('',#1936);
#1936 = CARTESIAN_POINT('',(228.5,16.,-44.5));
#1937 = LINE('',#1938,#1939);
#1938 = CARTESIAN_POINT('',(228.5,-16.,-44.5));
#1939 = VECTOR('',#1940,1.);
#1940 = DIRECTION('',(0.,1.,0.));
#1941 = ORIENTED_EDGE('',*,*,#1942,.T.);
#1942 = EDGE_CURVE('',#1935,#1848,#1943,.T.);
#1943 = LINE('',#1944,#1945);
#1944 = CARTESIAN_POINT('',(228.5,16.,-44.5));
#1945 = VECTOR('',#1946,1.);
#1946 = DIRECTION('',(0.,0.,1.));
#1947 = ORIENTED_EDGE('',*,*,#1847,.F.);
#1948 = ORIENTED_EDGE('',*,*,#285,.F.);
#1949 = PLANE('',#1950);
#1950 = AXIS2_PLACEMENT_3D('',#1951,#1952,#1953);
#1951 = CARTESIAN_POINT('',(228.5,-16.,-44.5));
#1952 = DIRECTION('',(1.,0.,0.));
#1953 = DIRECTION('',(0.,0.,1.));
#1954 = ADVANCED_FACE('',(#1955),#1967,.T.);
#1955 = FACE_BOUND('',#1956,.T.);
#1956 = EDGE_LOOP('',(#1957,#1964,#1965,#1966));
#1957 = ORIENTED_EDGE('',*,*,#1958,.F.);
#1958 = EDGE_CURVE('',#1935,#1912,#1959,.T.);
#1959 = CIRCLE('',#1960,4.5);
#1960 = AXIS2_PLACEMENT_3D('',#1961,#1962,#1963);
#1961 = CARTESIAN_POINT('',(224.,16.,-44.5));
#1962 = DIRECTION('',(0.,1.,0.));
#1963 = DIRECTION('',(0.,0.,1.));
#1964 = ORIENTED_EDGE('',*,*,#1934,.F.);
#1965 = ORIENTED_EDGE('',*,*,#276,.T.);
#1966 = ORIENTED_EDGE('',*,*,#1919,.T.);
#1967 = CYLINDRICAL_SURFACE('',#1968,4.5);
#1968 = AXIS2_PLACEMENT_3D('',#1969,#1970,#1971);
#1969 = CARTESIAN_POINT('',(224.,-16.,-44.5));
#1970 = DIRECTION('',(0.,1.,0.));
#1971 = DIRECTION('',(0.,0.,1.));
#1972 = ADVANCED_FACE('',(#1973),#1992,.F.);
#1973 = FACE_BOUND('',#1974,.F.);
#1974 = EDGE_LOOP('',(#1975,#1984,#1990,#1991));
#1975 = ORIENTED_EDGE('',*,*,#1976,.F.);
#1976 = EDGE_CURVE('',#1977,#1977,#1979,.T.);
#1977 = VERTEX_POINT('',#1978);
#1978 = CARTESIAN_POINT('',(-1.959434878636E-15,16.,8.));
#1979 = CIRCLE('',#1980,8.);
#1980 = AXIS2_PLACEMENT_3D('',#1981,#1982,#1983);
#1981 = CARTESIAN_POINT('',(0.,16.,0.));
#1982 = DIRECTION('',(0.,1.,0.));
#1983 = DIRECTION('',(0.,0.,1.));
#1984 = ORIENTED_EDGE('',*,*,#1985,.F.);
#1985 = EDGE_CURVE('',#525,#1977,#1986,.T.);
#1986 = LINE('',#1987,#1988);
#1987 = CARTESIAN_POINT('',(-1.959434878636E-15,-18.,8.));
#1988 = VECTOR('',#1989,1.);
#1989 = DIRECTION('',(0.,1.,0.));
#1990 = ORIENTED_EDGE('',*,*,#524,.T.);
#1991 = ORIENTED_EDGE('',*,*,#1985,.T.);
#1992 = CYLINDRICAL_SURFACE('',#1993,8.);
#1993 = AXIS2_PLACEMENT_3D('',#1994,#1995,#1996);
#1994 = CARTESIAN_POINT('',(0.,-18.,0.));
#1995 = DIRECTION('',(0.,1.,0.));
#1996 = DIRECTION('',(0.,0.,1.));
#1997 = ADVANCED_FACE('',(#1998),#2010,.T.);
#1998 = FACE_BOUND('',#1999,.T.);
#1999 = EDGE_LOOP('',(#2000,#2001,#2008,#2009));
#2000 = ORIENTED_EDGE('',*,*,#647,.T.);
#2001 = ORIENTED_EDGE('',*,*,#2002,.F.);
#2002 = EDGE_CURVE('',#544,#648,#2003,.T.);
#2003 = CIRCLE('',#2004,3.75);
#2004 = AXIS2_PLACEMENT_3D('',#2005,#2006,#2007);
#2005 = CARTESIAN_POINT('',(150.,15.25,35.5));
#2006 = DIRECTION('',(0.,1.,0.));
#2007 = DIRECTION('',(0.,-0.,1.));
#2008 = ORIENTED_EDGE('',*,*,#541,.F.);
#2009 = ORIENTED_EDGE('',*,*,#607,.T.);
#2010 = CYLINDRICAL_SURFACE('',#2011,3.75);
#2011 = AXIS2_PLACEMENT_3D('',#2012,#2013,#2014);
#2012 = CARTESIAN_POINT('',(150.,-17.,35.5));
#2013 = DIRECTION('',(0.,1.,0.));
#2014 = DIRECTION('',(0.,-0.,1.));
#2015 = ADVANCED_FACE('',(#2016),#2028,.T.);
#2016 = FACE_BOUND('',#2017,.F.);
#2017 = EDGE_LOOP('',(#2018,#2019,#2026,#2027));
#2018 = ORIENTED_EDGE('',*,*,#551,.F.);
#2019 = ORIENTED_EDGE('',*,*,#2020,.T.);
#2020 = EDGE_CURVE('',#552,#675,#2021,.T.);
#2021 = CIRCLE('',#2022,3.);
#2022 = AXIS2_PLACEMENT_3D('',#2023,#2024,#2025);
#2023 = CARTESIAN_POINT('',(150.,16.,35.5));
#2024 = DIRECTION('',(0.,1.,0.));
#2025 = DIRECTION('',(0.,-0.,1.));
#2026 = ORIENTED_EDGE('',*,*,#682,.T.);
#2027 = ORIENTED_EDGE('',*,*,#2002,.F.);
#2028 = CONICAL_SURFACE('',#2029,3.75,0.785398163397);
#2029 = AXIS2_PLACEMENT_3D('',#2030,#2031,#2032);
#2030 = CARTESIAN_POINT('',(150.,15.25,35.5));
#2031 = DIRECTION('',(-0.,-1.,-0.));
#2032 = DIRECTION('',(0.,0.,1.));
#2033 = ADVANCED_FACE('',(#2034,#2110),#2113,.T.);
#2034 = FACE_BOUND('',#2035,.T.);
#2035 = EDGE_LOOP('',(#2036,#2037,#2046,#2053,#2054,#2055,#2056,#2057,
    #2058,#2059,#2060,#2061,#2062,#2063,#2064,#2065,#2066,#2067,#2068,
    #2069,#2070,#2071,#2072,#2073,#2074,#2075,#2076,#2077,#2078,#2079,
    #2080,#2081,#2082,#2083,#2084,#2085,#2086,#2087,#2088,#2089,#2090,
    #2091,#2092,#2093,#2094,#2095,#2096,#2097,#2098,#2099,#2100,#2101,
    #2102,#2103,#2104,#2105,#2106,#2107,#2108,#2109));
#2036 = ORIENTED_EDGE('',*,*,#1657,.T.);
#2037 = ORIENTED_EDGE('',*,*,#2038,.T.);
#2038 = EDGE_CURVE('',#1650,#2039,#2041,.T.);
#2039 = VERTEX_POINT('',#2040);
#2040 = CARTESIAN_POINT('',(224.,16.,-37.));
#2041 = CIRCLE('',#2042,3.);
#2042 = AXIS2_PLACEMENT_3D('',#2043,#2044,#2045);
#2043 = CARTESIAN_POINT('',(224.,16.,-40.));
#2044 = DIRECTION('',(0.,1.,0.));
#2045 = DIRECTION('',(-1.,0.,0.));
#2046 = ORIENTED_EDGE('',*,*,#2047,.T.);
#2047 = EDGE_CURVE('',#2039,#1864,#2048,.T.);
#2048 = CIRCLE('',#2049,3.);
#2049 = AXIS2_PLACEMENT_3D('',#2050,#2051,#2052);
#2050 = CARTESIAN_POINT('',(224.,16.,-40.));
#2051 = DIRECTION('',(0.,1.,0.));
#2052 = DIRECTION('',(0.,-0.,1.));
#2053 = ORIENTED_EDGE('',*,*,#1863,.F.);
#2054 = ORIENTED_EDGE('',*,*,#1855,.T.);
#2055 = ORIENTED_EDGE('',*,*,#1942,.F.);
#2056 = ORIENTED_EDGE('',*,*,#1958,.T.);
#2057 = ORIENTED_EDGE('',*,*,#1911,.F.);
#2058 = ORIENTED_EDGE('',*,*,#1885,.T.);
#2059 = ORIENTED_EDGE('',*,*,#1813,.F.);
#2060 = ORIENTED_EDGE('',*,*,#1762,.T.);
#2061 = ORIENTED_EDGE('',*,*,#1714,.F.);
#2062 = ORIENTED_EDGE('',*,*,#1688,.T.);
#2063 = ORIENTED_EDGE('',*,*,#1616,.F.);
#2064 = ORIENTED_EDGE('',*,*,#1566,.T.);
#2065 = ORIENTED_EDGE('',*,*,#1520,.F.);
#2066 = ORIENTED_EDGE('',*,*,#1472,.F.);
#2067 = ORIENTED_EDGE('',*,*,#1424,.F.);
#2068 = ORIENTED_EDGE('',*,*,#1350,.T.);
#2069 = ORIENTED_EDGE('',*,*,#1341,.T.);
#2070 = ORIENTED_EDGE('',*,*,#1292,.F.);
#2071 = ORIENTED_EDGE('',*,*,#1244,.F.);
#2072 = ORIENTED_EDGE('',*,*,#1194,.T.);
#2073 = ORIENTED_EDGE('',*,*,#1146,.F.);
#2074 = ORIENTED_EDGE('',*,*,#1097,.T.);
#2075 = ORIENTED_EDGE('',*,*,#1048,.F.);
#2076 = ORIENTED_EDGE('',*,*,#1000,.T.);
#2077 = ORIENTED_EDGE('',*,*,#951,.F.);
#2078 = ORIENTED_EDGE('',*,*,#878,.T.);
#2079 = ORIENTED_EDGE('',*,*,#869,.T.);
#2080 = ORIENTED_EDGE('',*,*,#819,.F.);
#2081 = ORIENTED_EDGE('',*,*,#769,.T.);
#2082 = ORIENTED_EDGE('',*,*,#722,.F.);
#2083 = ORIENTED_EDGE('',*,*,#698,.F.);
#2084 = ORIENTED_EDGE('',*,*,#622,.F.);
#2085 = ORIENTED_EDGE('',*,*,#567,.T.);
#2086 = ORIENTED_EDGE('',*,*,#559,.T.);
#2087 = ORIENTED_EDGE('',*,*,#2020,.T.);
#2088 = ORIENTED_EDGE('',*,*,#674,.F.);
#2089 = ORIENTED_EDGE('',*,*,#666,.T.);
#2090 = ORIENTED_EDGE('',*,*,#744,.T.);
#2091 = ORIENTED_EDGE('',*,*,#802,.F.);
#2092 = ORIENTED_EDGE('',*,*,#842,.T.);
#2093 = ORIENTED_EDGE('',*,*,#911,.F.);
#2094 = ORIENTED_EDGE('',*,*,#935,.F.);
#2095 = ORIENTED_EDGE('',*,*,#983,.F.);
#2096 = ORIENTED_EDGE('',*,*,#1032,.F.);
#2097 = ORIENTED_EDGE('',*,*,#1080,.F.);
#2098 = ORIENTED_EDGE('',*,*,#1129,.F.);
#2099 = ORIENTED_EDGE('',*,*,#1177,.F.);
#2100 = ORIENTED_EDGE('',*,*,#1217,.T.);
#2101 = ORIENTED_EDGE('',*,*,#1275,.F.);
#2102 = ORIENTED_EDGE('',*,*,#1314,.T.);
#2103 = ORIENTED_EDGE('',*,*,#1383,.F.);
#2104 = ORIENTED_EDGE('',*,*,#1407,.F.);
#2105 = ORIENTED_EDGE('',*,*,#1455,.F.);
#2106 = ORIENTED_EDGE('',*,*,#1503,.F.);
#2107 = ORIENTED_EDGE('',*,*,#1551,.F.);
#2108 = ORIENTED_EDGE('',*,*,#1600,.F.);
#2109 = ORIENTED_EDGE('',*,*,#1665,.T.);
#2110 = FACE_BOUND('',#2111,.T.);
#2111 = EDGE_LOOP('',(#2112));
#2112 = ORIENTED_EDGE('',*,*,#1976,.F.);
#2113 = PLANE('',#2114);
#2114 = AXIS2_PLACEMENT_3D('',#2115,#2116,#2117);
#2115 = CARTESIAN_POINT('',(108.6639306904,16.,-3.104268420234));
#2116 = DIRECTION('',(0.,1.,0.));
#2117 = DIRECTION('',(0.,0.,1.));
#2118 = ADVANCED_FACE('',(#2119),#2141,.T.);
#2119 = FACE_BOUND('',#2120,.T.);
#2120 = EDGE_LOOP('',(#2121,#2122,#2131,#2138,#2139,#2140));
#2121 = ORIENTED_EDGE('',*,*,#1836,.T.);
#2122 = ORIENTED_EDGE('',*,*,#2123,.F.);
#2123 = EDGE_CURVE('',#2124,#1837,#2126,.T.);
#2124 = VERTEX_POINT('',#2125);
#2125 = CARTESIAN_POINT('',(224.,15.25,-36.25));
#2126 = CIRCLE('',#2127,3.75);
#2127 = AXIS2_PLACEMENT_3D('',#2128,#2129,#2130);
#2128 = CARTESIAN_POINT('',(224.,15.25,-40.));
#2129 = DIRECTION('',(0.,1.,0.));
#2130 = DIRECTION('',(0.,-0.,1.));
#2131 = ORIENTED_EDGE('',*,*,#2132,.F.);
#2132 = EDGE_CURVE('',#1642,#2124,#2133,.T.);
#2133 = CIRCLE('',#2134,3.75);
#2134 = AXIS2_PLACEMENT_3D('',#2135,#2136,#2137);
#2135 = CARTESIAN_POINT('',(224.,15.25,-40.));
#2136 = DIRECTION('',(0.,1.,0.));
#2137 = DIRECTION('',(-1.,0.,0.));
#2138 = ORIENTED_EDGE('',*,*,#1639,.F.);
#2139 = ORIENTED_EDGE('',*,*,#1747,.T.);
#2140 = ORIENTED_EDGE('',*,*,#1797,.T.);
#2141 = CYLINDRICAL_SURFACE('',#2142,3.75);
#2142 = AXIS2_PLACEMENT_3D('',#2143,#2144,#2145);
#2143 = CARTESIAN_POINT('',(224.,-17.,-40.));
#2144 = DIRECTION('',(0.,1.,0.));
#2145 = DIRECTION('',(0.,-0.,1.));
#2146 = ADVANCED_FACE('',(#2147),#2158,.T.);
#2147 = FACE_BOUND('',#2148,.F.);
#2148 = EDGE_LOOP('',(#2149,#2150,#2151,#2157));
#2149 = ORIENTED_EDGE('',*,*,#1649,.F.);
#2150 = ORIENTED_EDGE('',*,*,#2038,.T.);
#2151 = ORIENTED_EDGE('',*,*,#2152,.T.);
#2152 = EDGE_CURVE('',#2039,#2124,#2153,.T.);
#2153 = LINE('',#2154,#2155);
#2154 = CARTESIAN_POINT('',(224.,15.25,-36.25));
#2155 = VECTOR('',#2156,1.);
#2156 = DIRECTION('',(-4.329780281177E-17,-0.707106781187,0.707106781187
    ));
#2157 = ORIENTED_EDGE('',*,*,#2132,.F.);
#2158 = CONICAL_SURFACE('',#2159,3.75,0.785398163397);
#2159 = AXIS2_PLACEMENT_3D('',#2160,#2161,#2162);
#2160 = CARTESIAN_POINT('',(224.,15.25,-40.));
#2161 = DIRECTION('',(-0.,-1.,-0.));
#2162 = DIRECTION('',(-1.,0.,0.));
#2163 = ADVANCED_FACE('',(#2164),#2170,.T.);
#2164 = FACE_BOUND('',#2165,.F.);
#2165 = EDGE_LOOP('',(#2166,#2167,#2168,#2169));
#2166 = ORIENTED_EDGE('',*,*,#2152,.F.);
#2167 = ORIENTED_EDGE('',*,*,#2047,.T.);
#2168 = ORIENTED_EDGE('',*,*,#1871,.T.);
#2169 = ORIENTED_EDGE('',*,*,#2123,.F.);
#2170 = CONICAL_SURFACE('',#2171,3.75,0.785398163397);
#2171 = AXIS2_PLACEMENT_3D('',#2172,#2173,#2174);
#2172 = CARTESIAN_POINT('',(224.,15.25,-40.));
#2173 = DIRECTION('',(-0.,-1.,-0.));
#2174 = DIRECTION('',(0.,0.,1.));
#2175 = ( GEOMETRIC_REPRESENTATION_CONTEXT(3) 
GLOBAL_UNCERTAINTY_ASSIGNED_CONTEXT((#2179)) 
GLOBAL_UNIT_ASSIGNED_CONTEXT((#2176,#2177,#2178)) REPRESENTATION_CONTEXT
('Context #1','3D Context with UNIT and UNCERTAINTY') );
#2176 = ( LENGTH_UNIT() NAMED_UNIT(*) SI_UNIT(.MILLI.,.METRE.) );
#2177 = ( NAMED_UNIT(*) PLANE_ANGLE_UNIT() SI_UNIT($,.RADIAN.) );
#2178 = ( NAMED_UNIT(*) SI_UNIT($,.STERADIAN.) SOLID_ANGLE_UNIT() );
#2179 = UNCERTAINTY_MEASURE_WITH_UNIT(LENGTH_MEASURE(1.E-07),#2176,
  'distance_accuracy_value','confusion accuracy');
#2180 = PRODUCT_RELATED_PRODUCT_CATEGORY('part',$,(#7));
ENDSEC;
END-ISO-10303-21;
