solid
 facet normal -9.954856e-01  9.491236e-02  6.816027e-18
   outer loop
     vertex  4.573190e-01 -4.305623e-01  8.100000e-01
     vertex  4.650000e-01 -3.500000e-01  8.500000e-01
     vertex  4.650000e-01 -3.500000e-01  8.100000e-01
   endloop
 endfacet
 facet normal -9.954856e-01  9.491236e-02  0.000000e+00
   outer loop
     vertex  4.573190e-01 -4.305623e-01  8.100000e-01
     vertex  4.573190e-01 -4.305623e-01  8.500000e-01
     vertex  4.650000e-01 -3.500000e-01  8.500000e-01
   endloop
 endfacet
 facet normal  6.631112e-01 -7.485209e-01  6.523961e-19
   outer loop
     vertex  4.610331e-01 -4.272720e-01  8.100000e-01
     vertex  4.573190e-01 -4.305623e-01  8.500000e-01
     vertex  4.573190e-01 -4.305623e-01  8.100000e-01
   endloop
 endfacet
 facet normal  6.631112e-01 -7.485209e-01  0.000000e+00
   outer loop
     vertex  4.610331e-01 -4.272720e-01  8.100000e-01
     vertex  4.610331e-01 -4.272720e-01  8.500000e-01
     vertex  4.573190e-01 -4.305623e-01  8.500000e-01
   endloop
 endfacet
 facet normal  9.986848e-01 -5.126959e-02 -5.437934e-18
   outer loop
     vertex  4.650000e-01 -3.500000e-01  8.100000e-01
     vertex  4.610331e-01 -4.272720e-01  8.500000e-01
     vertex  4.610331e-01 -4.272720e-01  8.100000e-01
   endloop
 endfacet
 facet normal  9.986848e-01 -5.126959e-02  0.000000e+00
   outer loop
     vertex  4.650000e-01 -3.500000e-01  8.100000e-01
     vertex  4.650000e-01 -3.500000e-01  8.500000e-01
     vertex  4.610331e-01 -4.272720e-01  8.500000e-01
   endloop
 endfacet
 facet normal  0.000000e+00  0.000000e+00 -1.000000e+00
   outer loop
     vertex  4.650000e-01 -3.500000e-01  8.100000e-01
     vertex  4.610331e-01 -4.272720e-01  8.100000e-01
     vertex  4.573190e-01 -4.305623e-01  8.100000e-01
   endloop
 endfacet
 facet normal  0.000000e+00  0.000000e+00  1.000000e+00
   outer loop
     vertex  4.650000e-01 -3.500000e-01  8.500000e-01
     vertex  4.573190e-01 -4.305623e-01  8.500000e-01
     vertex  4.610331e-01 -4.272720e-01  8.500000e-01
   endloop
 endfacet
endsolid
