solid
 facet normal -9.034478e-01  4.286981e-01  3.784593e-18
   outer loop
     vertex  3.545571e-01 -5.036340e-01  8.100000e-01
     vertex  3.566843e-01 -4.991511e-01  8.500000e-01
     vertex  3.566843e-01 -4.991511e-01  8.100000e-01
   endloop
 endfacet
 facet normal -9.034478e-01  4.286981e-01  0.000000e+00
   outer loop
     vertex  3.545571e-01 -5.036340e-01  8.100000e-01
     vertex  3.545571e-01 -5.036340e-01  8.500000e-01
     vertex  3.566843e-01 -4.991511e-01  8.500000e-01
   endloop
 endfacet
 facet normal  1.091266e-05 -1.000000e+00 -5.412029e-22
   outer loop
     vertex  4.454424e-01 -5.036330e-01  8.100000e-01
     vertex  3.545571e-01 -5.036340e-01  8.500000e-01
     vertex  3.545571e-01 -5.036340e-01  8.100000e-01
   endloop
 endfacet
 facet normal  1.091266e-05 -1.000000e+00  0.000000e+00
   outer loop
     vertex  4.454424e-01 -5.036330e-01  8.100000e-01
     vertex  4.454424e-01 -5.036330e-01  8.500000e-01
     vertex  3.545571e-01 -5.036340e-01  8.500000e-01
   endloop
 endfacet
 facet normal  9.034588e-01  4.286750e-01 -1.828380e-18
   outer loop
     vertex  4.433153e-01 -4.991501e-01  8.100000e-01
     vertex  4.454424e-01 -5.036330e-01  8.500000e-01
     vertex  4.454424e-01 -5.036330e-01  8.100000e-01
   endloop
 endfacet
 facet normal  9.034588e-01  4.286750e-01 -0.000000e+00
   outer loop
     vertex  4.433153e-01 -4.991501e-01  8.100000e-01
     vertex  4.433153e-01 -4.991501e-01  8.500000e-01
     vertex  4.454424e-01 -5.036330e-01  8.500000e-01
   endloop
 endfacet
 facet normal -1.188951e-05  1.000000e+00 -4.679969e-22
   outer loop
     vertex  3.566843e-01 -4.991511e-01  8.100000e-01
     vertex  4.433153e-01 -4.991501e-01  8.500000e-01
     vertex  4.433153e-01 -4.991501e-01  8.100000e-01
   endloop
 endfacet
 facet normal -1.188951e-05  1.000000e+00  0.000000e+00
   outer loop
     vertex  3.566843e-01 -4.991511e-01  8.100000e-01
     vertex  3.566843e-01 -4.991511e-01  8.500000e-01
     vertex  4.433153e-01 -4.991501e-01  8.500000e-01
   endloop
 endfacet
 facet normal -0.000000e+00  0.000000e+00 -1.000000e+00
   outer loop
     vertex  4.454424e-01 -5.036330e-01  8.100000e-01
     vertex  3.545571e-01 -5.036340e-01  8.100000e-01
     vertex  3.566843e-01 -4.991511e-01  8.100000e-01
   endloop
 endfacet
 facet normal  0.000000e+00 -0.000000e+00 -1.000000e+00
   outer loop
     vertex  4.433153e-01 -4.991501e-01  8.100000e-01
     vertex  4.454424e-01 -5.036330e-01  8.100000e-01
     vertex  3.566843e-01 -4.991511e-01  8.100000e-01
   endloop
 endfacet
 facet normal  0.000000e+00  0.000000e+00  1.000000e+00
   outer loop
     vertex  4.454424e-01 -5.036330e-01  8.500000e-01
     vertex  3.566843e-01 -4.991511e-01  8.500000e-01
     vertex  3.545571e-01 -5.036340e-01  8.500000e-01
   endloop
 endfacet
 facet normal  0.000000e+00  0.000000e+00  1.000000e+00
   outer loop
     vertex  4.433153e-01 -4.991501e-01  8.500000e-01
     vertex  3.566843e-01 -4.991511e-01  8.500000e-01
     vertex  4.454424e-01 -5.036330e-01  8.500000e-01
   endloop
 endfacet
endsolid
