solid
 facet normal -7.746011e-01  6.324501e-01  1.194971e-19
   outer loop
     vertex -2.538808e-01 -5.158584e-01  8.100000e-01
     vertex -2.507426e-01 -5.120148e-01  8.500000e-01
     vertex -2.507426e-01 -5.120148e-01  8.100000e-01
   endloop
 endfacet
 facet normal -7.746011e-01  6.324501e-01  0.000000e+00
   outer loop
     vertex -2.538808e-01 -5.158584e-01  8.100000e-01
     vertex -2.538808e-01 -5.158584e-01  8.500000e-01
     vertex -2.507426e-01 -5.120148e-01  8.500000e-01
   endloop
 endfacet
 facet normal  7.787612e-06 -1.000000e+00  9.289111e-23
   outer loop
     vertex -1.461199e-01 -5.158575e-01  8.100000e-01
     vertex -2.538808e-01 -5.158584e-01  8.500000e-01
     vertex -2.538808e-01 -5.158584e-01  8.100000e-01
   endloop
 endfacet
 facet normal  7.787612e-06 -1.000000e+00  0.000000e+00
   outer loop
     vertex -1.461199e-01 -5.158575e-01  8.100000e-01
     vertex -1.461199e-01 -5.158575e-01  8.500000e-01
     vertex -2.538808e-01 -5.158584e-01  8.500000e-01
   endloop
 endfacet
 facet normal  7.746145e-01  6.324337e-01  2.225780e-18
   outer loop
     vertex -1.492581e-01 -5.120139e-01  8.100000e-01
     vertex -1.461199e-01 -5.158575e-01  8.500000e-01
     vertex -1.461199e-01 -5.158575e-01  8.100000e-01
   endloop
 endfacet
 facet normal  7.746145e-01  6.324337e-01 -0.000000e+00
   outer loop
     vertex -1.492581e-01 -5.120139e-01  8.100000e-01
     vertex -1.492581e-01 -5.120139e-01  8.500000e-01
     vertex -1.461199e-01 -5.158575e-01  8.500000e-01
   endloop
 endfacet
 facet normal -8.796412e-06  1.000000e+00  5.766550e-22
   outer loop
     vertex -2.507426e-01 -5.120148e-01  8.100000e-01
     vertex -1.492581e-01 -5.120139e-01  8.500000e-01
     vertex -1.492581e-01 -5.120139e-01  8.100000e-01
   endloop
 endfacet
 facet normal -8.796412e-06  1.000000e+00  0.000000e+00
   outer loop
     vertex -2.507426e-01 -5.120148e-01  8.100000e-01
     vertex -2.507426e-01 -5.120148e-01  8.500000e-01
     vertex -1.492581e-01 -5.120139e-01  8.500000e-01
   endloop
 endfacet
 facet normal -0.000000e+00  0.000000e+00 -1.000000e+00
   outer loop
     vertex -1.461199e-01 -5.158575e-01  8.100000e-01
     vertex -2.538808e-01 -5.158584e-01  8.100000e-01
     vertex -2.507426e-01 -5.120148e-01  8.100000e-01
   endloop
 endfacet
 facet normal  0.000000e+00 -0.000000e+00 -1.000000e+00
   outer loop
     vertex -1.492581e-01 -5.120139e-01  8.100000e-01
     vertex -1.461199e-01 -5.158575e-01  8.100000e-01
     vertex -2.507426e-01 -5.120148e-01  8.100000e-01
   endloop
 endfacet
 facet normal  0.000000e+00  0.000000e+00  1.000000e+00
   outer loop
     vertex -1.461199e-01 -5.158575e-01  8.500000e-01
     vertex -2.507426e-01 -5.120148e-01  8.500000e-01
     vertex -2.538808e-01 -5.158584e-01  8.500000e-01
   endloop
 endfacet
 facet normal  0.000000e+00  0.000000e+00  1.000000e+00
   outer loop
     vertex -1.492581e-01 -5.120139e-01  8.500000e-01
     vertex -2.507426e-01 -5.120148e-01  8.500000e-01
     vertex -1.461199e-01 -5.158575e-01  8.500000e-01
   endloop
 endfacet
endsolid
