solid
 facet normal  4.024724e-02 -9.991898e-01  4.242398e-19
   outer loop
     vertex -4.749991e-01 -2.383852e-01  8.100000e-01
     vertex -4.799571e-01 -2.385849e-01  8.500000e-01
     vertex -4.799571e-01 -2.385849e-01  8.100000e-01
   endloop
 endfacet
 facet normal  4.024724e-02 -9.991898e-01  0.000000e+00
   outer loop
     vertex -4.749991e-01 -2.383852e-01  8.100000e-01
     vertex -4.749991e-01 -2.383852e-01  8.500000e-01
     vertex -4.799571e-01 -2.385849e-01  8.500000e-01
   endloop
 endfacet
 facet normal  1.000000e+00  0.000000e+00  0.000000e+00
   outer loop
     vertex -4.749991e-01 -1.616148e-01  8.100000e-01
     vertex -4.749991e-01 -2.383852e-01  8.500000e-01
     vertex -4.749991e-01 -2.383852e-01  8.100000e-01
   endloop
 endfacet
 facet normal  1.000000e+00  0.000000e+00 -0.000000e+00
   outer loop
     vertex -4.749991e-01 -1.616148e-01  8.100000e-01
     vertex -4.749991e-01 -1.616148e-01  8.500000e-01
     vertex -4.749991e-01 -2.383852e-01  8.500000e-01
   endloop
 endfacet
 facet normal  4.024724e-02  9.991898e-01 -4.242398e-19
   outer loop
     vertex -4.799571e-01 -1.614151e-01  8.100000e-01
     vertex -4.749991e-01 -1.616148e-01  8.500000e-01
     vertex -4.749991e-01 -1.616148e-01  8.100000e-01
   endloop
 endfacet
 facet normal  4.024724e-02  9.991898e-01 -0.000000e+00
   outer loop
     vertex -4.799571e-01 -1.614151e-01  8.100000e-01
     vertex -4.799571e-01 -1.614151e-01  8.500000e-01
     vertex -4.749991e-01 -1.616148e-01  8.500000e-01
   endloop
 endfacet
 facet normal -1.000000e+00  0.000000e+00  0.000000e+00
   outer loop
     vertex -4.799571e-01 -2.385849e-01  8.100000e-01
     vertex -4.799571e-01 -1.614151e-01  8.500000e-01
     vertex -4.799571e-01 -1.614151e-01  8.100000e-01
   endloop
 endfacet
 facet normal -1.000000e+00  0.000000e+00  0.000000e+00
   outer loop
     vertex -4.799571e-01 -2.385849e-01  8.100000e-01
     vertex -4.799571e-01 -2.385849e-01  8.500000e-01
     vertex -4.799571e-01 -1.614151e-01  8.500000e-01
   endloop
 endfacet
 facet normal  0.000000e+00 -0.000000e+00 -1.000000e+00
   outer loop
     vertex -4.749991e-01 -1.616148e-01  8.100000e-01
     vertex -4.749991e-01 -2.383852e-01  8.100000e-01
     vertex -4.799571e-01 -2.385849e-01  8.100000e-01
   endloop
 endfacet
 facet normal -0.000000e+00  0.000000e+00 -1.000000e+00
   outer loop
     vertex -4.749991e-01 -1.616148e-01  8.100000e-01
     vertex -4.799571e-01 -2.385849e-01  8.100000e-01
     vertex -4.799571e-01 -1.614151e-01  8.100000e-01
   endloop
 endfacet
 facet normal  0.000000e+00  0.000000e+00  1.000000e+00
   outer loop
     vertex -4.749991e-01 -1.616148e-01  8.500000e-01
     vertex -4.799571e-01 -2.385849e-01  8.500000e-01
     vertex -4.749991e-01 -2.383852e-01  8.500000e-01
   endloop
 endfacet
 facet normal  0.000000e+00  0.000000e+00  1.000000e+00
   outer loop
     vertex -4.749991e-01 -1.616148e-01  8.500000e-01
     vertex -4.799571e-01 -1.614151e-01  8.500000e-01
     vertex -4.799571e-01 -2.385849e-01  8.500000e-01
   endloop
 endfacet
endsolid
