solid
 facet normal -7.211975e-01  6.927295e-01  2.274754e-18
   outer loop
     vertex  3.426819e-01 -5.194370e-01  8.100000e-01
     vertex  3.461192e-01 -5.158584e-01  8.500000e-01
     vertex  3.461192e-01 -5.158584e-01  8.100000e-01
   endloop
 endfacet
 facet normal -7.211975e-01  6.927295e-01  0.000000e+00
   outer loop
     vertex  3.426819e-01 -5.194370e-01  8.100000e-01
     vertex  3.426819e-01 -5.194370e-01  8.500000e-01
     vertex  3.461192e-01 -5.158584e-01  8.500000e-01
   endloop
 endfacet
 facet normal  6.722183e-06 -1.000000e+00  1.190056e-21
   outer loop
     vertex  4.573173e-01 -5.194362e-01  8.100000e-01
     vertex  3.426819e-01 -5.194370e-01  8.500000e-01
     vertex  3.426819e-01 -5.194370e-01  8.100000e-01
   endloop
 endfacet
 facet normal  6.722183e-06 -1.000000e+00  0.000000e+00
   outer loop
     vertex  4.573173e-01 -5.194362e-01  8.100000e-01
     vertex  4.573173e-01 -5.194362e-01  8.500000e-01
     vertex  3.426819e-01 -5.194370e-01  8.500000e-01
   endloop
 endfacet
 facet normal  7.212226e-01  6.927034e-01 -2.419153e-18
   outer loop
     vertex  4.538801e-01 -5.158575e-01  8.100000e-01
     vertex  4.573173e-01 -5.194362e-01  8.500000e-01
     vertex  4.573173e-01 -5.194362e-01  8.100000e-01
   endloop
 endfacet
 facet normal  7.212226e-01  6.927034e-01 -0.000000e+00
   outer loop
     vertex  4.538801e-01 -5.158575e-01  8.100000e-01
     vertex  4.538801e-01 -5.158575e-01  8.500000e-01
     vertex  4.573173e-01 -5.194362e-01  8.500000e-01
   endloop
 endfacet
 facet normal -7.787609e-06  1.000000e+00  7.111650e-23
   outer loop
     vertex  3.461192e-01 -5.158584e-01  8.100000e-01
     vertex  4.538801e-01 -5.158575e-01  8.500000e-01
     vertex  4.538801e-01 -5.158575e-01  8.100000e-01
   endloop
 endfacet
 facet normal -7.787609e-06  1.000000e+00  0.000000e+00
   outer loop
     vertex  3.461192e-01 -5.158584e-01  8.100000e-01
     vertex  3.461192e-01 -5.158584e-01  8.500000e-01
     vertex  4.538801e-01 -5.158575e-01  8.500000e-01
   endloop
 endfacet
 facet normal -0.000000e+00  0.000000e+00 -1.000000e+00
   outer loop
     vertex  4.573173e-01 -5.194362e-01  8.100000e-01
     vertex  3.426819e-01 -5.194370e-01  8.100000e-01
     vertex  3.461192e-01 -5.158584e-01  8.100000e-01
   endloop
 endfacet
 facet normal  0.000000e+00 -0.000000e+00 -1.000000e+00
   outer loop
     vertex  4.538801e-01 -5.158575e-01  8.100000e-01
     vertex  4.573173e-01 -5.194362e-01  8.100000e-01
     vertex  3.461192e-01 -5.158584e-01  8.100000e-01
   endloop
 endfacet
 facet normal  0.000000e+00  0.000000e+00  1.000000e+00
   outer loop
     vertex  4.573173e-01 -5.194362e-01  8.500000e-01
     vertex  3.461192e-01 -5.158584e-01  8.500000e-01
     vertex  3.426819e-01 -5.194370e-01  8.500000e-01
   endloop
 endfacet
 facet normal  0.000000e+00  0.000000e+00  1.000000e+00
   outer loop
     vertex  4.538801e-01 -5.158575e-01  8.500000e-01
     vertex  3.461192e-01 -5.158584e-01  8.500000e-01
     vertex  4.573173e-01 -5.194362e-01  8.500000e-01
   endloop
 endfacet
endsolid
