solid
 facet normal -3.919599e-01  9.199823e-01 -2.702405e-18
   outer loop
     vertex -2.781515e-01 -5.326110e-01  8.100000e-01
     vertex -2.735865e-01 -5.306661e-01  8.500000e-01
     vertex -2.735865e-01 -5.306661e-01  8.100000e-01
   endloop
 endfacet
 facet normal -3.919599e-01  9.199823e-01  0.000000e+00
   outer loop
     vertex -2.781515e-01 -5.326110e-01  8.100000e-01
     vertex -2.781515e-01 -5.326110e-01  8.500000e-01
     vertex -2.735865e-01 -5.306661e-01  8.500000e-01
   endloop
 endfacet
 facet normal  2.538036e-06 -1.000000e+00  1.323829e-22
   outer loop
     vertex -1.218495e-01 -5.326106e-01  8.100000e-01
     vertex -2.781515e-01 -5.326110e-01  8.500000e-01
     vertex -2.781515e-01 -5.326110e-01  8.100000e-01
   endloop
 endfacet
 facet normal  2.538036e-06 -1.000000e+00  0.000000e+00
   outer loop
     vertex -1.218495e-01 -5.326106e-01  8.100000e-01
     vertex -1.218495e-01 -5.326106e-01  8.500000e-01
     vertex -2.781515e-01 -5.326110e-01  8.500000e-01
   endloop
 endfacet
 facet normal  3.919765e-01  9.199752e-01 -2.261493e-18
   outer loop
     vertex -1.264145e-01 -5.306656e-01  8.100000e-01
     vertex -1.218495e-01 -5.326106e-01  8.500000e-01
     vertex -1.218495e-01 -5.326106e-01  8.100000e-01
   endloop
 endfacet
 facet normal  3.919765e-01  9.199752e-01 -0.000000e+00
   outer loop
     vertex -1.264145e-01 -5.306656e-01  8.100000e-01
     vertex -1.264145e-01 -5.306656e-01  8.500000e-01
     vertex -1.218495e-01 -5.326106e-01  8.500000e-01
   endloop
 endfacet
 facet normal -3.266244e-06  1.000000e+00 -5.339718e-22
   outer loop
     vertex -2.735865e-01 -5.306661e-01  8.100000e-01
     vertex -1.264145e-01 -5.306656e-01  8.500000e-01
     vertex -1.264145e-01 -5.306656e-01  8.100000e-01
   endloop
 endfacet
 facet normal -3.266244e-06  1.000000e+00  0.000000e+00
   outer loop
     vertex -2.735865e-01 -5.306661e-01  8.100000e-01
     vertex -2.735865e-01 -5.306661e-01  8.500000e-01
     vertex -1.264145e-01 -5.306656e-01  8.500000e-01
   endloop
 endfacet
 facet normal -0.000000e+00  0.000000e+00 -1.000000e+00
   outer loop
     vertex -1.218495e-01 -5.326106e-01  8.100000e-01
     vertex -2.781515e-01 -5.326110e-01  8.100000e-01
     vertex -2.735865e-01 -5.306661e-01  8.100000e-01
   endloop
 endfacet
 facet normal  0.000000e+00  0.000000e+00 -1.000000e+00
   outer loop
     vertex -1.218495e-01 -5.326106e-01  8.100000e-01
     vertex -2.735865e-01 -5.306661e-01  8.100000e-01
     vertex -1.264145e-01 -5.306656e-01  8.100000e-01
   endloop
 endfacet
 facet normal  0.000000e+00  0.000000e+00  1.000000e+00
   outer loop
     vertex -1.218495e-01 -5.326106e-01  8.500000e-01
     vertex -2.735865e-01 -5.306661e-01  8.500000e-01
     vertex -2.781515e-01 -5.326110e-01  8.500000e-01
   endloop
 endfacet
 facet normal  0.000000e+00  0.000000e+00  1.000000e+00
   outer loop
     vertex -1.218495e-01 -5.326106e-01  8.500000e-01
     vertex -1.264145e-01 -5.306656e-01  8.500000e-01
     vertex -2.735865e-01 -5.306661e-01  8.500000e-01
   endloop
 endfacet
endsolid
