solid
 facet normal -3.222273e-01  9.466623e-01 -8.380135e-17
   outer loop
     vertex -4.651153e-01  5.608168e-01  8.100000e-01
     vertex -3.500000e-01  6.000000e-01  8.500000e-01
     vertex -3.500000e-01  6.000000e-01  8.100000e-01
   endloop
 endfacet
 facet normal -3.222273e-01  9.466623e-01  0.000000e+00
   outer loop
     vertex -4.651153e-01  5.608168e-01  8.100000e-01
     vertex -4.651153e-01  5.608168e-01  8.500000e-01
     vertex -3.500000e-01  6.000000e-01  8.500000e-01
   endloop
 endfacet
 facet normal -2.000554e-01 -9.797846e-01  2.013216e-18
   outer loop
     vertex -4.602536e-01  5.598241e-01  8.100000e-01
     vertex -4.651153e-01  5.608168e-01  8.500000e-01
     vertex -4.651153e-01  5.608168e-01  8.100000e-01
   endloop
 endfacet
 facet normal -2.000554e-01 -9.797846e-01  0.000000e+00
   outer loop
     vertex -4.602536e-01  5.598241e-01  8.100000e-01
     vertex -4.602536e-01  5.598241e-01  8.500000e-01
     vertex -4.651153e-01  5.608168e-01  8.500000e-01
   endloop
 endfacet
 facet normal  3.423728e-01 -9.395642e-01  1.073763e-17
   outer loop
     vertex -3.500000e-01  6.000000e-01  8.100000e-01
     vertex -4.602536e-01  5.598241e-01  8.500000e-01
     vertex -4.602536e-01  5.598241e-01  8.100000e-01
   endloop
 endfacet
 facet normal  3.423728e-01 -9.395642e-01  0.000000e+00
   outer loop
     vertex -3.500000e-01  6.000000e-01  8.100000e-01
     vertex -3.500000e-01  6.000000e-01  8.500000e-01
     vertex -4.602536e-01  5.598241e-01  8.500000e-01
   endloop
 endfacet
 facet normal  0.000000e+00  0.000000e+00 -1.000000e+00
   outer loop
     vertex -3.500000e-01  6.000000e-01  8.100000e-01
     vertex -4.602536e-01  5.598241e-01  8.100000e-01
     vertex -4.651153e-01  5.608168e-01  8.100000e-01
   endloop
 endfacet
 facet normal  0.000000e+00  0.000000e+00  1.000000e+00
   outer loop
     vertex -3.500000e-01  6.000000e-01  8.500000e-01
     vertex -4.651153e-01  5.608168e-01  8.500000e-01
     vertex -4.602536e-01  5.598241e-01  8.500000e-01
   endloop
 endfacet
endsolid
