solid
 facet normal -9.797901e-01 -2.000282e-01  7.354726e-19
   outer loop
     vertex  3.608169e-01 -4.651160e-01  8.100000e-01
     vertex  3.598243e-01 -4.602543e-01  8.500000e-01
     vertex  3.598243e-01 -4.602543e-01  8.100000e-01
   endloop
 endfacet
 facet normal -9.797901e-01 -2.000282e-01  0.000000e+00
   outer loop
     vertex  3.608169e-01 -4.651160e-01  8.100000e-01
     vertex  3.608169e-01 -4.651160e-01  8.500000e-01
     vertex  3.598243e-01 -4.602543e-01  8.500000e-01
   endloop
 endfacet
 facet normal  1.168231e-05 -1.000000e+00  1.341013e-21
   outer loop
     vertex  4.391832e-01 -4.651151e-01  8.100000e-01
     vertex  3.608169e-01 -4.651160e-01  8.500000e-01
     vertex  3.608169e-01 -4.651160e-01  8.100000e-01
   endloop
 endfacet
 facet normal  1.168231e-05 -1.000000e+00  0.000000e+00
   outer loop
     vertex  4.391832e-01 -4.651151e-01  8.100000e-01
     vertex  4.391832e-01 -4.651151e-01  8.500000e-01
     vertex  3.608169e-01 -4.651160e-01  8.500000e-01
   endloop
 endfacet
 facet normal  9.797846e-01 -2.000554e-01 -1.477106e-18
   outer loop
     vertex  4.401759e-01 -4.602534e-01  8.100000e-01
     vertex  4.391832e-01 -4.651151e-01  8.500000e-01
     vertex  4.391832e-01 -4.651151e-01  8.100000e-01
   endloop
 endfacet
 facet normal  9.797846e-01 -2.000554e-01  0.000000e+00
   outer loop
     vertex  4.401759e-01 -4.602534e-01  8.100000e-01
     vertex  4.401759e-01 -4.602534e-01  8.500000e-01
     vertex  4.391832e-01 -4.651151e-01  8.500000e-01
   endloop
 endfacet
 facet normal -1.025493e-05  1.000000e+00 -1.592431e-21
   outer loop
     vertex  3.598243e-01 -4.602543e-01  8.100000e-01
     vertex  4.401759e-01 -4.602534e-01  8.500000e-01
     vertex  4.401759e-01 -4.602534e-01  8.100000e-01
   endloop
 endfacet
 facet normal -1.025493e-05  1.000000e+00  0.000000e+00
   outer loop
     vertex  3.598243e-01 -4.602543e-01  8.100000e-01
     vertex  3.598243e-01 -4.602543e-01  8.500000e-01
     vertex  4.401759e-01 -4.602534e-01  8.500000e-01
   endloop
 endfacet
 facet normal -0.000000e+00  0.000000e+00 -1.000000e+00
   outer loop
     vertex  4.391832e-01 -4.651151e-01  8.100000e-01
     vertex  3.608169e-01 -4.651160e-01  8.100000e-01
     vertex  3.598243e-01 -4.602543e-01  8.100000e-01
   endloop
 endfacet
 facet normal  0.000000e+00  0.000000e+00 -1.000000e+00
   outer loop
     vertex  4.401759e-01 -4.602534e-01  8.100000e-01
     vertex  4.391832e-01 -4.651151e-01  8.100000e-01
     vertex  3.598243e-01 -4.602543e-01  8.100000e-01
   endloop
 endfacet
 facet normal  0.000000e+00  0.000000e+00  1.000000e+00
   outer loop
     vertex  4.391832e-01 -4.651151e-01  8.500000e-01
     vertex  3.598243e-01 -4.602543e-01  8.500000e-01
     vertex  3.608169e-01 -4.651160e-01  8.500000e-01
   endloop
 endfacet
 facet normal  0.000000e+00  0.000000e+00  1.000000e+00
   outer loop
     vertex  4.401759e-01 -4.602534e-01  8.500000e-01
     vertex  3.598243e-01 -4.602543e-01  8.500000e-01
     vertex  4.391832e-01 -4.651151e-01  8.500000e-01
   endloop
 endfacet
endsolid
