solid
 facet normal -2.782337e-01  9.605134e-01 -1.205659e-18
   outer loop
     vertex -4.602536e-01 -3.598242e-01  8.100000e-01
     vertex -4.554875e-01 -3.584436e-01  8.500000e-01
     vertex -4.554875e-01 -3.584436e-01  8.100000e-01
   endloop
 endfacet
 facet normal -2.782337e-01  9.605134e-01  0.000000e+00
   outer loop
     vertex -4.602536e-01 -3.598242e-01  8.100000e-01
     vertex -4.602536e-01 -3.598242e-01  8.500000e-01
     vertex -4.554875e-01 -3.584436e-01  8.500000e-01
   endloop
 endfacet
 facet normal -7.071060e-01 -7.071075e-01  8.050624e-17
   outer loop
     vertex -3.598241e-01 -4.602534e-01  8.100000e-01
     vertex -4.602536e-01 -3.598242e-01  8.500000e-01
     vertex -4.602536e-01 -3.598242e-01  8.100000e-01
   endloop
 endfacet
 facet normal -7.071060e-01 -7.071075e-01  0.000000e+00
   outer loop
     vertex -3.598241e-01 -4.602534e-01  8.100000e-01
     vertex -3.598241e-01 -4.602534e-01  8.500000e-01
     vertex -4.602536e-01 -3.598242e-01  8.500000e-01
   endloop
 endfacet
 facet normal  9.605127e-01 -2.782361e-01  1.767020e-18
   outer loop
     vertex -3.584435e-01 -4.554874e-01  8.100000e-01
     vertex -3.598241e-01 -4.602534e-01  8.500000e-01
     vertex -3.598241e-01 -4.602534e-01  8.100000e-01
   endloop
 endfacet
 facet normal  9.605127e-01 -2.782361e-01  0.000000e+00
   outer loop
     vertex -3.584435e-01 -4.554874e-01  8.100000e-01
     vertex -3.584435e-01 -4.554874e-01  8.500000e-01
     vertex -3.598241e-01 -4.602534e-01  8.500000e-01
   endloop
 endfacet
 facet normal  7.071062e-01  7.071074e-01 -3.963475e-17
   outer loop
     vertex -4.554875e-01 -3.584436e-01  8.100000e-01
     vertex -3.584435e-01 -4.554874e-01  8.500000e-01
     vertex -3.584435e-01 -4.554874e-01  8.100000e-01
   endloop
 endfacet
 facet normal  7.071062e-01  7.071074e-01 -0.000000e+00
   outer loop
     vertex -4.554875e-01 -3.584436e-01  8.100000e-01
     vertex -4.554875e-01 -3.584436e-01  8.500000e-01
     vertex -3.584435e-01 -4.554874e-01  8.500000e-01
   endloop
 endfacet
 facet normal  0.000000e+00 -0.000000e+00 -1.000000e+00
   outer loop
     vertex -4.554875e-01 -3.584436e-01  8.100000e-01
     vertex -3.598241e-01 -4.602534e-01  8.100000e-01
     vertex -4.602536e-01 -3.598242e-01  8.100000e-01
   endloop
 endfacet
 facet normal -0.000000e+00  0.000000e+00 -1.000000e+00
   outer loop
     vertex -3.584435e-01 -4.554874e-01  8.100000e-01
     vertex -3.598241e-01 -4.602534e-01  8.100000e-01
     vertex -4.554875e-01 -3.584436e-01  8.100000e-01
   endloop
 endfacet
 facet normal  0.000000e+00  0.000000e+00  1.000000e+00
   outer loop
     vertex -4.554875e-01 -3.584436e-01  8.500000e-01
     vertex -4.602536e-01 -3.598242e-01  8.500000e-01
     vertex -3.598241e-01 -4.602534e-01  8.500000e-01
   endloop
 endfacet
 facet normal  0.000000e+00  0.000000e+00  1.000000e+00
   outer loop
     vertex -3.584435e-01 -4.554874e-01  8.500000e-01
     vertex -4.554875e-01 -3.584436e-01  8.500000e-01
     vertex -3.598241e-01 -4.602534e-01  8.500000e-01
   endloop
 endfacet
endsolid
