solid
 facet normal -1.000000e+00  0.000000e+00  0.000000e+00
   outer loop
     vertex -5.158578e-01 -5.388031e-02  8.100000e-01
     vertex -5.158578e-01  5.388031e-02  8.500000e-01
     vertex -5.158578e-01  5.388031e-02  8.100000e-01
   endloop
 endfacet
 facet normal -1.000000e+00  0.000000e+00  0.000000e+00
   outer loop
     vertex -5.158578e-01 -5.388031e-02  8.100000e-01
     vertex -5.158578e-01 -5.388031e-02  8.500000e-01
     vertex -5.158578e-01  5.388031e-02  8.500000e-01
   endloop
 endfacet
 facet normal  6.324345e-01 -7.746139e-01 -2.537269e-19
   outer loop
     vertex -5.120142e-01 -5.074219e-02  8.100000e-01
     vertex -5.158578e-01 -5.388031e-02  8.500000e-01
     vertex -5.158578e-01 -5.388031e-02  8.100000e-01
   endloop
 endfacet
 facet normal  6.324345e-01 -7.746139e-01  0.000000e+00
   outer loop
     vertex -5.120142e-01 -5.074219e-02  8.100000e-01
     vertex -5.120142e-01 -5.074219e-02  8.500000e-01
     vertex -5.158578e-01 -5.388031e-02  8.500000e-01
   endloop
 endfacet
 facet normal  1.000000e+00  0.000000e+00  0.000000e+00
   outer loop
     vertex -5.120142e-01  5.074219e-02  8.100000e-01
     vertex -5.120142e-01 -5.074219e-02  8.500000e-01
     vertex -5.120142e-01 -5.074219e-02  8.100000e-01
   endloop
 endfacet
 facet normal  1.000000e+00  0.000000e+00 -0.000000e+00
   outer loop
     vertex -5.120142e-01  5.074219e-02  8.100000e-01
     vertex -5.120142e-01  5.074219e-02  8.500000e-01
     vertex -5.120142e-01 -5.074219e-02  8.500000e-01
   endloop
 endfacet
 facet normal  6.324345e-01  7.746139e-01  2.537269e-19
   outer loop
     vertex -5.158578e-01  5.388031e-02  8.100000e-01
     vertex -5.120142e-01  5.074219e-02  8.500000e-01
     vertex -5.120142e-01  5.074219e-02  8.100000e-01
   endloop
 endfacet
 facet normal  6.324345e-01  7.746139e-01 -0.000000e+00
   outer loop
     vertex -5.158578e-01  5.388031e-02  8.100000e-01
     vertex -5.158578e-01  5.388031e-02  8.500000e-01
     vertex -5.120142e-01  5.074219e-02  8.500000e-01
   endloop
 endfacet
 facet normal -0.000000e+00  0.000000e+00 -1.000000e+00
   outer loop
     vertex -5.120142e-01  5.074219e-02  8.100000e-01
     vertex -5.158578e-01 -5.388031e-02  8.100000e-01
     vertex -5.158578e-01  5.388031e-02  8.100000e-01
   endloop
 endfacet
 facet normal  0.000000e+00 -0.000000e+00 -1.000000e+00
   outer loop
     vertex -5.120142e-01  5.074219e-02  8.100000e-01
     vertex -5.120142e-01 -5.074219e-02  8.100000e-01
     vertex -5.158578e-01 -5.388031e-02  8.100000e-01
   endloop
 endfacet
 facet normal  0.000000e+00  0.000000e+00  1.000000e+00
   outer loop
     vertex -5.120142e-01  5.074219e-02  8.500000e-01
     vertex -5.158578e-01  5.388031e-02  8.500000e-01
     vertex -5.158578e-01 -5.388031e-02  8.500000e-01
   endloop
 endfacet
 facet normal  0.000000e+00  0.000000e+00  1.000000e+00
   outer loop
     vertex -5.120142e-01  5.074219e-02  8.500000e-01
     vertex -5.158578e-01 -5.388031e-02  8.500000e-01
     vertex -5.120142e-01 -5.074219e-02  8.500000e-01
   endloop
 endfacet
endsolid
