solid
 facet normal  6.927169e-01  7.212096e-01 -4.523711e-19
   outer loop
     vertex -5.194364e-01 -1.426824e-01  8.100000e-01
     vertex -5.158578e-01 -1.461197e-01  8.500000e-01
     vertex -5.158578e-01 -1.461197e-01  8.100000e-01
   endloop
 endfacet
 facet normal  6.927169e-01  7.212096e-01 -0.000000e+00
   outer loop
     vertex -5.194364e-01 -1.426824e-01  8.100000e-01
     vertex -5.194364e-01 -1.426824e-01  8.500000e-01
     vertex -5.158578e-01 -1.461197e-01  8.500000e-01
   endloop
 endfacet
 facet normal -1.000000e+00  0.000000e+00  0.000000e+00
   outer loop
     vertex -5.194364e-01 -2.573176e-01  8.100000e-01
     vertex -5.194364e-01 -1.426824e-01  8.500000e-01
     vertex -5.194364e-01 -1.426824e-01  8.100000e-01
   endloop
 endfacet
 facet normal -1.000000e+00  0.000000e+00  0.000000e+00
   outer loop
     vertex -5.194364e-01 -2.573176e-01  8.100000e-01
     vertex -5.194364e-01 -2.573176e-01  8.500000e-01
     vertex -5.194364e-01 -1.426824e-01  8.500000e-01
   endloop
 endfacet
 facet normal  6.927169e-01 -7.212096e-01  3.590138e-18
   outer loop
     vertex -5.158578e-01 -2.538803e-01  8.100000e-01
     vertex -5.194364e-01 -2.573176e-01  8.500000e-01
     vertex -5.194364e-01 -2.573176e-01  8.100000e-01
   endloop
 endfacet
 facet normal  6.927169e-01 -7.212096e-01  0.000000e+00
   outer loop
     vertex -5.158578e-01 -2.538803e-01  8.100000e-01
     vertex -5.158578e-01 -2.538803e-01  8.500000e-01
     vertex -5.194364e-01 -2.573176e-01  8.500000e-01
   endloop
 endfacet
 facet normal  1.000000e+00  0.000000e+00  0.000000e+00
   outer loop
     vertex -5.158578e-01 -1.461197e-01  8.100000e-01
     vertex -5.158578e-01 -2.538803e-01  8.500000e-01
     vertex -5.158578e-01 -2.538803e-01  8.100000e-01
   endloop
 endfacet
 facet normal  1.000000e+00  0.000000e+00 -0.000000e+00
   outer loop
     vertex -5.158578e-01 -1.461197e-01  8.100000e-01
     vertex -5.158578e-01 -1.461197e-01  8.500000e-01
     vertex -5.158578e-01 -2.538803e-01  8.500000e-01
   endloop
 endfacet
 facet normal -0.000000e+00  0.000000e+00 -1.000000e+00
   outer loop
     vertex -5.158578e-01 -1.461197e-01  8.100000e-01
     vertex -5.194364e-01 -2.573176e-01  8.100000e-01
     vertex -5.194364e-01 -1.426824e-01  8.100000e-01
   endloop
 endfacet
 facet normal  0.000000e+00 -0.000000e+00 -1.000000e+00
   outer loop
     vertex -5.158578e-01 -1.461197e-01  8.100000e-01
     vertex -5.158578e-01 -2.538803e-01  8.100000e-01
     vertex -5.194364e-01 -2.573176e-01  8.100000e-01
   endloop
 endfacet
 facet normal  0.000000e+00  0.000000e+00  1.000000e+00
   outer loop
     vertex -5.158578e-01 -1.461197e-01  8.500000e-01
     vertex -5.194364e-01 -1.426824e-01  8.500000e-01
     vertex -5.194364e-01 -2.573176e-01  8.500000e-01
   endloop
 endfacet
 facet normal  0.000000e+00  0.000000e+00  1.000000e+00
   outer loop
     vertex -5.158578e-01 -1.461197e-01  8.500000e-01
     vertex -5.194364e-01 -2.573176e-01  8.500000e-01
     vertex -5.158578e-01 -2.538803e-01  8.500000e-01
   endloop
 endfacet
endsolid
