solid
 facet normal -5.344607e-01  8.451933e-01 -8.413139e-19
   outer loop
     vertex  5.308071e-01 -5.283602e-01  8.100000e-01
     vertex  5.350010e-01 -5.257082e-01  8.500000e-01
     vertex  5.350010e-01 -5.257082e-01  8.100000e-01
   endloop
 endfacet
 facet normal -5.344607e-01  8.451933e-01  0.000000e+00
   outer loop
     vertex  5.308071e-01 -5.283602e-01  8.100000e-01
     vertex  5.308071e-01 -5.283602e-01  8.500000e-01
     vertex  5.350010e-01 -5.257082e-01  8.500000e-01
   endloop
 endfacet
 facet normal -7.192841e-01 -6.947161e-01  1.074787e-16
   outer loop
     vertex  6.000000e-01 -6.000000e-01  8.100000e-01
     vertex  5.308071e-01 -5.283602e-01  8.500000e-01
     vertex  5.308071e-01 -5.283602e-01  8.100000e-01
   endloop
 endfacet
 facet normal -7.192841e-01 -6.947161e-01  0.000000e+00
   outer loop
     vertex  6.000000e-01 -6.000000e-01  8.100000e-01
     vertex  6.000000e-01 -6.000000e-01  8.500000e-01
     vertex  5.308071e-01 -5.283602e-01  8.500000e-01
   endloop
 endfacet
 facet normal  7.526084e-01  6.584684e-01  7.455051e-18
   outer loop
     vertex  5.350010e-01 -5.257082e-01  8.100000e-01
     vertex  6.000000e-01 -6.000000e-01  8.500000e-01
     vertex  6.000000e-01 -6.000000e-01  8.100000e-01
   endloop
 endfacet
 facet normal  7.526084e-01  6.584684e-01 -0.000000e+00
   outer loop
     vertex  5.350010e-01 -5.257082e-01  8.100000e-01
     vertex  5.350010e-01 -5.257082e-01  8.500000e-01
     vertex  6.000000e-01 -6.000000e-01  8.500000e-01
   endloop
 endfacet
 facet normal  0.000000e+00 -0.000000e+00 -1.000000e+00
   outer loop
     vertex  5.350010e-01 -5.257082e-01  8.100000e-01
     vertex  6.000000e-01 -6.000000e-01  8.100000e-01
     vertex  5.308071e-01 -5.283602e-01  8.100000e-01
   endloop
 endfacet
 facet normal  0.000000e+00  0.000000e+00  1.000000e+00
   outer loop
     vertex  5.350010e-01 -5.257082e-01  8.500000e-01
     vertex  5.308071e-01 -5.283602e-01  8.500000e-01
     vertex  6.000000e-01 -6.000000e-01  8.500000e-01
   endloop
 endfacet
endsolid
