solid
 facet normal -7.847402e-01  6.198249e-01  7.154567e-17
   outer loop
     vertex  5.389669e-01 -4.272720e-01  8.100000e-01
     vertex  6.000000e-01 -3.500000e-01  8.500000e-01
     vertex  6.000000e-01 -3.500000e-01  8.100000e-01
   endloop
 endfacet
 facet normal -7.847402e-01  6.198249e-01  0.000000e+00
   outer loop
     vertex  5.389669e-01 -4.272720e-01  8.100000e-01
     vertex  5.389669e-01 -4.272720e-01  8.500000e-01
     vertex  6.000000e-01 -3.500000e-01  8.500000e-01
   endloop
 endfacet
 facet normal -6.631076e-01 -7.485241e-01  4.185910e-18
   outer loop
     vertex  5.426812e-01 -4.305624e-01  8.100000e-01
     vertex  5.389669e-01 -4.272720e-01  8.500000e-01
     vertex  5.389669e-01 -4.272720e-01  8.100000e-01
   endloop
 endfacet
 facet normal -6.631076e-01 -7.485241e-01  0.000000e+00
   outer loop
     vertex  5.426812e-01 -4.305624e-01  8.100000e-01
     vertex  5.426812e-01 -4.305624e-01  8.500000e-01
     vertex  5.389669e-01 -4.272720e-01  8.500000e-01
   endloop
 endfacet
 facet normal  8.148118e-01 -5.797255e-01 -3.224442e-17
   outer loop
     vertex  6.000000e-01 -3.500000e-01  8.100000e-01
     vertex  5.426812e-01 -4.305624e-01  8.500000e-01
     vertex  5.426812e-01 -4.305624e-01  8.100000e-01
   endloop
 endfacet
 facet normal  8.148118e-01 -5.797255e-01  0.000000e+00
   outer loop
     vertex  6.000000e-01 -3.500000e-01  8.100000e-01
     vertex  6.000000e-01 -3.500000e-01  8.500000e-01
     vertex  5.426812e-01 -4.305624e-01  8.500000e-01
   endloop
 endfacet
 facet normal  0.000000e+00  0.000000e+00 -1.000000e+00
   outer loop
     vertex  6.000000e-01 -3.500000e-01  8.100000e-01
     vertex  5.426812e-01 -4.305624e-01  8.100000e-01
     vertex  5.389669e-01 -4.272720e-01  8.100000e-01
   endloop
 endfacet
 facet normal  0.000000e+00  0.000000e+00  1.000000e+00
   outer loop
     vertex  6.000000e-01 -3.500000e-01  8.500000e-01
     vertex  5.389669e-01 -4.272720e-01  8.500000e-01
     vertex  5.426812e-01 -4.305624e-01  8.500000e-01
   endloop
 endfacet
endsolid
