solid
 facet normal  5.680600e-01  8.229871e-01 -1.825408e-19
   outer loop
     vertex -5.120142e-01  5.074219e-02  8.100000e-01
     vertex -5.079305e-01  4.792346e-02  8.500000e-01
     vertex -5.079305e-01  4.792346e-02  8.100000e-01
   endloop
 endfacet
 facet normal  5.680600e-01  8.229871e-01 -0.000000e+00
   outer loop
     vertex -5.120142e-01  5.074219e-02  8.100000e-01
     vertex -5.120142e-01  5.074219e-02  8.500000e-01
     vertex -5.079305e-01  4.792346e-02  8.500000e-01
   endloop
 endfacet
 facet normal -1.000000e+00  0.000000e+00  0.000000e+00
   outer loop
     vertex -5.120142e-01 -5.074219e-02  8.100000e-01
     vertex -5.120142e-01  5.074219e-02  8.500000e-01
     vertex -5.120142e-01  5.074219e-02  8.100000e-01
   endloop
 endfacet
 facet normal -1.000000e+00  0.000000e+00  0.000000e+00
   outer loop
     vertex -5.120142e-01 -5.074219e-02  8.100000e-01
     vertex -5.120142e-01 -5.074219e-02  8.500000e-01
     vertex -5.120142e-01  5.074219e-02  8.500000e-01
   endloop
 endfacet
 facet normal  5.680600e-01 -8.229871e-01  1.825408e-19
   outer loop
     vertex -5.079305e-01 -4.792346e-02  8.100000e-01
     vertex -5.120142e-01 -5.074219e-02  8.500000e-01
     vertex -5.120142e-01 -5.074219e-02  8.100000e-01
   endloop
 endfacet
 facet normal  5.680600e-01 -8.229871e-01  0.000000e+00
   outer loop
     vertex -5.079305e-01 -4.792346e-02  8.100000e-01
     vertex -5.079305e-01 -4.792346e-02  8.500000e-01
     vertex -5.120142e-01 -5.074219e-02  8.500000e-01
   endloop
 endfacet
 facet normal  1.000000e+00  0.000000e+00  0.000000e+00
   outer loop
     vertex -5.079305e-01  4.792346e-02  8.100000e-01
     vertex -5.079305e-01 -4.792346e-02  8.500000e-01
     vertex -5.079305e-01 -4.792346e-02  8.100000e-01
   endloop
 endfacet
 facet normal  1.000000e+00  0.000000e+00 -0.000000e+00
   outer loop
     vertex -5.079305e-01  4.792346e-02  8.100000e-01
     vertex -5.079305e-01  4.792346e-02  8.500000e-01
     vertex -5.079305e-01 -4.792346e-02  8.500000e-01
   endloop
 endfacet
 facet normal -0.000000e+00  0.000000e+00 -1.000000e+00
   outer loop
     vertex -5.079305e-01  4.792346e-02  8.100000e-01
     vertex -5.120142e-01 -5.074219e-02  8.100000e-01
     vertex -5.120142e-01  5.074219e-02  8.100000e-01
   endloop
 endfacet
 facet normal  0.000000e+00 -0.000000e+00 -1.000000e+00
   outer loop
     vertex -5.079305e-01  4.792346e-02  8.100000e-01
     vertex -5.079305e-01 -4.792346e-02  8.100000e-01
     vertex -5.120142e-01 -5.074219e-02  8.100000e-01
   endloop
 endfacet
 facet normal  0.000000e+00  0.000000e+00  1.000000e+00
   outer loop
     vertex -5.079305e-01  4.792346e-02  8.500000e-01
     vertex -5.120142e-01  5.074219e-02  8.500000e-01
     vertex -5.120142e-01 -5.074219e-02  8.500000e-01
   endloop
 endfacet
 facet normal  0.000000e+00  0.000000e+00  1.000000e+00
   outer loop
     vertex -5.079305e-01  4.792346e-02  8.500000e-01
     vertex -5.120142e-01 -5.074219e-02  8.500000e-01
     vertex -5.079305e-01 -4.792346e-02  8.500000e-01
   endloop
 endfacet
endsolid
