solid
 facet normal  5.933596e-01  8.049375e-01  2.371898e-17
   outer loop
     vertex  5.123241e-01 -5.353697e-01  8.100000e-01
     vertex  6.000000e-01 -6.000000e-01  8.500000e-01
     vertex  6.000000e-01 -6.000000e-01  8.100000e-01
   endloop
 endfacet
 facet normal  5.933596e-01  8.049375e-01 -0.000000e+00
   outer loop
     vertex  5.123241e-01 -5.353697e-01  8.100000e-01
     vertex  5.123241e-01 -5.353697e-01  8.500000e-01
     vertex  6.000000e-01 -6.000000e-01  8.500000e-01
   endloop
 endfacet
 facet normal -1.604033e-01  9.870516e-01  1.499868e-18
   outer loop
     vertex  5.074264e-01 -5.361656e-01  8.100000e-01
     vertex  5.123241e-01 -5.353697e-01  8.500000e-01
     vertex  5.123241e-01 -5.353697e-01  8.100000e-01
   endloop
 endfacet
 facet normal -1.604033e-01  9.870516e-01  0.000000e+00
   outer loop
     vertex  5.074264e-01 -5.361656e-01  8.100000e-01
     vertex  5.074264e-01 -5.361656e-01  8.500000e-01
     vertex  5.123241e-01 -5.353697e-01  8.500000e-01
   endloop
 endfacet
 facet normal -5.676757e-01 -8.232523e-01 -1.019459e-17
   outer loop
     vertex  6.000000e-01 -6.000000e-01  8.100000e-01
     vertex  5.074264e-01 -5.361656e-01  8.500000e-01
     vertex  5.074264e-01 -5.361656e-01  8.100000e-01
   endloop
 endfacet
 facet normal -5.676757e-01 -8.232523e-01  0.000000e+00
   outer loop
     vertex  6.000000e-01 -6.000000e-01  8.100000e-01
     vertex  6.000000e-01 -6.000000e-01  8.500000e-01
     vertex  5.074264e-01 -5.361656e-01  8.500000e-01
   endloop
 endfacet
 facet normal  0.000000e+00  0.000000e+00 -1.000000e+00
   outer loop
     vertex  6.000000e-01 -6.000000e-01  8.100000e-01
     vertex  5.074264e-01 -5.361656e-01  8.100000e-01
     vertex  5.123241e-01 -5.353697e-01  8.100000e-01
   endloop
 endfacet
 facet normal  0.000000e+00  0.000000e+00  1.000000e+00
   outer loop
     vertex  6.000000e-01 -6.000000e-01  8.500000e-01
     vertex  5.123241e-01 -5.353697e-01  8.500000e-01
     vertex  5.074264e-01 -5.361656e-01  8.500000e-01
   endloop
 endfacet
endsolid
