solid
 facet normal -8.870247e-01  4.617220e-01  5.554580e-17
   outer loop
     vertex  5.520758e-01 -4.420683e-01  8.100000e-01
     vertex  6.000000e-01 -3.500000e-01  8.500000e-01
     vertex  6.000000e-01 -3.500000e-01  8.100000e-01
   endloop
 endfacet
 facet normal -8.870247e-01  4.617220e-01  0.000000e+00
   outer loop
     vertex  5.520758e-01 -4.420683e-01  8.100000e-01
     vertex  5.520758e-01 -4.420683e-01  8.500000e-01
     vertex  6.000000e-01 -3.500000e-01  8.500000e-01
   endloop
 endfacet
 facet normal -8.660204e-01 -5.000086e-01  3.225585e-18
   outer loop
     vertex  5.545569e-01 -4.463655e-01  8.100000e-01
     vertex  5.520758e-01 -4.420683e-01  8.500000e-01
     vertex  5.520758e-01 -4.420683e-01  8.100000e-01
   endloop
 endfacet
 facet normal -8.660204e-01 -5.000086e-01  0.000000e+00
   outer loop
     vertex  5.545569e-01 -4.463655e-01  8.100000e-01
     vertex  5.545569e-01 -4.463655e-01  8.500000e-01
     vertex  5.520758e-01 -4.420683e-01  8.500000e-01
   endloop
 endfacet
 facet normal  9.044762e-01 -4.265241e-01 -6.610243e-18
   outer loop
     vertex  6.000000e-01 -3.500000e-01  8.100000e-01
     vertex  5.545569e-01 -4.463655e-01  8.500000e-01
     vertex  5.545569e-01 -4.463655e-01  8.100000e-01
   endloop
 endfacet
 facet normal  9.044762e-01 -4.265241e-01  0.000000e+00
   outer loop
     vertex  6.000000e-01 -3.500000e-01  8.100000e-01
     vertex  6.000000e-01 -3.500000e-01  8.500000e-01
     vertex  5.545569e-01 -4.463655e-01  8.500000e-01
   endloop
 endfacet
 facet normal  0.000000e+00  0.000000e+00 -1.000000e+00
   outer loop
     vertex  6.000000e-01 -3.500000e-01  8.100000e-01
     vertex  5.545569e-01 -4.463655e-01  8.100000e-01
     vertex  5.520758e-01 -4.420683e-01  8.100000e-01
   endloop
 endfacet
 facet normal  0.000000e+00  0.000000e+00  1.000000e+00
   outer loop
     vertex  6.000000e-01 -3.500000e-01  8.500000e-01
     vertex  5.520758e-01 -4.420683e-01  8.500000e-01
     vertex  5.545569e-01 -4.463655e-01  8.500000e-01
   endloop
 endfacet
endsolid
