solid
 facet normal -9.797895e-01  2.000312e-01  1.228649e-18
   outer loop
     vertex -2.401756e-01 -4.897455e-01  8.100000e-01
     vertex -2.391831e-01 -4.848838e-01  8.500000e-01
     vertex -2.391831e-01 -4.848838e-01  8.100000e-01
   endloop
 endfacet
 facet normal -9.797895e-01  2.000312e-01  0.000000e+00
   outer loop
     vertex -2.401756e-01 -4.897455e-01  8.100000e-01
     vertex -2.401756e-01 -4.897455e-01  8.500000e-01
     vertex -2.391831e-01 -4.848838e-01  8.500000e-01
   endloop
 endfacet
 facet normal  1.357793e-05 -1.000000e+00  5.314154e-22
   outer loop
     vertex -1.598246e-01 -4.897444e-01  8.100000e-01
     vertex -2.401756e-01 -4.897455e-01  8.500000e-01
     vertex -2.401756e-01 -4.897455e-01  8.100000e-01
   endloop
 endfacet
 facet normal  1.357793e-05 -1.000000e+00  0.000000e+00
   outer loop
     vertex -1.598246e-01 -4.897444e-01  8.100000e-01
     vertex -1.598246e-01 -4.897444e-01  8.500000e-01
     vertex -2.401756e-01 -4.897455e-01  8.500000e-01
   endloop
 endfacet
 facet normal  9.797945e-01  2.000070e-01 -3.792077e-19
   outer loop
     vertex -1.608171e-01 -4.848827e-01  8.100000e-01
     vertex -1.598246e-01 -4.897444e-01  8.500000e-01
     vertex -1.598246e-01 -4.897444e-01  8.100000e-01
   endloop
 endfacet
 facet normal  9.797945e-01  2.000070e-01 -0.000000e+00
   outer loop
     vertex -1.608171e-01 -4.848827e-01  8.100000e-01
     vertex -1.608171e-01 -4.848827e-01  8.500000e-01
     vertex -1.598246e-01 -4.897444e-01  8.500000e-01
   endloop
 endfacet
 facet normal -1.411709e-05  1.000000e+00  9.980844e-22
   outer loop
     vertex -2.391831e-01 -4.848838e-01  8.100000e-01
     vertex -1.608171e-01 -4.848827e-01  8.500000e-01
     vertex -1.608171e-01 -4.848827e-01  8.100000e-01
   endloop
 endfacet
 facet normal -1.411709e-05  1.000000e+00  0.000000e+00
   outer loop
     vertex -2.391831e-01 -4.848838e-01  8.100000e-01
     vertex -2.391831e-01 -4.848838e-01  8.500000e-01
     vertex -1.608171e-01 -4.848827e-01  8.500000e-01
   endloop
 endfacet
 facet normal -0.000000e+00  0.000000e+00 -1.000000e+00
   outer loop
     vertex -1.598246e-01 -4.897444e-01  8.100000e-01
     vertex -2.401756e-01 -4.897455e-01  8.100000e-01
     vertex -2.391831e-01 -4.848838e-01  8.100000e-01
   endloop
 endfacet
 facet normal  0.000000e+00 -0.000000e+00 -1.000000e+00
   outer loop
     vertex -1.608171e-01 -4.848827e-01  8.100000e-01
     vertex -1.598246e-01 -4.897444e-01  8.100000e-01
     vertex -2.391831e-01 -4.848838e-01  8.100000e-01
   endloop
 endfacet
 facet normal  0.000000e+00  0.000000e+00  1.000000e+00
   outer loop
     vertex -1.598246e-01 -4.897444e-01  8.500000e-01
     vertex -2.391831e-01 -4.848838e-01  8.500000e-01
     vertex -2.401756e-01 -4.897455e-01  8.500000e-01
   endloop
 endfacet
 facet normal  0.000000e+00  0.000000e+00  1.000000e+00
   outer loop
     vertex -1.608171e-01 -4.848827e-01  8.500000e-01
     vertex -2.391831e-01 -4.848838e-01  8.500000e-01
     vertex -1.598246e-01 -4.897444e-01  8.500000e-01
   endloop
 endfacet
endsolid
