solid
 facet normal -7.212006e-01  6.927263e-01 -3.704591e-18
   outer loop
     vertex -2.573181e-01 -5.194370e-01  8.100000e-01
     vertex -2.538808e-01 -5.158584e-01  8.500000e-01
     vertex -2.538808e-01 -5.158584e-01  8.100000e-01
   endloop
 endfacet
 facet normal -7.212006e-01  6.927263e-01  0.000000e+00
   outer loop
     vertex -2.573181e-01 -5.194370e-01  8.100000e-01
     vertex -2.573181e-01 -5.194370e-01  8.500000e-01
     vertex -2.538808e-01 -5.158584e-01  8.500000e-01
   endloop
 endfacet
 facet normal  6.722180e-06 -1.000000e+00  2.956175e-22
   outer loop
     vertex -1.426827e-01 -5.194362e-01  8.100000e-01
     vertex -2.573181e-01 -5.194370e-01  8.500000e-01
     vertex -2.573181e-01 -5.194370e-01  8.100000e-01
   endloop
 endfacet
 facet normal  6.722180e-06 -1.000000e+00  0.000000e+00
   outer loop
     vertex -1.426827e-01 -5.194362e-01  8.100000e-01
     vertex -1.426827e-01 -5.194362e-01  8.500000e-01
     vertex -2.573181e-01 -5.194370e-01  8.500000e-01
   endloop
 endfacet
 facet normal  7.212103e-01  6.927162e-01 -3.604961e-18
   outer loop
     vertex -1.461199e-01 -5.158575e-01  8.100000e-01
     vertex -1.426827e-01 -5.194362e-01  8.500000e-01
     vertex -1.426827e-01 -5.194362e-01  8.100000e-01
   endloop
 endfacet
 facet normal  7.212103e-01  6.927162e-01 -0.000000e+00
   outer loop
     vertex -1.461199e-01 -5.158575e-01  8.100000e-01
     vertex -1.461199e-01 -5.158575e-01  8.500000e-01
     vertex -1.426827e-01 -5.194362e-01  8.500000e-01
   endloop
 endfacet
 facet normal -7.787612e-06  1.000000e+00  9.289111e-23
   outer loop
     vertex -2.538808e-01 -5.158584e-01  8.100000e-01
     vertex -1.461199e-01 -5.158575e-01  8.500000e-01
     vertex -1.461199e-01 -5.158575e-01  8.100000e-01
   endloop
 endfacet
 facet normal -7.787612e-06  1.000000e+00  0.000000e+00
   outer loop
     vertex -2.538808e-01 -5.158584e-01  8.100000e-01
     vertex -2.538808e-01 -5.158584e-01  8.500000e-01
     vertex -1.461199e-01 -5.158575e-01  8.500000e-01
   endloop
 endfacet
 facet normal -0.000000e+00  0.000000e+00 -1.000000e+00
   outer loop
     vertex -1.426827e-01 -5.194362e-01  8.100000e-01
     vertex -2.573181e-01 -5.194370e-01  8.100000e-01
     vertex -2.538808e-01 -5.158584e-01  8.100000e-01
   endloop
 endfacet
 facet normal  0.000000e+00 -0.000000e+00 -1.000000e+00
   outer loop
     vertex -1.461199e-01 -5.158575e-01  8.100000e-01
     vertex -1.426827e-01 -5.194362e-01  8.100000e-01
     vertex -2.538808e-01 -5.158584e-01  8.100000e-01
   endloop
 endfacet
 facet normal  0.000000e+00  0.000000e+00  1.000000e+00
   outer loop
     vertex -1.426827e-01 -5.194362e-01  8.500000e-01
     vertex -2.538808e-01 -5.158584e-01  8.500000e-01
     vertex -2.573181e-01 -5.194370e-01  8.500000e-01
   endloop
 endfacet
 facet normal  0.000000e+00  0.000000e+00  1.000000e+00
   outer loop
     vertex -1.461199e-01 -5.158575e-01  8.500000e-01
     vertex -2.538808e-01 -5.158584e-01  8.500000e-01
     vertex -1.426827e-01 -5.194362e-01  8.500000e-01
   endloop
 endfacet
endsolid
