solid
 facet normal -9.605158e-01  2.782256e-01  1.822936e-18
   outer loop
     vertex  3.584438e-01 -4.945116e-01  8.100000e-01
     vertex  3.598244e-01 -4.897455e-01  8.500000e-01
     vertex  3.598244e-01 -4.897455e-01  8.100000e-01
   endloop
 endfacet
 facet normal -9.605158e-01  2.782256e-01  0.000000e+00
   outer loop
     vertex  3.584438e-01 -4.945116e-01  8.100000e-01
     vertex  3.584438e-01 -4.945116e-01  8.500000e-01
     vertex  3.598244e-01 -4.897455e-01  8.500000e-01
   endloop
 endfacet
 facet normal  1.275990e-05 -1.000000e+00 -1.538400e-21
   outer loop
     vertex  4.415558e-01 -4.945105e-01  8.100000e-01
     vertex  3.584438e-01 -4.945116e-01  8.500000e-01
     vertex  3.584438e-01 -4.945116e-01  8.100000e-01
   endloop
 endfacet
 facet normal  1.275990e-05 -1.000000e+00  0.000000e+00
   outer loop
     vertex  4.415558e-01 -4.945105e-01  8.100000e-01
     vertex  4.415558e-01 -4.945105e-01  8.500000e-01
     vertex  3.584438e-01 -4.945116e-01  8.500000e-01
   endloop
 endfacet
 facet normal  9.605195e-01  2.782126e-01  1.528795e-18
   outer loop
     vertex  4.401753e-01 -4.897444e-01  8.100000e-01
     vertex  4.415558e-01 -4.945105e-01  8.500000e-01
     vertex  4.415558e-01 -4.945105e-01  8.100000e-01
   endloop
 endfacet
 facet normal  9.605195e-01  2.782126e-01 -0.000000e+00
   outer loop
     vertex  4.401753e-01 -4.897444e-01  8.100000e-01
     vertex  4.401753e-01 -4.897444e-01  8.500000e-01
     vertex  4.415558e-01 -4.945105e-01  8.500000e-01
   endloop
 endfacet
 facet normal -1.357795e-05  1.000000e+00  1.771632e-21
   outer loop
     vertex  3.598244e-01 -4.897455e-01  8.100000e-01
     vertex  4.401753e-01 -4.897444e-01  8.500000e-01
     vertex  4.401753e-01 -4.897444e-01  8.100000e-01
   endloop
 endfacet
 facet normal -1.357795e-05  1.000000e+00  0.000000e+00
   outer loop
     vertex  3.598244e-01 -4.897455e-01  8.100000e-01
     vertex  3.598244e-01 -4.897455e-01  8.500000e-01
     vertex  4.401753e-01 -4.897444e-01  8.500000e-01
   endloop
 endfacet
 facet normal -0.000000e+00  0.000000e+00 -1.000000e+00
   outer loop
     vertex  4.415558e-01 -4.945105e-01  8.100000e-01
     vertex  3.584438e-01 -4.945116e-01  8.100000e-01
     vertex  3.598244e-01 -4.897455e-01  8.100000e-01
   endloop
 endfacet
 facet normal  0.000000e+00 -0.000000e+00 -1.000000e+00
   outer loop
     vertex  4.401753e-01 -4.897444e-01  8.100000e-01
     vertex  4.415558e-01 -4.945105e-01  8.100000e-01
     vertex  3.598244e-01 -4.897455e-01  8.100000e-01
   endloop
 endfacet
 facet normal  0.000000e+00  0.000000e+00  1.000000e+00
   outer loop
     vertex  4.415558e-01 -4.945105e-01  8.500000e-01
     vertex  3.598244e-01 -4.897455e-01  8.500000e-01
     vertex  3.584438e-01 -4.945116e-01  8.500000e-01
   endloop
 endfacet
 facet normal  0.000000e+00  0.000000e+00  1.000000e+00
   outer loop
     vertex  4.401753e-01 -4.897444e-01  8.500000e-01
     vertex  3.598244e-01 -4.897455e-01  8.500000e-01
     vertex  4.415558e-01 -4.945105e-01  8.500000e-01
   endloop
 endfacet
endsolid
