solid
 facet normal -9.927078e-01  1.205454e-01 -9.671656e-19
   outer loop
     vertex  5.608169e-01 -4.848838e-01  8.100000e-01
     vertex  5.614150e-01 -4.799580e-01  8.500000e-01
     vertex  5.614150e-01 -4.799580e-01  8.100000e-01
   endloop
 endfacet
 facet normal -9.927078e-01  1.205454e-01  0.000000e+00
   outer loop
     vertex  5.608169e-01 -4.848838e-01  8.100000e-01
     vertex  5.608169e-01 -4.848838e-01  8.500000e-01
     vertex  5.614150e-01 -4.799580e-01  8.500000e-01
   endloop
 endfacet
 facet normal -9.466635e-01 -3.222240e-01 -1.869904e-17
   outer loop
     vertex  6.000000e-01 -6.000000e-01  8.100000e-01
     vertex  5.608169e-01 -4.848838e-01  8.500000e-01
     vertex  5.608169e-01 -4.848838e-01  8.100000e-01
   endloop
 endfacet
 facet normal -9.466635e-01 -3.222240e-01  0.000000e+00
   outer loop
     vertex  6.000000e-01 -6.000000e-01  8.100000e-01
     vertex  6.000000e-01 -6.000000e-01  8.500000e-01
     vertex  5.608169e-01 -4.848838e-01  8.500000e-01
   endloop
 endfacet
 facet normal  9.520285e-01  3.060093e-01 -9.762602e-18
   outer loop
     vertex  5.614150e-01 -4.799580e-01  8.100000e-01
     vertex  6.000000e-01 -6.000000e-01  8.500000e-01
     vertex  6.000000e-01 -6.000000e-01  8.100000e-01
   endloop
 endfacet
 facet normal  9.520285e-01  3.060093e-01 -0.000000e+00
   outer loop
     vertex  5.614150e-01 -4.799580e-01  8.100000e-01
     vertex  5.614150e-01 -4.799580e-01  8.500000e-01
     vertex  6.000000e-01 -6.000000e-01  8.500000e-01
   endloop
 endfacet
 facet normal  0.000000e+00 -0.000000e+00 -1.000000e+00
   outer loop
     vertex  5.614150e-01 -4.799580e-01  8.100000e-01
     vertex  6.000000e-01 -6.000000e-01  8.100000e-01
     vertex  5.608169e-01 -4.848838e-01  8.100000e-01
   endloop
 endfacet
 facet normal  0.000000e+00  0.000000e+00  1.000000e+00
   outer loop
     vertex  5.614150e-01 -4.799580e-01  8.500000e-01
     vertex  5.608169e-01 -4.848838e-01  8.500000e-01
     vertex  6.000000e-01 -6.000000e-01  8.500000e-01
   endloop
 endfacet
endsolid
