solid
 facet normal -3.166627e-01  9.485382e-01 -4.988920e-19
   outer loop
     vertex  3.171419e-01 -5.341823e-01  8.100000e-01
     vertex  3.218485e-01 -5.326110e-01  8.500000e-01
     vertex  3.218485e-01 -5.326110e-01  8.100000e-01
   endloop
 endfacet
 facet normal -3.166627e-01  9.485382e-01  0.000000e+00
   outer loop
     vertex  3.171419e-01 -5.341823e-01  8.100000e-01
     vertex  3.171419e-01 -5.341823e-01  8.500000e-01
     vertex  3.218485e-01 -5.326110e-01  8.500000e-01
   endloop
 endfacet
 facet normal -2.266336e-01 -9.739801e-01 -4.822405e-17
   outer loop
     vertex  6.000000e-01 -6.000000e-01  8.100000e-01
     vertex  3.171419e-01 -5.341823e-01  8.500000e-01
     vertex  3.171419e-01 -5.341823e-01  8.100000e-01
   endloop
 endfacet
 facet normal -2.266336e-01 -9.739801e-01  0.000000e+00
   outer loop
     vertex  6.000000e-01 -6.000000e-01  8.100000e-01
     vertex  6.000000e-01 -6.000000e-01  8.500000e-01
     vertex  3.171419e-01 -5.341823e-01  8.500000e-01
   endloop
 endfacet
 facet normal  4.898379e-01  8.718135e-01 -5.839247e-17
   outer loop
     vertex  4.828571e-01 -5.341820e-01  8.100000e-01
     vertex  6.000000e-01 -6.000000e-01  8.500000e-01
     vertex  6.000000e-01 -6.000000e-01  8.100000e-01
   endloop
 endfacet
 facet normal  4.898379e-01  8.718135e-01 -0.000000e+00
   outer loop
     vertex  4.828571e-01 -5.341820e-01  8.100000e-01
     vertex  4.828571e-01 -5.341820e-01  8.500000e-01
     vertex  6.000000e-01 -6.000000e-01  8.500000e-01
   endloop
 endfacet
 facet normal  3.166742e-01  9.485344e-01  1.716050e-18
   outer loop
     vertex  4.781504e-01 -5.326106e-01  8.100000e-01
     vertex  4.828571e-01 -5.341820e-01  8.500000e-01
     vertex  4.828571e-01 -5.341820e-01  8.100000e-01
   endloop
 endfacet
 facet normal  3.166742e-01  9.485344e-01 -0.000000e+00
   outer loop
     vertex  4.781504e-01 -5.326106e-01  8.100000e-01
     vertex  4.781504e-01 -5.326106e-01  8.500000e-01
     vertex  4.828571e-01 -5.341820e-01  8.500000e-01
   endloop
 endfacet
 facet normal -2.538037e-06  1.000000e+00  5.113845e-22
   outer loop
     vertex  3.218485e-01 -5.326110e-01  8.100000e-01
     vertex  4.781504e-01 -5.326106e-01  8.500000e-01
     vertex  4.781504e-01 -5.326106e-01  8.100000e-01
   endloop
 endfacet
 facet normal -2.538037e-06  1.000000e+00  0.000000e+00
   outer loop
     vertex  3.218485e-01 -5.326110e-01  8.100000e-01
     vertex  3.218485e-01 -5.326110e-01  8.500000e-01
     vertex  4.781504e-01 -5.326106e-01  8.500000e-01
   endloop
 endfacet
 facet normal -0.000000e+00  0.000000e+00 -1.000000e+00
   outer loop
     vertex  4.828571e-01 -5.341820e-01  8.100000e-01
     vertex  3.171419e-01 -5.341823e-01  8.100000e-01
     vertex  3.218485e-01 -5.326110e-01  8.100000e-01
   endloop
 endfacet
 facet normal  0.000000e+00  0.000000e+00 -1.000000e+00
   outer loop
     vertex  4.828571e-01 -5.341820e-01  8.100000e-01
     vertex  3.218485e-01 -5.326110e-01  8.100000e-01
     vertex  4.781504e-01 -5.326106e-01  8.100000e-01
   endloop
 endfacet
 facet normal  0.000000e+00  0.000000e+00 -1.000000e+00
   outer loop
     vertex  6.000000e-01 -6.000000e-01  8.100000e-01
     vertex  3.171419e-01 -5.341823e-01  8.100000e-01
     vertex  4.828571e-01 -5.341820e-01  8.100000e-01
   endloop
 endfacet
 facet normal  0.000000e+00  0.000000e+00  1.000000e+00
   outer loop
     vertex  4.828571e-01 -5.341820e-01  8.500000e-01
     vertex  3.218485e-01 -5.326110e-01  8.500000e-01
     vertex  3.171419e-01 -5.341823e-01  8.500000e-01
   endloop
 endfacet
 facet normal  0.000000e+00  0.000000e+00  1.000000e+00
   outer loop
     vertex  4.828571e-01 -5.341820e-01  8.500000e-01
     vertex  4.781504e-01 -5.326106e-01  8.500000e-01
     vertex  3.218485e-01 -5.326110e-01  8.500000e-01
   endloop
 endfacet
 facet normal  0.000000e+00  0.000000e+00  1.000000e+00
   outer loop
     vertex  6.000000e-01 -6.000000e-01  8.500000e-01
     vertex  4.828571e-01 -5.341820e-01  8.500000e-01
     vertex  3.171419e-01 -5.341823e-01  8.500000e-01
   endloop
 endfacet
endsolid
