solid
 facet normal -9.350177e-01  3.546011e-01  2.777019e-18
   outer loop
     vertex  3.566843e-01 -4.991511e-01  8.100000e-01
     vertex  3.584438e-01 -4.945116e-01  8.500000e-01
     vertex  3.584438e-01 -4.945116e-01  8.100000e-01
   endloop
 endfacet
 facet normal -9.350177e-01  3.546011e-01  0.000000e+00
   outer loop
     vertex  3.566843e-01 -4.991511e-01  8.100000e-01
     vertex  3.566843e-01 -4.991511e-01  8.500000e-01
     vertex  3.584438e-01 -4.945116e-01  8.500000e-01
   endloop
 endfacet
 facet normal  1.188951e-05 -1.000000e+00 -4.679969e-22
   outer loop
     vertex  4.433153e-01 -4.991501e-01  8.100000e-01
     vertex  3.566843e-01 -4.991511e-01  8.500000e-01
     vertex  3.566843e-01 -4.991511e-01  8.100000e-01
   endloop
 endfacet
 facet normal  1.188951e-05 -1.000000e+00  0.000000e+00
   outer loop
     vertex  4.433153e-01 -4.991501e-01  8.100000e-01
     vertex  4.433153e-01 -4.991501e-01  8.500000e-01
     vertex  3.566843e-01 -4.991511e-01  8.500000e-01
   endloop
 endfacet
 facet normal  9.350185e-01  3.545990e-01  2.388141e-18
   outer loop
     vertex  4.415558e-01 -4.945105e-01  8.100000e-01
     vertex  4.433153e-01 -4.991501e-01  8.500000e-01
     vertex  4.433153e-01 -4.991501e-01  8.100000e-01
   endloop
 endfacet
 facet normal  9.350185e-01  3.545990e-01 -0.000000e+00
   outer loop
     vertex  4.415558e-01 -4.945105e-01  8.100000e-01
     vertex  4.415558e-01 -4.945105e-01  8.500000e-01
     vertex  4.433153e-01 -4.991501e-01  8.500000e-01
   endloop
 endfacet
 facet normal -1.275990e-05  1.000000e+00 -1.538400e-21
   outer loop
     vertex  3.584438e-01 -4.945116e-01  8.100000e-01
     vertex  4.415558e-01 -4.945105e-01  8.500000e-01
     vertex  4.415558e-01 -4.945105e-01  8.100000e-01
   endloop
 endfacet
 facet normal -1.275990e-05  1.000000e+00  0.000000e+00
   outer loop
     vertex  3.584438e-01 -4.945116e-01  8.100000e-01
     vertex  3.584438e-01 -4.945116e-01  8.500000e-01
     vertex  4.415558e-01 -4.945105e-01  8.500000e-01
   endloop
 endfacet
 facet normal -0.000000e+00  0.000000e+00 -1.000000e+00
   outer loop
     vertex  4.433153e-01 -4.991501e-01  8.100000e-01
     vertex  3.566843e-01 -4.991511e-01  8.100000e-01
     vertex  3.584438e-01 -4.945116e-01  8.100000e-01
   endloop
 endfacet
 facet normal  0.000000e+00 -0.000000e+00 -1.000000e+00
   outer loop
     vertex  4.415558e-01 -4.945105e-01  8.100000e-01
     vertex  4.433153e-01 -4.991501e-01  8.100000e-01
     vertex  3.584438e-01 -4.945116e-01  8.100000e-01
   endloop
 endfacet
 facet normal  0.000000e+00  0.000000e+00  1.000000e+00
   outer loop
     vertex  4.433153e-01 -4.991501e-01  8.500000e-01
     vertex  3.584438e-01 -4.945116e-01  8.500000e-01
     vertex  3.566843e-01 -4.991511e-01  8.500000e-01
   endloop
 endfacet
 facet normal  0.000000e+00  0.000000e+00  1.000000e+00
   outer loop
     vertex  4.415558e-01 -4.945105e-01  8.500000e-01
     vertex  3.584438e-01 -4.945116e-01  8.500000e-01
     vertex  4.433153e-01 -4.991501e-01  8.500000e-01
   endloop
 endfacet
endsolid
