solid
 facet normal  2.191997e-01  9.756800e-01 -1.102497e-16
   outer loop
     vertex  3.123241e-01 -5.353697e-01  8.100000e-01
     vertex  6.000000e-01 -6.000000e-01  8.500000e-01
     vertex  6.000000e-01 -6.000000e-01  8.100000e-01
   endloop
 endfacet
 facet normal  2.191997e-01  9.756800e-01 -0.000000e+00
   outer loop
     vertex  3.123241e-01 -5.353697e-01  8.100000e-01
     vertex  3.123241e-01 -5.353697e-01  8.500000e-01
     vertex  6.000000e-01 -6.000000e-01  8.500000e-01
   endloop
 endfacet
 facet normal -1.604013e-01  9.870519e-01 -7.276494e-19
   outer loop
     vertex  3.074263e-01 -5.361656e-01  8.100000e-01
     vertex  3.123241e-01 -5.353697e-01  8.500000e-01
     vertex  3.123241e-01 -5.353697e-01  8.100000e-01
   endloop
 endfacet
 facet normal -1.604013e-01  9.870519e-01  0.000000e+00
   outer loop
     vertex  3.074263e-01 -5.361656e-01  8.100000e-01
     vertex  3.074263e-01 -5.361656e-01  8.500000e-01
     vertex  3.123241e-01 -5.353697e-01  8.500000e-01
   endloop
 endfacet
 facet normal -2.131674e-01 -9.770157e-01  8.406960e-17
   outer loop
     vertex  6.000000e-01 -6.000000e-01  8.100000e-01
     vertex  3.074263e-01 -5.361656e-01  8.500000e-01
     vertex  3.074263e-01 -5.361656e-01  8.100000e-01
   endloop
 endfacet
 facet normal -2.131674e-01 -9.770157e-01  0.000000e+00
   outer loop
     vertex  6.000000e-01 -6.000000e-01  8.100000e-01
     vertex  6.000000e-01 -6.000000e-01  8.500000e-01
     vertex  3.074263e-01 -5.361656e-01  8.500000e-01
   endloop
 endfacet
 facet normal  0.000000e+00  0.000000e+00 -1.000000e+00
   outer loop
     vertex  6.000000e-01 -6.000000e-01  8.100000e-01
     vertex  3.074263e-01 -5.361656e-01  8.100000e-01
     vertex  3.123241e-01 -5.353697e-01  8.100000e-01
   endloop
 endfacet
 facet normal  0.000000e+00  0.000000e+00  1.000000e+00
   outer loop
     vertex  6.000000e-01 -6.000000e-01  8.500000e-01
     vertex  3.123241e-01 -5.353697e-01  8.500000e-01
     vertex  3.074263e-01 -5.361656e-01  8.500000e-01
   endloop
 endfacet
endsolid
