solid
 facet normal -9.954854e-01 -9.491446e-02  1.419166e-17
   outer loop
     vertex -2.573188e-01 -4.305624e-01  8.100000e-01
     vertex -2.650000e-01 -3.500000e-01  8.500000e-01
     vertex -2.650000e-01 -3.500000e-01  8.100000e-01
   endloop
 endfacet
 facet normal -9.954854e-01 -9.491446e-02  0.000000e+00
   outer loop
     vertex -2.573188e-01 -4.305624e-01  8.100000e-01
     vertex -2.573188e-01 -4.305624e-01  8.500000e-01
     vertex -2.650000e-01 -3.500000e-01  8.500000e-01
   endloop
 endfacet
 facet normal -7.211905e-01 -6.927368e-01 -2.763810e-18
   outer loop
     vertex -2.538814e-01 -4.341410e-01  8.100000e-01
     vertex -2.573188e-01 -4.305624e-01  8.500000e-01
     vertex -2.573188e-01 -4.305624e-01  8.100000e-01
   endloop
 endfacet
 facet normal -7.211905e-01 -6.927368e-01  0.000000e+00
   outer loop
     vertex -2.538814e-01 -4.341410e-01  8.100000e-01
     vertex -2.538814e-01 -4.341410e-01  8.500000e-01
     vertex -2.573188e-01 -4.305624e-01  8.500000e-01
   endloop
 endfacet
 facet normal -3.670948e-02 -9.993260e-01 -3.487843e-18
   outer loop
     vertex -1.492567e-01 -4.379843e-01  8.100000e-01
     vertex -2.538814e-01 -4.341410e-01  8.500000e-01
     vertex -2.538814e-01 -4.341410e-01  8.100000e-01
   endloop
 endfacet
 facet normal -3.670948e-02 -9.993260e-01  0.000000e+00
   outer loop
     vertex -1.492567e-01 -4.379843e-01  8.100000e-01
     vertex -1.492567e-01 -4.379843e-01  8.500000e-01
     vertex -2.538814e-01 -4.341410e-01  8.500000e-01
   endloop
 endfacet
 facet normal  7.745902e-01 -6.324635e-01 -2.968065e-19
   outer loop
     vertex -1.461184e-01 -4.341408e-01  8.100000e-01
     vertex -1.492567e-01 -4.379843e-01  8.500000e-01
     vertex -1.492567e-01 -4.379843e-01  8.100000e-01
   endloop
 endfacet
 facet normal  7.745902e-01 -6.324635e-01  0.000000e+00
   outer loop
     vertex -1.461184e-01 -4.341408e-01  8.100000e-01
     vertex -1.461184e-01 -4.341408e-01  8.500000e-01
     vertex -1.492567e-01 -4.379843e-01  8.500000e-01
   endloop
 endfacet
 facet normal  9.913821e-01 -1.310021e-01 -1.548492e-17
   outer loop
     vertex -1.350000e-01 -3.500000e-01  8.100000e-01
     vertex -1.461184e-01 -4.341408e-01  8.500000e-01
     vertex -1.461184e-01 -4.341408e-01  8.100000e-01
   endloop
 endfacet
 facet normal  9.913821e-01 -1.310021e-01  0.000000e+00
   outer loop
     vertex -1.350000e-01 -3.500000e-01  8.100000e-01
     vertex -1.350000e-01 -3.500000e-01  8.500000e-01
     vertex -1.461184e-01 -4.341408e-01  8.500000e-01
   endloop
 endfacet
 facet normal  0.000000e+00  1.000000e+00  0.000000e+00
   outer loop
     vertex -2.650000e-01 -3.500000e-01  8.100000e-01
     vertex -1.350000e-01 -3.500000e-01  8.500000e-01
     vertex -1.350000e-01 -3.500000e-01  8.100000e-01
   endloop
 endfacet
 facet normal  0.000000e+00  1.000000e+00  0.000000e+00
   outer loop
     vertex -2.650000e-01 -3.500000e-01  8.100000e-01
     vertex -2.650000e-01 -3.500000e-01  8.500000e-01
     vertex -1.350000e-01 -3.500000e-01  8.500000e-01
   endloop
 endfacet
 facet normal  0.000000e+00  0.000000e+00 -1.000000e+00
   outer loop
     vertex -2.650000e-01 -3.500000e-01  8.100000e-01
     vertex -2.538814e-01 -4.341410e-01  8.100000e-01
     vertex -2.573188e-01 -4.305624e-01  8.100000e-01
   endloop
 endfacet
 facet normal  0.000000e+00  0.000000e+00 -1.000000e+00
   outer loop
     vertex -1.461184e-01 -4.341408e-01  8.100000e-01
     vertex -1.492567e-01 -4.379843e-01  8.100000e-01
     vertex -2.538814e-01 -4.341410e-01  8.100000e-01
   endloop
 endfacet
 facet normal -0.000000e+00  0.000000e+00 -1.000000e+00
   outer loop
     vertex -1.461184e-01 -4.341408e-01  8.100000e-01
     vertex -2.538814e-01 -4.341410e-01  8.100000e-01
     vertex -2.650000e-01 -3.500000e-01  8.100000e-01
   endloop
 endfacet
 facet normal -0.000000e+00  0.000000e+00 -1.000000e+00
   outer loop
     vertex -1.350000e-01 -3.500000e-01  8.100000e-01
     vertex -1.461184e-01 -4.341408e-01  8.100000e-01
     vertex -2.650000e-01 -3.500000e-01  8.100000e-01
   endloop
 endfacet
 facet normal  0.000000e+00  0.000000e+00  1.000000e+00
   outer loop
     vertex -2.650000e-01 -3.500000e-01  8.500000e-01
     vertex -2.573188e-01 -4.305624e-01  8.500000e-01
     vertex -2.538814e-01 -4.341410e-01  8.500000e-01
   endloop
 endfacet
 facet normal  0.000000e+00  0.000000e+00  1.000000e+00
   outer loop
     vertex -1.461184e-01 -4.341408e-01  8.500000e-01
     vertex -2.538814e-01 -4.341410e-01  8.500000e-01
     vertex -1.492567e-01 -4.379843e-01  8.500000e-01
   endloop
 endfacet
 facet normal  0.000000e+00  0.000000e+00  1.000000e+00
   outer loop
     vertex -1.461184e-01 -4.341408e-01  8.500000e-01
     vertex -2.650000e-01 -3.500000e-01  8.500000e-01
     vertex -2.538814e-01 -4.341410e-01  8.500000e-01
   endloop
 endfacet
 facet normal  0.000000e+00  0.000000e+00  1.000000e+00
   outer loop
     vertex -1.350000e-01 -3.500000e-01  8.500000e-01
     vertex -2.650000e-01 -3.500000e-01  8.500000e-01
     vertex -1.461184e-01 -4.341408e-01  8.500000e-01
   endloop
 endfacet
endsolid
