solid
 facet normal -9.605158e-01  2.782256e-01  1.822936e-18
   outer loop
     vertex  1.584438e-01 -4.945116e-01  8.100000e-01
     vertex  1.598244e-01 -4.897455e-01  8.500000e-01
     vertex  1.598244e-01 -4.897455e-01  8.100000e-01
   endloop
 endfacet
 facet normal -9.605158e-01  2.782256e-01  0.000000e+00
   outer loop
     vertex  1.584438e-01 -4.945116e-01  8.100000e-01
     vertex  1.584438e-01 -4.945116e-01  8.500000e-01
     vertex  1.598244e-01 -4.897455e-01  8.500000e-01
   endloop
 endfacet
 facet normal  1.275990e-05 -1.000000e+00  6.588998e-22
   outer loop
     vertex  2.415558e-01 -4.945105e-01  8.100000e-01
     vertex  1.584438e-01 -4.945116e-01  8.500000e-01
     vertex  1.584438e-01 -4.945116e-01  8.100000e-01
   endloop
 endfacet
 facet normal  1.275990e-05 -1.000000e+00  0.000000e+00
   outer loop
     vertex  2.415558e-01 -4.945105e-01  8.100000e-01
     vertex  2.415558e-01 -4.945105e-01  8.500000e-01
     vertex  1.584438e-01 -4.945116e-01  8.500000e-01
   endloop
 endfacet
 facet normal  9.605228e-01  2.782012e-01 -1.959933e-18
   outer loop
     vertex  2.401754e-01 -4.897444e-01  8.100000e-01
     vertex  2.415558e-01 -4.945105e-01  8.500000e-01
     vertex  2.415558e-01 -4.945105e-01  8.100000e-01
   endloop
 endfacet
 facet normal  9.605228e-01  2.782012e-01 -0.000000e+00
   outer loop
     vertex  2.401754e-01 -4.897444e-01  8.100000e-01
     vertex  2.401754e-01 -4.897444e-01  8.500000e-01
     vertex  2.415558e-01 -4.945105e-01  8.500000e-01
   endloop
 endfacet
 facet normal -1.357793e-05  1.000000e+00  4.227132e-22
   outer loop
     vertex  1.598244e-01 -4.897455e-01  8.100000e-01
     vertex  2.401754e-01 -4.897444e-01  8.500000e-01
     vertex  2.401754e-01 -4.897444e-01  8.100000e-01
   endloop
 endfacet
 facet normal -1.357793e-05  1.000000e+00  0.000000e+00
   outer loop
     vertex  1.598244e-01 -4.897455e-01  8.100000e-01
     vertex  1.598244e-01 -4.897455e-01  8.500000e-01
     vertex  2.401754e-01 -4.897444e-01  8.500000e-01
   endloop
 endfacet
 facet normal -0.000000e+00  0.000000e+00 -1.000000e+00
   outer loop
     vertex  2.415558e-01 -4.945105e-01  8.100000e-01
     vertex  1.584438e-01 -4.945116e-01  8.100000e-01
     vertex  1.598244e-01 -4.897455e-01  8.100000e-01
   endloop
 endfacet
 facet normal  0.000000e+00 -0.000000e+00 -1.000000e+00
   outer loop
     vertex  2.401754e-01 -4.897444e-01  8.100000e-01
     vertex  2.415558e-01 -4.945105e-01  8.100000e-01
     vertex  1.598244e-01 -4.897455e-01  8.100000e-01
   endloop
 endfacet
 facet normal  0.000000e+00  0.000000e+00  1.000000e+00
   outer loop
     vertex  2.415558e-01 -4.945105e-01  8.500000e-01
     vertex  1.598244e-01 -4.897455e-01  8.500000e-01
     vertex  1.584438e-01 -4.945116e-01  8.500000e-01
   endloop
 endfacet
 facet normal  0.000000e+00  0.000000e+00  1.000000e+00
   outer loop
     vertex  2.401754e-01 -4.897444e-01  8.500000e-01
     vertex  1.598244e-01 -4.897455e-01  8.500000e-01
     vertex  2.415558e-01 -4.945105e-01  8.500000e-01
   endloop
 endfacet
endsolid
