solid
 facet normal -7.212037e-01  6.927231e-01  4.608426e-19
   outer loop
     vertex  5.426819e-01 -5.194370e-01  8.100000e-01
     vertex  5.461191e-01 -5.158584e-01  8.500000e-01
     vertex  5.461191e-01 -5.158584e-01  8.100000e-01
   endloop
 endfacet
 facet normal -7.212037e-01  6.927231e-01  0.000000e+00
   outer loop
     vertex  5.426819e-01 -5.194370e-01  8.100000e-01
     vertex  5.426819e-01 -5.194370e-01  8.500000e-01
     vertex  5.461191e-01 -5.158584e-01  8.500000e-01
   endloop
 endfacet
 facet normal -8.148176e-01 -5.797175e-01 -1.788298e-17
   outer loop
     vertex  6.000000e-01 -6.000000e-01  8.100000e-01
     vertex  5.426819e-01 -5.194370e-01  8.500000e-01
     vertex  5.426819e-01 -5.194370e-01  8.100000e-01
   endloop
 endfacet
 facet normal -8.148176e-01 -5.797175e-01  0.000000e+00
   outer loop
     vertex  6.000000e-01 -6.000000e-01  8.100000e-01
     vertex  6.000000e-01 -6.000000e-01  8.500000e-01
     vertex  5.426819e-01 -5.194370e-01  8.500000e-01
   endloop
 endfacet
 facet normal  8.421340e-01  5.392682e-01 -3.879631e-17
   outer loop
     vertex  5.461191e-01 -5.158584e-01  8.100000e-01
     vertex  6.000000e-01 -6.000000e-01  8.500000e-01
     vertex  6.000000e-01 -6.000000e-01  8.100000e-01
   endloop
 endfacet
 facet normal  8.421340e-01  5.392682e-01 -0.000000e+00
   outer loop
     vertex  5.461191e-01 -5.158584e-01  8.100000e-01
     vertex  5.461191e-01 -5.158584e-01  8.500000e-01
     vertex  6.000000e-01 -6.000000e-01  8.500000e-01
   endloop
 endfacet
 facet normal  0.000000e+00 -0.000000e+00 -1.000000e+00
   outer loop
     vertex  5.461191e-01 -5.158584e-01  8.100000e-01
     vertex  6.000000e-01 -6.000000e-01  8.100000e-01
     vertex  5.426819e-01 -5.194370e-01  8.100000e-01
   endloop
 endfacet
 facet normal  0.000000e+00  0.000000e+00  1.000000e+00
   outer loop
     vertex  5.461191e-01 -5.158584e-01  8.500000e-01
     vertex  5.426819e-01 -5.194370e-01  8.500000e-01
     vertex  6.000000e-01 -6.000000e-01  8.500000e-01
   endloop
 endfacet
endsolid
