solid
 facet normal  5.680559e-01  8.229900e-01  2.852883e-19
   outer loop
     vertex -5.120142e-01 -3.492578e-01  8.100000e-01
     vertex -5.079305e-01 -3.520765e-01  8.500000e-01
     vertex -5.079305e-01 -3.520765e-01  8.100000e-01
   endloop
 endfacet
 facet normal  5.680559e-01  8.229900e-01 -0.000000e+00
   outer loop
     vertex -5.120142e-01 -3.492578e-01  8.100000e-01
     vertex -5.120142e-01 -3.492578e-01  8.500000e-01
     vertex -5.079305e-01 -3.520765e-01  8.500000e-01
   endloop
 endfacet
 facet normal -9.435928e-01  3.311081e-01 -4.740158e-17
   outer loop
     vertex -6.000000e-01 -6.000000e-01  8.100000e-01
     vertex -5.120142e-01 -3.492578e-01  8.500000e-01
     vertex -5.120142e-01 -3.492578e-01  8.100000e-01
   endloop
 endfacet
 facet normal -9.435928e-01  3.311081e-01  0.000000e+00
   outer loop
     vertex -6.000000e-01 -6.000000e-01  8.100000e-01
     vertex -6.000000e-01 -6.000000e-01  8.500000e-01
     vertex -5.120142e-01 -3.492578e-01  8.500000e-01
   endloop
 endfacet
 facet normal  9.374455e-01 -3.481321e-01 -1.394273e-17
   outer loop
     vertex -5.079305e-01 -3.520765e-01  8.100000e-01
     vertex -6.000000e-01 -6.000000e-01  8.500000e-01
     vertex -6.000000e-01 -6.000000e-01  8.100000e-01
   endloop
 endfacet
 facet normal  9.374455e-01 -3.481321e-01  0.000000e+00
   outer loop
     vertex -5.079305e-01 -3.520765e-01  8.100000e-01
     vertex -5.079305e-01 -3.520765e-01  8.500000e-01
     vertex -6.000000e-01 -6.000000e-01  8.500000e-01
   endloop
 endfacet
 facet normal -0.000000e+00  0.000000e+00 -1.000000e+00
   outer loop
     vertex -5.079305e-01 -3.520765e-01  8.100000e-01
     vertex -6.000000e-01 -6.000000e-01  8.100000e-01
     vertex -5.120142e-01 -3.492578e-01  8.100000e-01
   endloop
 endfacet
 facet normal  0.000000e+00  0.000000e+00  1.000000e+00
   outer loop
     vertex -5.079305e-01 -3.520765e-01  8.500000e-01
     vertex -5.120142e-01 -3.492578e-01  8.500000e-01
     vertex -6.000000e-01 -6.000000e-01  8.500000e-01
   endloop
 endfacet
endsolid
