solid
 facet normal -9.718831e-01  2.354637e-01  5.521785e-17
   outer loop
     vertex -6.000000e-01 -6.000000e-01  8.100000e-01
     vertex -5.326108e-01 -3.218491e-01  8.500000e-01
     vertex -5.326108e-01 -3.218491e-01  8.100000e-01
   endloop
 endfacet
 facet normal -9.718831e-01  2.354637e-01  0.000000e+00
   outer loop
     vertex -6.000000e-01 -6.000000e-01  8.100000e-01
     vertex -6.000000e-01 -6.000000e-01  8.500000e-01
     vertex -5.326108e-01 -3.218491e-01  8.500000e-01
   endloop
 endfacet
 facet normal  9.693557e-01 -2.456613e-01  1.417021e-16
   outer loop
     vertex -5.306658e-01 -3.264140e-01  8.100000e-01
     vertex -6.000000e-01 -6.000000e-01  8.500000e-01
     vertex -6.000000e-01 -6.000000e-01  8.100000e-01
   endloop
 endfacet
 facet normal  9.693557e-01 -2.456613e-01  0.000000e+00
   outer loop
     vertex -5.306658e-01 -3.264140e-01  8.100000e-01
     vertex -5.306658e-01 -3.264140e-01  8.500000e-01
     vertex -6.000000e-01 -6.000000e-01  8.500000e-01
   endloop
 endfacet
 facet normal  9.199775e-01  3.919712e-01  3.904226e-18
   outer loop
     vertex -5.326108e-01 -3.218491e-01  8.100000e-01
     vertex -5.306658e-01 -3.264140e-01  8.500000e-01
     vertex -5.306658e-01 -3.264140e-01  8.100000e-01
   endloop
 endfacet
 facet normal  9.199775e-01  3.919712e-01 -0.000000e+00
   outer loop
     vertex -5.326108e-01 -3.218491e-01  8.100000e-01
     vertex -5.326108e-01 -3.218491e-01  8.500000e-01
     vertex -5.306658e-01 -3.264140e-01  8.500000e-01
   endloop
 endfacet
 facet normal  0.000000e+00 -0.000000e+00 -1.000000e+00
   outer loop
     vertex -5.326108e-01 -3.218491e-01  8.100000e-01
     vertex -5.306658e-01 -3.264140e-01  8.100000e-01
     vertex -6.000000e-01 -6.000000e-01  8.100000e-01
   endloop
 endfacet
 facet normal  0.000000e+00  0.000000e+00  1.000000e+00
   outer loop
     vertex -5.326108e-01 -3.218491e-01  8.500000e-01
     vertex -6.000000e-01 -6.000000e-01  8.500000e-01
     vertex -5.306658e-01 -3.264140e-01  8.500000e-01
   endloop
 endfacet
endsolid
