solid
 facet normal  5.452750e-01  8.382572e-01 -5.305866e-17
   outer loop
     vertex  5.024805e-01 -5.365649e-01  8.100000e-01
     vertex  6.000000e-01 -6.000000e-01  8.500000e-01
     vertex  6.000000e-01 -6.000000e-01  8.100000e-01
   endloop
 endfacet
 facet normal  5.452750e-01  8.382572e-01 -0.000000e+00
   outer loop
     vertex  5.024805e-01 -5.365649e-01  8.100000e-01
     vertex  5.024805e-01 -5.365649e-01  8.500000e-01
     vertex  6.000000e-01 -6.000000e-01  8.500000e-01
   endloop
 endfacet
 facet normal  9.209929e-06  1.000000e+00 -4.492096e-24
   outer loop
     vertex  4.975184e-01 -5.365648e-01  8.100000e-01
     vertex  5.024805e-01 -5.365649e-01  8.500000e-01
     vertex  5.024805e-01 -5.365649e-01  8.100000e-01
   endloop
 endfacet
 facet normal  9.209929e-06  1.000000e+00 -0.000000e+00
   outer loop
     vertex  4.975184e-01 -5.365648e-01  8.100000e-01
     vertex  4.975184e-01 -5.365648e-01  8.500000e-01
     vertex  5.024805e-01 -5.365649e-01  8.500000e-01
   endloop
 endfacet
 facet normal -5.263199e-01 -8.502867e-01 -8.236012e-17
   outer loop
     vertex  6.000000e-01 -6.000000e-01  8.100000e-01
     vertex  4.975184e-01 -5.365648e-01  8.500000e-01
     vertex  4.975184e-01 -5.365648e-01  8.100000e-01
   endloop
 endfacet
 facet normal -5.263199e-01 -8.502867e-01  0.000000e+00
   outer loop
     vertex  6.000000e-01 -6.000000e-01  8.100000e-01
     vertex  6.000000e-01 -6.000000e-01  8.500000e-01
     vertex  4.975184e-01 -5.365648e-01  8.500000e-01
   endloop
 endfacet
 facet normal  0.000000e+00  0.000000e+00 -1.000000e+00
   outer loop
     vertex  6.000000e-01 -6.000000e-01  8.100000e-01
     vertex  4.975184e-01 -5.365648e-01  8.100000e-01
     vertex  5.024805e-01 -5.365649e-01  8.100000e-01
   endloop
 endfacet
 facet normal  0.000000e+00  0.000000e+00  1.000000e+00
   outer loop
     vertex  6.000000e-01 -6.000000e-01  8.500000e-01
     vertex  5.024805e-01 -5.365649e-01  8.500000e-01
     vertex  4.975184e-01 -5.365648e-01  8.500000e-01
   endloop
 endfacet
endsolid
