solid
 facet normal -9.998696e-01 -1.614870e-02 -2.550847e-18
   outer loop
     vertex -5.283598e-01  3.308077e-01  8.100000e-01
     vertex -5.306658e-01  4.735859e-01  8.500000e-01
     vertex -5.306658e-01  4.735859e-01  8.100000e-01
   endloop
 endfacet
 facet normal -9.998696e-01 -1.614870e-02  0.000000e+00
   outer loop
     vertex -5.283598e-01  3.308077e-01  8.100000e-01
     vertex -5.283598e-01  3.308077e-01  8.500000e-01
     vertex -5.306658e-01  4.735859e-01  8.500000e-01
   endloop
 endfacet
 facet normal  1.000000e+00  0.000000e+00  0.000000e+00
   outer loop
     vertex -5.283598e-01  4.691924e-01  8.100000e-01
     vertex -5.283598e-01  3.308077e-01  8.500000e-01
     vertex -5.283598e-01  3.308077e-01  8.100000e-01
   endloop
 endfacet
 facet normal  1.000000e+00  0.000000e+00 -0.000000e+00
   outer loop
     vertex -5.283598e-01  4.691924e-01  8.100000e-01
     vertex -5.283598e-01  4.691924e-01  8.500000e-01
     vertex -5.283598e-01  3.308077e-01  8.500000e-01
   endloop
 endfacet
 facet normal  8.854503e-01  4.647341e-01  2.662004e-18
   outer loop
     vertex -5.306658e-01  4.735859e-01  8.100000e-01
     vertex -5.283598e-01  4.691924e-01  8.500000e-01
     vertex -5.283598e-01  4.691924e-01  8.100000e-01
   endloop
 endfacet
 facet normal  8.854503e-01  4.647341e-01 -0.000000e+00
   outer loop
     vertex -5.306658e-01  4.735859e-01  8.100000e-01
     vertex -5.306658e-01  4.735859e-01  8.500000e-01
     vertex -5.283598e-01  4.691924e-01  8.500000e-01
   endloop
 endfacet
 facet normal  0.000000e+00  0.000000e+00 -1.000000e+00
   outer loop
     vertex -5.306658e-01  4.735859e-01  8.100000e-01
     vertex -5.283598e-01  4.691924e-01  8.100000e-01
     vertex -5.283598e-01  3.308077e-01  8.100000e-01
   endloop
 endfacet
 facet normal  0.000000e+00  0.000000e+00  1.000000e+00
   outer loop
     vertex -5.306658e-01  4.735859e-01  8.500000e-01
     vertex -5.283598e-01  3.308077e-01  8.500000e-01
     vertex -5.283598e-01  4.691924e-01  8.500000e-01
   endloop
 endfacet
endsolid
