solid
 facet normal -1.000000e+00  0.000000e+00  0.000000e+00
   outer loop
     vertex  3.350000e-01 -4.242912e-01  8.100000e-01
     vertex  3.350000e-01 -3.500000e-01  8.500000e-01
     vertex  3.350000e-01 -3.500000e-01  8.100000e-01
   endloop
 endfacet
 facet normal -1.000000e+00  0.000000e+00  0.000000e+00
   outer loop
     vertex  3.350000e-01 -4.242912e-01  8.100000e-01
     vertex  3.350000e-01 -4.242912e-01  8.500000e-01
     vertex  3.350000e-01 -3.500000e-01  8.500000e-01
   endloop
 endfacet
 facet normal -6.007220e-01 -7.994580e-01 -1.393259e-18
   outer loop
     vertex  3.389670e-01 -4.272720e-01  8.100000e-01
     vertex  3.350000e-01 -4.242912e-01  8.500000e-01
     vertex  3.350000e-01 -4.242912e-01  8.100000e-01
   endloop
 endfacet
 facet normal -6.007220e-01 -7.994580e-01  0.000000e+00
   outer loop
     vertex  3.389670e-01 -4.272720e-01  8.100000e-01
     vertex  3.389670e-01 -4.272720e-01  8.500000e-01
     vertex  3.350000e-01 -4.242912e-01  8.500000e-01
   endloop
 endfacet
 facet normal  9.986848e-01  5.127035e-02  8.127344e-18
   outer loop
     vertex  3.350000e-01 -3.500000e-01  8.100000e-01
     vertex  3.389670e-01 -4.272720e-01  8.500000e-01
     vertex  3.389670e-01 -4.272720e-01  8.100000e-01
   endloop
 endfacet
 facet normal  9.986848e-01  5.127035e-02 -0.000000e+00
   outer loop
     vertex  3.350000e-01 -3.500000e-01  8.100000e-01
     vertex  3.350000e-01 -3.500000e-01  8.500000e-01
     vertex  3.389670e-01 -4.272720e-01  8.500000e-01
   endloop
 endfacet
 facet normal  0.000000e+00  0.000000e+00 -1.000000e+00
   outer loop
     vertex  3.350000e-01 -3.500000e-01  8.100000e-01
     vertex  3.389670e-01 -4.272720e-01  8.100000e-01
     vertex  3.350000e-01 -4.242912e-01  8.100000e-01
   endloop
 endfacet
 facet normal  0.000000e+00  0.000000e+00  1.000000e+00
   outer loop
     vertex  3.350000e-01 -3.500000e-01  8.500000e-01
     vertex  3.350000e-01 -4.242912e-01  8.500000e-01
     vertex  3.389670e-01 -4.272720e-01  8.500000e-01
   endloop
 endfacet
endsolid
