solid
 facet normal -1.000000e+00  0.000000e+00  0.000000e+00
   outer loop
     vertex -5.227269e-01  3.389683e-01  8.100000e-01
     vertex -5.227269e-01  4.610317e-01  8.500000e-01
     vertex -5.227269e-01  4.610317e-01  8.100000e-01
   endloop
 endfacet
 facet normal -1.000000e+00  0.000000e+00  0.000000e+00
   outer loop
     vertex -5.227269e-01  3.389683e-01  8.100000e-01
     vertex -5.227269e-01  3.389683e-01  8.500000e-01
     vertex -5.227269e-01  4.610317e-01  8.500000e-01
   endloop
 endfacet
 facet normal  7.485025e-01 -6.631319e-01  3.186967e-18
   outer loop
     vertex -5.194364e-01  3.426824e-01  8.100000e-01
     vertex -5.227269e-01  3.389683e-01  8.500000e-01
     vertex -5.227269e-01  3.389683e-01  8.100000e-01
   endloop
 endfacet
 facet normal  7.485025e-01 -6.631319e-01  0.000000e+00
   outer loop
     vertex -5.194364e-01  3.426824e-01  8.100000e-01
     vertex -5.194364e-01  3.426824e-01  8.500000e-01
     vertex -5.227269e-01  3.389683e-01  8.500000e-01
   endloop
 endfacet
 facet normal  1.000000e+00  0.000000e+00  0.000000e+00
   outer loop
     vertex -5.194364e-01  4.573176e-01  8.100000e-01
     vertex -5.194364e-01  3.426824e-01  8.500000e-01
     vertex -5.194364e-01  3.426824e-01  8.100000e-01
   endloop
 endfacet
 facet normal  1.000000e+00  0.000000e+00 -0.000000e+00
   outer loop
     vertex -5.194364e-01  4.573176e-01  8.100000e-01
     vertex -5.194364e-01  4.573176e-01  8.500000e-01
     vertex -5.194364e-01  3.426824e-01  8.500000e-01
   endloop
 endfacet
 facet normal  7.485079e-01  6.631258e-01  3.104113e-18
   outer loop
     vertex -5.227269e-01  4.610317e-01  8.100000e-01
     vertex -5.194364e-01  4.573176e-01  8.500000e-01
     vertex -5.194364e-01  4.573176e-01  8.100000e-01
   endloop
 endfacet
 facet normal  7.485079e-01  6.631258e-01 -0.000000e+00
   outer loop
     vertex -5.227269e-01  4.610317e-01  8.100000e-01
     vertex -5.227269e-01  4.610317e-01  8.500000e-01
     vertex -5.194364e-01  4.573176e-01  8.500000e-01
   endloop
 endfacet
 facet normal  0.000000e+00  0.000000e+00 -1.000000e+00
   outer loop
     vertex -5.227269e-01  4.610317e-01  8.100000e-01
     vertex -5.194364e-01  3.426824e-01  8.100000e-01
     vertex -5.227269e-01  3.389683e-01  8.100000e-01
   endloop
 endfacet
 facet normal  0.000000e+00  0.000000e+00 -1.000000e+00
   outer loop
     vertex -5.227269e-01  4.610317e-01  8.100000e-01
     vertex -5.194364e-01  4.573176e-01  8.100000e-01
     vertex -5.194364e-01  3.426824e-01  8.100000e-01
   endloop
 endfacet
 facet normal  0.000000e+00  0.000000e+00  1.000000e+00
   outer loop
     vertex -5.227269e-01  4.610317e-01  8.500000e-01
     vertex -5.227269e-01  3.389683e-01  8.500000e-01
     vertex -5.194364e-01  3.426824e-01  8.500000e-01
   endloop
 endfacet
 facet normal  0.000000e+00  0.000000e+00  1.000000e+00
   outer loop
     vertex -5.227269e-01  4.610317e-01  8.500000e-01
     vertex -5.194364e-01  3.426824e-01  8.500000e-01
     vertex -5.194364e-01  4.573176e-01  8.500000e-01
   endloop
 endfacet
endsolid
