solid
 facet normal -3.423728e-01  9.395642e-01  1.073763e-17
   outer loop
     vertex -4.602536e-01  5.598241e-01  8.100000e-01
     vertex -3.500000e-01  6.000000e-01  8.500000e-01
     vertex -3.500000e-01  6.000000e-01  8.100000e-01
   endloop
 endfacet
 facet normal -3.423728e-01  9.395642e-01  0.000000e+00
   outer loop
     vertex -4.602536e-01  5.598241e-01  8.100000e-01
     vertex -4.602536e-01  5.598241e-01  8.500000e-01
     vertex -3.500000e-01  6.000000e-01  8.500000e-01
   endloop
 endfacet
 facet normal -2.782138e-01 -9.605192e-01 -1.999368e-18
   outer loop
     vertex -4.554875e-01  5.584436e-01  8.100000e-01
     vertex -4.602536e-01  5.598241e-01  8.500000e-01
     vertex -4.602536e-01  5.598241e-01  8.100000e-01
   endloop
 endfacet
 facet normal -2.782138e-01 -9.605192e-01  0.000000e+00
   outer loop
     vertex -4.554875e-01  5.584436e-01  8.100000e-01
     vertex -4.554875e-01  5.584436e-01  8.500000e-01
     vertex -4.602536e-01  5.598241e-01  8.500000e-01
   endloop
 endfacet
 facet normal  3.665299e-01 -9.304063e-01  6.152134e-17
   outer loop
     vertex -3.500000e-01  6.000000e-01  8.100000e-01
     vertex -4.554875e-01  5.584436e-01  8.500000e-01
     vertex -4.554875e-01  5.584436e-01  8.100000e-01
   endloop
 endfacet
 facet normal  3.665299e-01 -9.304063e-01  0.000000e+00
   outer loop
     vertex -3.500000e-01  6.000000e-01  8.100000e-01
     vertex -3.500000e-01  6.000000e-01  8.500000e-01
     vertex -4.554875e-01  5.584436e-01  8.500000e-01
   endloop
 endfacet
 facet normal  0.000000e+00  0.000000e+00 -1.000000e+00
   outer loop
     vertex -3.500000e-01  6.000000e-01  8.100000e-01
     vertex -4.554875e-01  5.584436e-01  8.100000e-01
     vertex -4.602536e-01  5.598241e-01  8.100000e-01
   endloop
 endfacet
 facet normal  0.000000e+00  0.000000e+00  1.000000e+00
   outer loop
     vertex -3.500000e-01  6.000000e-01  8.500000e-01
     vertex -4.602536e-01  5.598241e-01  8.500000e-01
     vertex -4.554875e-01  5.584436e-01  8.500000e-01
   endloop
 endfacet
endsolid
