solid
 facet normal  9.199775e-01 -3.919712e-01 -3.904226e-18
   outer loop
     vertex -5.306658e-01 -2.735860e-01  8.100000e-01
     vertex -5.326108e-01 -2.781509e-01  8.500000e-01
     vertex -5.326108e-01 -2.781509e-01  8.100000e-01
   endloop
 endfacet
 facet normal  9.199775e-01 -3.919712e-01  0.000000e+00
   outer loop
     vertex -5.306658e-01 -2.735860e-01  8.100000e-01
     vertex -5.306658e-01 -2.735860e-01  8.500000e-01
     vertex -5.326108e-01 -2.781509e-01  8.500000e-01
   endloop
 endfacet
 facet normal  1.000000e+00  0.000000e+00  0.000000e+00
   outer loop
     vertex -5.306658e-01 -1.264140e-01  8.100000e-01
     vertex -5.306658e-01 -2.735860e-01  8.500000e-01
     vertex -5.306658e-01 -2.735860e-01  8.100000e-01
   endloop
 endfacet
 facet normal  1.000000e+00  0.000000e+00 -0.000000e+00
   outer loop
     vertex -5.306658e-01 -1.264140e-01  8.100000e-01
     vertex -5.306658e-01 -1.264140e-01  8.500000e-01
     vertex -5.306658e-01 -2.735860e-01  8.500000e-01
   endloop
 endfacet
 facet normal  9.199775e-01  3.919712e-01 -4.059676e-18
   outer loop
     vertex -5.326108e-01 -1.218491e-01  8.100000e-01
     vertex -5.306658e-01 -1.264140e-01  8.500000e-01
     vertex -5.306658e-01 -1.264140e-01  8.100000e-01
   endloop
 endfacet
 facet normal  9.199775e-01  3.919712e-01 -0.000000e+00
   outer loop
     vertex -5.326108e-01 -1.218491e-01  8.100000e-01
     vertex -5.326108e-01 -1.218491e-01  8.500000e-01
     vertex -5.306658e-01 -1.264140e-01  8.500000e-01
   endloop
 endfacet
 facet normal -1.000000e+00  0.000000e+00  0.000000e+00
   outer loop
     vertex -5.326108e-01 -2.781509e-01  8.100000e-01
     vertex -5.326108e-01 -1.218491e-01  8.500000e-01
     vertex -5.326108e-01 -1.218491e-01  8.100000e-01
   endloop
 endfacet
 facet normal -1.000000e+00  0.000000e+00  0.000000e+00
   outer loop
     vertex -5.326108e-01 -2.781509e-01  8.100000e-01
     vertex -5.326108e-01 -2.781509e-01  8.500000e-01
     vertex -5.326108e-01 -1.218491e-01  8.500000e-01
   endloop
 endfacet
 facet normal  0.000000e+00  0.000000e+00 -1.000000e+00
   outer loop
     vertex -5.326108e-01 -1.218491e-01  8.100000e-01
     vertex -5.306658e-01 -2.735860e-01  8.100000e-01
     vertex -5.326108e-01 -2.781509e-01  8.100000e-01
   endloop
 endfacet
 facet normal  0.000000e+00  0.000000e+00 -1.000000e+00
   outer loop
     vertex -5.326108e-01 -1.218491e-01  8.100000e-01
     vertex -5.306658e-01 -1.264140e-01  8.100000e-01
     vertex -5.306658e-01 -2.735860e-01  8.100000e-01
   endloop
 endfacet
 facet normal  0.000000e+00  0.000000e+00  1.000000e+00
   outer loop
     vertex -5.326108e-01 -1.218491e-01  8.500000e-01
     vertex -5.326108e-01 -2.781509e-01  8.500000e-01
     vertex -5.306658e-01 -2.735860e-01  8.500000e-01
   endloop
 endfacet
 facet normal  0.000000e+00  0.000000e+00  1.000000e+00
   outer loop
     vertex -5.326108e-01 -1.218491e-01  8.500000e-01
     vertex -5.306658e-01 -2.735860e-01  8.500000e-01
     vertex -5.306658e-01 -1.264140e-01  8.500000e-01
   endloop
 endfacet
endsolid
