solid
 facet normal  6.324400e-01  7.746093e-01  7.493737e-19
   outer loop
     vertex -5.158578e-01 -3.461197e-01  8.100000e-01
     vertex -5.120142e-01 -3.492578e-01  8.500000e-01
     vertex -5.120142e-01 -3.492578e-01  8.100000e-01
   endloop
 endfacet
 facet normal  6.324400e-01  7.746093e-01 -0.000000e+00
   outer loop
     vertex -5.158578e-01 -3.461197e-01  8.100000e-01
     vertex -5.158578e-01 -3.461197e-01  8.500000e-01
     vertex -5.120142e-01 -3.492578e-01  8.500000e-01
   endloop
 endfacet
 facet normal -9.492254e-01  3.145967e-01  1.449533e-17
   outer loop
     vertex -6.000000e-01 -6.000000e-01  8.100000e-01
     vertex -5.158578e-01 -3.461197e-01  8.500000e-01
     vertex -5.158578e-01 -3.461197e-01  8.100000e-01
   endloop
 endfacet
 facet normal -9.492254e-01  3.145967e-01  0.000000e+00
   outer loop
     vertex -6.000000e-01 -6.000000e-01  8.100000e-01
     vertex -6.000000e-01 -6.000000e-01  8.500000e-01
     vertex -5.158578e-01 -3.461197e-01  8.500000e-01
   endloop
 endfacet
 facet normal  9.435928e-01 -3.311081e-01 -4.740158e-17
   outer loop
     vertex -5.120142e-01 -3.492578e-01  8.100000e-01
     vertex -6.000000e-01 -6.000000e-01  8.500000e-01
     vertex -6.000000e-01 -6.000000e-01  8.100000e-01
   endloop
 endfacet
 facet normal  9.435928e-01 -3.311081e-01  0.000000e+00
   outer loop
     vertex -5.120142e-01 -3.492578e-01  8.100000e-01
     vertex -5.120142e-01 -3.492578e-01  8.500000e-01
     vertex -6.000000e-01 -6.000000e-01  8.500000e-01
   endloop
 endfacet
 facet normal -0.000000e+00  0.000000e+00 -1.000000e+00
   outer loop
     vertex -5.120142e-01 -3.492578e-01  8.100000e-01
     vertex -6.000000e-01 -6.000000e-01  8.100000e-01
     vertex -5.158578e-01 -3.461197e-01  8.100000e-01
   endloop
 endfacet
 facet normal  0.000000e+00  0.000000e+00  1.000000e+00
   outer loop
     vertex -5.120142e-01 -3.492578e-01  8.500000e-01
     vertex -5.158578e-01 -3.461197e-01  8.500000e-01
     vertex -6.000000e-01 -6.000000e-01  8.500000e-01
   endloop
 endfacet
endsolid
