solid
 facet normal -6.631198e-01  7.485133e-01 -3.426351e-18
   outer loop
     vertex -6.103223e-02 -5.227273e-01  8.100000e-01
     vertex -5.731812e-02 -5.194370e-01  8.500000e-01
     vertex -5.731812e-02 -5.194370e-01  8.100000e-01
   endloop
 endfacet
 facet normal -6.631198e-01  7.485133e-01  0.000000e+00
   outer loop
     vertex -6.103223e-02 -5.227273e-01  8.100000e-01
     vertex -6.103223e-02 -5.227273e-01  8.500000e-01
     vertex -5.731812e-02 -5.194370e-01  8.500000e-01
   endloop
 endfacet
 facet normal  5.812544e-06 -1.000000e+00  3.563621e-22
   outer loop
     vertex  6.103137e-02 -5.227266e-01  8.100000e-01
     vertex -6.103223e-02 -5.227273e-01  8.500000e-01
     vertex -6.103223e-02 -5.227273e-01  8.100000e-01
   endloop
 endfacet
 facet normal  5.812544e-06 -1.000000e+00  0.000000e+00
   outer loop
     vertex  6.103137e-02 -5.227266e-01  8.100000e-01
     vertex  6.103137e-02 -5.227266e-01  8.500000e-01
     vertex -6.103223e-02 -5.227273e-01  8.500000e-01
   endloop
 endfacet
 facet normal  6.631328e-01  7.485018e-01  2.505788e-19
   outer loop
     vertex  5.731732e-02 -5.194362e-01  8.100000e-01
     vertex  6.103137e-02 -5.227266e-01  8.500000e-01
     vertex  6.103137e-02 -5.227266e-01  8.100000e-01
   endloop
 endfacet
 facet normal  6.631328e-01  7.485018e-01 -0.000000e+00
   outer loop
     vertex  5.731732e-02 -5.194362e-01  8.100000e-01
     vertex  5.731732e-02 -5.194362e-01  8.500000e-01
     vertex  6.103137e-02 -5.227266e-01  8.500000e-01
   endloop
 endfacet
 facet normal -6.722180e-06  1.000000e+00 -4.903046e-22
   outer loop
     vertex -5.731812e-02 -5.194370e-01  8.100000e-01
     vertex  5.731732e-02 -5.194362e-01  8.500000e-01
     vertex  5.731732e-02 -5.194362e-01  8.100000e-01
   endloop
 endfacet
 facet normal -6.722180e-06  1.000000e+00  0.000000e+00
   outer loop
     vertex -5.731812e-02 -5.194370e-01  8.100000e-01
     vertex -5.731812e-02 -5.194370e-01  8.500000e-01
     vertex  5.731732e-02 -5.194362e-01  8.500000e-01
   endloop
 endfacet
 facet normal -0.000000e+00  0.000000e+00 -1.000000e+00
   outer loop
     vertex  6.103137e-02 -5.227266e-01  8.100000e-01
     vertex -6.103223e-02 -5.227273e-01  8.100000e-01
     vertex -5.731812e-02 -5.194370e-01  8.100000e-01
   endloop
 endfacet
 facet normal  0.000000e+00  0.000000e+00 -1.000000e+00
   outer loop
     vertex  6.103137e-02 -5.227266e-01  8.100000e-01
     vertex -5.731812e-02 -5.194370e-01  8.100000e-01
     vertex  5.731732e-02 -5.194362e-01  8.100000e-01
   endloop
 endfacet
 facet normal  0.000000e+00  0.000000e+00  1.000000e+00
   outer loop
     vertex  6.103137e-02 -5.227266e-01  8.500000e-01
     vertex -5.731812e-02 -5.194370e-01  8.500000e-01
     vertex -6.103223e-02 -5.227273e-01  8.500000e-01
   endloop
 endfacet
 facet normal  0.000000e+00  0.000000e+00  1.000000e+00
   outer loop
     vertex  6.103137e-02 -5.227266e-01  8.500000e-01
     vertex  5.731732e-02 -5.194362e-01  8.500000e-01
     vertex -5.731812e-02 -5.194370e-01  8.500000e-01
   endloop
 endfacet
endsolid
