solid
 facet normal -5.344607e-01  8.451933e-01  2.164571e-18
   outer loop
     vertex  3.308071e-01 -5.283602e-01  8.100000e-01
     vertex  3.350009e-01 -5.257082e-01  8.500000e-01
     vertex  3.350009e-01 -5.257082e-01  8.100000e-01
   endloop
 endfacet
 facet normal -5.344607e-01  8.451933e-01  0.000000e+00
   outer loop
     vertex  3.308071e-01 -5.283602e-01  8.100000e-01
     vertex  3.308071e-01 -5.283602e-01  8.500000e-01
     vertex  3.350009e-01 -5.257082e-01  8.500000e-01
   endloop
 endfacet
 facet normal  4.079927e-06 -1.000000e+00  8.852379e-22
   outer loop
     vertex  4.691919e-01 -5.283596e-01  8.100000e-01
     vertex  3.308071e-01 -5.283602e-01  8.500000e-01
     vertex  3.308071e-01 -5.283602e-01  8.100000e-01
   endloop
 endfacet
 facet normal  4.079927e-06 -1.000000e+00  0.000000e+00
   outer loop
     vertex  4.691919e-01 -5.283596e-01  8.100000e-01
     vertex  4.691919e-01 -5.283596e-01  8.500000e-01
     vertex  3.308071e-01 -5.283602e-01  8.500000e-01
   endloop
 endfacet
 facet normal  5.344817e-01  8.451801e-01  1.548252e-19
   outer loop
     vertex  4.649982e-01 -5.257076e-01  8.100000e-01
     vertex  4.691919e-01 -5.283596e-01  8.500000e-01
     vertex  4.691919e-01 -5.283596e-01  8.100000e-01
   endloop
 endfacet
 facet normal  5.344817e-01  8.451801e-01 -0.000000e+00
   outer loop
     vertex  4.649982e-01 -5.257076e-01  8.100000e-01
     vertex  4.649982e-01 -5.257076e-01  8.500000e-01
     vertex  4.691919e-01 -5.283596e-01  8.500000e-01
   endloop
 endfacet
 facet normal -4.870872e-06  1.000000e+00  1.080530e-22
   outer loop
     vertex  3.350009e-01 -5.257082e-01  8.100000e-01
     vertex  4.649982e-01 -5.257076e-01  8.500000e-01
     vertex  4.649982e-01 -5.257076e-01  8.100000e-01
   endloop
 endfacet
 facet normal -4.870872e-06  1.000000e+00  0.000000e+00
   outer loop
     vertex  3.350009e-01 -5.257082e-01  8.100000e-01
     vertex  3.350009e-01 -5.257082e-01  8.500000e-01
     vertex  4.649982e-01 -5.257076e-01  8.500000e-01
   endloop
 endfacet
 facet normal -0.000000e+00  0.000000e+00 -1.000000e+00
   outer loop
     vertex  4.691919e-01 -5.283596e-01  8.100000e-01
     vertex  3.308071e-01 -5.283602e-01  8.100000e-01
     vertex  3.350009e-01 -5.257082e-01  8.100000e-01
   endloop
 endfacet
 facet normal  0.000000e+00  0.000000e+00 -1.000000e+00
   outer loop
     vertex  4.691919e-01 -5.283596e-01  8.100000e-01
     vertex  3.350009e-01 -5.257082e-01  8.100000e-01
     vertex  4.649982e-01 -5.257076e-01  8.100000e-01
   endloop
 endfacet
 facet normal  0.000000e+00  0.000000e+00  1.000000e+00
   outer loop
     vertex  4.691919e-01 -5.283596e-01  8.500000e-01
     vertex  3.350009e-01 -5.257082e-01  8.500000e-01
     vertex  3.308071e-01 -5.283602e-01  8.500000e-01
   endloop
 endfacet
 facet normal  0.000000e+00  0.000000e+00  1.000000e+00
   outer loop
     vertex  4.691919e-01 -5.283596e-01  8.500000e-01
     vertex  4.649982e-01 -5.257076e-01  8.500000e-01
     vertex  3.350009e-01 -5.257082e-01  8.500000e-01
   endloop
 endfacet
endsolid
