solid
 facet normal -2.393087e-01  9.709435e-01  1.608706e-18
   outer loop
     vertex -2.876759e-01 -5.353697e-01  8.100000e-01
     vertex -2.828581e-01 -5.341823e-01  8.500000e-01
     vertex -2.828581e-01 -5.341823e-01  8.100000e-01
   endloop
 endfacet
 facet normal -2.393087e-01  9.709435e-01  0.000000e+00
   outer loop
     vertex -2.876759e-01 -5.353697e-01  8.100000e-01
     vertex -2.876759e-01 -5.353697e-01  8.500000e-01
     vertex -2.828581e-01 -5.341823e-01  8.500000e-01
   endloop
 endfacet
 facet normal  1.305383e-06 -1.000000e+00  2.467263e-22
   outer loop
     vertex -1.123252e-01 -5.353695e-01  8.100000e-01
     vertex -2.876759e-01 -5.353697e-01  8.500000e-01
     vertex -2.876759e-01 -5.353697e-01  8.100000e-01
   endloop
 endfacet
 facet normal  1.305383e-06 -1.000000e+00  0.000000e+00
   outer loop
     vertex -1.123252e-01 -5.353695e-01  8.100000e-01
     vertex -1.123252e-01 -5.353695e-01  8.500000e-01
     vertex -2.876759e-01 -5.353697e-01  8.500000e-01
   endloop
 endfacet
 facet normal  2.393260e-01  9.709393e-01  1.730054e-18
   outer loop
     vertex -1.171429e-01 -5.341820e-01  8.100000e-01
     vertex -1.123252e-01 -5.353695e-01  8.500000e-01
     vertex -1.123252e-01 -5.353695e-01  8.100000e-01
   endloop
 endfacet
 facet normal  2.393260e-01  9.709393e-01 -0.000000e+00
   outer loop
     vertex -1.171429e-01 -5.341820e-01  8.100000e-01
     vertex -1.171429e-01 -5.341820e-01  8.500000e-01
     vertex -1.123252e-01 -5.353695e-01  8.500000e-01
   endloop
 endfacet
 facet normal -1.887576e-06  1.000000e+00 -3.706634e-22
   outer loop
     vertex -2.828581e-01 -5.341823e-01  8.100000e-01
     vertex -1.171429e-01 -5.341820e-01  8.500000e-01
     vertex -1.171429e-01 -5.341820e-01  8.100000e-01
   endloop
 endfacet
 facet normal -1.887576e-06  1.000000e+00  0.000000e+00
   outer loop
     vertex -2.828581e-01 -5.341823e-01  8.100000e-01
     vertex -2.828581e-01 -5.341823e-01  8.500000e-01
     vertex -1.171429e-01 -5.341820e-01  8.500000e-01
   endloop
 endfacet
 facet normal -0.000000e+00  0.000000e+00 -1.000000e+00
   outer loop
     vertex -1.123252e-01 -5.353695e-01  8.100000e-01
     vertex -2.876759e-01 -5.353697e-01  8.100000e-01
     vertex -2.828581e-01 -5.341823e-01  8.100000e-01
   endloop
 endfacet
 facet normal  0.000000e+00  0.000000e+00 -1.000000e+00
   outer loop
     vertex -1.123252e-01 -5.353695e-01  8.100000e-01
     vertex -2.828581e-01 -5.341823e-01  8.100000e-01
     vertex -1.171429e-01 -5.341820e-01  8.100000e-01
   endloop
 endfacet
 facet normal  0.000000e+00  0.000000e+00  1.000000e+00
   outer loop
     vertex -1.123252e-01 -5.353695e-01  8.500000e-01
     vertex -2.828581e-01 -5.341823e-01  8.500000e-01
     vertex -2.876759e-01 -5.353697e-01  8.500000e-01
   endloop
 endfacet
 facet normal  0.000000e+00  0.000000e+00  1.000000e+00
   outer loop
     vertex -1.123252e-01 -5.353695e-01  8.500000e-01
     vertex -1.171429e-01 -5.341820e-01  8.500000e-01
     vertex -2.828581e-01 -5.341823e-01  8.500000e-01
   endloop
 endfacet
endsolid
