solid
 facet normal -8.660227e-01  5.000047e-01  3.522235e-18
   outer loop
     vertex -4.792389e-02 -5.079312e-01  8.100000e-01
     vertex -4.544287e-02 -5.036340e-01  8.500000e-01
     vertex -4.544287e-02 -5.036340e-01  8.100000e-01
   endloop
 endfacet
 facet normal -8.660227e-01  5.000047e-01  0.000000e+00
   outer loop
     vertex -4.792389e-02 -5.079312e-01  8.100000e-01
     vertex -4.792389e-02 -5.079312e-01  8.500000e-01
     vertex -4.544287e-02 -5.036340e-01  8.500000e-01
   endloop
 endfacet
 facet normal  9.870923e-06 -1.000000e+00  1.771711e-23
   outer loop
     vertex  4.792328e-02 -5.079302e-01  8.100000e-01
     vertex -4.792389e-02 -5.079312e-01  8.500000e-01
     vertex -4.792389e-02 -5.079312e-01  8.100000e-01
   endloop
 endfacet
 facet normal  9.870923e-06 -1.000000e+00  0.000000e+00
   outer loop
     vertex  4.792328e-02 -5.079302e-01  8.100000e-01
     vertex  4.792328e-02 -5.079302e-01  8.500000e-01
     vertex -4.792389e-02 -5.079312e-01  8.500000e-01
   endloop
 endfacet
 facet normal  8.660303e-01  4.999915e-01 -1.452564e-18
   outer loop
     vertex  4.544232e-02 -5.036330e-01  8.100000e-01
     vertex  4.792328e-02 -5.079302e-01  8.500000e-01
     vertex  4.792328e-02 -5.079302e-01  8.100000e-01
   endloop
 endfacet
 facet normal  8.660303e-01  4.999915e-01 -0.000000e+00
   outer loop
     vertex  4.544232e-02 -5.036330e-01  8.100000e-01
     vertex  4.544232e-02 -5.036330e-01  8.500000e-01
     vertex  4.792328e-02 -5.079302e-01  8.500000e-01
   endloop
 endfacet
 facet normal -1.091267e-05  1.000000e+00 -5.519165e-22
   outer loop
     vertex -4.544287e-02 -5.036340e-01  8.100000e-01
     vertex  4.544232e-02 -5.036330e-01  8.500000e-01
     vertex  4.544232e-02 -5.036330e-01  8.100000e-01
   endloop
 endfacet
 facet normal -1.091267e-05  1.000000e+00  0.000000e+00
   outer loop
     vertex -4.544287e-02 -5.036340e-01  8.100000e-01
     vertex -4.544287e-02 -5.036340e-01  8.500000e-01
     vertex  4.544232e-02 -5.036330e-01  8.500000e-01
   endloop
 endfacet
 facet normal -0.000000e+00  0.000000e+00 -1.000000e+00
   outer loop
     vertex  4.792328e-02 -5.079302e-01  8.100000e-01
     vertex -4.792389e-02 -5.079312e-01  8.100000e-01
     vertex -4.544287e-02 -5.036340e-01  8.100000e-01
   endloop
 endfacet
 facet normal  0.000000e+00 -0.000000e+00 -1.000000e+00
   outer loop
     vertex  4.544232e-02 -5.036330e-01  8.100000e-01
     vertex  4.792328e-02 -5.079302e-01  8.100000e-01
     vertex -4.544287e-02 -5.036340e-01  8.100000e-01
   endloop
 endfacet
 facet normal  0.000000e+00  0.000000e+00  1.000000e+00
   outer loop
     vertex  4.792328e-02 -5.079302e-01  8.500000e-01
     vertex -4.544287e-02 -5.036340e-01  8.500000e-01
     vertex -4.792389e-02 -5.079312e-01  8.500000e-01
   endloop
 endfacet
 facet normal  0.000000e+00  0.000000e+00  1.000000e+00
   outer loop
     vertex  4.544232e-02 -5.036330e-01  8.500000e-01
     vertex -4.544287e-02 -5.036340e-01  8.500000e-01
     vertex  4.792328e-02 -5.079302e-01  8.500000e-01
   endloop
 endfacet
endsolid
