solid
 facet normal  9.210042e-06  1.000000e+00  1.613934e-23
   outer loop
     vertex -1.024815e-01 -5.365648e-01  8.100000e-01
     vertex -9.751956e-02 -5.365649e-01  8.500000e-01
     vertex -9.751956e-02 -5.365649e-01  8.100000e-01
   endloop
 endfacet
 facet normal  9.210042e-06  1.000000e+00 -0.000000e+00
   outer loop
     vertex -1.024815e-01 -5.365648e-01  8.100000e-01
     vertex -1.024815e-01 -5.365648e-01  8.500000e-01
     vertex -9.751956e-02 -5.365649e-01  8.500000e-01
   endloop
 endfacet
 facet normal -1.264792e-01  9.919693e-01  1.378248e-16
   outer loop
     vertex -6.000000e-01 -6.000000e-01  8.100000e-01
     vertex -1.024815e-01 -5.365648e-01  8.500000e-01
     vertex -1.024815e-01 -5.365648e-01  8.100000e-01
   endloop
 endfacet
 facet normal -1.264792e-01  9.919693e-01  0.000000e+00
   outer loop
     vertex -6.000000e-01 -6.000000e-01  8.100000e-01
     vertex -6.000000e-01 -6.000000e-01  8.500000e-01
     vertex -1.024815e-01 -5.365648e-01  8.500000e-01
   endloop
 endfacet
 facet normal  0.000000e+00 -1.000000e+00  0.000000e+00
   outer loop
     vertex  6.000000e-01 -6.000000e-01  8.100000e-01
     vertex -6.000000e-01 -6.000000e-01  8.500000e-01
     vertex -6.000000e-01 -6.000000e-01  8.100000e-01
   endloop
 endfacet
 facet normal  0.000000e+00 -1.000000e+00  0.000000e+00
   outer loop
     vertex  6.000000e-01 -6.000000e-01  8.100000e-01
     vertex  6.000000e-01 -6.000000e-01  8.500000e-01
     vertex -6.000000e-01 -6.000000e-01  8.500000e-01
   endloop
 endfacet
 facet normal  9.057010e-02  9.958901e-01 -4.751563e-17
   outer loop
     vertex -9.751956e-02 -5.365649e-01  8.100000e-01
     vertex  6.000000e-01 -6.000000e-01  8.500000e-01
     vertex  6.000000e-01 -6.000000e-01  8.100000e-01
   endloop
 endfacet
 facet normal  9.057010e-02  9.958901e-01 -0.000000e+00
   outer loop
     vertex -9.751956e-02 -5.365649e-01  8.100000e-01
     vertex -9.751956e-02 -5.365649e-01  8.500000e-01
     vertex  6.000000e-01 -6.000000e-01  8.500000e-01
   endloop
 endfacet
 facet normal -0.000000e+00  0.000000e+00 -1.000000e+00
   outer loop
     vertex -9.751956e-02 -5.365649e-01  8.100000e-01
     vertex -6.000000e-01 -6.000000e-01  8.100000e-01
     vertex -1.024815e-01 -5.365648e-01  8.100000e-01
   endloop
 endfacet
 facet normal  0.000000e+00  0.000000e+00 -1.000000e+00
   outer loop
     vertex  6.000000e-01 -6.000000e-01  8.100000e-01
     vertex -6.000000e-01 -6.000000e-01  8.100000e-01
     vertex -9.751956e-02 -5.365649e-01  8.100000e-01
   endloop
 endfacet
 facet normal  0.000000e+00  0.000000e+00  1.000000e+00
   outer loop
     vertex -9.751956e-02 -5.365649e-01  8.500000e-01
     vertex -1.024815e-01 -5.365648e-01  8.500000e-01
     vertex -6.000000e-01 -6.000000e-01  8.500000e-01
   endloop
 endfacet
 facet normal  0.000000e+00  0.000000e+00  1.000000e+00
   outer loop
     vertex  6.000000e-01 -6.000000e-01  8.500000e-01
     vertex -9.751956e-02 -5.365649e-01  8.500000e-01
     vertex -6.000000e-01 -6.000000e-01  8.500000e-01
   endloop
 endfacet
endsolid
