solid
 facet normal -9.797901e-01 -2.000282e-01 -5.917338e-19
   outer loop
     vertex  1.608169e-01 -4.651160e-01  8.100000e-01
     vertex  1.598243e-01 -4.602543e-01  8.500000e-01
     vertex  1.598243e-01 -4.602543e-01  8.100000e-01
   endloop
 endfacet
 facet normal -9.797901e-01 -2.000282e-01  0.000000e+00
   outer loop
     vertex  1.608169e-01 -4.651160e-01  8.100000e-01
     vertex  1.608169e-01 -4.651160e-01  8.500000e-01
     vertex  1.598243e-01 -4.602543e-01  8.500000e-01
   endloop
 endfacet
 facet normal  1.168230e-05 -1.000000e+00 -5.723343e-22
   outer loop
     vertex  2.391833e-01 -4.651151e-01  8.100000e-01
     vertex  1.608169e-01 -4.651160e-01  8.500000e-01
     vertex  1.608169e-01 -4.651160e-01  8.100000e-01
   endloop
 endfacet
 facet normal  1.168230e-05 -1.000000e+00  0.000000e+00
   outer loop
     vertex  2.391833e-01 -4.651151e-01  8.100000e-01
     vertex  2.391833e-01 -4.651151e-01  8.500000e-01
     vertex  1.608169e-01 -4.651160e-01  8.500000e-01
   endloop
 endfacet
 facet normal  9.797870e-01 -2.000436e-01 -2.404979e-19
   outer loop
     vertex  2.401759e-01 -4.602534e-01  8.100000e-01
     vertex  2.391833e-01 -4.651151e-01  8.500000e-01
     vertex  2.391833e-01 -4.651151e-01  8.100000e-01
   endloop
 endfacet
 facet normal  9.797870e-01 -2.000436e-01  0.000000e+00
   outer loop
     vertex  2.401759e-01 -4.602534e-01  8.100000e-01
     vertex  2.401759e-01 -4.602534e-01  8.500000e-01
     vertex  2.391833e-01 -4.651151e-01  8.500000e-01
   endloop
 endfacet
 facet normal -1.025493e-05  1.000000e+00  1.767042e-21
   outer loop
     vertex  1.598243e-01 -4.602543e-01  8.100000e-01
     vertex  2.401759e-01 -4.602534e-01  8.500000e-01
     vertex  2.401759e-01 -4.602534e-01  8.100000e-01
   endloop
 endfacet
 facet normal -1.025493e-05  1.000000e+00  0.000000e+00
   outer loop
     vertex  1.598243e-01 -4.602543e-01  8.100000e-01
     vertex  1.598243e-01 -4.602543e-01  8.500000e-01
     vertex  2.401759e-01 -4.602534e-01  8.500000e-01
   endloop
 endfacet
 facet normal -0.000000e+00  0.000000e+00 -1.000000e+00
   outer loop
     vertex  2.391833e-01 -4.651151e-01  8.100000e-01
     vertex  1.608169e-01 -4.651160e-01  8.100000e-01
     vertex  1.598243e-01 -4.602543e-01  8.100000e-01
   endloop
 endfacet
 facet normal  0.000000e+00  0.000000e+00 -1.000000e+00
   outer loop
     vertex  2.401759e-01 -4.602534e-01  8.100000e-01
     vertex  2.391833e-01 -4.651151e-01  8.100000e-01
     vertex  1.598243e-01 -4.602543e-01  8.100000e-01
   endloop
 endfacet
 facet normal  0.000000e+00  0.000000e+00  1.000000e+00
   outer loop
     vertex  2.391833e-01 -4.651151e-01  8.500000e-01
     vertex  1.598243e-01 -4.602543e-01  8.500000e-01
     vertex  1.608169e-01 -4.651160e-01  8.500000e-01
   endloop
 endfacet
 facet normal  0.000000e+00  0.000000e+00  1.000000e+00
   outer loop
     vertex  2.401759e-01 -4.602534e-01  8.500000e-01
     vertex  1.598243e-01 -4.602543e-01  8.500000e-01
     vertex  2.391833e-01 -4.651151e-01  8.500000e-01
   endloop
 endfacet
endsolid
