solid
 facet normal  3.545931e-01  9.350207e-01 -9.809532e-19
   outer loop
     vertex -4.991503e-01 -3.566846e-01  8.100000e-01
     vertex -4.945108e-01 -3.584441e-01  8.500000e-01
     vertex -4.945108e-01 -3.584441e-01  8.100000e-01
   endloop
 endfacet
 facet normal  3.545931e-01  9.350207e-01 -0.000000e+00
   outer loop
     vertex -4.991503e-01 -3.566846e-01  8.100000e-01
     vertex -4.991503e-01 -3.566846e-01  8.500000e-01
     vertex -4.945108e-01 -3.584441e-01  8.500000e-01
   endloop
 endfacet
 facet normal -9.237921e-01  3.828945e-01  4.088531e-17
   outer loop
     vertex -6.000000e-01 -6.000000e-01  8.100000e-01
     vertex -4.991503e-01 -3.566846e-01  8.500000e-01
     vertex -4.991503e-01 -3.566846e-01  8.100000e-01
   endloop
 endfacet
 facet normal -9.237921e-01  3.828945e-01  0.000000e+00
   outer loop
     vertex -6.000000e-01 -6.000000e-01  8.100000e-01
     vertex -6.000000e-01 -6.000000e-01  8.500000e-01
     vertex -4.991503e-01 -3.566846e-01  8.500000e-01
   endloop
 endfacet
 facet normal  9.164239e-01 -4.002091e-01  8.242047e-17
   outer loop
     vertex -4.945108e-01 -3.584441e-01  8.100000e-01
     vertex -6.000000e-01 -6.000000e-01  8.500000e-01
     vertex -6.000000e-01 -6.000000e-01  8.100000e-01
   endloop
 endfacet
 facet normal  9.164239e-01 -4.002091e-01  0.000000e+00
   outer loop
     vertex -4.945108e-01 -3.584441e-01  8.100000e-01
     vertex -4.945108e-01 -3.584441e-01  8.500000e-01
     vertex -6.000000e-01 -6.000000e-01  8.500000e-01
   endloop
 endfacet
 facet normal -0.000000e+00  0.000000e+00 -1.000000e+00
   outer loop
     vertex -4.945108e-01 -3.584441e-01  8.100000e-01
     vertex -6.000000e-01 -6.000000e-01  8.100000e-01
     vertex -4.991503e-01 -3.566846e-01  8.100000e-01
   endloop
 endfacet
 facet normal  0.000000e+00  0.000000e+00  1.000000e+00
   outer loop
     vertex -4.945108e-01 -3.584441e-01  8.500000e-01
     vertex -4.991503e-01 -3.566846e-01  8.500000e-01
     vertex -6.000000e-01 -6.000000e-01  8.500000e-01
   endloop
 endfacet
endsolid
