solid
 facet normal  6.947118e-01  7.192882e-01 -1.042581e-16
   outer loop
     vertex -6.000000e-01  6.000000e-01  8.100000e-01
     vertex -5.283598e-01  5.308076e-01  8.500000e-01
     vertex -5.283598e-01  5.308076e-01  8.100000e-01
   endloop
 endfacet
 facet normal  6.947118e-01  7.192882e-01 -0.000000e+00
   outer loop
     vertex -6.000000e-01  6.000000e-01  8.100000e-01
     vertex -6.000000e-01  6.000000e-01  8.500000e-01
     vertex -5.283598e-01  5.308076e-01  8.500000e-01
   endloop
 endfacet
 facet normal -7.278207e-01 -6.857675e-01  6.390209e-17
   outer loop
     vertex -5.306658e-01  5.264141e-01  8.100000e-01
     vertex -6.000000e-01  6.000000e-01  8.500000e-01
     vertex -6.000000e-01  6.000000e-01  8.100000e-01
   endloop
 endfacet
 facet normal -7.278207e-01 -6.857675e-01  0.000000e+00
   outer loop
     vertex -5.306658e-01  5.264141e-01  8.100000e-01
     vertex -5.306658e-01  5.264141e-01  8.500000e-01
     vertex -6.000000e-01  6.000000e-01  8.500000e-01
   endloop
 endfacet
 facet normal  8.854503e-01 -4.647341e-01  2.139099e-18
   outer loop
     vertex -5.283598e-01  5.308076e-01  8.100000e-01
     vertex -5.306658e-01  5.264141e-01  8.500000e-01
     vertex -5.306658e-01  5.264141e-01  8.100000e-01
   endloop
 endfacet
 facet normal  8.854503e-01 -4.647341e-01  0.000000e+00
   outer loop
     vertex -5.283598e-01  5.308076e-01  8.100000e-01
     vertex -5.283598e-01  5.308076e-01  8.500000e-01
     vertex -5.306658e-01  5.264141e-01  8.500000e-01
   endloop
 endfacet
 facet normal -0.000000e+00  0.000000e+00 -1.000000e+00
   outer loop
     vertex -5.283598e-01  5.308076e-01  8.100000e-01
     vertex -5.306658e-01  5.264141e-01  8.100000e-01
     vertex -6.000000e-01  6.000000e-01  8.100000e-01
   endloop
 endfacet
 facet normal  0.000000e+00  0.000000e+00  1.000000e+00
   outer loop
     vertex -5.283598e-01  5.308076e-01  8.500000e-01
     vertex -6.000000e-01  6.000000e-01  8.500000e-01
     vertex -5.306658e-01  5.264141e-01  8.500000e-01
   endloop
 endfacet
endsolid
