solid
 facet normal  8.047685e-02  9.967565e-01 -3.515797e-19
   outer loop
     vertex  9.257257e-02 -5.361655e-01  8.100000e-01
     vertex  9.751843e-02 -5.365648e-01  8.500000e-01
     vertex  9.751843e-02 -5.365648e-01  8.100000e-01
   endloop
 endfacet
 facet normal  8.047685e-02  9.967565e-01 -0.000000e+00
   outer loop
     vertex  9.257257e-02 -5.361655e-01  8.100000e-01
     vertex  9.257257e-02 -5.361655e-01  8.500000e-01
     vertex  9.751843e-02 -5.365648e-01  8.500000e-01
   endloop
 endfacet
 facet normal -7.215918e-07  1.000000e+00  1.685780e-22
   outer loop
     vertex -9.257367e-02 -5.361656e-01  8.100000e-01
     vertex  9.257257e-02 -5.361655e-01  8.500000e-01
     vertex  9.257257e-02 -5.361655e-01  8.100000e-01
   endloop
 endfacet
 facet normal -7.215918e-07  1.000000e+00  0.000000e+00
   outer loop
     vertex -9.257367e-02 -5.361656e-01  8.100000e-01
     vertex -9.257367e-02 -5.361656e-01  8.500000e-01
     vertex  9.257257e-02 -5.361655e-01  8.500000e-01
   endloop
 endfacet
 facet normal -8.045876e-02  9.967579e-01  2.739586e-19
   outer loop
     vertex -9.751956e-02 -5.365649e-01  8.100000e-01
     vertex -9.257367e-02 -5.361656e-01  8.500000e-01
     vertex -9.257367e-02 -5.361656e-01  8.100000e-01
   endloop
 endfacet
 facet normal -8.045876e-02  9.967579e-01  0.000000e+00
   outer loop
     vertex -9.751956e-02 -5.365649e-01  8.100000e-01
     vertex -9.751956e-02 -5.365649e-01  8.500000e-01
     vertex -9.257367e-02 -5.361656e-01  8.500000e-01
   endloop
 endfacet
 facet normal -9.057010e-02 -9.958901e-01 -4.751563e-17
   outer loop
     vertex  6.000000e-01 -6.000000e-01  8.100000e-01
     vertex -9.751956e-02 -5.365649e-01  8.500000e-01
     vertex -9.751956e-02 -5.365649e-01  8.100000e-01
   endloop
 endfacet
 facet normal -9.057010e-02 -9.958901e-01  0.000000e+00
   outer loop
     vertex  6.000000e-01 -6.000000e-01  8.100000e-01
     vertex  6.000000e-01 -6.000000e-01  8.500000e-01
     vertex -9.751956e-02 -5.365649e-01  8.500000e-01
   endloop
 endfacet
 facet normal  1.252497e-01  9.921253e-01 -3.687469e-17
   outer loop
     vertex  9.751843e-02 -5.365648e-01  8.100000e-01
     vertex  6.000000e-01 -6.000000e-01  8.500000e-01
     vertex  6.000000e-01 -6.000000e-01  8.100000e-01
   endloop
 endfacet
 facet normal  1.252497e-01  9.921253e-01 -0.000000e+00
   outer loop
     vertex  9.751843e-02 -5.365648e-01  8.100000e-01
     vertex  9.751843e-02 -5.365648e-01  8.500000e-01
     vertex  6.000000e-01 -6.000000e-01  8.500000e-01
   endloop
 endfacet
 facet normal  0.000000e+00  0.000000e+00 -1.000000e+00
   outer loop
     vertex  9.751843e-02 -5.365648e-01  8.100000e-01
     vertex -9.257367e-02 -5.361656e-01  8.100000e-01
     vertex  9.257257e-02 -5.361655e-01  8.100000e-01
   endloop
 endfacet
 facet normal -0.000000e+00  0.000000e+00 -1.000000e+00
   outer loop
     vertex  9.751843e-02 -5.365648e-01  8.100000e-01
     vertex -9.751956e-02 -5.365649e-01  8.100000e-01
     vertex -9.257367e-02 -5.361656e-01  8.100000e-01
   endloop
 endfacet
 facet normal  0.000000e+00  0.000000e+00 -1.000000e+00
   outer loop
     vertex  6.000000e-01 -6.000000e-01  8.100000e-01
     vertex -9.751956e-02 -5.365649e-01  8.100000e-01
     vertex  9.751843e-02 -5.365648e-01  8.100000e-01
   endloop
 endfacet
 facet normal  0.000000e+00  0.000000e+00  1.000000e+00
   outer loop
     vertex  9.751843e-02 -5.365648e-01  8.500000e-01
     vertex  9.257257e-02 -5.361655e-01  8.500000e-01
     vertex -9.257367e-02 -5.361656e-01  8.500000e-01
   endloop
 endfacet
 facet normal  0.000000e+00  0.000000e+00  1.000000e+00
   outer loop
     vertex  9.751843e-02 -5.365648e-01  8.500000e-01
     vertex -9.257367e-02 -5.361656e-01  8.500000e-01
     vertex -9.751956e-02 -5.365649e-01  8.500000e-01
   endloop
 endfacet
 facet normal  0.000000e+00  0.000000e+00  1.000000e+00
   outer loop
     vertex  6.000000e-01 -6.000000e-01  8.500000e-01
     vertex  9.751843e-02 -5.365648e-01  8.500000e-01
     vertex -9.751956e-02 -5.365649e-01  8.500000e-01
   endloop
 endfacet
endsolid
