solid
 facet normal -9.954856e-01  9.491311e-02  2.075517e-18
   outer loop
     vertex  2.573189e-01 -4.305623e-01  8.100000e-01
     vertex  2.650000e-01 -3.500000e-01  8.500000e-01
     vertex  2.650000e-01 -3.500000e-01  8.100000e-01
   endloop
 endfacet
 facet normal -9.954856e-01  9.491311e-02  0.000000e+00
   outer loop
     vertex  2.573189e-01 -4.305623e-01  8.100000e-01
     vertex  2.573189e-01 -4.305623e-01  8.500000e-01
     vertex  2.650000e-01 -3.500000e-01  8.500000e-01
   endloop
 endfacet
 facet normal  6.631051e-01 -7.485263e-01 -4.258359e-18
   outer loop
     vertex  2.610331e-01 -4.272720e-01  8.100000e-01
     vertex  2.573189e-01 -4.305623e-01  8.500000e-01
     vertex  2.573189e-01 -4.305623e-01  8.100000e-01
   endloop
 endfacet
 facet normal  6.631051e-01 -7.485263e-01  0.000000e+00
   outer loop
     vertex  2.610331e-01 -4.272720e-01  8.100000e-01
     vertex  2.610331e-01 -4.272720e-01  8.500000e-01
     vertex  2.573189e-01 -4.305623e-01  8.500000e-01
   endloop
 endfacet
 facet normal  9.986848e-01 -5.126959e-02  7.646821e-18
   outer loop
     vertex  2.650000e-01 -3.500000e-01  8.100000e-01
     vertex  2.610331e-01 -4.272720e-01  8.500000e-01
     vertex  2.610331e-01 -4.272720e-01  8.100000e-01
   endloop
 endfacet
 facet normal  9.986848e-01 -5.126959e-02  0.000000e+00
   outer loop
     vertex  2.650000e-01 -3.500000e-01  8.100000e-01
     vertex  2.650000e-01 -3.500000e-01  8.500000e-01
     vertex  2.610331e-01 -4.272720e-01  8.500000e-01
   endloop
 endfacet
 facet normal  0.000000e+00  0.000000e+00 -1.000000e+00
   outer loop
     vertex  2.650000e-01 -3.500000e-01  8.100000e-01
     vertex  2.610331e-01 -4.272720e-01  8.100000e-01
     vertex  2.573189e-01 -4.305623e-01  8.100000e-01
   endloop
 endfacet
 facet normal  0.000000e+00  0.000000e+00  1.000000e+00
   outer loop
     vertex  2.650000e-01 -3.500000e-01  8.500000e-01
     vertex  2.573189e-01 -4.305623e-01  8.500000e-01
     vertex  2.610331e-01 -4.272720e-01  8.500000e-01
   endloop
 endfacet
endsolid
