solid
 facet normal -8.660151e-01 -5.000178e-01 -1.306754e-18
   outer loop
     vertex  1.545569e-01 -4.463655e-01  8.100000e-01
     vertex  1.520757e-01 -4.420683e-01  8.500000e-01
     vertex  1.520757e-01 -4.420683e-01  8.100000e-01
   endloop
 endfacet
 facet normal -8.660151e-01 -5.000178e-01  0.000000e+00
   outer loop
     vertex  1.545569e-01 -4.463655e-01  8.100000e-01
     vertex  1.545569e-01 -4.463655e-01  8.500000e-01
     vertex  1.520757e-01 -4.420683e-01  8.500000e-01
   endloop
 endfacet
 facet normal  5.539874e-06 -1.000000e+00 -1.626744e-22
   outer loop
     vertex  2.454434e-01 -4.463650e-01  8.100000e-01
     vertex  1.545569e-01 -4.463655e-01  8.500000e-01
     vertex  1.545569e-01 -4.463655e-01  8.100000e-01
   endloop
 endfacet
 facet normal  5.539874e-06 -1.000000e+00  0.000000e+00
   outer loop
     vertex  2.454434e-01 -4.463650e-01  8.100000e-01
     vertex  2.454434e-01 -4.463650e-01  8.500000e-01
     vertex  1.545569e-01 -4.463655e-01  8.500000e-01
   endloop
 endfacet
 facet normal  8.660151e-01 -5.000179e-01  1.267424e-19
   outer loop
     vertex  2.479245e-01 -4.420679e-01  8.100000e-01
     vertex  2.454434e-01 -4.463650e-01  8.500000e-01
     vertex  2.454434e-01 -4.463650e-01  8.100000e-01
   endloop
 endfacet
 facet normal  8.660151e-01 -5.000179e-01  0.000000e+00
   outer loop
     vertex  2.479245e-01 -4.420679e-01  8.100000e-01
     vertex  2.479245e-01 -4.420679e-01  8.500000e-01
     vertex  2.454434e-01 -4.463650e-01  8.500000e-01
   endloop
 endfacet
 facet normal -4.138812e-06  1.000000e+00  1.456585e-23
   outer loop
     vertex  1.520757e-01 -4.420683e-01  8.100000e-01
     vertex  2.479245e-01 -4.420679e-01  8.500000e-01
     vertex  2.479245e-01 -4.420679e-01  8.100000e-01
   endloop
 endfacet
 facet normal -4.138812e-06  1.000000e+00  0.000000e+00
   outer loop
     vertex  1.520757e-01 -4.420683e-01  8.100000e-01
     vertex  1.520757e-01 -4.420683e-01  8.500000e-01
     vertex  2.479245e-01 -4.420679e-01  8.500000e-01
   endloop
 endfacet
 facet normal -0.000000e+00  0.000000e+00 -1.000000e+00
   outer loop
     vertex  2.454434e-01 -4.463650e-01  8.100000e-01
     vertex  1.545569e-01 -4.463655e-01  8.100000e-01
     vertex  1.520757e-01 -4.420683e-01  8.100000e-01
   endloop
 endfacet
 facet normal  0.000000e+00  0.000000e+00 -1.000000e+00
   outer loop
     vertex  2.479245e-01 -4.420679e-01  8.100000e-01
     vertex  2.454434e-01 -4.463650e-01  8.100000e-01
     vertex  1.520757e-01 -4.420683e-01  8.100000e-01
   endloop
 endfacet
 facet normal  0.000000e+00  0.000000e+00  1.000000e+00
   outer loop
     vertex  2.454434e-01 -4.463650e-01  8.500000e-01
     vertex  1.520757e-01 -4.420683e-01  8.500000e-01
     vertex  1.545569e-01 -4.463655e-01  8.500000e-01
   endloop
 endfacet
 facet normal  0.000000e+00  0.000000e+00  1.000000e+00
   outer loop
     vertex  2.479245e-01 -4.420679e-01  8.500000e-01
     vertex  1.520757e-01 -4.420683e-01  8.500000e-01
     vertex  2.454434e-01 -4.463650e-01  8.500000e-01
   endloop
 endfacet
endsolid
