solid
 facet normal -9.797919e-01  2.000194e-01  1.913970e-18
   outer loop
     vertex  1.598244e-01 -4.897455e-01  8.100000e-01
     vertex  1.608169e-01 -4.848838e-01  8.500000e-01
     vertex  1.608169e-01 -4.848838e-01  8.100000e-01
   endloop
 endfacet
 facet normal -9.797919e-01  2.000194e-01  0.000000e+00
   outer loop
     vertex  1.598244e-01 -4.897455e-01  8.100000e-01
     vertex  1.598244e-01 -4.897455e-01  8.500000e-01
     vertex  1.608169e-01 -4.848838e-01  8.500000e-01
   endloop
 endfacet
 facet normal  1.357793e-05 -1.000000e+00  4.227132e-22
   outer loop
     vertex  2.401754e-01 -4.897444e-01  8.100000e-01
     vertex  1.598244e-01 -4.897455e-01  8.500000e-01
     vertex  1.598244e-01 -4.897455e-01  8.100000e-01
   endloop
 endfacet
 facet normal  1.357793e-05 -1.000000e+00  0.000000e+00
   outer loop
     vertex  2.401754e-01 -4.897444e-01  8.100000e-01
     vertex  2.401754e-01 -4.897444e-01  8.500000e-01
     vertex  1.598244e-01 -4.897455e-01  8.500000e-01
   endloop
 endfacet
 facet normal  9.797945e-01  2.000070e-01 -6.907239e-19
   outer loop
     vertex  2.391829e-01 -4.848827e-01  8.100000e-01
     vertex  2.401754e-01 -4.897444e-01  8.500000e-01
     vertex  2.401754e-01 -4.897444e-01  8.100000e-01
   endloop
 endfacet
 facet normal  9.797945e-01  2.000070e-01 -0.000000e+00
   outer loop
     vertex  2.391829e-01 -4.848827e-01  8.100000e-01
     vertex  2.391829e-01 -4.848827e-01  8.500000e-01
     vertex  2.401754e-01 -4.897444e-01  8.500000e-01
   endloop
 endfacet
 facet normal -1.411709e-05  1.000000e+00  1.693336e-21
   outer loop
     vertex  1.608169e-01 -4.848838e-01  8.100000e-01
     vertex  2.391829e-01 -4.848827e-01  8.500000e-01
     vertex  2.391829e-01 -4.848827e-01  8.100000e-01
   endloop
 endfacet
 facet normal -1.411709e-05  1.000000e+00  0.000000e+00
   outer loop
     vertex  1.608169e-01 -4.848838e-01  8.100000e-01
     vertex  1.608169e-01 -4.848838e-01  8.500000e-01
     vertex  2.391829e-01 -4.848827e-01  8.500000e-01
   endloop
 endfacet
 facet normal -0.000000e+00  0.000000e+00 -1.000000e+00
   outer loop
     vertex  2.401754e-01 -4.897444e-01  8.100000e-01
     vertex  1.598244e-01 -4.897455e-01  8.100000e-01
     vertex  1.608169e-01 -4.848838e-01  8.100000e-01
   endloop
 endfacet
 facet normal  0.000000e+00 -0.000000e+00 -1.000000e+00
   outer loop
     vertex  2.391829e-01 -4.848827e-01  8.100000e-01
     vertex  2.401754e-01 -4.897444e-01  8.100000e-01
     vertex  1.608169e-01 -4.848838e-01  8.100000e-01
   endloop
 endfacet
 facet normal  0.000000e+00  0.000000e+00  1.000000e+00
   outer loop
     vertex  2.401754e-01 -4.897444e-01  8.500000e-01
     vertex  1.608169e-01 -4.848838e-01  8.500000e-01
     vertex  1.598244e-01 -4.897455e-01  8.500000e-01
   endloop
 endfacet
 facet normal  0.000000e+00  0.000000e+00  1.000000e+00
   outer loop
     vertex  2.391829e-01 -4.848827e-01  8.500000e-01
     vertex  1.608169e-01 -4.848838e-01  8.500000e-01
     vertex  2.401754e-01 -4.897444e-01  8.500000e-01
   endloop
 endfacet
endsolid
