solid
 facet normal  2.000126e-01  9.797933e-01 -6.887956e-19
   outer loop
     vertex -4.897446e-01 -3.598246e-01  8.100000e-01
     vertex -4.848829e-01 -3.608170e-01  8.500000e-01
     vertex -4.848829e-01 -3.608170e-01  8.100000e-01
   endloop
 endfacet
 facet normal  2.000126e-01  9.797933e-01 -0.000000e+00
   outer loop
     vertex -4.897446e-01 -3.598246e-01  8.100000e-01
     vertex -4.897446e-01 -3.598246e-01  8.500000e-01
     vertex -4.848829e-01 -3.608170e-01  8.500000e-01
   endloop
 endfacet
 facet normal -9.088139e-01  4.172017e-01 -3.768269e-17
   outer loop
     vertex -6.000000e-01 -6.000000e-01  8.100000e-01
     vertex -4.897446e-01 -3.598246e-01  8.500000e-01
     vertex -4.897446e-01 -3.598246e-01  8.100000e-01
   endloop
 endfacet
 facet normal -9.088139e-01  4.172017e-01  0.000000e+00
   outer loop
     vertex -6.000000e-01 -6.000000e-01  8.100000e-01
     vertex -6.000000e-01 -6.000000e-01  8.500000e-01
     vertex -4.897446e-01 -3.598246e-01  8.500000e-01
   endloop
 endfacet
 facet normal  4.172026e-01 -9.088135e-01 -8.031003e-17
   outer loop
     vertex -3.598246e-01 -4.897444e-01  8.100000e-01
     vertex -6.000000e-01 -6.000000e-01  8.500000e-01
     vertex -6.000000e-01 -6.000000e-01  8.100000e-01
   endloop
 endfacet
 facet normal  4.172026e-01 -9.088135e-01  0.000000e+00
   outer loop
     vertex -3.598246e-01 -4.897444e-01  8.100000e-01
     vertex -3.598246e-01 -4.897444e-01  8.500000e-01
     vertex -6.000000e-01 -6.000000e-01  8.500000e-01
   endloop
 endfacet
 facet normal  9.797939e-01  2.000100e-01 -1.216626e-18
   outer loop
     vertex -3.608171e-01 -4.848827e-01  8.100000e-01
     vertex -3.598246e-01 -4.897444e-01  8.500000e-01
     vertex -3.598246e-01 -4.897444e-01  8.100000e-01
   endloop
 endfacet
 facet normal  9.797939e-01  2.000100e-01 -0.000000e+00
   outer loop
     vertex -3.608171e-01 -4.848827e-01  8.100000e-01
     vertex -3.608171e-01 -4.848827e-01  8.500000e-01
     vertex -3.598246e-01 -4.897444e-01  8.500000e-01
   endloop
 endfacet
 facet normal  7.071062e-01  7.071074e-01  1.014105e-16
   outer loop
     vertex -4.848829e-01 -3.608170e-01  8.100000e-01
     vertex -3.608171e-01 -4.848827e-01  8.500000e-01
     vertex -3.608171e-01 -4.848827e-01  8.100000e-01
   endloop
 endfacet
 facet normal  7.071062e-01  7.071074e-01 -0.000000e+00
   outer loop
     vertex -4.848829e-01 -3.608170e-01  8.100000e-01
     vertex -4.848829e-01 -3.608170e-01  8.500000e-01
     vertex -3.608171e-01 -4.848827e-01  8.500000e-01
   endloop
 endfacet
 facet normal -0.000000e+00  0.000000e+00 -1.000000e+00
   outer loop
     vertex -4.848829e-01 -3.608170e-01  8.100000e-01
     vertex -6.000000e-01 -6.000000e-01  8.100000e-01
     vertex -4.897446e-01 -3.598246e-01  8.100000e-01
   endloop
 endfacet
 facet normal  0.000000e+00 -0.000000e+00 -1.000000e+00
   outer loop
     vertex -3.608171e-01 -4.848827e-01  8.100000e-01
     vertex -3.598246e-01 -4.897444e-01  8.100000e-01
     vertex -6.000000e-01 -6.000000e-01  8.100000e-01
   endloop
 endfacet
 facet normal -0.000000e+00  0.000000e+00 -1.000000e+00
   outer loop
     vertex -3.608171e-01 -4.848827e-01  8.100000e-01
     vertex -6.000000e-01 -6.000000e-01  8.100000e-01
     vertex -4.848829e-01 -3.608170e-01  8.100000e-01
   endloop
 endfacet
 facet normal  0.000000e+00  0.000000e+00  1.000000e+00
   outer loop
     vertex -4.848829e-01 -3.608170e-01  8.500000e-01
     vertex -4.897446e-01 -3.598246e-01  8.500000e-01
     vertex -6.000000e-01 -6.000000e-01  8.500000e-01
   endloop
 endfacet
 facet normal  0.000000e+00  0.000000e+00  1.000000e+00
   outer loop
     vertex -3.608171e-01 -4.848827e-01  8.500000e-01
     vertex -6.000000e-01 -6.000000e-01  8.500000e-01
     vertex -3.598246e-01 -4.897444e-01  8.500000e-01
   endloop
 endfacet
 facet normal  0.000000e+00  0.000000e+00  1.000000e+00
   outer loop
     vertex -3.608171e-01 -4.848827e-01  8.500000e-01
     vertex -4.848829e-01 -3.608170e-01  8.500000e-01
     vertex -6.000000e-01 -6.000000e-01  8.500000e-01
   endloop
 endfacet
endsolid
