solid
 facet normal -1.000000e+00  0.000000e+00  0.000000e+00
   outer loop
     vertex -5.158578e-01  1.461197e-01  8.100000e-01
     vertex -5.158578e-01  2.538803e-01  8.500000e-01
     vertex -5.158578e-01  2.538803e-01  8.100000e-01
   endloop
 endfacet
 facet normal -1.000000e+00  0.000000e+00  0.000000e+00
   outer loop
     vertex -5.158578e-01  1.461197e-01  8.100000e-01
     vertex -5.158578e-01  1.461197e-01  8.500000e-01
     vertex -5.158578e-01  2.538803e-01  8.500000e-01
   endloop
 endfacet
 facet normal  6.324345e-01 -7.746139e-01  3.901872e-18
   outer loop
     vertex -5.120142e-01  1.492578e-01  8.100000e-01
     vertex -5.158578e-01  1.461197e-01  8.500000e-01
     vertex -5.158578e-01  1.461197e-01  8.100000e-01
   endloop
 endfacet
 facet normal  6.324345e-01 -7.746139e-01  0.000000e+00
   outer loop
     vertex -5.120142e-01  1.492578e-01  8.100000e-01
     vertex -5.120142e-01  1.492578e-01  8.500000e-01
     vertex -5.158578e-01  1.461197e-01  8.500000e-01
   endloop
 endfacet
 facet normal  1.000000e+00  0.000000e+00  0.000000e+00
   outer loop
     vertex -5.120142e-01  2.507422e-01  8.100000e-01
     vertex -5.120142e-01  1.492578e-01  8.500000e-01
     vertex -5.120142e-01  1.492578e-01  8.100000e-01
   endloop
 endfacet
 facet normal  1.000000e+00  0.000000e+00 -0.000000e+00
   outer loop
     vertex -5.120142e-01  2.507422e-01  8.100000e-01
     vertex -5.120142e-01  2.507422e-01  8.500000e-01
     vertex -5.120142e-01  1.492578e-01  8.500000e-01
   endloop
 endfacet
 facet normal  6.324345e-01  7.746139e-01 -3.677826e-18
   outer loop
     vertex -5.158578e-01  2.538803e-01  8.100000e-01
     vertex -5.120142e-01  2.507422e-01  8.500000e-01
     vertex -5.120142e-01  2.507422e-01  8.100000e-01
   endloop
 endfacet
 facet normal  6.324345e-01  7.746139e-01 -0.000000e+00
   outer loop
     vertex -5.158578e-01  2.538803e-01  8.100000e-01
     vertex -5.158578e-01  2.538803e-01  8.500000e-01
     vertex -5.120142e-01  2.507422e-01  8.500000e-01
   endloop
 endfacet
 facet normal -0.000000e+00  0.000000e+00 -1.000000e+00
   outer loop
     vertex -5.120142e-01  2.507422e-01  8.100000e-01
     vertex -5.158578e-01  1.461197e-01  8.100000e-01
     vertex -5.158578e-01  2.538803e-01  8.100000e-01
   endloop
 endfacet
 facet normal  0.000000e+00 -0.000000e+00 -1.000000e+00
   outer loop
     vertex -5.120142e-01  2.507422e-01  8.100000e-01
     vertex -5.120142e-01  1.492578e-01  8.100000e-01
     vertex -5.158578e-01  1.461197e-01  8.100000e-01
   endloop
 endfacet
 facet normal  0.000000e+00  0.000000e+00  1.000000e+00
   outer loop
     vertex -5.120142e-01  2.507422e-01  8.500000e-01
     vertex -5.158578e-01  2.538803e-01  8.500000e-01
     vertex -5.158578e-01  1.461197e-01  8.500000e-01
   endloop
 endfacet
 facet normal  0.000000e+00  0.000000e+00  1.000000e+00
   outer loop
     vertex -5.120142e-01  2.507422e-01  8.500000e-01
     vertex -5.158578e-01  1.461197e-01  8.500000e-01
     vertex -5.120142e-01  1.492578e-01  8.500000e-01
   endloop
 endfacet
endsolid
