solid
 facet normal  9.491307e-02  9.954856e-01 -8.346756e-18
   outer loop
     vertex -4.305623e-01 -2.573189e-01  8.100000e-01
     vertex -3.500000e-01 -2.650000e-01  8.500000e-01
     vertex -3.500000e-01 -2.650000e-01  8.100000e-01
   endloop
 endfacet
 facet normal  9.491307e-02  9.954856e-01 -0.000000e+00
   outer loop
     vertex -4.305623e-01 -2.573189e-01  8.100000e-01
     vertex -4.305623e-01 -2.573189e-01  8.500000e-01
     vertex -3.500000e-01 -2.650000e-01  8.500000e-01
   endloop
 endfacet
 facet normal -7.485233e-01 -6.631085e-01 -1.699813e-18
   outer loop
     vertex -4.272720e-01 -2.610331e-01  8.100000e-01
     vertex -4.305623e-01 -2.573189e-01  8.500000e-01
     vertex -4.305623e-01 -2.573189e-01  8.100000e-01
   endloop
 endfacet
 facet normal -7.485233e-01 -6.631085e-01  0.000000e+00
   outer loop
     vertex -4.272720e-01 -2.610331e-01  8.100000e-01
     vertex -4.272720e-01 -2.610331e-01  8.500000e-01
     vertex -4.305623e-01 -2.573189e-01  8.500000e-01
   endloop
 endfacet
 facet normal -5.126959e-02 -9.986848e-01 -7.646821e-18
   outer loop
     vertex -3.500000e-01 -2.650000e-01  8.100000e-01
     vertex -4.272720e-01 -2.610331e-01  8.500000e-01
     vertex -4.272720e-01 -2.610331e-01  8.100000e-01
   endloop
 endfacet
 facet normal -5.126959e-02 -9.986848e-01  0.000000e+00
   outer loop
     vertex -3.500000e-01 -2.650000e-01  8.100000e-01
     vertex -3.500000e-01 -2.650000e-01  8.500000e-01
     vertex -4.272720e-01 -2.610331e-01  8.500000e-01
   endloop
 endfacet
 facet normal  0.000000e+00  0.000000e+00 -1.000000e+00
   outer loop
     vertex -3.500000e-01 -2.650000e-01  8.100000e-01
     vertex -4.272720e-01 -2.610331e-01  8.100000e-01
     vertex -4.305623e-01 -2.573189e-01  8.100000e-01
   endloop
 endfacet
 facet normal  0.000000e+00  0.000000e+00  1.000000e+00
   outer loop
     vertex -3.500000e-01 -2.650000e-01  8.500000e-01
     vertex -4.305623e-01 -2.573189e-01  8.500000e-01
     vertex -4.272720e-01 -2.610331e-01  8.500000e-01
   endloop
 endfacet
endsolid
