solid
 facet normal -9.605138e-01 -2.782324e-01  8.139920e-19
   outer loop
     vertex -4.017566e-02 -4.602543e-01  8.100000e-01
     vertex -4.155627e-02 -4.554881e-01  8.500000e-01
     vertex -4.155627e-02 -4.554881e-01  8.100000e-01
   endloop
 endfacet
 facet normal -9.605138e-01 -2.782324e-01  0.000000e+00
   outer loop
     vertex -4.017566e-02 -4.602543e-01  8.100000e-01
     vertex -4.017566e-02 -4.602543e-01  8.500000e-01
     vertex -4.155627e-02 -4.554881e-01  8.500000e-01
   endloop
 endfacet
 facet normal  1.025493e-05 -1.000000e+00  1.767042e-21
   outer loop
     vertex  4.017590e-02 -4.602534e-01  8.100000e-01
     vertex -4.017566e-02 -4.602543e-01  8.500000e-01
     vertex -4.017566e-02 -4.602543e-01  8.100000e-01
   endloop
 endfacet
 facet normal  1.025493e-05 -1.000000e+00  0.000000e+00
   outer loop
     vertex  4.017590e-02 -4.602534e-01  8.100000e-01
     vertex  4.017590e-02 -4.602534e-01  8.500000e-01
     vertex -4.017566e-02 -4.602543e-01  8.500000e-01
   endloop
 endfacet
 facet normal  9.605119e-01 -2.782390e-01  9.695711e-19
   outer loop
     vertex  4.155652e-02 -4.554874e-01  8.100000e-01
     vertex  4.017590e-02 -4.602534e-01  8.500000e-01
     vertex  4.017590e-02 -4.602534e-01  8.100000e-01
   endloop
 endfacet
 facet normal  9.605119e-01 -2.782390e-01  0.000000e+00
   outer loop
     vertex  4.155652e-02 -4.554874e-01  8.100000e-01
     vertex  4.155652e-02 -4.554874e-01  8.500000e-01
     vertex  4.017590e-02 -4.602534e-01  8.500000e-01
   endloop
 endfacet
 facet normal -8.445150e-06  1.000000e+00  5.513661e-22
   outer loop
     vertex -4.155627e-02 -4.554881e-01  8.100000e-01
     vertex  4.155652e-02 -4.554874e-01  8.500000e-01
     vertex  4.155652e-02 -4.554874e-01  8.100000e-01
   endloop
 endfacet
 facet normal -8.445150e-06  1.000000e+00  0.000000e+00
   outer loop
     vertex -4.155627e-02 -4.554881e-01  8.100000e-01
     vertex -4.155627e-02 -4.554881e-01  8.500000e-01
     vertex  4.155652e-02 -4.554874e-01  8.500000e-01
   endloop
 endfacet
 facet normal -0.000000e+00  0.000000e+00 -1.000000e+00
   outer loop
     vertex  4.017590e-02 -4.602534e-01  8.100000e-01
     vertex -4.017566e-02 -4.602543e-01  8.100000e-01
     vertex -4.155627e-02 -4.554881e-01  8.100000e-01
   endloop
 endfacet
 facet normal  0.000000e+00  0.000000e+00 -1.000000e+00
   outer loop
     vertex  4.155652e-02 -4.554874e-01  8.100000e-01
     vertex  4.017590e-02 -4.602534e-01  8.100000e-01
     vertex -4.155627e-02 -4.554881e-01  8.100000e-01
   endloop
 endfacet
 facet normal  0.000000e+00  0.000000e+00  1.000000e+00
   outer loop
     vertex  4.017590e-02 -4.602534e-01  8.500000e-01
     vertex -4.155627e-02 -4.554881e-01  8.500000e-01
     vertex -4.017566e-02 -4.602543e-01  8.500000e-01
   endloop
 endfacet
 facet normal  0.000000e+00  0.000000e+00  1.000000e+00
   outer loop
     vertex  4.155652e-02 -4.554874e-01  8.500000e-01
     vertex -4.155627e-02 -4.554881e-01  8.500000e-01
     vertex  4.017590e-02 -4.602534e-01  8.500000e-01
   endloop
 endfacet
endsolid
