solid
 facet normal -3.166609e-01  9.485388e-01  1.183144e-18
   outer loop
     vertex -2.828581e-01 -5.341823e-01  8.100000e-01
     vertex -2.781515e-01 -5.326110e-01  8.500000e-01
     vertex -2.781515e-01 -5.326110e-01  8.100000e-01
   endloop
 endfacet
 facet normal -3.166609e-01  9.485388e-01  0.000000e+00
   outer loop
     vertex -2.828581e-01 -5.341823e-01  8.100000e-01
     vertex -2.828581e-01 -5.341823e-01  8.500000e-01
     vertex -2.781515e-01 -5.326110e-01  8.500000e-01
   endloop
 endfacet
 facet normal  1.887576e-06 -1.000000e+00 -3.706634e-22
   outer loop
     vertex -1.171429e-01 -5.341820e-01  8.100000e-01
     vertex -2.828581e-01 -5.341823e-01  8.500000e-01
     vertex -2.828581e-01 -5.341823e-01  8.100000e-01
   endloop
 endfacet
 facet normal  1.887576e-06 -1.000000e+00  0.000000e+00
   outer loop
     vertex -1.171429e-01 -5.341820e-01  8.100000e-01
     vertex -1.171429e-01 -5.341820e-01  8.500000e-01
     vertex -2.828581e-01 -5.341823e-01  8.500000e-01
   endloop
 endfacet
 facet normal  3.166779e-01  9.485331e-01 -1.406260e-19
   outer loop
     vertex -1.218495e-01 -5.326106e-01  8.100000e-01
     vertex -1.171429e-01 -5.341820e-01  8.500000e-01
     vertex -1.171429e-01 -5.341820e-01  8.100000e-01
   endloop
 endfacet
 facet normal  3.166779e-01  9.485331e-01 -0.000000e+00
   outer loop
     vertex -1.218495e-01 -5.326106e-01  8.100000e-01
     vertex -1.218495e-01 -5.326106e-01  8.500000e-01
     vertex -1.171429e-01 -5.341820e-01  8.500000e-01
   endloop
 endfacet
 facet normal -2.538036e-06  1.000000e+00  1.323829e-22
   outer loop
     vertex -2.781515e-01 -5.326110e-01  8.100000e-01
     vertex -1.218495e-01 -5.326106e-01  8.500000e-01
     vertex -1.218495e-01 -5.326106e-01  8.100000e-01
   endloop
 endfacet
 facet normal -2.538036e-06  1.000000e+00  0.000000e+00
   outer loop
     vertex -2.781515e-01 -5.326110e-01  8.100000e-01
     vertex -2.781515e-01 -5.326110e-01  8.500000e-01
     vertex -1.218495e-01 -5.326106e-01  8.500000e-01
   endloop
 endfacet
 facet normal -0.000000e+00  0.000000e+00 -1.000000e+00
   outer loop
     vertex -1.171429e-01 -5.341820e-01  8.100000e-01
     vertex -2.828581e-01 -5.341823e-01  8.100000e-01
     vertex -2.781515e-01 -5.326110e-01  8.100000e-01
   endloop
 endfacet
 facet normal  0.000000e+00  0.000000e+00 -1.000000e+00
   outer loop
     vertex -1.171429e-01 -5.341820e-01  8.100000e-01
     vertex -2.781515e-01 -5.326110e-01  8.100000e-01
     vertex -1.218495e-01 -5.326106e-01  8.100000e-01
   endloop
 endfacet
 facet normal  0.000000e+00  0.000000e+00  1.000000e+00
   outer loop
     vertex -1.171429e-01 -5.341820e-01  8.500000e-01
     vertex -2.781515e-01 -5.326110e-01  8.500000e-01
     vertex -2.828581e-01 -5.341823e-01  8.500000e-01
   endloop
 endfacet
 facet normal  0.000000e+00  0.000000e+00  1.000000e+00
   outer loop
     vertex -1.171429e-01 -5.341820e-01  8.500000e-01
     vertex -1.218495e-01 -5.326106e-01  8.500000e-01
     vertex -2.781515e-01 -5.326110e-01  8.500000e-01
   endloop
 endfacet
endsolid
