solid
 facet normal  3.946438e-01  9.188342e-01  6.102402e-17
   outer loop
     vertex -6.000000e-01  6.000000e-01  8.100000e-01
     vertex -4.991503e-01  5.566846e-01  8.500000e-01
     vertex -4.991503e-01  5.566846e-01  8.100000e-01
   endloop
 endfacet
 facet normal  3.946438e-01  9.188342e-01 -0.000000e+00
   outer loop
     vertex -6.000000e-01  6.000000e-01  8.100000e-01
     vertex -6.000000e-01  6.000000e-01  8.500000e-01
     vertex -4.991503e-01  5.566846e-01  8.500000e-01
   endloop
 endfacet
 facet normal -4.265151e-01 -9.044805e-01 -7.840420e-17
   outer loop
     vertex -5.036333e-01  5.545575e-01  8.100000e-01
     vertex -6.000000e-01  6.000000e-01  8.500000e-01
     vertex -6.000000e-01  6.000000e-01  8.100000e-01
   endloop
 endfacet
 facet normal -4.265151e-01 -9.044805e-01  0.000000e+00
   outer loop
     vertex -5.036333e-01  5.545575e-01  8.100000e-01
     vertex -5.036333e-01  5.545575e-01  8.500000e-01
     vertex -6.000000e-01  6.000000e-01  8.500000e-01
   endloop
 endfacet
 facet normal  4.286744e-01 -9.034590e-01  2.901832e-18
   outer loop
     vertex -4.991503e-01  5.566846e-01  8.100000e-01
     vertex -5.036333e-01  5.545575e-01  8.500000e-01
     vertex -5.036333e-01  5.545575e-01  8.100000e-01
   endloop
 endfacet
 facet normal  4.286744e-01 -9.034590e-01  0.000000e+00
   outer loop
     vertex -4.991503e-01  5.566846e-01  8.100000e-01
     vertex -4.991503e-01  5.566846e-01  8.500000e-01
     vertex -5.036333e-01  5.545575e-01  8.500000e-01
   endloop
 endfacet
 facet normal -0.000000e+00  0.000000e+00 -1.000000e+00
   outer loop
     vertex -4.991503e-01  5.566846e-01  8.100000e-01
     vertex -5.036333e-01  5.545575e-01  8.100000e-01
     vertex -6.000000e-01  6.000000e-01  8.100000e-01
   endloop
 endfacet
 facet normal  0.000000e+00  0.000000e+00  1.000000e+00
   outer loop
     vertex -4.991503e-01  5.566846e-01  8.500000e-01
     vertex -6.000000e-01  6.000000e-01  8.500000e-01
     vertex -5.036333e-01  5.545575e-01  8.500000e-01
   endloop
 endfacet
endsolid
