solid
 facet normal -3.665299e-01  9.304063e-01  6.152134e-17
   outer loop
     vertex -4.554875e-01  5.584436e-01  8.100000e-01
     vertex -3.500000e-01  6.000000e-01  8.500000e-01
     vertex -3.500000e-01  6.000000e-01  8.100000e-01
   endloop
 endfacet
 facet normal -3.665299e-01  9.304063e-01  0.000000e+00
   outer loop
     vertex -4.554875e-01  5.584436e-01  8.100000e-01
     vertex -4.554875e-01  5.584436e-01  8.500000e-01
     vertex -3.500000e-01  6.000000e-01  8.500000e-01
   endloop
 endfacet
 facet normal -3.546241e-01 -9.350090e-01  2.441793e-18
   outer loop
     vertex -4.508480e-01  5.566840e-01  8.100000e-01
     vertex -4.554875e-01  5.584436e-01  8.500000e-01
     vertex -4.554875e-01  5.584436e-01  8.100000e-01
   endloop
 endfacet
 facet normal -3.546241e-01 -9.350090e-01  0.000000e+00
   outer loop
     vertex -4.508480e-01  5.566840e-01  8.100000e-01
     vertex -4.508480e-01  5.566840e-01  8.500000e-01
     vertex -4.554875e-01  5.584436e-01  8.500000e-01
   endloop
 endfacet
 facet normal  3.946540e-01 -9.188298e-01 -6.413751e-17
   outer loop
     vertex -3.500000e-01  6.000000e-01  8.100000e-01
     vertex -4.508480e-01  5.566840e-01  8.500000e-01
     vertex -4.508480e-01  5.566840e-01  8.100000e-01
   endloop
 endfacet
 facet normal  3.946540e-01 -9.188298e-01  0.000000e+00
   outer loop
     vertex -3.500000e-01  6.000000e-01  8.100000e-01
     vertex -3.500000e-01  6.000000e-01  8.500000e-01
     vertex -4.508480e-01  5.566840e-01  8.500000e-01
   endloop
 endfacet
 facet normal  0.000000e+00  0.000000e+00 -1.000000e+00
   outer loop
     vertex -3.500000e-01  6.000000e-01  8.100000e-01
     vertex -4.508480e-01  5.566840e-01  8.100000e-01
     vertex -4.554875e-01  5.584436e-01  8.100000e-01
   endloop
 endfacet
 facet normal  0.000000e+00  0.000000e+00  1.000000e+00
   outer loop
     vertex -3.500000e-01  6.000000e-01  8.500000e-01
     vertex -4.554875e-01  5.584436e-01  8.500000e-01
     vertex -4.508480e-01  5.566840e-01  8.500000e-01
   endloop
 endfacet
endsolid
