solid
 facet normal -8.229722e-01  5.680817e-01 -9.669730e-20
   outer loop
     vertex  5.492573e-01 -5.120148e-01  8.100000e-01
     vertex  5.520762e-01 -5.079312e-01  8.500000e-01
     vertex  5.520762e-01 -5.079312e-01  8.100000e-01
   endloop
 endfacet
 facet normal -8.229722e-01  5.680817e-01  0.000000e+00
   outer loop
     vertex  5.492573e-01 -5.120148e-01  8.100000e-01
     vertex  5.492573e-01 -5.120148e-01  8.500000e-01
     vertex  5.520762e-01 -5.079312e-01  8.500000e-01
   endloop
 endfacet
 facet normal -8.662623e-01 -4.995894e-01 -5.804470e-17
   outer loop
     vertex  6.000000e-01 -6.000000e-01  8.100000e-01
     vertex  5.492573e-01 -5.120148e-01  8.500000e-01
     vertex  5.492573e-01 -5.120148e-01  8.100000e-01
   endloop
 endfacet
 facet normal -8.662623e-01 -4.995894e-01  0.000000e+00
   outer loop
     vertex  6.000000e-01 -6.000000e-01  8.100000e-01
     vertex  6.000000e-01 -6.000000e-01  8.500000e-01
     vertex  5.492573e-01 -5.120148e-01  8.500000e-01
   endloop
 endfacet
 facet normal  8.870273e-01  4.617170e-01  5.863570e-17
   outer loop
     vertex  5.520762e-01 -5.079312e-01  8.100000e-01
     vertex  6.000000e-01 -6.000000e-01  8.500000e-01
     vertex  6.000000e-01 -6.000000e-01  8.100000e-01
   endloop
 endfacet
 facet normal  8.870273e-01  4.617170e-01 -0.000000e+00
   outer loop
     vertex  5.520762e-01 -5.079312e-01  8.100000e-01
     vertex  5.520762e-01 -5.079312e-01  8.500000e-01
     vertex  6.000000e-01 -6.000000e-01  8.500000e-01
   endloop
 endfacet
 facet normal  0.000000e+00 -0.000000e+00 -1.000000e+00
   outer loop
     vertex  5.520762e-01 -5.079312e-01  8.100000e-01
     vertex  6.000000e-01 -6.000000e-01  8.100000e-01
     vertex  5.492573e-01 -5.120148e-01  8.100000e-01
   endloop
 endfacet
 facet normal  0.000000e+00  0.000000e+00  1.000000e+00
   outer loop
     vertex  5.520762e-01 -5.079312e-01  8.500000e-01
     vertex  5.492573e-01 -5.120148e-01  8.500000e-01
     vertex  6.000000e-01 -6.000000e-01  8.500000e-01
   endloop
 endfacet
endsolid
