solid
 facet normal -9.797889e-01 -2.000341e-01  7.202130e-19
   outer loop
     vertex -2.391831e-01 -4.651160e-01  8.100000e-01
     vertex -2.401757e-01 -4.602543e-01  8.500000e-01
     vertex -2.401757e-01 -4.602543e-01  8.100000e-01
   endloop
 endfacet
 facet normal -9.797889e-01 -2.000341e-01  0.000000e+00
   outer loop
     vertex -2.391831e-01 -4.651160e-01  8.100000e-01
     vertex -2.391831e-01 -4.651160e-01  8.500000e-01
     vertex -2.401757e-01 -4.602543e-01  8.500000e-01
   endloop
 endfacet
 facet normal  1.168231e-05 -1.000000e+00  1.812384e-21
   outer loop
     vertex -1.608167e-01 -4.651151e-01  8.100000e-01
     vertex -2.391831e-01 -4.651160e-01  8.500000e-01
     vertex -2.391831e-01 -4.651160e-01  8.100000e-01
   endloop
 endfacet
 facet normal  1.168231e-05 -1.000000e+00  0.000000e+00
   outer loop
     vertex -1.608167e-01 -4.651151e-01  8.100000e-01
     vertex -1.608167e-01 -4.651151e-01  8.500000e-01
     vertex -2.391831e-01 -4.651160e-01  8.500000e-01
   endloop
 endfacet
 facet normal  9.797858e-01 -2.000495e-01 -5.070984e-19
   outer loop
     vertex -1.598241e-01 -4.602534e-01  8.100000e-01
     vertex -1.608167e-01 -4.651151e-01  8.500000e-01
     vertex -1.608167e-01 -4.651151e-01  8.100000e-01
   endloop
 endfacet
 facet normal  9.797858e-01 -2.000495e-01  0.000000e+00
   outer loop
     vertex -1.598241e-01 -4.602534e-01  8.100000e-01
     vertex -1.598241e-01 -4.602534e-01  8.500000e-01
     vertex -1.608167e-01 -4.651151e-01  8.500000e-01
   endloop
 endfacet
 facet normal -1.025493e-05  1.000000e+00  8.452843e-22
   outer loop
     vertex -2.401757e-01 -4.602543e-01  8.100000e-01
     vertex -1.598241e-01 -4.602534e-01  8.500000e-01
     vertex -1.598241e-01 -4.602534e-01  8.100000e-01
   endloop
 endfacet
 facet normal -1.025493e-05  1.000000e+00  0.000000e+00
   outer loop
     vertex -2.401757e-01 -4.602543e-01  8.100000e-01
     vertex -2.401757e-01 -4.602543e-01  8.500000e-01
     vertex -1.598241e-01 -4.602534e-01  8.500000e-01
   endloop
 endfacet
 facet normal -0.000000e+00  0.000000e+00 -1.000000e+00
   outer loop
     vertex -1.608167e-01 -4.651151e-01  8.100000e-01
     vertex -2.391831e-01 -4.651160e-01  8.100000e-01
     vertex -2.401757e-01 -4.602543e-01  8.100000e-01
   endloop
 endfacet
 facet normal  0.000000e+00  0.000000e+00 -1.000000e+00
   outer loop
     vertex -1.598241e-01 -4.602534e-01  8.100000e-01
     vertex -1.608167e-01 -4.651151e-01  8.100000e-01
     vertex -2.401757e-01 -4.602543e-01  8.100000e-01
   endloop
 endfacet
 facet normal  0.000000e+00  0.000000e+00  1.000000e+00
   outer loop
     vertex -1.608167e-01 -4.651151e-01  8.500000e-01
     vertex -2.401757e-01 -4.602543e-01  8.500000e-01
     vertex -2.391831e-01 -4.651160e-01  8.500000e-01
   endloop
 endfacet
 facet normal  0.000000e+00  0.000000e+00  1.000000e+00
   outer loop
     vertex -1.598241e-01 -4.602534e-01  8.500000e-01
     vertex -2.401757e-01 -4.602543e-01  8.500000e-01
     vertex -1.608167e-01 -4.651151e-01  8.500000e-01
   endloop
 endfacet
endsolid
