solid
 facet normal  9.199784e-01 -3.919690e-01 -1.484778e-18
   outer loop
     vertex -5.306658e-01 -7.358594e-02  8.100000e-01
     vertex -5.326108e-01 -7.815088e-02  8.500000e-01
     vertex -5.326108e-01 -7.815088e-02  8.100000e-01
   endloop
 endfacet
 facet normal  9.199784e-01 -3.919690e-01  0.000000e+00
   outer loop
     vertex -5.306658e-01 -7.358594e-02  8.100000e-01
     vertex -5.306658e-01 -7.358594e-02  8.500000e-01
     vertex -5.326108e-01 -7.815088e-02  8.500000e-01
   endloop
 endfacet
 facet normal  9.999179e-01  1.281689e-02  2.164985e-18
   outer loop
     vertex -5.326108e-01  7.815088e-02  8.100000e-01
     vertex -5.306658e-01 -7.358594e-02  8.500000e-01
     vertex -5.306658e-01 -7.358594e-02  8.100000e-01
   endloop
 endfacet
 facet normal  9.999179e-01  1.281689e-02 -0.000000e+00
   outer loop
     vertex -5.326108e-01  7.815088e-02  8.100000e-01
     vertex -5.326108e-01  7.815088e-02  8.500000e-01
     vertex -5.306658e-01 -7.358594e-02  8.500000e-01
   endloop
 endfacet
 facet normal  9.485362e-01  3.166687e-01  1.301698e-18
   outer loop
     vertex -5.341821e-01  8.285754e-02  8.100000e-01
     vertex -5.326108e-01  7.815088e-02  8.500000e-01
     vertex -5.326108e-01  7.815088e-02  8.100000e-01
   endloop
 endfacet
 facet normal  9.485362e-01  3.166687e-01 -0.000000e+00
   outer loop
     vertex -5.341821e-01  8.285754e-02  8.100000e-01
     vertex -5.341821e-01  8.285754e-02  8.500000e-01
     vertex -5.326108e-01  7.815088e-02  8.500000e-01
   endloop
 endfacet
 facet normal -9.999524e-01 -9.758774e-03  9.018501e-19
   outer loop
     vertex -5.326108e-01 -7.815088e-02  8.100000e-01
     vertex -5.341821e-01  8.285754e-02  8.500000e-01
     vertex -5.341821e-01  8.285754e-02  8.100000e-01
   endloop
 endfacet
 facet normal -9.999524e-01 -9.758774e-03  0.000000e+00
   outer loop
     vertex -5.326108e-01 -7.815088e-02  8.100000e-01
     vertex -5.326108e-01 -7.815088e-02  8.500000e-01
     vertex -5.341821e-01  8.285754e-02  8.500000e-01
   endloop
 endfacet
 facet normal  0.000000e+00  0.000000e+00 -1.000000e+00
   outer loop
     vertex -5.341821e-01  8.285754e-02  8.100000e-01
     vertex -5.326108e-01  7.815088e-02  8.100000e-01
     vertex -5.326108e-01 -7.815088e-02  8.100000e-01
   endloop
 endfacet
 facet normal  0.000000e+00  0.000000e+00 -1.000000e+00
   outer loop
     vertex -5.326108e-01  7.815088e-02  8.100000e-01
     vertex -5.306658e-01 -7.358594e-02  8.100000e-01
     vertex -5.326108e-01 -7.815088e-02  8.100000e-01
   endloop
 endfacet
 facet normal  0.000000e+00  0.000000e+00  1.000000e+00
   outer loop
     vertex -5.341821e-01  8.285754e-02  8.500000e-01
     vertex -5.326108e-01 -7.815088e-02  8.500000e-01
     vertex -5.326108e-01  7.815088e-02  8.500000e-01
   endloop
 endfacet
 facet normal  0.000000e+00  0.000000e+00  1.000000e+00
   outer loop
     vertex -5.326108e-01  7.815088e-02  8.500000e-01
     vertex -5.326108e-01 -7.815088e-02  8.500000e-01
     vertex -5.306658e-01 -7.358594e-02  8.500000e-01
   endloop
 endfacet
endsolid
