solid
 facet normal  6.584637e-01  7.526125e-01  8.964503e-17
   outer loop
     vertex -6.000000e-01  6.000000e-01  8.100000e-01
     vertex -5.257078e-01  5.350015e-01  8.500000e-01
     vertex -5.257078e-01  5.350015e-01  8.100000e-01
   endloop
 endfacet
 facet normal  6.584637e-01  7.526125e-01 -0.000000e+00
   outer loop
     vertex -6.000000e-01  6.000000e-01  8.100000e-01
     vertex -6.000000e-01  6.000000e-01  8.500000e-01
     vertex -5.257078e-01  5.350015e-01  8.500000e-01
   endloop
 endfacet
 facet normal -6.947118e-01 -7.192882e-01 -1.042581e-16
   outer loop
     vertex -5.283598e-01  5.308076e-01  8.100000e-01
     vertex -6.000000e-01  6.000000e-01  8.500000e-01
     vertex -6.000000e-01  6.000000e-01  8.100000e-01
   endloop
 endfacet
 facet normal -6.947118e-01 -7.192882e-01  0.000000e+00
   outer loop
     vertex -5.283598e-01  5.308076e-01  8.100000e-01
     vertex -5.283598e-01  5.308076e-01  8.500000e-01
     vertex -6.000000e-01  6.000000e-01  8.500000e-01
   endloop
 endfacet
 facet normal  8.451892e-01 -5.344673e-01 -9.036243e-19
   outer loop
     vertex -5.257078e-01  5.350015e-01  8.100000e-01
     vertex -5.283598e-01  5.308076e-01  8.500000e-01
     vertex -5.283598e-01  5.308076e-01  8.100000e-01
   endloop
 endfacet
 facet normal  8.451892e-01 -5.344673e-01  0.000000e+00
   outer loop
     vertex -5.257078e-01  5.350015e-01  8.100000e-01
     vertex -5.257078e-01  5.350015e-01  8.500000e-01
     vertex -5.283598e-01  5.308076e-01  8.500000e-01
   endloop
 endfacet
 facet normal -0.000000e+00  0.000000e+00 -1.000000e+00
   outer loop
     vertex -5.257078e-01  5.350015e-01  8.100000e-01
     vertex -5.283598e-01  5.308076e-01  8.100000e-01
     vertex -6.000000e-01  6.000000e-01  8.100000e-01
   endloop
 endfacet
 facet normal  0.000000e+00  0.000000e+00  1.000000e+00
   outer loop
     vertex -5.257078e-01  5.350015e-01  8.500000e-01
     vertex -6.000000e-01  6.000000e-01  8.500000e-01
     vertex -5.283598e-01  5.308076e-01  8.500000e-01
   endloop
 endfacet
endsolid
