solid
 facet normal -9.693557e-01  2.456613e-01  1.417021e-16
   outer loop
     vertex -6.000000e-01 -6.000000e-01  8.100000e-01
     vertex -5.306658e-01 -3.264140e-01  8.500000e-01
     vertex -5.306658e-01 -3.264140e-01  8.100000e-01
   endloop
 endfacet
 facet normal -9.693557e-01  2.456613e-01  0.000000e+00
   outer loop
     vertex -6.000000e-01 -6.000000e-01  8.100000e-01
     vertex -6.000000e-01 -6.000000e-01  8.500000e-01
     vertex -5.306658e-01 -3.264140e-01  8.500000e-01
   endloop
 endfacet
 facet normal  9.663639e-01 -2.571785e-01 -6.612206e-17
   outer loop
     vertex -5.283598e-01 -3.308077e-01  8.100000e-01
     vertex -6.000000e-01 -6.000000e-01  8.500000e-01
     vertex -6.000000e-01 -6.000000e-01  8.100000e-01
   endloop
 endfacet
 facet normal  9.663639e-01 -2.571785e-01  0.000000e+00
   outer loop
     vertex -5.283598e-01 -3.308077e-01  8.100000e-01
     vertex -5.283598e-01 -3.308077e-01  8.500000e-01
     vertex -6.000000e-01 -6.000000e-01  8.500000e-01
   endloop
 endfacet
 facet normal  8.854543e-01  4.647265e-01 -2.611053e-18
   outer loop
     vertex -5.306658e-01 -3.264140e-01  8.100000e-01
     vertex -5.283598e-01 -3.308077e-01  8.500000e-01
     vertex -5.283598e-01 -3.308077e-01  8.100000e-01
   endloop
 endfacet
 facet normal  8.854543e-01  4.647265e-01 -0.000000e+00
   outer loop
     vertex -5.306658e-01 -3.264140e-01  8.100000e-01
     vertex -5.306658e-01 -3.264140e-01  8.500000e-01
     vertex -5.283598e-01 -3.308077e-01  8.500000e-01
   endloop
 endfacet
 facet normal  0.000000e+00 -0.000000e+00 -1.000000e+00
   outer loop
     vertex -5.306658e-01 -3.264140e-01  8.100000e-01
     vertex -5.283598e-01 -3.308077e-01  8.100000e-01
     vertex -6.000000e-01 -6.000000e-01  8.100000e-01
   endloop
 endfacet
 facet normal  0.000000e+00  0.000000e+00  1.000000e+00
   outer loop
     vertex -5.306658e-01 -3.264140e-01  8.500000e-01
     vertex -6.000000e-01 -6.000000e-01  8.500000e-01
     vertex -5.283598e-01 -3.308077e-01  8.500000e-01
   endloop
 endfacet
endsolid
