solid
 facet normal -4.172026e-01  9.088135e-01 -8.031003e-17
   outer loop
     vertex -6.000000e-01 -6.000000e-01  8.100000e-01
     vertex -3.598246e-01 -4.897444e-01  8.500000e-01
     vertex -3.598246e-01 -4.897444e-01  8.100000e-01
   endloop
 endfacet
 facet normal -4.172026e-01  9.088135e-01  0.000000e+00
   outer loop
     vertex -6.000000e-01 -6.000000e-01  8.100000e-01
     vertex -6.000000e-01 -6.000000e-01  8.500000e-01
     vertex -3.598246e-01 -4.897444e-01  8.500000e-01
   endloop
 endfacet
 facet normal  4.002101e-01 -9.164234e-01 -5.767040e-17
   outer loop
     vertex -3.584442e-01 -4.945105e-01  8.100000e-01
     vertex -6.000000e-01 -6.000000e-01  8.500000e-01
     vertex -6.000000e-01 -6.000000e-01  8.100000e-01
   endloop
 endfacet
 facet normal  4.002101e-01 -9.164234e-01  0.000000e+00
   outer loop
     vertex -3.584442e-01 -4.945105e-01  8.100000e-01
     vertex -3.584442e-01 -4.945105e-01  8.500000e-01
     vertex -6.000000e-01 -6.000000e-01  8.500000e-01
   endloop
 endfacet
 facet normal  9.605228e-01  2.782012e-01 -1.959933e-18
   outer loop
     vertex -3.598246e-01 -4.897444e-01  8.100000e-01
     vertex -3.584442e-01 -4.945105e-01  8.500000e-01
     vertex -3.584442e-01 -4.945105e-01  8.100000e-01
   endloop
 endfacet
 facet normal  9.605228e-01  2.782012e-01 -0.000000e+00
   outer loop
     vertex -3.598246e-01 -4.897444e-01  8.100000e-01
     vertex -3.598246e-01 -4.897444e-01  8.500000e-01
     vertex -3.584442e-01 -4.945105e-01  8.500000e-01
   endloop
 endfacet
 facet normal  0.000000e+00 -0.000000e+00 -1.000000e+00
   outer loop
     vertex -3.598246e-01 -4.897444e-01  8.100000e-01
     vertex -3.584442e-01 -4.945105e-01  8.100000e-01
     vertex -6.000000e-01 -6.000000e-01  8.100000e-01
   endloop
 endfacet
 facet normal  0.000000e+00  0.000000e+00  1.000000e+00
   outer loop
     vertex -3.598246e-01 -4.897444e-01  8.500000e-01
     vertex -6.000000e-01 -6.000000e-01  8.500000e-01
     vertex -3.584442e-01 -4.945105e-01  8.500000e-01
   endloop
 endfacet
endsolid
