solid
 facet normal -1.604013e-01  9.870519e-01 -1.071191e-18
   outer loop
     vertex  1.074263e-01 -5.361656e-01  8.100000e-01
     vertex  1.123241e-01 -5.353697e-01  8.500000e-01
     vertex  1.123241e-01 -5.353697e-01  8.100000e-01
   endloop
 endfacet
 facet normal -1.604013e-01  9.870519e-01  0.000000e+00
   outer loop
     vertex  1.074263e-01 -5.361656e-01  8.100000e-01
     vertex  1.074263e-01 -5.361656e-01  8.500000e-01
     vertex  1.123241e-01 -5.353697e-01  8.500000e-01
   endloop
 endfacet
 facet normal  7.215918e-07 -1.000000e+00  6.777898e-24
   outer loop
     vertex  2.925726e-01 -5.361655e-01  8.100000e-01
     vertex  1.074263e-01 -5.361656e-01  8.500000e-01
     vertex  1.074263e-01 -5.361656e-01  8.100000e-01
   endloop
 endfacet
 facet normal  7.215918e-07 -1.000000e+00  0.000000e+00
   outer loop
     vertex  2.925726e-01 -5.361655e-01  8.100000e-01
     vertex  2.925726e-01 -5.361655e-01  8.500000e-01
     vertex  1.074263e-01 -5.361656e-01  8.500000e-01
   endloop
 endfacet
 facet normal  1.604220e-01  9.870485e-01 -1.488798e-18
   outer loop
     vertex  2.876749e-01 -5.353695e-01  8.100000e-01
     vertex  2.925726e-01 -5.361655e-01  8.500000e-01
     vertex  2.925726e-01 -5.361655e-01  8.100000e-01
   endloop
 endfacet
 facet normal  1.604220e-01  9.870485e-01 -0.000000e+00
   outer loop
     vertex  2.876749e-01 -5.353695e-01  8.100000e-01
     vertex  2.876749e-01 -5.353695e-01  8.500000e-01
     vertex  2.925726e-01 -5.361655e-01  8.500000e-01
   endloop
 endfacet
 facet normal -1.305383e-06  1.000000e+00  2.467263e-22
   outer loop
     vertex  1.123241e-01 -5.353697e-01  8.100000e-01
     vertex  2.876749e-01 -5.353695e-01  8.500000e-01
     vertex  2.876749e-01 -5.353695e-01  8.100000e-01
   endloop
 endfacet
 facet normal -1.305383e-06  1.000000e+00  0.000000e+00
   outer loop
     vertex  1.123241e-01 -5.353697e-01  8.100000e-01
     vertex  1.123241e-01 -5.353697e-01  8.500000e-01
     vertex  2.876749e-01 -5.353695e-01  8.500000e-01
   endloop
 endfacet
 facet normal -0.000000e+00  0.000000e+00 -1.000000e+00
   outer loop
     vertex  2.925726e-01 -5.361655e-01  8.100000e-01
     vertex  1.074263e-01 -5.361656e-01  8.100000e-01
     vertex  1.123241e-01 -5.353697e-01  8.100000e-01
   endloop
 endfacet
 facet normal  0.000000e+00  0.000000e+00 -1.000000e+00
   outer loop
     vertex  2.925726e-01 -5.361655e-01  8.100000e-01
     vertex  1.123241e-01 -5.353697e-01  8.100000e-01
     vertex  2.876749e-01 -5.353695e-01  8.100000e-01
   endloop
 endfacet
 facet normal  0.000000e+00  0.000000e+00  1.000000e+00
   outer loop
     vertex  2.925726e-01 -5.361655e-01  8.500000e-01
     vertex  1.123241e-01 -5.353697e-01  8.500000e-01
     vertex  1.074263e-01 -5.361656e-01  8.500000e-01
   endloop
 endfacet
 facet normal  0.000000e+00  0.000000e+00  1.000000e+00
   outer loop
     vertex  2.925726e-01 -5.361655e-01  8.500000e-01
     vertex  2.876749e-01 -5.353695e-01  8.500000e-01
     vertex  1.123241e-01 -5.353697e-01  8.500000e-01
   endloop
 endfacet
endsolid
