solid
 facet normal -9.927078e-01  1.205454e-01 -9.125236e-19
   outer loop
     vertex -3.918311e-02 -4.848838e-01  8.100000e-01
     vertex -3.858496e-02 -4.799580e-01  8.500000e-01
     vertex -3.858496e-02 -4.799580e-01  8.100000e-01
   endloop
 endfacet
 facet normal -9.927078e-01  1.205454e-01  0.000000e+00
   outer loop
     vertex -3.918311e-02 -4.848838e-01  8.100000e-01
     vertex -3.918311e-02 -4.848838e-01  8.500000e-01
     vertex -3.858496e-02 -4.799580e-01  8.500000e-01
   endloop
 endfacet
 facet normal  1.411709e-05 -1.000000e+00 -1.853093e-21
   outer loop
     vertex  3.918292e-02 -4.848827e-01  8.100000e-01
     vertex -3.918311e-02 -4.848838e-01  8.500000e-01
     vertex -3.918311e-02 -4.848838e-01  8.100000e-01
   endloop
 endfacet
 facet normal  1.411709e-05 -1.000000e+00  0.000000e+00
   outer loop
     vertex  3.918292e-02 -4.848827e-01  8.100000e-01
     vertex  3.918292e-02 -4.848827e-01  8.500000e-01
     vertex -3.918311e-02 -4.848838e-01  8.500000e-01
   endloop
 endfacet
 facet normal  9.927108e-01  1.205209e-01 -2.830899e-19
   outer loop
     vertex  3.858490e-02 -4.799568e-01  8.100000e-01
     vertex  3.918292e-02 -4.848827e-01  8.500000e-01
     vertex  3.918292e-02 -4.848827e-01  8.100000e-01
   endloop
 endfacet
 facet normal  9.927108e-01  1.205209e-01 -0.000000e+00
   outer loop
     vertex  3.858490e-02 -4.799568e-01  8.100000e-01
     vertex  3.858490e-02 -4.799568e-01  8.500000e-01
     vertex  3.918292e-02 -4.848827e-01  8.500000e-01
   endloop
 endfacet
 facet normal -1.443439e-05  1.000000e+00  1.027905e-21
   outer loop
     vertex -3.858496e-02 -4.799580e-01  8.100000e-01
     vertex  3.858490e-02 -4.799568e-01  8.500000e-01
     vertex  3.858490e-02 -4.799568e-01  8.100000e-01
   endloop
 endfacet
 facet normal -1.443439e-05  1.000000e+00  0.000000e+00
   outer loop
     vertex -3.858496e-02 -4.799580e-01  8.100000e-01
     vertex -3.858496e-02 -4.799580e-01  8.500000e-01
     vertex  3.858490e-02 -4.799568e-01  8.500000e-01
   endloop
 endfacet
 facet normal -0.000000e+00  0.000000e+00 -1.000000e+00
   outer loop
     vertex  3.918292e-02 -4.848827e-01  8.100000e-01
     vertex -3.918311e-02 -4.848838e-01  8.100000e-01
     vertex -3.858496e-02 -4.799580e-01  8.100000e-01
   endloop
 endfacet
 facet normal  0.000000e+00 -0.000000e+00 -1.000000e+00
   outer loop
     vertex  3.858490e-02 -4.799568e-01  8.100000e-01
     vertex  3.918292e-02 -4.848827e-01  8.100000e-01
     vertex -3.858496e-02 -4.799580e-01  8.100000e-01
   endloop
 endfacet
 facet normal  0.000000e+00  0.000000e+00  1.000000e+00
   outer loop
     vertex  3.918292e-02 -4.848827e-01  8.500000e-01
     vertex -3.858496e-02 -4.799580e-01  8.500000e-01
     vertex -3.918311e-02 -4.848838e-01  8.500000e-01
   endloop
 endfacet
 facet normal  0.000000e+00  0.000000e+00  1.000000e+00
   outer loop
     vertex  3.858490e-02 -4.799568e-01  8.500000e-01
     vertex -3.858496e-02 -4.799580e-01  8.500000e-01
     vertex  3.918292e-02 -4.848827e-01  8.500000e-01
   endloop
 endfacet
endsolid
