solid
 facet normal  1.000000e+00  0.000000e+00  0.000000e+00
   outer loop
     vertex -5.306658e-01  2.735859e-01  8.100000e-01
     vertex -5.306658e-01  1.264141e-01  8.500000e-01
     vertex -5.306658e-01  1.264141e-01  8.100000e-01
   endloop
 endfacet
 facet normal  1.000000e+00  0.000000e+00 -0.000000e+00
   outer loop
     vertex -5.306658e-01  2.735859e-01  8.100000e-01
     vertex -5.306658e-01  2.735859e-01  8.500000e-01
     vertex -5.306658e-01  1.264141e-01  8.500000e-01
   endloop
 endfacet
 facet normal  9.199784e-01  3.919690e-01  2.056103e-18
   outer loop
     vertex -5.326108e-01  2.781509e-01  8.100000e-01
     vertex -5.306658e-01  2.735859e-01  8.500000e-01
     vertex -5.306658e-01  2.735859e-01  8.100000e-01
   endloop
 endfacet
 facet normal  9.199784e-01  3.919690e-01 -0.000000e+00
   outer loop
     vertex -5.326108e-01  2.781509e-01  8.100000e-01
     vertex -5.326108e-01  2.781509e-01  8.500000e-01
     vertex -5.306658e-01  2.735859e-01  8.500000e-01
   endloop
 endfacet
 facet normal -1.000000e+00  0.000000e+00  0.000000e+00
   outer loop
     vertex -5.326108e-01  1.218491e-01  8.100000e-01
     vertex -5.326108e-01  2.781509e-01  8.500000e-01
     vertex -5.326108e-01  2.781509e-01  8.100000e-01
   endloop
 endfacet
 facet normal -1.000000e+00  0.000000e+00  0.000000e+00
   outer loop
     vertex -5.326108e-01  1.218491e-01  8.100000e-01
     vertex -5.326108e-01  1.218491e-01  8.500000e-01
     vertex -5.326108e-01  2.781509e-01  8.500000e-01
   endloop
 endfacet
 facet normal  9.199784e-01 -3.919690e-01 -1.484778e-18
   outer loop
     vertex -5.306658e-01  1.264141e-01  8.100000e-01
     vertex -5.326108e-01  1.218491e-01  8.500000e-01
     vertex -5.326108e-01  1.218491e-01  8.100000e-01
   endloop
 endfacet
 facet normal  9.199784e-01 -3.919690e-01  0.000000e+00
   outer loop
     vertex -5.306658e-01  1.264141e-01  8.100000e-01
     vertex -5.306658e-01  1.264141e-01  8.500000e-01
     vertex -5.326108e-01  1.218491e-01  8.500000e-01
   endloop
 endfacet
 facet normal  0.000000e+00  0.000000e+00 -1.000000e+00
   outer loop
     vertex -5.326108e-01  2.781509e-01  8.100000e-01
     vertex -5.306658e-01  1.264141e-01  8.100000e-01
     vertex -5.326108e-01  1.218491e-01  8.100000e-01
   endloop
 endfacet
 facet normal  0.000000e+00  0.000000e+00 -1.000000e+00
   outer loop
     vertex -5.326108e-01  2.781509e-01  8.100000e-01
     vertex -5.306658e-01  2.735859e-01  8.100000e-01
     vertex -5.306658e-01  1.264141e-01  8.100000e-01
   endloop
 endfacet
 facet normal  0.000000e+00  0.000000e+00  1.000000e+00
   outer loop
     vertex -5.326108e-01  2.781509e-01  8.500000e-01
     vertex -5.326108e-01  1.218491e-01  8.500000e-01
     vertex -5.306658e-01  1.264141e-01  8.500000e-01
   endloop
 endfacet
 facet normal  0.000000e+00  0.000000e+00  1.000000e+00
   outer loop
     vertex -5.326108e-01  2.781509e-01  8.500000e-01
     vertex -5.306658e-01  1.264141e-01  8.500000e-01
     vertex -5.306658e-01  2.735859e-01  8.500000e-01
   endloop
 endfacet
endsolid
