solid
 facet normal -6.007358e-01  7.994476e-01 -2.368403e-18
   outer loop
     vertex -2.649991e-01 -5.257082e-01  8.100000e-01
     vertex -2.610322e-01 -5.227273e-01  8.500000e-01
     vertex -2.610322e-01 -5.227273e-01  8.100000e-01
   endloop
 endfacet
 facet normal -6.007358e-01  7.994476e-01  0.000000e+00
   outer loop
     vertex -2.649991e-01 -5.257082e-01  8.100000e-01
     vertex -2.649991e-01 -5.257082e-01  8.500000e-01
     vertex -2.610322e-01 -5.227273e-01  8.500000e-01
   endloop
 endfacet
 facet normal  4.870872e-06 -1.000000e+00  1.494130e-22
   outer loop
     vertex -1.350018e-01 -5.257076e-01  8.100000e-01
     vertex -2.649991e-01 -5.257082e-01  8.500000e-01
     vertex -2.649991e-01 -5.257082e-01  8.100000e-01
   endloop
 endfacet
 facet normal  4.870872e-06 -1.000000e+00  0.000000e+00
   outer loop
     vertex -1.350018e-01 -5.257076e-01  8.100000e-01
     vertex -1.350018e-01 -5.257076e-01  8.500000e-01
     vertex -2.649991e-01 -5.257082e-01  8.500000e-01
   endloop
 endfacet
 facet normal  6.007515e-01  7.994358e-01  1.151046e-19
   outer loop
     vertex -1.389686e-01 -5.227266e-01  8.100000e-01
     vertex -1.350018e-01 -5.257076e-01  8.500000e-01
     vertex -1.350018e-01 -5.257076e-01  8.100000e-01
   endloop
 endfacet
 facet normal  6.007515e-01  7.994358e-01 -0.000000e+00
   outer loop
     vertex -1.389686e-01 -5.227266e-01  8.100000e-01
     vertex -1.389686e-01 -5.227266e-01  8.500000e-01
     vertex -1.350018e-01 -5.257076e-01  8.500000e-01
   endloop
 endfacet
 facet normal -5.812544e-06  1.000000e+00 -1.097123e-21
   outer loop
     vertex -2.610322e-01 -5.227273e-01  8.100000e-01
     vertex -1.389686e-01 -5.227266e-01  8.500000e-01
     vertex -1.389686e-01 -5.227266e-01  8.100000e-01
   endloop
 endfacet
 facet normal -5.812544e-06  1.000000e+00  0.000000e+00
   outer loop
     vertex -2.610322e-01 -5.227273e-01  8.100000e-01
     vertex -2.610322e-01 -5.227273e-01  8.500000e-01
     vertex -1.389686e-01 -5.227266e-01  8.500000e-01
   endloop
 endfacet
 facet normal -0.000000e+00  0.000000e+00 -1.000000e+00
   outer loop
     vertex -1.350018e-01 -5.257076e-01  8.100000e-01
     vertex -2.649991e-01 -5.257082e-01  8.100000e-01
     vertex -2.610322e-01 -5.227273e-01  8.100000e-01
   endloop
 endfacet
 facet normal  0.000000e+00  0.000000e+00 -1.000000e+00
   outer loop
     vertex -1.350018e-01 -5.257076e-01  8.100000e-01
     vertex -2.610322e-01 -5.227273e-01  8.100000e-01
     vertex -1.389686e-01 -5.227266e-01  8.100000e-01
   endloop
 endfacet
 facet normal  0.000000e+00  0.000000e+00  1.000000e+00
   outer loop
     vertex -1.350018e-01 -5.257076e-01  8.500000e-01
     vertex -2.610322e-01 -5.227273e-01  8.500000e-01
     vertex -2.649991e-01 -5.257082e-01  8.500000e-01
   endloop
 endfacet
 facet normal  0.000000e+00  0.000000e+00  1.000000e+00
   outer loop
     vertex -1.350018e-01 -5.257076e-01  8.500000e-01
     vertex -1.389686e-01 -5.227266e-01  8.500000e-01
     vertex -2.610322e-01 -5.227273e-01  8.500000e-01
   endloop
 endfacet
endsolid
