solid
 facet normal  1.000000e+00  0.000000e+00  0.000000e+00
   outer loop
     vertex -5.194364e-01 -1.426824e-01  8.100000e-01
     vertex -5.194364e-01 -2.573176e-01  8.500000e-01
     vertex -5.194364e-01 -2.573176e-01  8.100000e-01
   endloop
 endfacet
 facet normal  1.000000e+00  0.000000e+00 -0.000000e+00
   outer loop
     vertex -5.194364e-01 -1.426824e-01  8.100000e-01
     vertex -5.194364e-01 -1.426824e-01  8.500000e-01
     vertex -5.194364e-01 -2.573176e-01  8.500000e-01
   endloop
 endfacet
 facet normal  7.485052e-01  6.631289e-01  1.428116e-18
   outer loop
     vertex -5.227269e-01 -1.389683e-01  8.100000e-01
     vertex -5.194364e-01 -1.426824e-01  8.500000e-01
     vertex -5.194364e-01 -1.426824e-01  8.100000e-01
   endloop
 endfacet
 facet normal  7.485052e-01  6.631289e-01 -0.000000e+00
   outer loop
     vertex -5.227269e-01 -1.389683e-01  8.100000e-01
     vertex -5.227269e-01 -1.389683e-01  8.500000e-01
     vertex -5.194364e-01 -1.426824e-01  8.500000e-01
   endloop
 endfacet
 facet normal -1.000000e+00  0.000000e+00  0.000000e+00
   outer loop
     vertex -5.227269e-01 -2.610317e-01  8.100000e-01
     vertex -5.227269e-01 -1.389683e-01  8.500000e-01
     vertex -5.227269e-01 -1.389683e-01  8.100000e-01
   endloop
 endfacet
 facet normal -1.000000e+00  0.000000e+00  0.000000e+00
   outer loop
     vertex -5.227269e-01 -2.610317e-01  8.100000e-01
     vertex -5.227269e-01 -2.610317e-01  8.500000e-01
     vertex -5.227269e-01 -1.389683e-01  8.500000e-01
   endloop
 endfacet
 facet normal  7.485052e-01 -6.631289e-01 -1.428116e-18
   outer loop
     vertex -5.194364e-01 -2.573176e-01  8.100000e-01
     vertex -5.227269e-01 -2.610317e-01  8.500000e-01
     vertex -5.227269e-01 -2.610317e-01  8.100000e-01
   endloop
 endfacet
 facet normal  7.485052e-01 -6.631289e-01  0.000000e+00
   outer loop
     vertex -5.194364e-01 -2.573176e-01  8.100000e-01
     vertex -5.194364e-01 -2.573176e-01  8.500000e-01
     vertex -5.227269e-01 -2.610317e-01  8.500000e-01
   endloop
 endfacet
 facet normal  0.000000e+00  0.000000e+00 -1.000000e+00
   outer loop
     vertex -5.227269e-01 -1.389683e-01  8.100000e-01
     vertex -5.194364e-01 -2.573176e-01  8.100000e-01
     vertex -5.227269e-01 -2.610317e-01  8.100000e-01
   endloop
 endfacet
 facet normal  0.000000e+00  0.000000e+00 -1.000000e+00
   outer loop
     vertex -5.227269e-01 -1.389683e-01  8.100000e-01
     vertex -5.194364e-01 -1.426824e-01  8.100000e-01
     vertex -5.194364e-01 -2.573176e-01  8.100000e-01
   endloop
 endfacet
 facet normal  0.000000e+00  0.000000e+00  1.000000e+00
   outer loop
     vertex -5.227269e-01 -1.389683e-01  8.500000e-01
     vertex -5.227269e-01 -2.610317e-01  8.500000e-01
     vertex -5.194364e-01 -2.573176e-01  8.500000e-01
   endloop
 endfacet
 facet normal  0.000000e+00  0.000000e+00  1.000000e+00
   outer loop
     vertex -5.227269e-01 -1.389683e-01  8.500000e-01
     vertex -5.194364e-01 -2.573176e-01  8.500000e-01
     vertex -5.194364e-01 -1.426824e-01  8.500000e-01
   endloop
 endfacet
endsolid
