solid
 facet normal -6.631198e-01  7.485133e-01  1.642495e-18
   outer loop
     vertex  5.389678e-01 -5.227273e-01  8.100000e-01
     vertex  5.426819e-01 -5.194370e-01  8.500000e-01
     vertex  5.426819e-01 -5.194370e-01  8.100000e-01
   endloop
 endfacet
 facet normal -6.631198e-01  7.485133e-01  0.000000e+00
   outer loop
     vertex  5.389678e-01 -5.227273e-01  8.100000e-01
     vertex  5.389678e-01 -5.227273e-01  8.500000e-01
     vertex  5.426819e-01 -5.194370e-01  8.500000e-01
   endloop
 endfacet
 facet normal -7.847469e-01 -6.198163e-01  1.837963e-17
   outer loop
     vertex  6.000000e-01 -6.000000e-01  8.100000e-01
     vertex  5.389678e-01 -5.227273e-01  8.500000e-01
     vertex  5.389678e-01 -5.227273e-01  8.100000e-01
   endloop
 endfacet
 facet normal -7.847469e-01 -6.198163e-01  0.000000e+00
   outer loop
     vertex  6.000000e-01 -6.000000e-01  8.100000e-01
     vertex  6.000000e-01 -6.000000e-01  8.500000e-01
     vertex  5.389678e-01 -5.227273e-01  8.500000e-01
   endloop
 endfacet
 facet normal  8.148176e-01  5.797175e-01 -1.788298e-17
   outer loop
     vertex  5.426819e-01 -5.194370e-01  8.100000e-01
     vertex  6.000000e-01 -6.000000e-01  8.500000e-01
     vertex  6.000000e-01 -6.000000e-01  8.100000e-01
   endloop
 endfacet
 facet normal  8.148176e-01  5.797175e-01 -0.000000e+00
   outer loop
     vertex  5.426819e-01 -5.194370e-01  8.100000e-01
     vertex  5.426819e-01 -5.194370e-01  8.500000e-01
     vertex  6.000000e-01 -6.000000e-01  8.500000e-01
   endloop
 endfacet
 facet normal  0.000000e+00 -0.000000e+00 -1.000000e+00
   outer loop
     vertex  5.426819e-01 -5.194370e-01  8.100000e-01
     vertex  6.000000e-01 -6.000000e-01  8.100000e-01
     vertex  5.389678e-01 -5.227273e-01  8.100000e-01
   endloop
 endfacet
 facet normal  0.000000e+00  0.000000e+00  1.000000e+00
   outer loop
     vertex  5.426819e-01 -5.194370e-01  8.500000e-01
     vertex  5.389678e-01 -5.227273e-01  8.500000e-01
     vertex  6.000000e-01 -6.000000e-01  8.500000e-01
   endloop
 endfacet
endsolid
