solid
 facet normal -8.596800e-01 -5.108329e-01  6.918654e-17
   outer loop
     vertex -5.361656e-01  4.925731e-01  8.100000e-01
     vertex -6.000000e-01  6.000000e-01  8.500000e-01
     vertex -6.000000e-01  6.000000e-01  8.100000e-01
   endloop
 endfacet
 facet normal -8.596800e-01 -5.108329e-01  0.000000e+00
   outer loop
     vertex -5.361656e-01  4.925731e-01  8.100000e-01
     vertex -5.361656e-01  4.925731e-01  8.500000e-01
     vertex -6.000000e-01  6.000000e-01  8.500000e-01
   endloop
 endfacet
 facet normal  9.967572e-01  8.046743e-02 -7.561562e-19
   outer loop
     vertex -5.365648e-01  4.975190e-01  8.100000e-01
     vertex -5.361656e-01  4.925731e-01  8.500000e-01
     vertex -5.361656e-01  4.925731e-01  8.100000e-01
   endloop
 endfacet
 facet normal  9.967572e-01  8.046743e-02 -0.000000e+00
   outer loop
     vertex -5.365648e-01  4.975190e-01  8.100000e-01
     vertex -5.365648e-01  4.975190e-01  8.500000e-01
     vertex -5.361656e-01  4.925731e-01  8.500000e-01
   endloop
 endfacet
 facet normal  8.502853e-01  5.263220e-01  4.669237e-17
   outer loop
     vertex -6.000000e-01  6.000000e-01  8.100000e-01
     vertex -5.365648e-01  4.975190e-01  8.500000e-01
     vertex -5.365648e-01  4.975190e-01  8.100000e-01
   endloop
 endfacet
 facet normal  8.502853e-01  5.263220e-01 -0.000000e+00
   outer loop
     vertex -6.000000e-01  6.000000e-01  8.100000e-01
     vertex -6.000000e-01  6.000000e-01  8.500000e-01
     vertex -5.365648e-01  4.975190e-01  8.500000e-01
   endloop
 endfacet
 facet normal  0.000000e+00  0.000000e+00 -1.000000e+00
   outer loop
     vertex -6.000000e-01  6.000000e-01  8.100000e-01
     vertex -5.365648e-01  4.975190e-01  8.100000e-01
     vertex -5.361656e-01  4.925731e-01  8.100000e-01
   endloop
 endfacet
 facet normal  0.000000e+00  0.000000e+00  1.000000e+00
   outer loop
     vertex -6.000000e-01  6.000000e-01  8.500000e-01
     vertex -5.361656e-01  4.925731e-01  8.500000e-01
     vertex -5.365648e-01  4.975190e-01  8.500000e-01
   endloop
 endfacet
endsolid
