solid
 facet normal -9.756798e-01  2.192005e-01  2.462908e-17
   outer loop
     vertex -6.000000e-01 -6.000000e-01  8.100000e-01
     vertex -5.353696e-01 -3.123246e-01  8.500000e-01
     vertex -5.353696e-01 -3.123246e-01  8.100000e-01
   endloop
 endfacet
 facet normal -9.756798e-01  2.192005e-01  0.000000e+00
   outer loop
     vertex -6.000000e-01 -6.000000e-01  8.100000e-01
     vertex -6.000000e-01 -6.000000e-01  8.500000e-01
     vertex -5.353696e-01 -3.123246e-01  8.500000e-01
   endloop
 endfacet
 facet normal  9.739798e-01 -2.266346e-01 -1.072566e-16
   outer loop
     vertex -5.341821e-01 -3.171425e-01  8.100000e-01
     vertex -6.000000e-01 -6.000000e-01  8.500000e-01
     vertex -6.000000e-01 -6.000000e-01  8.100000e-01
   endloop
 endfacet
 facet normal  9.739798e-01 -2.266346e-01  0.000000e+00
   outer loop
     vertex -5.341821e-01 -3.171425e-01  8.100000e-01
     vertex -5.341821e-01 -3.171425e-01  8.500000e-01
     vertex -6.000000e-01 -6.000000e-01  8.500000e-01
   endloop
 endfacet
 facet normal  9.709414e-01  2.393174e-01  1.899717e-18
   outer loop
     vertex -5.353696e-01 -3.123246e-01  8.100000e-01
     vertex -5.341821e-01 -3.171425e-01  8.500000e-01
     vertex -5.341821e-01 -3.171425e-01  8.100000e-01
   endloop
 endfacet
 facet normal  9.709414e-01  2.393174e-01 -0.000000e+00
   outer loop
     vertex -5.353696e-01 -3.123246e-01  8.100000e-01
     vertex -5.353696e-01 -3.123246e-01  8.500000e-01
     vertex -5.341821e-01 -3.171425e-01  8.500000e-01
   endloop
 endfacet
 facet normal  0.000000e+00 -0.000000e+00 -1.000000e+00
   outer loop
     vertex -5.353696e-01 -3.123246e-01  8.100000e-01
     vertex -5.341821e-01 -3.171425e-01  8.100000e-01
     vertex -6.000000e-01 -6.000000e-01  8.100000e-01
   endloop
 endfacet
 facet normal  0.000000e+00  0.000000e+00  1.000000e+00
   outer loop
     vertex -5.353696e-01 -3.123246e-01  8.500000e-01
     vertex -6.000000e-01 -6.000000e-01  8.500000e-01
     vertex -5.341821e-01 -3.171425e-01  8.500000e-01
   endloop
 endfacet
endsolid
