solid
 facet normal -9.466633e-01  3.222245e-01 -2.294763e-17
   outer loop
     vertex  5.608169e-01 -4.651160e-01  8.100000e-01
     vertex  6.000000e-01 -3.500000e-01  8.500000e-01
     vertex  6.000000e-01 -3.500000e-01  8.100000e-01
   endloop
 endfacet
 facet normal -9.466633e-01  3.222245e-01  0.000000e+00
   outer loop
     vertex  5.608169e-01 -4.651160e-01  8.100000e-01
     vertex  5.608169e-01 -4.651160e-01  8.500000e-01
     vertex  6.000000e-01 -3.500000e-01  8.500000e-01
   endloop
 endfacet
 facet normal -9.927081e-01 -1.205430e-01  4.262456e-19
   outer loop
     vertex  5.614150e-01 -4.700419e-01  8.100000e-01
     vertex  5.608169e-01 -4.651160e-01  8.500000e-01
     vertex  5.608169e-01 -4.651160e-01  8.100000e-01
   endloop
 endfacet
 facet normal -9.927081e-01 -1.205430e-01  0.000000e+00
   outer loop
     vertex  5.614150e-01 -4.700419e-01  8.100000e-01
     vertex  5.614150e-01 -4.700419e-01  8.500000e-01
     vertex  5.608169e-01 -4.651160e-01  8.500000e-01
   endloop
 endfacet
 facet normal  9.520284e-01 -3.060095e-01  8.426737e-17
   outer loop
     vertex  6.000000e-01 -3.500000e-01  8.100000e-01
     vertex  5.614150e-01 -4.700419e-01  8.500000e-01
     vertex  5.614150e-01 -4.700419e-01  8.100000e-01
   endloop
 endfacet
 facet normal  9.520284e-01 -3.060095e-01  0.000000e+00
   outer loop
     vertex  6.000000e-01 -3.500000e-01  8.100000e-01
     vertex  6.000000e-01 -3.500000e-01  8.500000e-01
     vertex  5.614150e-01 -4.700419e-01  8.500000e-01
   endloop
 endfacet
 facet normal  0.000000e+00  0.000000e+00 -1.000000e+00
   outer loop
     vertex  5.614150e-01 -4.700419e-01  8.100000e-01
     vertex  5.608169e-01 -4.651160e-01  8.100000e-01
     vertex  6.000000e-01 -3.500000e-01  8.100000e-01
   endloop
 endfacet
 facet normal  0.000000e+00 -0.000000e+00  1.000000e+00
   outer loop
     vertex  5.614150e-01 -4.700419e-01  8.500000e-01
     vertex  6.000000e-01 -3.500000e-01  8.500000e-01
     vertex  5.608169e-01 -4.651160e-01  8.500000e-01
   endloop
 endfacet
endsolid
