solid
 facet normal -9.913821e-01  1.310018e-01 -5.769256e-18
   outer loop
     vertex  4.538816e-01 -4.341408e-01  8.100000e-01
     vertex  4.650000e-01 -3.500000e-01  8.500000e-01
     vertex  4.650000e-01 -3.500000e-01  8.100000e-01
   endloop
 endfacet
 facet normal -9.913821e-01  1.310018e-01  0.000000e+00
   outer loop
     vertex  4.538816e-01 -4.341408e-01  8.100000e-01
     vertex  4.538816e-01 -4.341408e-01  8.500000e-01
     vertex  4.650000e-01 -3.500000e-01  8.500000e-01
   endloop
 endfacet
 facet normal  7.211862e-01 -6.927412e-01  1.410628e-18
   outer loop
     vertex  4.573190e-01 -4.305623e-01  8.100000e-01
     vertex  4.538816e-01 -4.341408e-01  8.500000e-01
     vertex  4.538816e-01 -4.341408e-01  8.100000e-01
   endloop
 endfacet
 facet normal  7.211862e-01 -6.927412e-01  0.000000e+00
   outer loop
     vertex  4.573190e-01 -4.305623e-01  8.100000e-01
     vertex  4.573190e-01 -4.305623e-01  8.500000e-01
     vertex  4.538816e-01 -4.341408e-01  8.500000e-01
   endloop
 endfacet
 facet normal  9.954856e-01 -9.491236e-02  6.816027e-18
   outer loop
     vertex  4.650000e-01 -3.500000e-01  8.100000e-01
     vertex  4.573190e-01 -4.305623e-01  8.500000e-01
     vertex  4.573190e-01 -4.305623e-01  8.100000e-01
   endloop
 endfacet
 facet normal  9.954856e-01 -9.491236e-02  0.000000e+00
   outer loop
     vertex  4.650000e-01 -3.500000e-01  8.100000e-01
     vertex  4.650000e-01 -3.500000e-01  8.500000e-01
     vertex  4.573190e-01 -4.305623e-01  8.500000e-01
   endloop
 endfacet
 facet normal  0.000000e+00  0.000000e+00 -1.000000e+00
   outer loop
     vertex  4.650000e-01 -3.500000e-01  8.100000e-01
     vertex  4.573190e-01 -4.305623e-01  8.100000e-01
     vertex  4.538816e-01 -4.341408e-01  8.100000e-01
   endloop
 endfacet
 facet normal  0.000000e+00  0.000000e+00  1.000000e+00
   outer loop
     vertex  4.650000e-01 -3.500000e-01  8.500000e-01
     vertex  4.538816e-01 -4.341408e-01  8.500000e-01
     vertex  4.573190e-01 -4.305623e-01  8.500000e-01
   endloop
 endfacet
endsolid
