solid
 facet normal  2.393246e-01  9.709396e-01  1.037396e-18
   outer loop
     vertex  8.285706e-02 -5.341820e-01  8.100000e-01
     vertex  8.767487e-02 -5.353695e-01  8.500000e-01
     vertex  8.767487e-02 -5.353695e-01  8.100000e-01
   endloop
 endfacet
 facet normal  2.393246e-01  9.709396e-01 -0.000000e+00
   outer loop
     vertex  8.285706e-02 -5.341820e-01  8.100000e-01
     vertex  8.285706e-02 -5.341820e-01  8.500000e-01
     vertex  8.767487e-02 -5.353695e-01  8.500000e-01
   endloop
 endfacet
 facet normal -1.887576e-06  1.000000e+00  2.900512e-22
   outer loop
     vertex -8.285809e-02 -5.341823e-01  8.100000e-01
     vertex  8.285706e-02 -5.341820e-01  8.500000e-01
     vertex  8.285706e-02 -5.341820e-01  8.100000e-01
   endloop
 endfacet
 facet normal -1.887576e-06  1.000000e+00  0.000000e+00
   outer loop
     vertex -8.285809e-02 -5.341823e-01  8.100000e-01
     vertex -8.285809e-02 -5.341823e-01  8.500000e-01
     vertex  8.285706e-02 -5.341820e-01  8.500000e-01
   endloop
 endfacet
 facet normal -2.393087e-01  9.709435e-01  1.991723e-18
   outer loop
     vertex -8.767590e-02 -5.353697e-01  8.100000e-01
     vertex -8.285809e-02 -5.341823e-01  8.500000e-01
     vertex -8.285809e-02 -5.341823e-01  8.100000e-01
   endloop
 endfacet
 facet normal -2.393087e-01  9.709435e-01  0.000000e+00
   outer loop
     vertex -8.767590e-02 -5.353697e-01  8.100000e-01
     vertex -8.767590e-02 -5.353697e-01  8.500000e-01
     vertex -8.285809e-02 -5.341823e-01  8.500000e-01
   endloop
 endfacet
 facet normal  1.305383e-06 -1.000000e+00  2.467263e-22
   outer loop
     vertex  8.767487e-02 -5.353695e-01  8.100000e-01
     vertex -8.767590e-02 -5.353697e-01  8.500000e-01
     vertex -8.767590e-02 -5.353697e-01  8.100000e-01
   endloop
 endfacet
 facet normal  1.305383e-06 -1.000000e+00  0.000000e+00
   outer loop
     vertex  8.767487e-02 -5.353695e-01  8.100000e-01
     vertex  8.767487e-02 -5.353695e-01  8.500000e-01
     vertex -8.767590e-02 -5.353697e-01  8.500000e-01
   endloop
 endfacet
 facet normal  0.000000e+00  0.000000e+00 -1.000000e+00
   outer loop
     vertex  8.767487e-02 -5.353695e-01  8.100000e-01
     vertex -8.285809e-02 -5.341823e-01  8.100000e-01
     vertex  8.285706e-02 -5.341820e-01  8.100000e-01
   endloop
 endfacet
 facet normal -0.000000e+00  0.000000e+00 -1.000000e+00
   outer loop
     vertex  8.767487e-02 -5.353695e-01  8.100000e-01
     vertex -8.767590e-02 -5.353697e-01  8.100000e-01
     vertex -8.285809e-02 -5.341823e-01  8.100000e-01
   endloop
 endfacet
 facet normal  0.000000e+00  0.000000e+00  1.000000e+00
   outer loop
     vertex  8.767487e-02 -5.353695e-01  8.500000e-01
     vertex  8.285706e-02 -5.341820e-01  8.500000e-01
     vertex -8.285809e-02 -5.341823e-01  8.500000e-01
   endloop
 endfacet
 facet normal  0.000000e+00  0.000000e+00  1.000000e+00
   outer loop
     vertex  8.767487e-02 -5.353695e-01  8.500000e-01
     vertex -8.285809e-02 -5.341823e-01  8.500000e-01
     vertex -8.767590e-02 -5.353697e-01  8.500000e-01
   endloop
 endfacet
endsolid
