solid
 facet normal -1.000000e+00  0.000000e+00  0.000000e+00
   outer loop
     vertex -4.945108e-01  3.584442e-01  8.100000e-01
     vertex -4.945108e-01  4.415559e-01  8.500000e-01
     vertex -4.945108e-01  4.415559e-01  8.100000e-01
   endloop
 endfacet
 facet normal -1.000000e+00  0.000000e+00  0.000000e+00
   outer loop
     vertex -4.945108e-01  3.584442e-01  8.100000e-01
     vertex -4.945108e-01  3.584442e-01  8.500000e-01
     vertex -4.945108e-01  4.415559e-01  8.500000e-01
   endloop
 endfacet
 facet normal  2.782009e-01 -9.605229e-01 -1.597415e-18
   outer loop
     vertex -4.897446e-01  3.598246e-01  8.100000e-01
     vertex -4.945108e-01  3.584442e-01  8.500000e-01
     vertex -4.945108e-01  3.584442e-01  8.100000e-01
   endloop
 endfacet
 facet normal  2.782009e-01 -9.605229e-01  0.000000e+00
   outer loop
     vertex -4.897446e-01  3.598246e-01  8.100000e-01
     vertex -4.897446e-01  3.598246e-01  8.500000e-01
     vertex -4.945108e-01  3.584442e-01  8.500000e-01
   endloop
 endfacet
 facet normal  1.000000e+00  0.000000e+00  0.000000e+00
   outer loop
     vertex -4.897446e-01  4.401754e-01  8.100000e-01
     vertex -4.897446e-01  3.598246e-01  8.500000e-01
     vertex -4.897446e-01  3.598246e-01  8.100000e-01
   endloop
 endfacet
 facet normal  1.000000e+00  0.000000e+00 -0.000000e+00
   outer loop
     vertex -4.897446e-01  4.401754e-01  8.100000e-01
     vertex -4.897446e-01  4.401754e-01  8.500000e-01
     vertex -4.897446e-01  3.598246e-01  8.500000e-01
   endloop
 endfacet
 facet normal  2.782122e-01  9.605196e-01 -3.790903e-19
   outer loop
     vertex -4.945108e-01  4.415559e-01  8.100000e-01
     vertex -4.897446e-01  4.401754e-01  8.500000e-01
     vertex -4.897446e-01  4.401754e-01  8.100000e-01
   endloop
 endfacet
 facet normal  2.782122e-01  9.605196e-01 -0.000000e+00
   outer loop
     vertex -4.945108e-01  4.415559e-01  8.100000e-01
     vertex -4.945108e-01  4.415559e-01  8.500000e-01
     vertex -4.897446e-01  4.401754e-01  8.500000e-01
   endloop
 endfacet
 facet normal -0.000000e+00  0.000000e+00 -1.000000e+00
   outer loop
     vertex -4.897446e-01  4.401754e-01  8.100000e-01
     vertex -4.945108e-01  3.584442e-01  8.100000e-01
     vertex -4.945108e-01  4.415559e-01  8.100000e-01
   endloop
 endfacet
 facet normal  0.000000e+00 -0.000000e+00 -1.000000e+00
   outer loop
     vertex -4.897446e-01  4.401754e-01  8.100000e-01
     vertex -4.897446e-01  3.598246e-01  8.100000e-01
     vertex -4.945108e-01  3.584442e-01  8.100000e-01
   endloop
 endfacet
 facet normal  0.000000e+00  0.000000e+00  1.000000e+00
   outer loop
     vertex -4.897446e-01  4.401754e-01  8.500000e-01
     vertex -4.945108e-01  4.415559e-01  8.500000e-01
     vertex -4.945108e-01  3.584442e-01  8.500000e-01
   endloop
 endfacet
 facet normal  0.000000e+00  0.000000e+00  1.000000e+00
   outer loop
     vertex -4.897446e-01  4.401754e-01  8.500000e-01
     vertex -4.945108e-01  3.584442e-01  8.500000e-01
     vertex -4.897446e-01  3.598246e-01  8.500000e-01
   endloop
 endfacet
endsolid
