solid
 facet normal -2.000407e-01  9.797876e-01 -9.530242e-20
   outer loop
     vertex -4.651153e-01 -3.608168e-01  8.100000e-01
     vertex -4.602536e-01 -3.598242e-01  8.500000e-01
     vertex -4.602536e-01 -3.598242e-01  8.100000e-01
   endloop
 endfacet
 facet normal -2.000407e-01  9.797876e-01  0.000000e+00
   outer loop
     vertex -4.651153e-01 -3.608168e-01  8.100000e-01
     vertex -4.651153e-01 -3.608168e-01  8.500000e-01
     vertex -4.602536e-01 -3.598242e-01  8.500000e-01
   endloop
 endfacet
 facet normal -7.071061e-01 -7.071075e-01 -1.365882e-16
   outer loop
     vertex -3.608167e-01 -4.651151e-01  8.100000e-01
     vertex -4.651153e-01 -3.608168e-01  8.500000e-01
     vertex -4.651153e-01 -3.608168e-01  8.100000e-01
   endloop
 endfacet
 facet normal -7.071061e-01 -7.071075e-01  0.000000e+00
   outer loop
     vertex -3.608167e-01 -4.651151e-01  8.100000e-01
     vertex -3.608167e-01 -4.651151e-01  8.500000e-01
     vertex -4.651153e-01 -3.608168e-01  8.500000e-01
   endloop
 endfacet
 facet normal  9.797870e-01 -2.000436e-01 -1.934028e-18
   outer loop
     vertex -3.598241e-01 -4.602534e-01  8.100000e-01
     vertex -3.608167e-01 -4.651151e-01  8.500000e-01
     vertex -3.608167e-01 -4.651151e-01  8.100000e-01
   endloop
 endfacet
 facet normal  9.797870e-01 -2.000436e-01  0.000000e+00
   outer loop
     vertex -3.598241e-01 -4.602534e-01  8.100000e-01
     vertex -3.598241e-01 -4.602534e-01  8.500000e-01
     vertex -3.608167e-01 -4.651151e-01  8.500000e-01
   endloop
 endfacet
 facet normal  7.071060e-01  7.071075e-01  8.050624e-17
   outer loop
     vertex -4.602536e-01 -3.598242e-01  8.100000e-01
     vertex -3.598241e-01 -4.602534e-01  8.500000e-01
     vertex -3.598241e-01 -4.602534e-01  8.100000e-01
   endloop
 endfacet
 facet normal  7.071060e-01  7.071075e-01 -0.000000e+00
   outer loop
     vertex -4.602536e-01 -3.598242e-01  8.100000e-01
     vertex -4.602536e-01 -3.598242e-01  8.500000e-01
     vertex -3.598241e-01 -4.602534e-01  8.500000e-01
   endloop
 endfacet
 facet normal  0.000000e+00 -0.000000e+00 -1.000000e+00
   outer loop
     vertex -4.602536e-01 -3.598242e-01  8.100000e-01
     vertex -3.608167e-01 -4.651151e-01  8.100000e-01
     vertex -4.651153e-01 -3.608168e-01  8.100000e-01
   endloop
 endfacet
 facet normal -0.000000e+00  0.000000e+00 -1.000000e+00
   outer loop
     vertex -3.598241e-01 -4.602534e-01  8.100000e-01
     vertex -3.608167e-01 -4.651151e-01  8.100000e-01
     vertex -4.602536e-01 -3.598242e-01  8.100000e-01
   endloop
 endfacet
 facet normal  0.000000e+00  0.000000e+00  1.000000e+00
   outer loop
     vertex -4.602536e-01 -3.598242e-01  8.500000e-01
     vertex -4.651153e-01 -3.608168e-01  8.500000e-01
     vertex -3.608167e-01 -4.651151e-01  8.500000e-01
   endloop
 endfacet
 facet normal  0.000000e+00  0.000000e+00  1.000000e+00
   outer loop
     vertex -3.598241e-01 -4.602534e-01  8.500000e-01
     vertex -4.602536e-01 -3.598242e-01  8.500000e-01
     vertex -3.608167e-01 -4.651151e-01  8.500000e-01
   endloop
 endfacet
endsolid
