solid
 facet normal -3.654658e-01  9.308248e-01  1.245230e-16
   outer loop
     vertex -6.000000e-01 -6.000000e-01  8.100000e-01
     vertex -3.545576e-01 -5.036330e-01  8.500000e-01
     vertex -3.545576e-01 -5.036330e-01  8.100000e-01
   endloop
 endfacet
 facet normal -3.654658e-01  9.308248e-01  0.000000e+00
   outer loop
     vertex -6.000000e-01 -6.000000e-01  8.100000e-01
     vertex -6.000000e-01 -6.000000e-01  8.500000e-01
     vertex -3.545576e-01 -5.036330e-01  8.500000e-01
   endloop
 endfacet
 facet normal  3.481333e-01 -9.374450e-01 -3.524840e-17
   outer loop
     vertex -3.520767e-01 -5.079302e-01  8.100000e-01
     vertex -6.000000e-01 -6.000000e-01  8.500000e-01
     vertex -6.000000e-01 -6.000000e-01  8.100000e-01
   endloop
 endfacet
 facet normal  3.481333e-01 -9.374450e-01  0.000000e+00
   outer loop
     vertex -3.520767e-01 -5.079302e-01  8.100000e-01
     vertex -3.520767e-01 -5.079302e-01  8.500000e-01
     vertex -6.000000e-01 -6.000000e-01  8.500000e-01
   endloop
 endfacet
 facet normal  8.660330e-01  4.999869e-01  1.632354e-18
   outer loop
     vertex -3.545576e-01 -5.036330e-01  8.100000e-01
     vertex -3.520767e-01 -5.079302e-01  8.500000e-01
     vertex -3.520767e-01 -5.079302e-01  8.100000e-01
   endloop
 endfacet
 facet normal  8.660330e-01  4.999869e-01 -0.000000e+00
   outer loop
     vertex -3.545576e-01 -5.036330e-01  8.100000e-01
     vertex -3.545576e-01 -5.036330e-01  8.500000e-01
     vertex -3.520767e-01 -5.079302e-01  8.500000e-01
   endloop
 endfacet
 facet normal  0.000000e+00 -0.000000e+00 -1.000000e+00
   outer loop
     vertex -3.545576e-01 -5.036330e-01  8.100000e-01
     vertex -3.520767e-01 -5.079302e-01  8.100000e-01
     vertex -6.000000e-01 -6.000000e-01  8.100000e-01
   endloop
 endfacet
 facet normal  0.000000e+00  0.000000e+00  1.000000e+00
   outer loop
     vertex -3.545576e-01 -5.036330e-01  8.500000e-01
     vertex -6.000000e-01 -6.000000e-01  8.500000e-01
     vertex -3.520767e-01 -5.079302e-01  8.500000e-01
   endloop
 endfacet
endsolid
