solid
 facet normal  2.131674e-01  9.770157e-01  8.406960e-17
   outer loop
     vertex  3.074263e-01 -5.361656e-01  8.100000e-01
     vertex  6.000000e-01 -6.000000e-01  8.500000e-01
     vertex  6.000000e-01 -6.000000e-01  8.100000e-01
   endloop
 endfacet
 facet normal  2.131674e-01  9.770157e-01 -0.000000e+00
   outer loop
     vertex  3.074263e-01 -5.361656e-01  8.100000e-01
     vertex  3.074263e-01 -5.361656e-01  8.500000e-01
     vertex  6.000000e-01 -6.000000e-01  8.500000e-01
   endloop
 endfacet
 facet normal -8.045826e-02  9.967580e-01 -1.263622e-19
   outer loop
     vertex  3.024804e-01 -5.365649e-01  8.100000e-01
     vertex  3.074263e-01 -5.361656e-01  8.500000e-01
     vertex  3.074263e-01 -5.361656e-01  8.100000e-01
   endloop
 endfacet
 facet normal -8.045826e-02  9.967580e-01  0.000000e+00
   outer loop
     vertex  3.024804e-01 -5.365649e-01  8.100000e-01
     vertex  3.024804e-01 -5.365649e-01  8.500000e-01
     vertex  3.074263e-01 -5.361656e-01  8.500000e-01
   endloop
 endfacet
 facet normal -2.085262e-01 -9.780168e-01  1.026220e-16
   outer loop
     vertex  6.000000e-01 -6.000000e-01  8.100000e-01
     vertex  3.024804e-01 -5.365649e-01  8.500000e-01
     vertex  3.024804e-01 -5.365649e-01  8.100000e-01
   endloop
 endfacet
 facet normal -2.085262e-01 -9.780168e-01  0.000000e+00
   outer loop
     vertex  6.000000e-01 -6.000000e-01  8.100000e-01
     vertex  6.000000e-01 -6.000000e-01  8.500000e-01
     vertex  3.024804e-01 -5.365649e-01  8.500000e-01
   endloop
 endfacet
 facet normal  0.000000e+00  0.000000e+00 -1.000000e+00
   outer loop
     vertex  6.000000e-01 -6.000000e-01  8.100000e-01
     vertex  3.024804e-01 -5.365649e-01  8.100000e-01
     vertex  3.074263e-01 -5.361656e-01  8.100000e-01
   endloop
 endfacet
 facet normal  0.000000e+00  0.000000e+00  1.000000e+00
   outer loop
     vertex  6.000000e-01 -6.000000e-01  8.500000e-01
     vertex  3.074263e-01 -5.361656e-01  8.500000e-01
     vertex  3.024804e-01 -5.365649e-01  8.500000e-01
   endloop
 endfacet
endsolid
