solid
 facet normal -4.029649e-02  9.991878e-01  2.485743e-19
   outer loop
     vertex -4.749991e-01  4.383851e-01  8.100000e-01
     vertex -4.700411e-01  4.385851e-01  8.500000e-01
     vertex -4.700411e-01  4.385851e-01  8.100000e-01
   endloop
 endfacet
 facet normal -4.029649e-02  9.991878e-01  0.000000e+00
   outer loop
     vertex -4.749991e-01  4.383851e-01  8.100000e-01
     vertex -4.749991e-01  4.383851e-01  8.500000e-01
     vertex -4.700411e-01  4.385851e-01  8.500000e-01
   endloop
 endfacet
 facet normal -1.000000e+00  0.000000e+00  0.000000e+00
   outer loop
     vertex -4.749991e-01  3.616148e-01  8.100000e-01
     vertex -4.749991e-01  4.383851e-01  8.500000e-01
     vertex -4.749991e-01  4.383851e-01  8.100000e-01
   endloop
 endfacet
 facet normal -1.000000e+00  0.000000e+00  0.000000e+00
   outer loop
     vertex -4.749991e-01  3.616148e-01  8.100000e-01
     vertex -4.749991e-01  3.616148e-01  8.500000e-01
     vertex -4.749991e-01  4.383851e-01  8.500000e-01
   endloop
 endfacet
 facet normal -4.028420e-02 -9.991883e-01  5.210016e-19
   outer loop
     vertex -4.700411e-01  3.614149e-01  8.100000e-01
     vertex -4.749991e-01  3.616148e-01  8.500000e-01
     vertex -4.749991e-01  3.616148e-01  8.100000e-01
   endloop
 endfacet
 facet normal -4.028420e-02 -9.991883e-01  0.000000e+00
   outer loop
     vertex -4.700411e-01  3.614149e-01  8.100000e-01
     vertex -4.700411e-01  3.614149e-01  8.500000e-01
     vertex -4.749991e-01  3.616148e-01  8.500000e-01
   endloop
 endfacet
 facet normal  1.000000e+00  0.000000e+00  0.000000e+00
   outer loop
     vertex -4.700411e-01  4.385851e-01  8.100000e-01
     vertex -4.700411e-01  3.614149e-01  8.500000e-01
     vertex -4.700411e-01  3.614149e-01  8.100000e-01
   endloop
 endfacet
 facet normal  1.000000e+00  0.000000e+00 -0.000000e+00
   outer loop
     vertex -4.700411e-01  4.385851e-01  8.100000e-01
     vertex -4.700411e-01  4.385851e-01  8.500000e-01
     vertex -4.700411e-01  3.614149e-01  8.500000e-01
   endloop
 endfacet
 facet normal  0.000000e+00  0.000000e+00 -1.000000e+00
   outer loop
     vertex -4.749991e-01  4.383851e-01  8.100000e-01
     vertex -4.700411e-01  3.614149e-01  8.100000e-01
     vertex -4.749991e-01  3.616148e-01  8.100000e-01
   endloop
 endfacet
 facet normal  0.000000e+00 -0.000000e+00 -1.000000e+00
   outer loop
     vertex -4.700411e-01  4.385851e-01  8.100000e-01
     vertex -4.700411e-01  3.614149e-01  8.100000e-01
     vertex -4.749991e-01  4.383851e-01  8.100000e-01
   endloop
 endfacet
 facet normal  0.000000e+00  0.000000e+00  1.000000e+00
   outer loop
     vertex -4.749991e-01  4.383851e-01  8.500000e-01
     vertex -4.749991e-01  3.616148e-01  8.500000e-01
     vertex -4.700411e-01  3.614149e-01  8.500000e-01
   endloop
 endfacet
 facet normal  0.000000e+00  0.000000e+00  1.000000e+00
   outer loop
     vertex -4.700411e-01  4.385851e-01  8.500000e-01
     vertex -4.749991e-01  4.383851e-01  8.500000e-01
     vertex -4.700411e-01  3.614149e-01  8.500000e-01
   endloop
 endfacet
endsolid
