solid
 facet normal  5.676757e-01  8.232523e-01 -1.019459e-17
   outer loop
     vertex  5.074264e-01 -5.361656e-01  8.100000e-01
     vertex  6.000000e-01 -6.000000e-01  8.500000e-01
     vertex  6.000000e-01 -6.000000e-01  8.100000e-01
   endloop
 endfacet
 facet normal  5.676757e-01  8.232523e-01 -0.000000e+00
   outer loop
     vertex  5.074264e-01 -5.361656e-01  8.100000e-01
     vertex  5.074264e-01 -5.361656e-01  8.500000e-01
     vertex  6.000000e-01 -6.000000e-01  8.500000e-01
   endloop
 endfacet
 facet normal -8.045827e-02  9.967580e-01  3.535330e-19
   outer loop
     vertex  5.024805e-01 -5.365649e-01  8.100000e-01
     vertex  5.074264e-01 -5.361656e-01  8.500000e-01
     vertex  5.074264e-01 -5.361656e-01  8.100000e-01
   endloop
 endfacet
 facet normal -8.045827e-02  9.967580e-01  0.000000e+00
   outer loop
     vertex  5.024805e-01 -5.365649e-01  8.100000e-01
     vertex  5.024805e-01 -5.365649e-01  8.500000e-01
     vertex  5.074264e-01 -5.361656e-01  8.500000e-01
   endloop
 endfacet
 facet normal -5.452750e-01 -8.382572e-01 -5.305866e-17
   outer loop
     vertex  6.000000e-01 -6.000000e-01  8.100000e-01
     vertex  5.024805e-01 -5.365649e-01  8.500000e-01
     vertex  5.024805e-01 -5.365649e-01  8.100000e-01
   endloop
 endfacet
 facet normal -5.452750e-01 -8.382572e-01  0.000000e+00
   outer loop
     vertex  6.000000e-01 -6.000000e-01  8.100000e-01
     vertex  6.000000e-01 -6.000000e-01  8.500000e-01
     vertex  5.024805e-01 -5.365649e-01  8.500000e-01
   endloop
 endfacet
 facet normal  0.000000e+00  0.000000e+00 -1.000000e+00
   outer loop
     vertex  6.000000e-01 -6.000000e-01  8.100000e-01
     vertex  5.024805e-01 -5.365649e-01  8.100000e-01
     vertex  5.074264e-01 -5.361656e-01  8.100000e-01
   endloop
 endfacet
 facet normal  0.000000e+00  0.000000e+00  1.000000e+00
   outer loop
     vertex  6.000000e-01 -6.000000e-01  8.500000e-01
     vertex  5.074264e-01 -5.361656e-01  8.500000e-01
     vertex  5.024805e-01 -5.365649e-01  8.500000e-01
   endloop
 endfacet
endsolid
