solid
 facet normal  9.780167e-01 -2.085266e-01  3.678843e-17
   outer loop
     vertex -5.365648e-01 -3.024810e-01  8.100000e-01
     vertex -6.000000e-01 -6.000000e-01  8.500000e-01
     vertex -6.000000e-01 -6.000000e-01  8.100000e-01
   endloop
 endfacet
 facet normal  9.780167e-01 -2.085266e-01  0.000000e+00
   outer loop
     vertex -5.365648e-01 -3.024810e-01  8.100000e-01
     vertex -5.365648e-01 -3.024810e-01  8.500000e-01
     vertex -6.000000e-01 -6.000000e-01  8.500000e-01
   endloop
 endfacet
 facet normal  1.000000e+00  0.000000e+00  0.000000e+00
   outer loop
     vertex -5.365648e-01  3.024810e-01  8.100000e-01
     vertex -5.365648e-01 -3.024810e-01  8.500000e-01
     vertex -5.365648e-01 -3.024810e-01  8.100000e-01
   endloop
 endfacet
 facet normal  1.000000e+00  0.000000e+00 -0.000000e+00
   outer loop
     vertex -5.365648e-01  3.024810e-01  8.100000e-01
     vertex -5.365648e-01  3.024810e-01  8.500000e-01
     vertex -5.365648e-01 -3.024810e-01  8.500000e-01
   endloop
 endfacet
 facet normal  9.780167e-01  2.085267e-01  1.223175e-16
   outer loop
     vertex -6.000000e-01  6.000000e-01  8.100000e-01
     vertex -5.365648e-01  3.024810e-01  8.500000e-01
     vertex -5.365648e-01  3.024810e-01  8.100000e-01
   endloop
 endfacet
 facet normal  9.780167e-01  2.085267e-01 -0.000000e+00
   outer loop
     vertex -6.000000e-01  6.000000e-01  8.100000e-01
     vertex -6.000000e-01  6.000000e-01  8.500000e-01
     vertex -5.365648e-01  3.024810e-01  8.500000e-01
   endloop
 endfacet
 facet normal -1.000000e+00  0.000000e+00  0.000000e+00
   outer loop
     vertex -6.000000e-01 -6.000000e-01  8.100000e-01
     vertex -6.000000e-01  6.000000e-01  8.500000e-01
     vertex -6.000000e-01  6.000000e-01  8.100000e-01
   endloop
 endfacet
 facet normal -1.000000e+00  0.000000e+00  0.000000e+00
   outer loop
     vertex -6.000000e-01 -6.000000e-01  8.100000e-01
     vertex -6.000000e-01 -6.000000e-01  8.500000e-01
     vertex -6.000000e-01  6.000000e-01  8.500000e-01
   endloop
 endfacet
 facet normal  0.000000e+00  0.000000e+00 -1.000000e+00
   outer loop
     vertex -6.000000e-01  6.000000e-01  8.100000e-01
     vertex -5.365648e-01 -3.024810e-01  8.100000e-01
     vertex -6.000000e-01 -6.000000e-01  8.100000e-01
   endloop
 endfacet
 facet normal  0.000000e+00  0.000000e+00 -1.000000e+00
   outer loop
     vertex -6.000000e-01  6.000000e-01  8.100000e-01
     vertex -5.365648e-01  3.024810e-01  8.100000e-01
     vertex -5.365648e-01 -3.024810e-01  8.100000e-01
   endloop
 endfacet
 facet normal  0.000000e+00  0.000000e+00  1.000000e+00
   outer loop
     vertex -6.000000e-01  6.000000e-01  8.500000e-01
     vertex -6.000000e-01 -6.000000e-01  8.500000e-01
     vertex -5.365648e-01 -3.024810e-01  8.500000e-01
   endloop
 endfacet
 facet normal  0.000000e+00  0.000000e+00  1.000000e+00
   outer loop
     vertex -6.000000e-01  6.000000e-01  8.500000e-01
     vertex -5.365648e-01 -3.024810e-01  8.500000e-01
     vertex -5.365648e-01  3.024810e-01  8.500000e-01
   endloop
 endfacet
endsolid
