solid
 facet normal -9.395655e-01  3.423692e-01  1.708630e-17
   outer loop
     vertex  5.598243e-01 -4.602543e-01  8.100000e-01
     vertex  6.000000e-01 -3.500000e-01  8.500000e-01
     vertex  6.000000e-01 -3.500000e-01  8.100000e-01
   endloop
 endfacet
 facet normal -9.395655e-01  3.423692e-01  0.000000e+00
   outer loop
     vertex  5.598243e-01 -4.602543e-01  8.100000e-01
     vertex  5.598243e-01 -4.602543e-01  8.500000e-01
     vertex  6.000000e-01 -3.500000e-01  8.500000e-01
   endloop
 endfacet
 facet normal -9.797901e-01 -2.000282e-01 -8.776542e-19
   outer loop
     vertex  5.608169e-01 -4.651160e-01  8.100000e-01
     vertex  5.598243e-01 -4.602543e-01  8.500000e-01
     vertex  5.598243e-01 -4.602543e-01  8.100000e-01
   endloop
 endfacet
 facet normal -9.797901e-01 -2.000282e-01  0.000000e+00
   outer loop
     vertex  5.608169e-01 -4.651160e-01  8.100000e-01
     vertex  5.608169e-01 -4.651160e-01  8.500000e-01
     vertex  5.598243e-01 -4.602543e-01  8.500000e-01
   endloop
 endfacet
 facet normal  9.466633e-01 -3.222245e-01 -2.294763e-17
   outer loop
     vertex  6.000000e-01 -3.500000e-01  8.100000e-01
     vertex  5.608169e-01 -4.651160e-01  8.500000e-01
     vertex  5.608169e-01 -4.651160e-01  8.100000e-01
   endloop
 endfacet
 facet normal  9.466633e-01 -3.222245e-01  0.000000e+00
   outer loop
     vertex  6.000000e-01 -3.500000e-01  8.100000e-01
     vertex  6.000000e-01 -3.500000e-01  8.500000e-01
     vertex  5.608169e-01 -4.651160e-01  8.500000e-01
   endloop
 endfacet
 facet normal  0.000000e+00  0.000000e+00 -1.000000e+00
   outer loop
     vertex  5.608169e-01 -4.651160e-01  8.100000e-01
     vertex  5.598243e-01 -4.602543e-01  8.100000e-01
     vertex  6.000000e-01 -3.500000e-01  8.100000e-01
   endloop
 endfacet
 facet normal  0.000000e+00 -0.000000e+00  1.000000e+00
   outer loop
     vertex  5.608169e-01 -4.651160e-01  8.500000e-01
     vertex  6.000000e-01 -3.500000e-01  8.500000e-01
     vertex  5.598243e-01 -4.602543e-01  8.500000e-01
   endloop
 endfacet
endsolid
