solid
 facet normal  3.423644e-01  9.395673e-01 -5.047094e-17
   outer loop
     vertex -6.000000e-01  6.000000e-01  8.100000e-01
     vertex -4.897446e-01  5.598246e-01  8.500000e-01
     vertex -4.897446e-01  5.598246e-01  8.100000e-01
   endloop
 endfacet
 facet normal  3.423644e-01  9.395673e-01 -0.000000e+00
   outer loop
     vertex -6.000000e-01  6.000000e-01  8.100000e-01
     vertex -6.000000e-01  6.000000e-01  8.500000e-01
     vertex -4.897446e-01  5.598246e-01  8.500000e-01
   endloop
 endfacet
 facet normal -3.665210e-01 -9.304098e-01 -8.770706e-17
   outer loop
     vertex -4.945108e-01  5.584441e-01  8.100000e-01
     vertex -6.000000e-01  6.000000e-01  8.500000e-01
     vertex -6.000000e-01  6.000000e-01  8.100000e-01
   endloop
 endfacet
 facet normal -3.665210e-01 -9.304098e-01  0.000000e+00
   outer loop
     vertex -4.945108e-01  5.584441e-01  8.100000e-01
     vertex -4.945108e-01  5.584441e-01  8.500000e-01
     vertex -6.000000e-01  6.000000e-01  8.500000e-01
   endloop
 endfacet
 facet normal  2.782122e-01 -9.605196e-01 -8.841604e-19
   outer loop
     vertex -4.897446e-01  5.598246e-01  8.100000e-01
     vertex -4.945108e-01  5.584441e-01  8.500000e-01
     vertex -4.945108e-01  5.584441e-01  8.100000e-01
   endloop
 endfacet
 facet normal  2.782122e-01 -9.605196e-01  0.000000e+00
   outer loop
     vertex -4.897446e-01  5.598246e-01  8.100000e-01
     vertex -4.897446e-01  5.598246e-01  8.500000e-01
     vertex -4.945108e-01  5.584441e-01  8.500000e-01
   endloop
 endfacet
 facet normal -0.000000e+00  0.000000e+00 -1.000000e+00
   outer loop
     vertex -4.897446e-01  5.598246e-01  8.100000e-01
     vertex -4.945108e-01  5.584441e-01  8.100000e-01
     vertex -6.000000e-01  6.000000e-01  8.100000e-01
   endloop
 endfacet
 facet normal  0.000000e+00  0.000000e+00  1.000000e+00
   outer loop
     vertex -4.897446e-01  5.598246e-01  8.500000e-01
     vertex -6.000000e-01  6.000000e-01  8.500000e-01
     vertex -4.945108e-01  5.584441e-01  8.500000e-01
   endloop
 endfacet
endsolid
