solid
 facet normal -4.287087e-01  9.034428e-01  1.351161e-18
   outer loop
     vertex -4.508480e-01 -3.566839e-01  8.100000e-01
     vertex -4.463651e-01 -3.545567e-01  8.500000e-01
     vertex -4.463651e-01 -3.545567e-01  8.100000e-01
   endloop
 endfacet
 facet normal -4.287087e-01  9.034428e-01  0.000000e+00
   outer loop
     vertex -4.508480e-01 -3.566839e-01  8.100000e-01
     vertex -4.508480e-01 -3.566839e-01  8.500000e-01
     vertex -4.463651e-01 -3.545567e-01  8.500000e-01
   endloop
 endfacet
 facet normal -7.071062e-01 -7.071074e-01  1.085776e-16
   outer loop
     vertex -3.566839e-01 -4.508479e-01  8.100000e-01
     vertex -4.508480e-01 -3.566839e-01  8.500000e-01
     vertex -4.508480e-01 -3.566839e-01  8.100000e-01
   endloop
 endfacet
 facet normal -7.071062e-01 -7.071074e-01  0.000000e+00
   outer loop
     vertex -3.566839e-01 -4.508479e-01  8.100000e-01
     vertex -3.566839e-01 -4.508479e-01  8.500000e-01
     vertex -4.508480e-01 -3.566839e-01  8.500000e-01
   endloop
 endfacet
 facet normal  9.034416e-01 -4.287111e-01  1.709126e-18
   outer loop
     vertex -3.545566e-01 -4.463650e-01  8.100000e-01
     vertex -3.566839e-01 -4.508479e-01  8.500000e-01
     vertex -3.566839e-01 -4.508479e-01  8.100000e-01
   endloop
 endfacet
 facet normal  9.034416e-01 -4.287111e-01  0.000000e+00
   outer loop
     vertex -3.545566e-01 -4.463650e-01  8.100000e-01
     vertex -3.545566e-01 -4.463650e-01  8.500000e-01
     vertex -3.566839e-01 -4.508479e-01  8.500000e-01
   endloop
 endfacet
 facet normal  7.071063e-01  7.071073e-01 -1.121834e-16
   outer loop
     vertex -4.463651e-01 -3.545567e-01  8.100000e-01
     vertex -3.545566e-01 -4.463650e-01  8.500000e-01
     vertex -3.545566e-01 -4.463650e-01  8.100000e-01
   endloop
 endfacet
 facet normal  7.071063e-01  7.071073e-01 -0.000000e+00
   outer loop
     vertex -4.463651e-01 -3.545567e-01  8.100000e-01
     vertex -4.463651e-01 -3.545567e-01  8.500000e-01
     vertex -3.545566e-01 -4.463650e-01  8.500000e-01
   endloop
 endfacet
 facet normal  0.000000e+00 -0.000000e+00 -1.000000e+00
   outer loop
     vertex -4.463651e-01 -3.545567e-01  8.100000e-01
     vertex -3.566839e-01 -4.508479e-01  8.100000e-01
     vertex -4.508480e-01 -3.566839e-01  8.100000e-01
   endloop
 endfacet
 facet normal -0.000000e+00  0.000000e+00 -1.000000e+00
   outer loop
     vertex -3.545566e-01 -4.463650e-01  8.100000e-01
     vertex -3.566839e-01 -4.508479e-01  8.100000e-01
     vertex -4.463651e-01 -3.545567e-01  8.100000e-01
   endloop
 endfacet
 facet normal  0.000000e+00  0.000000e+00  1.000000e+00
   outer loop
     vertex -4.463651e-01 -3.545567e-01  8.500000e-01
     vertex -4.508480e-01 -3.566839e-01  8.500000e-01
     vertex -3.566839e-01 -4.508479e-01  8.500000e-01
   endloop
 endfacet
 facet normal  0.000000e+00  0.000000e+00  1.000000e+00
   outer loop
     vertex -3.545566e-01 -4.463650e-01  8.500000e-01
     vertex -4.463651e-01 -3.545567e-01  8.500000e-01
     vertex -3.566839e-01 -4.508479e-01  8.500000e-01
   endloop
 endfacet
endsolid
