solid
 facet normal -6.631198e-01  7.485133e-01 -3.811504e-18
   outer loop
     vertex  3.389678e-01 -5.227273e-01  8.100000e-01
     vertex  3.426819e-01 -5.194370e-01  8.500000e-01
     vertex  3.426819e-01 -5.194370e-01  8.100000e-01
   endloop
 endfacet
 facet normal -6.631198e-01  7.485133e-01  0.000000e+00
   outer loop
     vertex  3.389678e-01 -5.227273e-01  8.100000e-01
     vertex  3.389678e-01 -5.227273e-01  8.500000e-01
     vertex  3.426819e-01 -5.194370e-01  8.500000e-01
   endloop
 endfacet
 facet normal  5.812544e-06 -1.000000e+00  3.563621e-22
   outer loop
     vertex  4.610314e-01 -5.227266e-01  8.100000e-01
     vertex  3.389678e-01 -5.227273e-01  8.500000e-01
     vertex  3.389678e-01 -5.227273e-01  8.100000e-01
   endloop
 endfacet
 facet normal  5.812544e-06 -1.000000e+00  0.000000e+00
   outer loop
     vertex  4.610314e-01 -5.227266e-01  8.100000e-01
     vertex  4.610314e-01 -5.227266e-01  8.500000e-01
     vertex  3.389678e-01 -5.227273e-01  8.500000e-01
   endloop
 endfacet
 facet normal  6.631267e-01  7.485072e-01  4.119928e-18
   outer loop
     vertex  4.573173e-01 -5.194362e-01  8.100000e-01
     vertex  4.610314e-01 -5.227266e-01  8.500000e-01
     vertex  4.610314e-01 -5.227266e-01  8.100000e-01
   endloop
 endfacet
 facet normal  6.631267e-01  7.485072e-01 -0.000000e+00
   outer loop
     vertex  4.573173e-01 -5.194362e-01  8.100000e-01
     vertex  4.573173e-01 -5.194362e-01  8.500000e-01
     vertex  4.610314e-01 -5.227266e-01  8.500000e-01
   endloop
 endfacet
 facet normal -6.722183e-06  1.000000e+00  1.190056e-21
   outer loop
     vertex  3.426819e-01 -5.194370e-01  8.100000e-01
     vertex  4.573173e-01 -5.194362e-01  8.500000e-01
     vertex  4.573173e-01 -5.194362e-01  8.100000e-01
   endloop
 endfacet
 facet normal -6.722183e-06  1.000000e+00  0.000000e+00
   outer loop
     vertex  3.426819e-01 -5.194370e-01  8.100000e-01
     vertex  3.426819e-01 -5.194370e-01  8.500000e-01
     vertex  4.573173e-01 -5.194362e-01  8.500000e-01
   endloop
 endfacet
 facet normal -0.000000e+00  0.000000e+00 -1.000000e+00
   outer loop
     vertex  4.610314e-01 -5.227266e-01  8.100000e-01
     vertex  3.389678e-01 -5.227273e-01  8.100000e-01
     vertex  3.426819e-01 -5.194370e-01  8.100000e-01
   endloop
 endfacet
 facet normal  0.000000e+00  0.000000e+00 -1.000000e+00
   outer loop
     vertex  4.610314e-01 -5.227266e-01  8.100000e-01
     vertex  3.426819e-01 -5.194370e-01  8.100000e-01
     vertex  4.573173e-01 -5.194362e-01  8.100000e-01
   endloop
 endfacet
 facet normal  0.000000e+00  0.000000e+00  1.000000e+00
   outer loop
     vertex  4.610314e-01 -5.227266e-01  8.500000e-01
     vertex  3.426819e-01 -5.194370e-01  8.500000e-01
     vertex  3.389678e-01 -5.227273e-01  8.500000e-01
   endloop
 endfacet
 facet normal  0.000000e+00  0.000000e+00  1.000000e+00
   outer loop
     vertex  4.610314e-01 -5.227266e-01  8.500000e-01
     vertex  4.573173e-01 -5.194362e-01  8.500000e-01
     vertex  3.426819e-01 -5.194370e-01  8.500000e-01
   endloop
 endfacet
endsolid
