solid
 facet normal  5.108312e-01  8.596811e-01  4.484649e-17
   outer loop
     vertex  4.925725e-01 -5.361655e-01  8.100000e-01
     vertex  6.000000e-01 -6.000000e-01  8.500000e-01
     vertex  6.000000e-01 -6.000000e-01  8.100000e-01
   endloop
 endfacet
 facet normal  5.108312e-01  8.596811e-01 -0.000000e+00
   outer loop
     vertex  4.925725e-01 -5.361655e-01  8.100000e-01
     vertex  4.925725e-01 -5.361655e-01  8.500000e-01
     vertex  6.000000e-01 -6.000000e-01  8.500000e-01
   endloop
 endfacet
 facet normal  1.604220e-01  9.870485e-01 -1.488798e-18
   outer loop
     vertex  4.876748e-01 -5.353695e-01  8.100000e-01
     vertex  4.925725e-01 -5.361655e-01  8.500000e-01
     vertex  4.925725e-01 -5.361655e-01  8.100000e-01
   endloop
 endfacet
 facet normal  1.604220e-01  9.870485e-01 -0.000000e+00
   outer loop
     vertex  4.876748e-01 -5.353695e-01  8.100000e-01
     vertex  4.876748e-01 -5.353695e-01  8.500000e-01
     vertex  4.925725e-01 -5.361655e-01  8.500000e-01
   endloop
 endfacet
 facet normal -4.987235e-01 -8.667611e-01 -1.673636e-17
   outer loop
     vertex  6.000000e-01 -6.000000e-01  8.100000e-01
     vertex  4.876748e-01 -5.353695e-01  8.500000e-01
     vertex  4.876748e-01 -5.353695e-01  8.100000e-01
   endloop
 endfacet
 facet normal -4.987235e-01 -8.667611e-01  0.000000e+00
   outer loop
     vertex  6.000000e-01 -6.000000e-01  8.100000e-01
     vertex  6.000000e-01 -6.000000e-01  8.500000e-01
     vertex  4.876748e-01 -5.353695e-01  8.500000e-01
   endloop
 endfacet
 facet normal  0.000000e+00  0.000000e+00 -1.000000e+00
   outer loop
     vertex  4.876748e-01 -5.353695e-01  8.100000e-01
     vertex  4.925725e-01 -5.361655e-01  8.100000e-01
     vertex  6.000000e-01 -6.000000e-01  8.100000e-01
   endloop
 endfacet
 facet normal  0.000000e+00  0.000000e+00  1.000000e+00
   outer loop
     vertex  4.876748e-01 -5.353695e-01  8.500000e-01
     vertex  6.000000e-01 -6.000000e-01  8.500000e-01
     vertex  4.925725e-01 -5.361655e-01  8.500000e-01
   endloop
 endfacet
endsolid
