solid
 facet normal  4.995832e-01  8.662659e-01  6.474834e-17
   outer loop
     vertex -6.000000e-01  6.000000e-01  8.100000e-01
     vertex -5.120142e-01  5.492578e-01  8.500000e-01
     vertex -5.120142e-01  5.492578e-01  8.100000e-01
   endloop
 endfacet
 facet normal  4.995832e-01  8.662659e-01 -0.000000e+00
   outer loop
     vertex -6.000000e-01  6.000000e-01  8.100000e-01
     vertex -6.000000e-01  6.000000e-01  8.500000e-01
     vertex -5.120142e-01  5.492578e-01  8.500000e-01
   endloop
 endfacet
 facet normal -5.392622e-01 -8.421379e-01 -1.253992e-17
   outer loop
     vertex -5.158578e-01  5.461196e-01  8.100000e-01
     vertex -6.000000e-01  6.000000e-01  8.500000e-01
     vertex -6.000000e-01  6.000000e-01  8.100000e-01
   endloop
 endfacet
 facet normal -5.392622e-01 -8.421379e-01  0.000000e+00
   outer loop
     vertex -5.158578e-01  5.461196e-01  8.100000e-01
     vertex -5.158578e-01  5.461196e-01  8.500000e-01
     vertex -6.000000e-01  6.000000e-01  8.500000e-01
   endloop
 endfacet
 facet normal  6.324419e-01 -7.746078e-01  3.943845e-19
   outer loop
     vertex -5.120142e-01  5.492578e-01  8.100000e-01
     vertex -5.158578e-01  5.461196e-01  8.500000e-01
     vertex -5.158578e-01  5.461196e-01  8.100000e-01
   endloop
 endfacet
 facet normal  6.324419e-01 -7.746078e-01  0.000000e+00
   outer loop
     vertex -5.120142e-01  5.492578e-01  8.100000e-01
     vertex -5.120142e-01  5.492578e-01  8.500000e-01
     vertex -5.158578e-01  5.461196e-01  8.500000e-01
   endloop
 endfacet
 facet normal -0.000000e+00  0.000000e+00 -1.000000e+00
   outer loop
     vertex -5.120142e-01  5.492578e-01  8.100000e-01
     vertex -5.158578e-01  5.461196e-01  8.100000e-01
     vertex -6.000000e-01  6.000000e-01  8.100000e-01
   endloop
 endfacet
 facet normal  0.000000e+00  0.000000e+00  1.000000e+00
   outer loop
     vertex -5.120142e-01  5.492578e-01  8.500000e-01
     vertex -6.000000e-01  6.000000e-01  8.500000e-01
     vertex -5.158578e-01  5.461196e-01  8.500000e-01
   endloop
 endfacet
endsolid
