solid
 facet normal -3.919599e-01  9.199823e-01 -2.702405e-18
   outer loop
     vertex  3.218485e-01 -5.326110e-01  8.100000e-01
     vertex  3.264135e-01 -5.306661e-01  8.500000e-01
     vertex  3.264135e-01 -5.306661e-01  8.100000e-01
   endloop
 endfacet
 facet normal -3.919599e-01  9.199823e-01  0.000000e+00
   outer loop
     vertex  3.218485e-01 -5.326110e-01  8.100000e-01
     vertex  3.218485e-01 -5.326110e-01  8.500000e-01
     vertex  3.264135e-01 -5.306661e-01  8.500000e-01
   endloop
 endfacet
 facet normal  2.538037e-06 -1.000000e+00  5.113845e-22
   outer loop
     vertex  4.781504e-01 -5.326106e-01  8.100000e-01
     vertex  3.218485e-01 -5.326110e-01  8.500000e-01
     vertex  3.218485e-01 -5.326110e-01  8.100000e-01
   endloop
 endfacet
 facet normal  2.538037e-06 -1.000000e+00  0.000000e+00
   outer loop
     vertex  4.781504e-01 -5.326106e-01  8.100000e-01
     vertex  4.781504e-01 -5.326106e-01  8.500000e-01
     vertex  3.218485e-01 -5.326110e-01  8.500000e-01
   endloop
 endfacet
 facet normal  3.919831e-01  9.199724e-01  2.362316e-18
   outer loop
     vertex  4.735856e-01 -5.306656e-01  8.100000e-01
     vertex  4.781504e-01 -5.326106e-01  8.500000e-01
     vertex  4.781504e-01 -5.326106e-01  8.100000e-01
   endloop
 endfacet
 facet normal  3.919831e-01  9.199724e-01 -0.000000e+00
   outer loop
     vertex  4.735856e-01 -5.306656e-01  8.100000e-01
     vertex  4.735856e-01 -5.306656e-01  8.500000e-01
     vertex  4.781504e-01 -5.326106e-01  8.500000e-01
   endloop
 endfacet
 facet normal -3.266244e-06  1.000000e+00 -3.127710e-22
   outer loop
     vertex  3.264135e-01 -5.306661e-01  8.100000e-01
     vertex  4.735856e-01 -5.306656e-01  8.500000e-01
     vertex  4.735856e-01 -5.306656e-01  8.100000e-01
   endloop
 endfacet
 facet normal -3.266244e-06  1.000000e+00  0.000000e+00
   outer loop
     vertex  3.264135e-01 -5.306661e-01  8.100000e-01
     vertex  3.264135e-01 -5.306661e-01  8.500000e-01
     vertex  4.735856e-01 -5.306656e-01  8.500000e-01
   endloop
 endfacet
 facet normal -0.000000e+00  0.000000e+00 -1.000000e+00
   outer loop
     vertex  4.781504e-01 -5.326106e-01  8.100000e-01
     vertex  3.218485e-01 -5.326110e-01  8.100000e-01
     vertex  3.264135e-01 -5.306661e-01  8.100000e-01
   endloop
 endfacet
 facet normal  0.000000e+00  0.000000e+00 -1.000000e+00
   outer loop
     vertex  4.781504e-01 -5.326106e-01  8.100000e-01
     vertex  3.264135e-01 -5.306661e-01  8.100000e-01
     vertex  4.735856e-01 -5.306656e-01  8.100000e-01
   endloop
 endfacet
 facet normal  0.000000e+00  0.000000e+00  1.000000e+00
   outer loop
     vertex  4.781504e-01 -5.326106e-01  8.500000e-01
     vertex  3.264135e-01 -5.306661e-01  8.500000e-01
     vertex  3.218485e-01 -5.326110e-01  8.500000e-01
   endloop
 endfacet
 facet normal  0.000000e+00  0.000000e+00  1.000000e+00
   outer loop
     vertex  4.781504e-01 -5.326106e-01  8.500000e-01
     vertex  4.735856e-01 -5.306656e-01  8.500000e-01
     vertex  3.264135e-01 -5.306661e-01  8.500000e-01
   endloop
 endfacet
endsolid
