solid
 facet normal  3.665210e-01  9.304098e-01 -8.770706e-17
   outer loop
     vertex -6.000000e-01  6.000000e-01  8.100000e-01
     vertex -4.945108e-01  5.584441e-01  8.500000e-01
     vertex -4.945108e-01  5.584441e-01  8.100000e-01
   endloop
 endfacet
 facet normal  3.665210e-01  9.304098e-01 -0.000000e+00
   outer loop
     vertex -6.000000e-01  6.000000e-01  8.100000e-01
     vertex -6.000000e-01  6.000000e-01  8.500000e-01
     vertex -4.945108e-01  5.584441e-01  8.500000e-01
   endloop
 endfacet
 facet normal -3.946438e-01 -9.188342e-01  6.102402e-17
   outer loop
     vertex -4.991503e-01  5.566846e-01  8.100000e-01
     vertex -6.000000e-01  6.000000e-01  8.500000e-01
     vertex -6.000000e-01  6.000000e-01  8.100000e-01
   endloop
 endfacet
 facet normal -3.946438e-01 -9.188342e-01  0.000000e+00
   outer loop
     vertex -4.991503e-01  5.566846e-01  8.100000e-01
     vertex -4.991503e-01  5.566846e-01  8.500000e-01
     vertex -6.000000e-01  6.000000e-01  8.500000e-01
   endloop
 endfacet
 facet normal  3.545985e-01 -9.350187e-01  3.679017e-18
   outer loop
     vertex -4.945108e-01  5.584441e-01  8.100000e-01
     vertex -4.991503e-01  5.566846e-01  8.500000e-01
     vertex -4.991503e-01  5.566846e-01  8.100000e-01
   endloop
 endfacet
 facet normal  3.545985e-01 -9.350187e-01  0.000000e+00
   outer loop
     vertex -4.945108e-01  5.584441e-01  8.100000e-01
     vertex -4.945108e-01  5.584441e-01  8.500000e-01
     vertex -4.991503e-01  5.566846e-01  8.500000e-01
   endloop
 endfacet
 facet normal -0.000000e+00  0.000000e+00 -1.000000e+00
   outer loop
     vertex -4.945108e-01  5.584441e-01  8.100000e-01
     vertex -4.991503e-01  5.566846e-01  8.100000e-01
     vertex -6.000000e-01  6.000000e-01  8.100000e-01
   endloop
 endfacet
 facet normal  0.000000e+00  0.000000e+00  1.000000e+00
   outer loop
     vertex -4.945108e-01  5.584441e-01  8.500000e-01
     vertex -6.000000e-01  6.000000e-01  8.500000e-01
     vertex -4.991503e-01  5.566846e-01  8.500000e-01
   endloop
 endfacet
endsolid
