solid
 facet normal  2.782065e-01  9.605213e-01  1.991872e-18
   outer loop
     vertex -4.945108e-01 -3.584441e-01  8.100000e-01
     vertex -4.897446e-01 -3.598246e-01  8.500000e-01
     vertex -4.897446e-01 -3.598246e-01  8.100000e-01
   endloop
 endfacet
 facet normal  2.782065e-01  9.605213e-01 -0.000000e+00
   outer loop
     vertex -4.945108e-01 -3.584441e-01  8.100000e-01
     vertex -4.945108e-01 -3.584441e-01  8.500000e-01
     vertex -4.897446e-01 -3.598246e-01  8.500000e-01
   endloop
 endfacet
 facet normal -9.164239e-01  4.002091e-01  8.242047e-17
   outer loop
     vertex -6.000000e-01 -6.000000e-01  8.100000e-01
     vertex -4.945108e-01 -3.584441e-01  8.500000e-01
     vertex -4.945108e-01 -3.584441e-01  8.100000e-01
   endloop
 endfacet
 facet normal -9.164239e-01  4.002091e-01  0.000000e+00
   outer loop
     vertex -6.000000e-01 -6.000000e-01  8.100000e-01
     vertex -6.000000e-01 -6.000000e-01  8.500000e-01
     vertex -4.945108e-01 -3.584441e-01  8.500000e-01
   endloop
 endfacet
 facet normal  9.088139e-01 -4.172017e-01 -3.768269e-17
   outer loop
     vertex -4.897446e-01 -3.598246e-01  8.100000e-01
     vertex -6.000000e-01 -6.000000e-01  8.500000e-01
     vertex -6.000000e-01 -6.000000e-01  8.100000e-01
   endloop
 endfacet
 facet normal  9.088139e-01 -4.172017e-01  0.000000e+00
   outer loop
     vertex -4.897446e-01 -3.598246e-01  8.100000e-01
     vertex -4.897446e-01 -3.598246e-01  8.500000e-01
     vertex -6.000000e-01 -6.000000e-01  8.500000e-01
   endloop
 endfacet
 facet normal -0.000000e+00  0.000000e+00 -1.000000e+00
   outer loop
     vertex -4.897446e-01 -3.598246e-01  8.100000e-01
     vertex -6.000000e-01 -6.000000e-01  8.100000e-01
     vertex -4.945108e-01 -3.584441e-01  8.100000e-01
   endloop
 endfacet
 facet normal  0.000000e+00  0.000000e+00  1.000000e+00
   outer loop
     vertex -4.897446e-01 -3.598246e-01  8.500000e-01
     vertex -4.945108e-01 -3.584441e-01  8.500000e-01
     vertex -6.000000e-01 -6.000000e-01  8.500000e-01
   endloop
 endfacet
endsolid
