solid
 facet normal -3.166627e-01  9.485382e-01  1.689335e-18
   outer loop
     vertex  1.171419e-01 -5.341823e-01  8.100000e-01
     vertex  1.218485e-01 -5.326110e-01  8.500000e-01
     vertex  1.218485e-01 -5.326110e-01  8.100000e-01
   endloop
 endfacet
 facet normal -3.166627e-01  9.485382e-01  0.000000e+00
   outer loop
     vertex  1.171419e-01 -5.341823e-01  8.100000e-01
     vertex  1.171419e-01 -5.341823e-01  8.500000e-01
     vertex  1.218485e-01 -5.326110e-01  8.500000e-01
   endloop
 endfacet
 facet normal  1.887576e-06 -1.000000e+00 -2.140178e-23
   outer loop
     vertex  2.828571e-01 -5.341820e-01  8.100000e-01
     vertex  1.171419e-01 -5.341823e-01  8.500000e-01
     vertex  1.171419e-01 -5.341823e-01  8.100000e-01
   endloop
 endfacet
 facet normal  1.887576e-06 -1.000000e+00  0.000000e+00
   outer loop
     vertex  2.828571e-01 -5.341820e-01  8.100000e-01
     vertex  2.828571e-01 -5.341820e-01  8.500000e-01
     vertex  1.171419e-01 -5.341823e-01  8.500000e-01
   endloop
 endfacet
 facet normal  3.166779e-01  9.485331e-01  2.121209e-18
   outer loop
     vertex  2.781505e-01 -5.326106e-01  8.100000e-01
     vertex  2.828571e-01 -5.341820e-01  8.500000e-01
     vertex  2.828571e-01 -5.341820e-01  8.100000e-01
   endloop
 endfacet
 facet normal  3.166779e-01  9.485331e-01 -0.000000e+00
   outer loop
     vertex  2.781505e-01 -5.326106e-01  8.100000e-01
     vertex  2.781505e-01 -5.326106e-01  8.500000e-01
     vertex  2.828571e-01 -5.341820e-01  8.500000e-01
   endloop
 endfacet
 facet normal -2.538036e-06  1.000000e+00  8.439074e-22
   outer loop
     vertex  1.218485e-01 -5.326110e-01  8.100000e-01
     vertex  2.781505e-01 -5.326106e-01  8.500000e-01
     vertex  2.781505e-01 -5.326106e-01  8.100000e-01
   endloop
 endfacet
 facet normal -2.538036e-06  1.000000e+00  0.000000e+00
   outer loop
     vertex  1.218485e-01 -5.326110e-01  8.100000e-01
     vertex  1.218485e-01 -5.326110e-01  8.500000e-01
     vertex  2.781505e-01 -5.326106e-01  8.500000e-01
   endloop
 endfacet
 facet normal -0.000000e+00  0.000000e+00 -1.000000e+00
   outer loop
     vertex  2.828571e-01 -5.341820e-01  8.100000e-01
     vertex  1.171419e-01 -5.341823e-01  8.100000e-01
     vertex  1.218485e-01 -5.326110e-01  8.100000e-01
   endloop
 endfacet
 facet normal  0.000000e+00  0.000000e+00 -1.000000e+00
   outer loop
     vertex  2.828571e-01 -5.341820e-01  8.100000e-01
     vertex  1.218485e-01 -5.326110e-01  8.100000e-01
     vertex  2.781505e-01 -5.326106e-01  8.100000e-01
   endloop
 endfacet
 facet normal  0.000000e+00  0.000000e+00  1.000000e+00
   outer loop
     vertex  2.828571e-01 -5.341820e-01  8.500000e-01
     vertex  1.218485e-01 -5.326110e-01  8.500000e-01
     vertex  1.171419e-01 -5.341823e-01  8.500000e-01
   endloop
 endfacet
 facet normal  0.000000e+00  0.000000e+00  1.000000e+00
   outer loop
     vertex  2.828571e-01 -5.341820e-01  8.500000e-01
     vertex  2.781505e-01 -5.326106e-01  8.500000e-01
     vertex  1.218485e-01 -5.326110e-01  8.500000e-01
   endloop
 endfacet
endsolid
