solid
 facet normal -9.797919e-01  2.000194e-01 -8.781165e-19
   outer loop
     vertex -4.017560e-02 -4.897455e-01  8.100000e-01
     vertex -3.918311e-02 -4.848838e-01  8.500000e-01
     vertex -3.918311e-02 -4.848838e-01  8.100000e-01
   endloop
 endfacet
 facet normal -9.797919e-01  2.000194e-01  0.000000e+00
   outer loop
     vertex -4.017560e-02 -4.897455e-01  8.100000e-01
     vertex -4.017560e-02 -4.897455e-01  8.500000e-01
     vertex -3.918311e-02 -4.848838e-01  8.500000e-01
   endloop
 endfacet
 facet normal  1.357793e-05 -1.000000e+00 -1.702408e-22
   outer loop
     vertex  4.017535e-02 -4.897444e-01  8.100000e-01
     vertex -4.017560e-02 -4.897455e-01  8.500000e-01
     vertex -4.017560e-02 -4.897455e-01  8.100000e-01
   endloop
 endfacet
 facet normal  1.357793e-05 -1.000000e+00  0.000000e+00
   outer loop
     vertex  4.017535e-02 -4.897444e-01  8.100000e-01
     vertex  4.017535e-02 -4.897444e-01  8.500000e-01
     vertex -4.017560e-02 -4.897455e-01  8.500000e-01
   endloop
 endfacet
 facet normal  9.797945e-01  2.000070e-01  2.102431e-18
   outer loop
     vertex  3.918292e-02 -4.848827e-01  8.100000e-01
     vertex  4.017535e-02 -4.897444e-01  8.500000e-01
     vertex  4.017535e-02 -4.897444e-01  8.100000e-01
   endloop
 endfacet
 facet normal  9.797945e-01  2.000070e-01 -0.000000e+00
   outer loop
     vertex  3.918292e-02 -4.848827e-01  8.100000e-01
     vertex  3.918292e-02 -4.848827e-01  8.500000e-01
     vertex  4.017535e-02 -4.897444e-01  8.500000e-01
   endloop
 endfacet
 facet normal -1.411709e-05  1.000000e+00 -1.853093e-21
   outer loop
     vertex -3.918311e-02 -4.848838e-01  8.100000e-01
     vertex  3.918292e-02 -4.848827e-01  8.500000e-01
     vertex  3.918292e-02 -4.848827e-01  8.100000e-01
   endloop
 endfacet
 facet normal -1.411709e-05  1.000000e+00  0.000000e+00
   outer loop
     vertex -3.918311e-02 -4.848838e-01  8.100000e-01
     vertex -3.918311e-02 -4.848838e-01  8.500000e-01
     vertex  3.918292e-02 -4.848827e-01  8.500000e-01
   endloop
 endfacet
 facet normal -0.000000e+00  0.000000e+00 -1.000000e+00
   outer loop
     vertex  4.017535e-02 -4.897444e-01  8.100000e-01
     vertex -4.017560e-02 -4.897455e-01  8.100000e-01
     vertex -3.918311e-02 -4.848838e-01  8.100000e-01
   endloop
 endfacet
 facet normal  0.000000e+00 -0.000000e+00 -1.000000e+00
   outer loop
     vertex  3.918292e-02 -4.848827e-01  8.100000e-01
     vertex  4.017535e-02 -4.897444e-01  8.100000e-01
     vertex -3.918311e-02 -4.848838e-01  8.100000e-01
   endloop
 endfacet
 facet normal  0.000000e+00  0.000000e+00  1.000000e+00
   outer loop
     vertex  4.017535e-02 -4.897444e-01  8.500000e-01
     vertex -3.918311e-02 -4.848838e-01  8.500000e-01
     vertex -4.017560e-02 -4.897455e-01  8.500000e-01
   endloop
 endfacet
 facet normal  0.000000e+00  0.000000e+00  1.000000e+00
   outer loop
     vertex  3.918292e-02 -4.848827e-01  8.500000e-01
     vertex -3.918311e-02 -4.848838e-01  8.500000e-01
     vertex  4.017535e-02 -4.897444e-01  8.500000e-01
   endloop
 endfacet
endsolid
