solid
 facet normal -5.680770e-01 -8.229754e-01 -1.375557e-18
   outer loop
     vertex -4.379844e-01  3.492568e-01  8.100000e-01
     vertex -4.420679e-01  3.520756e-01  8.500000e-01
     vertex -4.420679e-01  3.520756e-01  8.100000e-01
   endloop
 endfacet
 facet normal -5.680770e-01 -8.229754e-01  0.000000e+00
   outer loop
     vertex -4.379844e-01  3.492568e-01  8.100000e-01
     vertex -4.379844e-01  3.492568e-01  8.500000e-01
     vertex -4.420679e-01  3.520756e-01  8.500000e-01
   endloop
 endfacet
 facet normal  1.000000e+00  0.000000e+00  0.000000e+00
   outer loop
     vertex -4.379844e-01  4.507433e-01  8.100000e-01
     vertex -4.379844e-01  3.492568e-01  8.500000e-01
     vertex -4.379844e-01  3.492568e-01  8.100000e-01
   endloop
 endfacet
 facet normal  1.000000e+00  0.000000e+00 -0.000000e+00
   outer loop
     vertex -4.379844e-01  4.507433e-01  8.100000e-01
     vertex -4.379844e-01  4.507433e-01  8.500000e-01
     vertex -4.379844e-01  3.492568e-01  8.500000e-01
   endloop
 endfacet
 facet normal -5.680853e-01  8.229697e-01 -5.100812e-19
   outer loop
     vertex -4.420679e-01  4.479244e-01  8.100000e-01
     vertex -4.379844e-01  4.507433e-01  8.500000e-01
     vertex -4.379844e-01  4.507433e-01  8.100000e-01
   endloop
 endfacet
 facet normal -5.680853e-01  8.229697e-01  0.000000e+00
   outer loop
     vertex -4.420679e-01  4.479244e-01  8.100000e-01
     vertex -4.420679e-01  4.479244e-01  8.500000e-01
     vertex -4.379844e-01  4.507433e-01  8.500000e-01
   endloop
 endfacet
 facet normal -1.000000e+00  0.000000e+00  0.000000e+00
   outer loop
     vertex -4.420679e-01  3.520756e-01  8.100000e-01
     vertex -4.420679e-01  4.479244e-01  8.500000e-01
     vertex -4.420679e-01  4.479244e-01  8.100000e-01
   endloop
 endfacet
 facet normal -1.000000e+00  0.000000e+00  0.000000e+00
   outer loop
     vertex -4.420679e-01  3.520756e-01  8.100000e-01
     vertex -4.420679e-01  3.520756e-01  8.500000e-01
     vertex -4.420679e-01  4.479244e-01  8.500000e-01
   endloop
 endfacet
 facet normal  0.000000e+00  0.000000e+00 -1.000000e+00
   outer loop
     vertex -4.420679e-01  4.479244e-01  8.100000e-01
     vertex -4.379844e-01  3.492568e-01  8.100000e-01
     vertex -4.420679e-01  3.520756e-01  8.100000e-01
   endloop
 endfacet
 facet normal  0.000000e+00 -0.000000e+00 -1.000000e+00
   outer loop
     vertex -4.379844e-01  4.507433e-01  8.100000e-01
     vertex -4.379844e-01  3.492568e-01  8.100000e-01
     vertex -4.420679e-01  4.479244e-01  8.100000e-01
   endloop
 endfacet
 facet normal  0.000000e+00  0.000000e+00  1.000000e+00
   outer loop
     vertex -4.420679e-01  4.479244e-01  8.500000e-01
     vertex -4.420679e-01  3.520756e-01  8.500000e-01
     vertex -4.379844e-01  3.492568e-01  8.500000e-01
   endloop
 endfacet
 facet normal  0.000000e+00  0.000000e+00  1.000000e+00
   outer loop
     vertex -4.379844e-01  4.507433e-01  8.500000e-01
     vertex -4.420679e-01  4.479244e-01  8.500000e-01
     vertex -4.379844e-01  3.492568e-01  8.500000e-01
   endloop
 endfacet
endsolid
