solid
 facet normal  3.166779e-01  9.485331e-01  2.035857e-18
   outer loop
     vertex -3.218495e-01 -5.326106e-01  8.100000e-01
     vertex -3.171429e-01 -5.341820e-01  8.500000e-01
     vertex -3.171429e-01 -5.341820e-01  8.100000e-01
   endloop
 endfacet
 facet normal  3.166779e-01  9.485331e-01 -0.000000e+00
   outer loop
     vertex -3.218495e-01 -5.326106e-01  8.100000e-01
     vertex -3.218495e-01 -5.326106e-01  8.500000e-01
     vertex -3.171429e-01 -5.341820e-01  8.500000e-01
   endloop
 endfacet
 facet normal -2.354646e-01  9.718829e-01  6.570027e-17
   outer loop
     vertex -6.000000e-01 -6.000000e-01  8.100000e-01
     vertex -3.218495e-01 -5.326106e-01  8.500000e-01
     vertex -3.218495e-01 -5.326106e-01  8.100000e-01
   endloop
 endfacet
 facet normal -2.354646e-01  9.718829e-01  0.000000e+00
   outer loop
     vertex -6.000000e-01 -6.000000e-01  8.100000e-01
     vertex -6.000000e-01 -6.000000e-01  8.500000e-01
     vertex -3.218495e-01 -5.326106e-01  8.500000e-01
   endloop
 endfacet
 facet normal  2.266354e-01 -9.739797e-01  5.214669e-17
   outer loop
     vertex -3.171429e-01 -5.341820e-01  8.100000e-01
     vertex -6.000000e-01 -6.000000e-01  8.500000e-01
     vertex -6.000000e-01 -6.000000e-01  8.100000e-01
   endloop
 endfacet
 facet normal  2.266354e-01 -9.739797e-01  0.000000e+00
   outer loop
     vertex -3.171429e-01 -5.341820e-01  8.100000e-01
     vertex -3.171429e-01 -5.341820e-01  8.500000e-01
     vertex -6.000000e-01 -6.000000e-01  8.500000e-01
   endloop
 endfacet
 facet normal -0.000000e+00  0.000000e+00 -1.000000e+00
   outer loop
     vertex -3.171429e-01 -5.341820e-01  8.100000e-01
     vertex -6.000000e-01 -6.000000e-01  8.100000e-01
     vertex -3.218495e-01 -5.326106e-01  8.100000e-01
   endloop
 endfacet
 facet normal  0.000000e+00  0.000000e+00  1.000000e+00
   outer loop
     vertex -3.171429e-01 -5.341820e-01  8.500000e-01
     vertex -3.218495e-01 -5.326106e-01  8.500000e-01
     vertex -6.000000e-01 -6.000000e-01  8.500000e-01
   endloop
 endfacet
endsolid
