solid
 facet normal -9.927096e-01 -1.205308e-01  2.110405e-19
   outer loop
     vertex  3.614150e-01 -4.700419e-01  8.100000e-01
     vertex  3.608169e-01 -4.651160e-01  8.500000e-01
     vertex  3.608169e-01 -4.651160e-01  8.100000e-01
   endloop
 endfacet
 facet normal -9.927096e-01 -1.205308e-01  0.000000e+00
   outer loop
     vertex  3.614150e-01 -4.700419e-01  8.100000e-01
     vertex  3.614150e-01 -4.700419e-01  8.500000e-01
     vertex  3.608169e-01 -4.651160e-01  8.500000e-01
   endloop
 endfacet
 facet normal  1.324736e-05 -1.000000e+00  1.887971e-21
   outer loop
     vertex  4.385851e-01 -4.700409e-01  8.100000e-01
     vertex  3.614150e-01 -4.700419e-01  8.500000e-01
     vertex  3.614150e-01 -4.700419e-01  8.100000e-01
   endloop
 endfacet
 facet normal  1.324736e-05 -1.000000e+00  0.000000e+00
   outer loop
     vertex  4.385851e-01 -4.700409e-01  8.100000e-01
     vertex  4.385851e-01 -4.700409e-01  8.500000e-01
     vertex  3.614150e-01 -4.700419e-01  8.500000e-01
   endloop
 endfacet
 facet normal  9.927078e-01 -1.205455e-01 -2.660420e-19
   outer loop
     vertex  4.391832e-01 -4.651151e-01  8.100000e-01
     vertex  4.385851e-01 -4.700409e-01  8.500000e-01
     vertex  4.385851e-01 -4.700409e-01  8.100000e-01
   endloop
 endfacet
 facet normal  9.927078e-01 -1.205455e-01  0.000000e+00
   outer loop
     vertex  4.391832e-01 -4.651151e-01  8.100000e-01
     vertex  4.391832e-01 -4.651151e-01  8.500000e-01
     vertex  4.385851e-01 -4.700409e-01  8.500000e-01
   endloop
 endfacet
 facet normal -1.168231e-05  1.000000e+00  1.341013e-21
   outer loop
     vertex  3.608169e-01 -4.651160e-01  8.100000e-01
     vertex  4.391832e-01 -4.651151e-01  8.500000e-01
     vertex  4.391832e-01 -4.651151e-01  8.100000e-01
   endloop
 endfacet
 facet normal -1.168231e-05  1.000000e+00  0.000000e+00
   outer loop
     vertex  3.608169e-01 -4.651160e-01  8.100000e-01
     vertex  3.608169e-01 -4.651160e-01  8.500000e-01
     vertex  4.391832e-01 -4.651151e-01  8.500000e-01
   endloop
 endfacet
 facet normal -0.000000e+00  0.000000e+00 -1.000000e+00
   outer loop
     vertex  4.385851e-01 -4.700409e-01  8.100000e-01
     vertex  3.614150e-01 -4.700419e-01  8.100000e-01
     vertex  3.608169e-01 -4.651160e-01  8.100000e-01
   endloop
 endfacet
 facet normal  0.000000e+00  0.000000e+00 -1.000000e+00
   outer loop
     vertex  4.391832e-01 -4.651151e-01  8.100000e-01
     vertex  4.385851e-01 -4.700409e-01  8.100000e-01
     vertex  3.608169e-01 -4.651160e-01  8.100000e-01
   endloop
 endfacet
 facet normal  0.000000e+00  0.000000e+00  1.000000e+00
   outer loop
     vertex  4.385851e-01 -4.700409e-01  8.500000e-01
     vertex  3.608169e-01 -4.651160e-01  8.500000e-01
     vertex  3.614150e-01 -4.700419e-01  8.500000e-01
   endloop
 endfacet
 facet normal  0.000000e+00  0.000000e+00  1.000000e+00
   outer loop
     vertex  4.391832e-01 -4.651151e-01  8.500000e-01
     vertex  3.608169e-01 -4.651160e-01  8.500000e-01
     vertex  4.385851e-01 -4.700409e-01  8.500000e-01
   endloop
 endfacet
endsolid
