solid
 facet normal  9.210042e-06  1.000000e+00 -6.265456e-23
   outer loop
     vertex -3.024815e-01 -5.365648e-01  8.100000e-01
     vertex -2.975196e-01 -5.365649e-01  8.500000e-01
     vertex -2.975196e-01 -5.365649e-01  8.100000e-01
   endloop
 endfacet
 facet normal  9.210042e-06  1.000000e+00 -0.000000e+00
   outer loop
     vertex -3.024815e-01 -5.365648e-01  8.100000e-01
     vertex -3.024815e-01 -5.365648e-01  8.500000e-01
     vertex -2.975196e-01 -5.365649e-01  8.500000e-01
   endloop
 endfacet
 facet normal -2.085271e-01  9.780166e-01  1.123301e-16
   outer loop
     vertex -6.000000e-01 -6.000000e-01  8.100000e-01
     vertex -3.024815e-01 -5.365648e-01  8.500000e-01
     vertex -3.024815e-01 -5.365648e-01  8.100000e-01
   endloop
 endfacet
 facet normal -2.085271e-01  9.780166e-01  0.000000e+00
   outer loop
     vertex -6.000000e-01 -6.000000e-01  8.100000e-01
     vertex -6.000000e-01 -6.000000e-01  8.500000e-01
     vertex -3.024815e-01 -5.365648e-01  8.500000e-01
   endloop
 endfacet
 facet normal  2.052515e-01 -9.787093e-01 -1.118797e-16
   outer loop
     vertex -2.975196e-01 -5.365649e-01  8.100000e-01
     vertex -6.000000e-01 -6.000000e-01  8.500000e-01
     vertex -6.000000e-01 -6.000000e-01  8.100000e-01
   endloop
 endfacet
 facet normal  2.052515e-01 -9.787093e-01  0.000000e+00
   outer loop
     vertex -2.975196e-01 -5.365649e-01  8.100000e-01
     vertex -2.975196e-01 -5.365649e-01  8.500000e-01
     vertex -6.000000e-01 -6.000000e-01  8.500000e-01
   endloop
 endfacet
 facet normal  0.000000e+00  0.000000e+00 -1.000000e+00
   outer loop
     vertex -6.000000e-01 -6.000000e-01  8.100000e-01
     vertex -3.024815e-01 -5.365648e-01  8.100000e-01
     vertex -2.975196e-01 -5.365649e-01  8.100000e-01
   endloop
 endfacet
 facet normal  0.000000e+00  0.000000e+00  1.000000e+00
   outer loop
     vertex -6.000000e-01 -6.000000e-01  8.500000e-01
     vertex -2.975196e-01 -5.365649e-01  8.500000e-01
     vertex -3.024815e-01 -5.365648e-01  8.500000e-01
   endloop
 endfacet
endsolid
