solid
 facet normal  1.000000e+00  0.000000e+00  0.000000e+00
   outer loop
     vertex -5.361656e-01  2.925731e-01  8.100000e-01
     vertex -5.361656e-01  1.074269e-01  8.500000e-01
     vertex -5.361656e-01  1.074269e-01  8.100000e-01
   endloop
 endfacet
 facet normal  1.000000e+00  0.000000e+00 -0.000000e+00
   outer loop
     vertex -5.361656e-01  2.925731e-01  8.100000e-01
     vertex -5.361656e-01  2.925731e-01  8.500000e-01
     vertex -5.361656e-01  1.074269e-01  8.500000e-01
   endloop
 endfacet
 facet normal  9.967572e-01  8.046744e-02 -7.791185e-19
   outer loop
     vertex -5.365648e-01  2.975190e-01  8.100000e-01
     vertex -5.361656e-01  2.925731e-01  8.500000e-01
     vertex -5.361656e-01  2.925731e-01  8.100000e-01
   endloop
 endfacet
 facet normal  9.967572e-01  8.046744e-02 -0.000000e+00
   outer loop
     vertex -5.365648e-01  2.975190e-01  8.100000e-01
     vertex -5.365648e-01  2.975190e-01  8.500000e-01
     vertex -5.361656e-01  2.925731e-01  8.500000e-01
   endloop
 endfacet
 facet normal -1.000000e+00  0.000000e+00  0.000000e+00
   outer loop
     vertex -5.365648e-01  1.024810e-01  8.100000e-01
     vertex -5.365648e-01  2.975190e-01  8.500000e-01
     vertex -5.365648e-01  2.975190e-01  8.100000e-01
   endloop
 endfacet
 facet normal -1.000000e+00  0.000000e+00  0.000000e+00
   outer loop
     vertex -5.365648e-01  1.024810e-01  8.100000e-01
     vertex -5.365648e-01  1.024810e-01  8.500000e-01
     vertex -5.365648e-01  2.975190e-01  8.500000e-01
   endloop
 endfacet
 facet normal  9.967572e-01 -8.046744e-02  7.791185e-19
   outer loop
     vertex -5.361656e-01  1.074269e-01  8.100000e-01
     vertex -5.365648e-01  1.024810e-01  8.500000e-01
     vertex -5.365648e-01  1.024810e-01  8.100000e-01
   endloop
 endfacet
 facet normal  9.967572e-01 -8.046744e-02  0.000000e+00
   outer loop
     vertex -5.361656e-01  1.074269e-01  8.100000e-01
     vertex -5.361656e-01  1.074269e-01  8.500000e-01
     vertex -5.365648e-01  1.024810e-01  8.500000e-01
   endloop
 endfacet
 facet normal  0.000000e+00  0.000000e+00 -1.000000e+00
   outer loop
     vertex -5.365648e-01  2.975190e-01  8.100000e-01
     vertex -5.361656e-01  1.074269e-01  8.100000e-01
     vertex -5.365648e-01  1.024810e-01  8.100000e-01
   endloop
 endfacet
 facet normal  0.000000e+00  0.000000e+00 -1.000000e+00
   outer loop
     vertex -5.365648e-01  2.975190e-01  8.100000e-01
     vertex -5.361656e-01  2.925731e-01  8.100000e-01
     vertex -5.361656e-01  1.074269e-01  8.100000e-01
   endloop
 endfacet
 facet normal  0.000000e+00  0.000000e+00  1.000000e+00
   outer loop
     vertex -5.365648e-01  2.975190e-01  8.500000e-01
     vertex -5.365648e-01  1.024810e-01  8.500000e-01
     vertex -5.361656e-01  1.074269e-01  8.500000e-01
   endloop
 endfacet
 facet normal  0.000000e+00  0.000000e+00  1.000000e+00
   outer loop
     vertex -5.365648e-01  2.975190e-01  8.500000e-01
     vertex -5.361656e-01  1.074269e-01  8.500000e-01
     vertex -5.361656e-01  2.925731e-01  8.500000e-01
   endloop
 endfacet
endsolid
