solid
 facet normal  4.999915e-01  8.660303e-01  2.140749e-18
   outer loop
     vertex -5.079305e-01 -1.520765e-01  8.100000e-01
     vertex -5.036333e-01 -1.545575e-01  8.500000e-01
     vertex -5.036333e-01 -1.545575e-01  8.100000e-01
   endloop
 endfacet
 facet normal  4.999915e-01  8.660303e-01 -0.000000e+00
   outer loop
     vertex -5.079305e-01 -1.520765e-01  8.100000e-01
     vertex -5.079305e-01 -1.520765e-01  8.500000e-01
     vertex -5.036333e-01 -1.545575e-01  8.500000e-01
   endloop
 endfacet
 facet normal -1.000000e+00  0.000000e+00  0.000000e+00
   outer loop
     vertex -5.079305e-01 -2.479235e-01  8.100000e-01
     vertex -5.079305e-01 -1.520765e-01  8.500000e-01
     vertex -5.079305e-01 -1.520765e-01  8.100000e-01
   endloop
 endfacet
 facet normal -1.000000e+00  0.000000e+00  0.000000e+00
   outer loop
     vertex -5.079305e-01 -2.479235e-01  8.100000e-01
     vertex -5.079305e-01 -2.479235e-01  8.500000e-01
     vertex -5.079305e-01 -1.520765e-01  8.500000e-01
   endloop
 endfacet
 facet normal  4.999915e-01 -8.660303e-01  2.929161e-18
   outer loop
     vertex -5.036333e-01 -2.454425e-01  8.100000e-01
     vertex -5.079305e-01 -2.479235e-01  8.500000e-01
     vertex -5.079305e-01 -2.479235e-01  8.100000e-01
   endloop
 endfacet
 facet normal  4.999915e-01 -8.660303e-01  0.000000e+00
   outer loop
     vertex -5.036333e-01 -2.454425e-01  8.100000e-01
     vertex -5.036333e-01 -2.454425e-01  8.500000e-01
     vertex -5.079305e-01 -2.479235e-01  8.500000e-01
   endloop
 endfacet
 facet normal  1.000000e+00  0.000000e+00  0.000000e+00
   outer loop
     vertex -5.036333e-01 -1.545575e-01  8.100000e-01
     vertex -5.036333e-01 -2.454425e-01  8.500000e-01
     vertex -5.036333e-01 -2.454425e-01  8.100000e-01
   endloop
 endfacet
 facet normal  1.000000e+00  0.000000e+00 -0.000000e+00
   outer loop
     vertex -5.036333e-01 -1.545575e-01  8.100000e-01
     vertex -5.036333e-01 -1.545575e-01  8.500000e-01
     vertex -5.036333e-01 -2.454425e-01  8.500000e-01
   endloop
 endfacet
 facet normal -0.000000e+00  0.000000e+00 -1.000000e+00
   outer loop
     vertex -5.036333e-01 -1.545575e-01  8.100000e-01
     vertex -5.079305e-01 -2.479235e-01  8.100000e-01
     vertex -5.079305e-01 -1.520765e-01  8.100000e-01
   endloop
 endfacet
 facet normal  0.000000e+00 -0.000000e+00 -1.000000e+00
   outer loop
     vertex -5.036333e-01 -1.545575e-01  8.100000e-01
     vertex -5.036333e-01 -2.454425e-01  8.100000e-01
     vertex -5.079305e-01 -2.479235e-01  8.100000e-01
   endloop
 endfacet
 facet normal  0.000000e+00  0.000000e+00  1.000000e+00
   outer loop
     vertex -5.036333e-01 -1.545575e-01  8.500000e-01
     vertex -5.079305e-01 -1.520765e-01  8.500000e-01
     vertex -5.079305e-01 -2.479235e-01  8.500000e-01
   endloop
 endfacet
 facet normal  0.000000e+00  0.000000e+00  1.000000e+00
   outer loop
     vertex -5.036333e-01 -1.545575e-01  8.500000e-01
     vertex -5.079305e-01 -2.479235e-01  8.500000e-01
     vertex -5.036333e-01 -2.454425e-01  8.500000e-01
   endloop
 endfacet
endsolid
