solid
 facet normal  6.007515e-01  7.994358e-01 -2.624700e-18
   outer loop
     vertex -3.389686e-01 -5.227266e-01  8.100000e-01
     vertex -3.350018e-01 -5.257076e-01  8.500000e-01
     vertex -3.350018e-01 -5.257076e-01  8.100000e-01
   endloop
 endfacet
 facet normal  6.007515e-01  7.994358e-01 -0.000000e+00
   outer loop
     vertex -3.389686e-01 -5.227266e-01  8.100000e-01
     vertex -3.389686e-01 -5.227266e-01  8.500000e-01
     vertex -3.350018e-01 -5.257076e-01  8.500000e-01
   endloop
 endfacet
 facet normal -2.838544e-01  9.588674e-01 -5.021926e-17
   outer loop
     vertex -6.000000e-01 -6.000000e-01  8.100000e-01
     vertex -3.389686e-01 -5.227266e-01  8.500000e-01
     vertex -3.389686e-01 -5.227266e-01  8.100000e-01
   endloop
 endfacet
 facet normal -2.838544e-01  9.588674e-01  0.000000e+00
   outer loop
     vertex -6.000000e-01 -6.000000e-01  8.100000e-01
     vertex -6.000000e-01 -6.000000e-01  8.500000e-01
     vertex -3.389686e-01 -5.227266e-01  8.500000e-01
   endloop
 endfacet
 facet normal  2.699431e-01 -9.628763e-01  1.074126e-16
   outer loop
     vertex -3.350018e-01 -5.257076e-01  8.100000e-01
     vertex -6.000000e-01 -6.000000e-01  8.500000e-01
     vertex -6.000000e-01 -6.000000e-01  8.100000e-01
   endloop
 endfacet
 facet normal  2.699431e-01 -9.628763e-01  0.000000e+00
   outer loop
     vertex -3.350018e-01 -5.257076e-01  8.100000e-01
     vertex -3.350018e-01 -5.257076e-01  8.500000e-01
     vertex -6.000000e-01 -6.000000e-01  8.500000e-01
   endloop
 endfacet
 facet normal -0.000000e+00  0.000000e+00 -1.000000e+00
   outer loop
     vertex -3.350018e-01 -5.257076e-01  8.100000e-01
     vertex -6.000000e-01 -6.000000e-01  8.100000e-01
     vertex -3.389686e-01 -5.227266e-01  8.100000e-01
   endloop
 endfacet
 facet normal  0.000000e+00  0.000000e+00  1.000000e+00
   outer loop
     vertex -3.350018e-01 -5.257076e-01  8.500000e-01
     vertex -3.389686e-01 -5.227266e-01  8.500000e-01
     vertex -6.000000e-01 -6.000000e-01  8.500000e-01
   endloop
 endfacet
endsolid
