solid
 facet normal -4.002101e-01  9.164234e-01 -5.767040e-17
   outer loop
     vertex -6.000000e-01 -6.000000e-01  8.100000e-01
     vertex -3.584442e-01 -4.945105e-01  8.500000e-01
     vertex -3.584442e-01 -4.945105e-01  8.100000e-01
   endloop
 endfacet
 facet normal -4.002101e-01  9.164234e-01  0.000000e+00
   outer loop
     vertex -6.000000e-01 -6.000000e-01  8.100000e-01
     vertex -6.000000e-01 -6.000000e-01  8.500000e-01
     vertex -3.584442e-01 -4.945105e-01  8.500000e-01
   endloop
 endfacet
 facet normal  3.828956e-01 -9.237916e-01  6.507380e-17
   outer loop
     vertex -3.566847e-01 -4.991501e-01  8.100000e-01
     vertex -6.000000e-01 -6.000000e-01  8.500000e-01
     vertex -6.000000e-01 -6.000000e-01  8.100000e-01
   endloop
 endfacet
 facet normal  3.828956e-01 -9.237916e-01  0.000000e+00
   outer loop
     vertex -3.566847e-01 -4.991501e-01  8.100000e-01
     vertex -3.566847e-01 -4.991501e-01  8.500000e-01
     vertex -6.000000e-01 -6.000000e-01  8.500000e-01
   endloop
 endfacet
 facet normal  9.350215e-01  3.545910e-01  3.605479e-18
   outer loop
     vertex -3.584442e-01 -4.945105e-01  8.100000e-01
     vertex -3.566847e-01 -4.991501e-01  8.500000e-01
     vertex -3.566847e-01 -4.991501e-01  8.100000e-01
   endloop
 endfacet
 facet normal  9.350215e-01  3.545910e-01 -0.000000e+00
   outer loop
     vertex -3.584442e-01 -4.945105e-01  8.100000e-01
     vertex -3.584442e-01 -4.945105e-01  8.500000e-01
     vertex -3.566847e-01 -4.991501e-01  8.500000e-01
   endloop
 endfacet
 facet normal  0.000000e+00 -0.000000e+00 -1.000000e+00
   outer loop
     vertex -3.584442e-01 -4.945105e-01  8.100000e-01
     vertex -3.566847e-01 -4.991501e-01  8.100000e-01
     vertex -6.000000e-01 -6.000000e-01  8.100000e-01
   endloop
 endfacet
 facet normal  0.000000e+00  0.000000e+00  1.000000e+00
   outer loop
     vertex -3.584442e-01 -4.945105e-01  8.500000e-01
     vertex -6.000000e-01 -6.000000e-01  8.500000e-01
     vertex -3.566847e-01 -4.991501e-01  8.500000e-01
   endloop
 endfacet
endsolid
