solid
 facet normal  4.025339e-02  9.991895e-01  7.241664e-20
   outer loop
     vertex -4.799571e-01 -3.614151e-01  8.100000e-01
     vertex -4.749991e-01 -3.616148e-01  8.500000e-01
     vertex -4.749991e-01 -3.616148e-01  8.100000e-01
   endloop
 endfacet
 facet normal  4.025339e-02  9.991895e-01 -0.000000e+00
   outer loop
     vertex -4.799571e-01 -3.614151e-01  8.100000e-01
     vertex -4.799571e-01 -3.614151e-01  8.500000e-01
     vertex -4.749991e-01 -3.616148e-01  8.500000e-01
   endloop
 endfacet
 facet normal -7.071061e-01 -7.071074e-01 -1.173426e-16
   outer loop
     vertex -3.614151e-01 -4.799568e-01  8.100000e-01
     vertex -4.799571e-01 -3.614151e-01  8.500000e-01
     vertex -4.799571e-01 -3.614151e-01  8.100000e-01
   endloop
 endfacet
 facet normal -7.071061e-01 -7.071074e-01  0.000000e+00
   outer loop
     vertex -3.614151e-01 -4.799568e-01  8.100000e-01
     vertex -3.614151e-01 -4.799568e-01  8.500000e-01
     vertex -4.799571e-01 -3.614151e-01  8.500000e-01
   endloop
 endfacet
 facet normal  9.991896e-01  4.025044e-02 -3.460702e-20
   outer loop
     vertex -3.616148e-01 -4.749989e-01  8.100000e-01
     vertex -3.614151e-01 -4.799568e-01  8.500000e-01
     vertex -3.614151e-01 -4.799568e-01  8.100000e-01
   endloop
 endfacet
 facet normal  9.991896e-01  4.025044e-02 -0.000000e+00
   outer loop
     vertex -3.616148e-01 -4.749989e-01  8.100000e-01
     vertex -3.616148e-01 -4.749989e-01  8.500000e-01
     vertex -3.614151e-01 -4.799568e-01  8.500000e-01
   endloop
 endfacet
 facet normal  7.071061e-01  7.071074e-01 -7.144590e-17
   outer loop
     vertex -4.749991e-01 -3.616148e-01  8.100000e-01
     vertex -3.616148e-01 -4.749989e-01  8.500000e-01
     vertex -3.616148e-01 -4.749989e-01  8.100000e-01
   endloop
 endfacet
 facet normal  7.071061e-01  7.071074e-01 -0.000000e+00
   outer loop
     vertex -4.749991e-01 -3.616148e-01  8.100000e-01
     vertex -4.749991e-01 -3.616148e-01  8.500000e-01
     vertex -3.616148e-01 -4.749989e-01  8.500000e-01
   endloop
 endfacet
 facet normal -0.000000e+00 -0.000000e+00 -1.000000e+00
   outer loop
     vertex -4.749991e-01 -3.616148e-01  8.100000e-01
     vertex -3.614151e-01 -4.799568e-01  8.100000e-01
     vertex -4.799571e-01 -3.614151e-01  8.100000e-01
   endloop
 endfacet
 facet normal -0.000000e+00 -0.000000e+00 -1.000000e+00
   outer loop
     vertex -3.616148e-01 -4.749989e-01  8.100000e-01
     vertex -3.614151e-01 -4.799568e-01  8.100000e-01
     vertex -4.749991e-01 -3.616148e-01  8.100000e-01
   endloop
 endfacet
 facet normal  0.000000e+00  0.000000e+00  1.000000e+00
   outer loop
     vertex -4.749991e-01 -3.616148e-01  8.500000e-01
     vertex -4.799571e-01 -3.614151e-01  8.500000e-01
     vertex -3.614151e-01 -4.799568e-01  8.500000e-01
   endloop
 endfacet
 facet normal  0.000000e+00  0.000000e+00  1.000000e+00
   outer loop
     vertex -3.616148e-01 -4.749989e-01  8.500000e-01
     vertex -4.749991e-01 -3.616148e-01  8.500000e-01
     vertex -3.614151e-01 -4.799568e-01  8.500000e-01
   endloop
 endfacet
endsolid
