solid
 facet normal  6.007515e-01  7.994358e-01  1.151046e-19
   outer loop
     vertex  2.610314e-01 -5.227266e-01  8.100000e-01
     vertex  2.649982e-01 -5.257076e-01  8.500000e-01
     vertex  2.649982e-01 -5.257076e-01  8.100000e-01
   endloop
 endfacet
 facet normal  6.007515e-01  7.994358e-01 -0.000000e+00
   outer loop
     vertex  2.610314e-01 -5.227266e-01  8.100000e-01
     vertex  2.610314e-01 -5.227266e-01  8.500000e-01
     vertex  2.649982e-01 -5.257076e-01  8.500000e-01
   endloop
 endfacet
 facet normal -5.812544e-06  1.000000e+00  3.563621e-22
   outer loop
     vertex  1.389678e-01 -5.227273e-01  8.100000e-01
     vertex  2.610314e-01 -5.227266e-01  8.500000e-01
     vertex  2.610314e-01 -5.227266e-01  8.100000e-01
   endloop
 endfacet
 facet normal -5.812544e-06  1.000000e+00  0.000000e+00
   outer loop
     vertex  1.389678e-01 -5.227273e-01  8.100000e-01
     vertex  1.389678e-01 -5.227273e-01  8.500000e-01
     vertex  2.610314e-01 -5.227266e-01  8.500000e-01
   endloop
 endfacet
 facet normal -6.007358e-01  7.994476e-01  2.025082e-18
   outer loop
     vertex  1.350009e-01 -5.257082e-01  8.100000e-01
     vertex  1.389678e-01 -5.227273e-01  8.500000e-01
     vertex  1.389678e-01 -5.227273e-01  8.100000e-01
   endloop
 endfacet
 facet normal -6.007358e-01  7.994476e-01  0.000000e+00
   outer loop
     vertex  1.350009e-01 -5.257082e-01  8.100000e-01
     vertex  1.350009e-01 -5.257082e-01  8.500000e-01
     vertex  1.389678e-01 -5.227273e-01  8.500000e-01
   endloop
 endfacet
 facet normal  4.870872e-06 -1.000000e+00  1.494130e-22
   outer loop
     vertex  2.649982e-01 -5.257076e-01  8.100000e-01
     vertex  1.350009e-01 -5.257082e-01  8.500000e-01
     vertex  1.350009e-01 -5.257082e-01  8.100000e-01
   endloop
 endfacet
 facet normal  4.870872e-06 -1.000000e+00  0.000000e+00
   outer loop
     vertex  2.649982e-01 -5.257076e-01  8.100000e-01
     vertex  2.649982e-01 -5.257076e-01  8.500000e-01
     vertex  1.350009e-01 -5.257082e-01  8.500000e-01
   endloop
 endfacet
 facet normal  0.000000e+00  0.000000e+00 -1.000000e+00
   outer loop
     vertex  2.649982e-01 -5.257076e-01  8.100000e-01
     vertex  1.389678e-01 -5.227273e-01  8.100000e-01
     vertex  2.610314e-01 -5.227266e-01  8.100000e-01
   endloop
 endfacet
 facet normal -0.000000e+00  0.000000e+00 -1.000000e+00
   outer loop
     vertex  2.649982e-01 -5.257076e-01  8.100000e-01
     vertex  1.350009e-01 -5.257082e-01  8.100000e-01
     vertex  1.389678e-01 -5.227273e-01  8.100000e-01
   endloop
 endfacet
 facet normal  0.000000e+00  0.000000e+00  1.000000e+00
   outer loop
     vertex  2.649982e-01 -5.257076e-01  8.500000e-01
     vertex  2.610314e-01 -5.227266e-01  8.500000e-01
     vertex  1.389678e-01 -5.227273e-01  8.500000e-01
   endloop
 endfacet
 facet normal  0.000000e+00  0.000000e+00  1.000000e+00
   outer loop
     vertex  2.649982e-01 -5.257076e-01  8.500000e-01
     vertex  1.389678e-01 -5.227273e-01  8.500000e-01
     vertex  1.350009e-01 -5.257082e-01  8.500000e-01
   endloop
 endfacet
endsolid
