solid
 facet normal  1.413489e-01  9.899598e-01  8.023964e-19
   outer loop
     vertex -4.272720e-01 -3.389669e-01  8.100000e-01
     vertex -3.500000e-01 -3.500000e-01  8.500000e-01
     vertex -3.500000e-01 -3.500000e-01  8.100000e-01
   endloop
 endfacet
 facet normal  1.413489e-01  9.899598e-01 -0.000000e+00
   outer loop
     vertex -4.272720e-01 -3.389669e-01  8.100000e-01
     vertex -4.272720e-01 -3.389669e-01  8.500000e-01
     vertex -3.500000e-01 -3.500000e-01  8.500000e-01
   endloop
 endfacet
 facet normal -7.485233e-01  6.631085e-01  1.699813e-18
   outer loop
     vertex -4.305623e-01 -3.426811e-01  8.100000e-01
     vertex -4.272720e-01 -3.389669e-01  8.500000e-01
     vertex -4.272720e-01 -3.389669e-01  8.100000e-01
   endloop
 endfacet
 facet normal -7.485233e-01  6.631085e-01  0.000000e+00
   outer loop
     vertex -4.305623e-01 -3.426811e-01  8.100000e-01
     vertex -4.305623e-01 -3.426811e-01  8.500000e-01
     vertex -4.272720e-01 -3.389669e-01  8.500000e-01
   endloop
 endfacet
 facet normal -9.047522e-02 -9.958987e-01  1.037753e-17
   outer loop
     vertex -3.500000e-01 -3.500000e-01  8.100000e-01
     vertex -4.305623e-01 -3.426811e-01  8.500000e-01
     vertex -4.305623e-01 -3.426811e-01  8.100000e-01
   endloop
 endfacet
 facet normal -9.047522e-02 -9.958987e-01  0.000000e+00
   outer loop
     vertex -3.500000e-01 -3.500000e-01  8.100000e-01
     vertex -3.500000e-01 -3.500000e-01  8.500000e-01
     vertex -4.305623e-01 -3.426811e-01  8.500000e-01
   endloop
 endfacet
 facet normal  0.000000e+00  0.000000e+00 -1.000000e+00
   outer loop
     vertex -3.500000e-01 -3.500000e-01  8.100000e-01
     vertex -4.305623e-01 -3.426811e-01  8.100000e-01
     vertex -4.272720e-01 -3.389669e-01  8.100000e-01
   endloop
 endfacet
 facet normal  0.000000e+00  0.000000e+00  1.000000e+00
   outer loop
     vertex -3.500000e-01 -3.500000e-01  8.500000e-01
     vertex -4.272720e-01 -3.389669e-01  8.500000e-01
     vertex -4.305623e-01 -3.426811e-01  8.500000e-01
   endloop
 endfacet
endsolid
