solid
 facet normal  1.000000e+00  0.000000e+00  0.000000e+00
   outer loop
     vertex -5.227269e-01 -1.389683e-01  8.100000e-01
     vertex -5.227269e-01 -2.610317e-01  8.500000e-01
     vertex -5.227269e-01 -2.610317e-01  8.100000e-01
   endloop
 endfacet
 facet normal  1.000000e+00  0.000000e+00 -0.000000e+00
   outer loop
     vertex -5.227269e-01 -1.389683e-01  8.100000e-01
     vertex -5.227269e-01 -1.389683e-01  8.500000e-01
     vertex -5.227269e-01 -2.610317e-01  8.500000e-01
   endloop
 endfacet
 facet normal  7.994395e-01  6.007466e-01  2.851416e-18
   outer loop
     vertex -5.257078e-01 -1.350015e-01  8.100000e-01
     vertex -5.227269e-01 -1.389683e-01  8.500000e-01
     vertex -5.227269e-01 -1.389683e-01  8.100000e-01
   endloop
 endfacet
 facet normal  7.994395e-01  6.007466e-01 -0.000000e+00
   outer loop
     vertex -5.257078e-01 -1.350015e-01  8.100000e-01
     vertex -5.257078e-01 -1.350015e-01  8.500000e-01
     vertex -5.227269e-01 -1.389683e-01  8.500000e-01
   endloop
 endfacet
 facet normal -1.000000e+00  0.000000e+00  0.000000e+00
   outer loop
     vertex -5.257078e-01 -2.649985e-01  8.100000e-01
     vertex -5.257078e-01 -1.350015e-01  8.500000e-01
     vertex -5.257078e-01 -1.350015e-01  8.100000e-01
   endloop
 endfacet
 facet normal -1.000000e+00  0.000000e+00  0.000000e+00
   outer loop
     vertex -5.257078e-01 -2.649985e-01  8.100000e-01
     vertex -5.257078e-01 -2.649985e-01  8.500000e-01
     vertex -5.257078e-01 -1.350015e-01  8.500000e-01
   endloop
 endfacet
 facet normal  7.994395e-01 -6.007466e-01 -4.223454e-18
   outer loop
     vertex -5.227269e-01 -2.610317e-01  8.100000e-01
     vertex -5.257078e-01 -2.649985e-01  8.500000e-01
     vertex -5.257078e-01 -2.649985e-01  8.100000e-01
   endloop
 endfacet
 facet normal  7.994395e-01 -6.007466e-01  0.000000e+00
   outer loop
     vertex -5.227269e-01 -2.610317e-01  8.100000e-01
     vertex -5.227269e-01 -2.610317e-01  8.500000e-01
     vertex -5.257078e-01 -2.649985e-01  8.500000e-01
   endloop
 endfacet
 facet normal  0.000000e+00  0.000000e+00 -1.000000e+00
   outer loop
     vertex -5.257078e-01 -1.350015e-01  8.100000e-01
     vertex -5.227269e-01 -1.389683e-01  8.100000e-01
     vertex -5.257078e-01 -2.649985e-01  8.100000e-01
   endloop
 endfacet
 facet normal  0.000000e+00 -0.000000e+00 -1.000000e+00
   outer loop
     vertex -5.227269e-01 -1.389683e-01  8.100000e-01
     vertex -5.227269e-01 -2.610317e-01  8.100000e-01
     vertex -5.257078e-01 -2.649985e-01  8.100000e-01
   endloop
 endfacet
 facet normal  0.000000e+00  0.000000e+00  1.000000e+00
   outer loop
     vertex -5.257078e-01 -1.350015e-01  8.500000e-01
     vertex -5.257078e-01 -2.649985e-01  8.500000e-01
     vertex -5.227269e-01 -1.389683e-01  8.500000e-01
   endloop
 endfacet
 facet normal  0.000000e+00  0.000000e+00  1.000000e+00
   outer loop
     vertex -5.227269e-01 -1.389683e-01  8.500000e-01
     vertex -5.257078e-01 -2.649985e-01  8.500000e-01
     vertex -5.227269e-01 -2.610317e-01  8.500000e-01
   endloop
 endfacet
endsolid
