solid
 facet normal  4.027180e-02  9.991888e-01 -5.087823e-19
   outer loop
     vertex -4.799571e-01  4.385850e-01  8.100000e-01
     vertex -4.749991e-01  4.383851e-01  8.500000e-01
     vertex -4.749991e-01  4.383851e-01  8.100000e-01
   endloop
 endfacet
 facet normal  4.027180e-02  9.991888e-01 -0.000000e+00
   outer loop
     vertex -4.799571e-01  4.385850e-01  8.100000e-01
     vertex -4.799571e-01  4.385850e-01  8.500000e-01
     vertex -4.749991e-01  4.383851e-01  8.500000e-01
   endloop
 endfacet
 facet normal -1.000000e+00  0.000000e+00  0.000000e+00
   outer loop
     vertex -4.799571e-01  3.614151e-01  8.100000e-01
     vertex -4.799571e-01  4.385850e-01  8.500000e-01
     vertex -4.799571e-01  4.385850e-01  8.100000e-01
   endloop
 endfacet
 facet normal -1.000000e+00  0.000000e+00  0.000000e+00
   outer loop
     vertex -4.799571e-01  3.614151e-01  8.100000e-01
     vertex -4.799571e-01  3.614151e-01  8.500000e-01
     vertex -4.799571e-01  4.385850e-01  8.500000e-01
   endloop
 endfacet
 facet normal  4.024724e-02 -9.991898e-01 -3.289837e-19
   outer loop
     vertex -4.749991e-01  3.616148e-01  8.100000e-01
     vertex -4.799571e-01  3.614151e-01  8.500000e-01
     vertex -4.799571e-01  3.614151e-01  8.100000e-01
   endloop
 endfacet
 facet normal  4.024724e-02 -9.991898e-01  0.000000e+00
   outer loop
     vertex -4.749991e-01  3.616148e-01  8.100000e-01
     vertex -4.749991e-01  3.616148e-01  8.500000e-01
     vertex -4.799571e-01  3.614151e-01  8.500000e-01
   endloop
 endfacet
 facet normal  1.000000e+00  0.000000e+00  0.000000e+00
   outer loop
     vertex -4.749991e-01  4.383851e-01  8.100000e-01
     vertex -4.749991e-01  3.616148e-01  8.500000e-01
     vertex -4.749991e-01  3.616148e-01  8.100000e-01
   endloop
 endfacet
 facet normal  1.000000e+00  0.000000e+00 -0.000000e+00
   outer loop
     vertex -4.749991e-01  4.383851e-01  8.100000e-01
     vertex -4.749991e-01  4.383851e-01  8.500000e-01
     vertex -4.749991e-01  3.616148e-01  8.500000e-01
   endloop
 endfacet
 facet normal -0.000000e+00  0.000000e+00 -1.000000e+00
   outer loop
     vertex -4.749991e-01  4.383851e-01  8.100000e-01
     vertex -4.799571e-01  3.614151e-01  8.100000e-01
     vertex -4.799571e-01  4.385850e-01  8.100000e-01
   endloop
 endfacet
 facet normal  0.000000e+00 -0.000000e+00 -1.000000e+00
   outer loop
     vertex -4.749991e-01  4.383851e-01  8.100000e-01
     vertex -4.749991e-01  3.616148e-01  8.100000e-01
     vertex -4.799571e-01  3.614151e-01  8.100000e-01
   endloop
 endfacet
 facet normal  0.000000e+00  0.000000e+00  1.000000e+00
   outer loop
     vertex -4.749991e-01  4.383851e-01  8.500000e-01
     vertex -4.799571e-01  4.385850e-01  8.500000e-01
     vertex -4.799571e-01  3.614151e-01  8.500000e-01
   endloop
 endfacet
 facet normal  0.000000e+00  0.000000e+00  1.000000e+00
   outer loop
     vertex -4.749991e-01  4.383851e-01  8.500000e-01
     vertex -4.799571e-01  3.614151e-01  8.500000e-01
     vertex -4.749991e-01  3.616148e-01  8.500000e-01
   endloop
 endfacet
endsolid
