solid
 facet normal -9.034478e-01  4.286981e-01 -3.860812e-18
   outer loop
     vertex  5.545571e-01 -5.036340e-01  8.100000e-01
     vertex  5.566843e-01 -4.991511e-01  8.500000e-01
     vertex  5.566843e-01 -4.991511e-01  8.100000e-01
   endloop
 endfacet
 facet normal -9.034478e-01  4.286981e-01  0.000000e+00
   outer loop
     vertex  5.545571e-01 -5.036340e-01  8.100000e-01
     vertex  5.545571e-01 -5.036340e-01  8.500000e-01
     vertex  5.566843e-01 -4.991511e-01  8.500000e-01
   endloop
 endfacet
 facet normal -9.044779e-01 -4.265204e-01 -1.889822e-17
   outer loop
     vertex  6.000000e-01 -6.000000e-01  8.100000e-01
     vertex  5.545571e-01 -5.036340e-01  8.500000e-01
     vertex  5.545571e-01 -5.036340e-01  8.100000e-01
   endloop
 endfacet
 facet normal -9.044779e-01 -4.265204e-01  0.000000e+00
   outer loop
     vertex  6.000000e-01 -6.000000e-01  8.100000e-01
     vertex  6.000000e-01 -6.000000e-01  8.500000e-01
     vertex  5.545571e-01 -5.036340e-01  8.500000e-01
   endloop
 endfacet
 facet normal  9.188323e-01  3.946482e-01  7.951897e-17
   outer loop
     vertex  5.566843e-01 -4.991511e-01  8.100000e-01
     vertex  6.000000e-01 -6.000000e-01  8.500000e-01
     vertex  6.000000e-01 -6.000000e-01  8.100000e-01
   endloop
 endfacet
 facet normal  9.188323e-01  3.946482e-01 -0.000000e+00
   outer loop
     vertex  5.566843e-01 -4.991511e-01  8.100000e-01
     vertex  5.566843e-01 -4.991511e-01  8.500000e-01
     vertex  6.000000e-01 -6.000000e-01  8.500000e-01
   endloop
 endfacet
 facet normal  0.000000e+00 -0.000000e+00 -1.000000e+00
   outer loop
     vertex  5.566843e-01 -4.991511e-01  8.100000e-01
     vertex  6.000000e-01 -6.000000e-01  8.100000e-01
     vertex  5.545571e-01 -5.036340e-01  8.100000e-01
   endloop
 endfacet
 facet normal  0.000000e+00  0.000000e+00  1.000000e+00
   outer loop
     vertex  5.566843e-01 -4.991511e-01  8.500000e-01
     vertex  5.545571e-01 -5.036340e-01  8.500000e-01
     vertex  6.000000e-01 -6.000000e-01  8.500000e-01
   endloop
 endfacet
endsolid
