solid
 facet normal -3.546241e-01  9.350090e-01 -2.441793e-18
   outer loop
     vertex -4.554875e-01 -3.584436e-01  8.100000e-01
     vertex -4.508480e-01 -3.566839e-01  8.500000e-01
     vertex -4.508480e-01 -3.566839e-01  8.100000e-01
   endloop
 endfacet
 facet normal -3.546241e-01  9.350090e-01  0.000000e+00
   outer loop
     vertex -4.554875e-01 -3.584436e-01  8.100000e-01
     vertex -4.554875e-01 -3.584436e-01  8.500000e-01
     vertex -4.508480e-01 -3.566839e-01  8.500000e-01
   endloop
 endfacet
 facet normal -7.071062e-01 -7.071074e-01 -3.963475e-17
   outer loop
     vertex -3.584435e-01 -4.554874e-01  8.100000e-01
     vertex -4.554875e-01 -3.584436e-01  8.500000e-01
     vertex -4.554875e-01 -3.584436e-01  8.100000e-01
   endloop
 endfacet
 facet normal -7.071062e-01 -7.071074e-01  0.000000e+00
   outer loop
     vertex -3.584435e-01 -4.554874e-01  8.100000e-01
     vertex -3.584435e-01 -4.554874e-01  8.500000e-01
     vertex -4.554875e-01 -3.584436e-01  8.500000e-01
   endloop
 endfacet
 facet normal  9.350090e-01 -3.546241e-01 -1.552027e-18
   outer loop
     vertex -3.566839e-01 -4.508479e-01  8.100000e-01
     vertex -3.584435e-01 -4.554874e-01  8.500000e-01
     vertex -3.584435e-01 -4.554874e-01  8.100000e-01
   endloop
 endfacet
 facet normal  9.350090e-01 -3.546241e-01  0.000000e+00
   outer loop
     vertex -3.566839e-01 -4.508479e-01  8.100000e-01
     vertex -3.566839e-01 -4.508479e-01  8.500000e-01
     vertex -3.584435e-01 -4.554874e-01  8.500000e-01
   endloop
 endfacet
 facet normal  7.071062e-01  7.071074e-01  1.085776e-16
   outer loop
     vertex -4.508480e-01 -3.566839e-01  8.100000e-01
     vertex -3.566839e-01 -4.508479e-01  8.500000e-01
     vertex -3.566839e-01 -4.508479e-01  8.100000e-01
   endloop
 endfacet
 facet normal  7.071062e-01  7.071074e-01 -0.000000e+00
   outer loop
     vertex -4.508480e-01 -3.566839e-01  8.100000e-01
     vertex -4.508480e-01 -3.566839e-01  8.500000e-01
     vertex -3.566839e-01 -4.508479e-01  8.500000e-01
   endloop
 endfacet
 facet normal  0.000000e+00 -0.000000e+00 -1.000000e+00
   outer loop
     vertex -4.508480e-01 -3.566839e-01  8.100000e-01
     vertex -3.584435e-01 -4.554874e-01  8.100000e-01
     vertex -4.554875e-01 -3.584436e-01  8.100000e-01
   endloop
 endfacet
 facet normal -0.000000e+00  0.000000e+00 -1.000000e+00
   outer loop
     vertex -3.566839e-01 -4.508479e-01  8.100000e-01
     vertex -3.584435e-01 -4.554874e-01  8.100000e-01
     vertex -4.508480e-01 -3.566839e-01  8.100000e-01
   endloop
 endfacet
 facet normal  0.000000e+00  0.000000e+00  1.000000e+00
   outer loop
     vertex -4.508480e-01 -3.566839e-01  8.500000e-01
     vertex -4.554875e-01 -3.584436e-01  8.500000e-01
     vertex -3.584435e-01 -4.554874e-01  8.500000e-01
   endloop
 endfacet
 facet normal  0.000000e+00  0.000000e+00  1.000000e+00
   outer loop
     vertex -3.566839e-01 -4.508479e-01  8.500000e-01
     vertex -4.508480e-01 -3.566839e-01  8.500000e-01
     vertex -3.584435e-01 -4.554874e-01  8.500000e-01
   endloop
 endfacet
endsolid
