solid
 facet normal -2.935540e-01  9.559425e-01  1.223831e-17
   outer loop
     vertex -4.749991e-01  5.616149e-01  8.100000e-01
     vertex -3.500000e-01  6.000000e-01  8.500000e-01
     vertex -3.500000e-01  6.000000e-01  8.100000e-01
   endloop
 endfacet
 facet normal -2.935540e-01  9.559425e-01  0.000000e+00
   outer loop
     vertex -4.749991e-01  5.616149e-01  8.100000e-01
     vertex -4.749991e-01  5.616149e-01  8.500000e-01
     vertex -3.500000e-01  6.000000e-01  8.500000e-01
   endloop
 endfacet
 facet normal -4.029649e-02 -9.991878e-01  5.003989e-19
   outer loop
     vertex -4.700411e-01  5.614149e-01  8.100000e-01
     vertex -4.749991e-01  5.616149e-01  8.500000e-01
     vertex -4.749991e-01  5.616149e-01  8.100000e-01
   endloop
 endfacet
 facet normal -4.029649e-02 -9.991878e-01  0.000000e+00
   outer loop
     vertex -4.700411e-01  5.614149e-01  8.100000e-01
     vertex -4.700411e-01  5.614149e-01  8.500000e-01
     vertex -4.749991e-01  5.616149e-01  8.500000e-01
   endloop
 endfacet
 facet normal  3.060123e-01 -9.520276e-01  3.901414e-17
   outer loop
     vertex -3.500000e-01  6.000000e-01  8.100000e-01
     vertex -4.700411e-01  5.614149e-01  8.500000e-01
     vertex -4.700411e-01  5.614149e-01  8.100000e-01
   endloop
 endfacet
 facet normal  3.060123e-01 -9.520276e-01  0.000000e+00
   outer loop
     vertex -3.500000e-01  6.000000e-01  8.100000e-01
     vertex -3.500000e-01  6.000000e-01  8.500000e-01
     vertex -4.700411e-01  5.614149e-01  8.500000e-01
   endloop
 endfacet
 facet normal  0.000000e+00  0.000000e+00 -1.000000e+00
   outer loop
     vertex -3.500000e-01  6.000000e-01  8.100000e-01
     vertex -4.700411e-01  5.614149e-01  8.100000e-01
     vertex -4.749991e-01  5.616149e-01  8.100000e-01
   endloop
 endfacet
 facet normal  0.000000e+00  0.000000e+00  1.000000e+00
   outer loop
     vertex -3.500000e-01  6.000000e-01  8.500000e-01
     vertex -4.749991e-01  5.616149e-01  8.500000e-01
     vertex -4.700411e-01  5.614149e-01  8.500000e-01
   endloop
 endfacet
endsolid
