solid
 facet normal  4.286845e-01  9.034543e-01  1.352006e-18
   outer loop
     vertex -5.036333e-01 -3.545575e-01  8.100000e-01
     vertex -4.991503e-01 -3.566846e-01  8.500000e-01
     vertex -4.991503e-01 -3.566846e-01  8.100000e-01
   endloop
 endfacet
 facet normal  4.286845e-01  9.034543e-01 -0.000000e+00
   outer loop
     vertex -5.036333e-01 -3.545575e-01  8.100000e-01
     vertex -5.036333e-01 -3.545575e-01  8.500000e-01
     vertex -4.991503e-01 -3.566846e-01  8.500000e-01
   endloop
 endfacet
 facet normal -9.308252e-01  3.654647e-01  8.110055e-17
   outer loop
     vertex -6.000000e-01 -6.000000e-01  8.100000e-01
     vertex -5.036333e-01 -3.545575e-01  8.500000e-01
     vertex -5.036333e-01 -3.545575e-01  8.100000e-01
   endloop
 endfacet
 facet normal -9.308252e-01  3.654647e-01  0.000000e+00
   outer loop
     vertex -6.000000e-01 -6.000000e-01  8.100000e-01
     vertex -6.000000e-01 -6.000000e-01  8.500000e-01
     vertex -5.036333e-01 -3.545575e-01  8.500000e-01
   endloop
 endfacet
 facet normal  9.237921e-01 -3.828945e-01  4.088531e-17
   outer loop
     vertex -4.991503e-01 -3.566846e-01  8.100000e-01
     vertex -6.000000e-01 -6.000000e-01  8.500000e-01
     vertex -6.000000e-01 -6.000000e-01  8.100000e-01
   endloop
 endfacet
 facet normal  9.237921e-01 -3.828945e-01  0.000000e+00
   outer loop
     vertex -4.991503e-01 -3.566846e-01  8.100000e-01
     vertex -4.991503e-01 -3.566846e-01  8.500000e-01
     vertex -6.000000e-01 -6.000000e-01  8.500000e-01
   endloop
 endfacet
 facet normal -0.000000e+00  0.000000e+00 -1.000000e+00
   outer loop
     vertex -4.991503e-01 -3.566846e-01  8.100000e-01
     vertex -6.000000e-01 -6.000000e-01  8.100000e-01
     vertex -5.036333e-01 -3.545575e-01  8.100000e-01
   endloop
 endfacet
 facet normal  0.000000e+00  0.000000e+00  1.000000e+00
   outer loop
     vertex -4.991503e-01 -3.566846e-01  8.500000e-01
     vertex -5.036333e-01 -3.545575e-01  8.500000e-01
     vertex -6.000000e-01 -6.000000e-01  8.500000e-01
   endloop
 endfacet
endsolid
