solid
 facet normal -1.000000e+00  0.000000e+00  0.000000e+00
   outer loop
     vertex -4.749991e-01 -2.383852e-01  8.100000e-01
     vertex -4.749991e-01 -1.616148e-01  8.500000e-01
     vertex -4.749991e-01 -1.616148e-01  8.100000e-01
   endloop
 endfacet
 facet normal -1.000000e+00  0.000000e+00  0.000000e+00
   outer loop
     vertex -4.749991e-01 -2.383852e-01  8.100000e-01
     vertex -4.749991e-01 -2.383852e-01  8.500000e-01
     vertex -4.749991e-01 -1.616148e-01  8.500000e-01
   endloop
 endfacet
 facet normal -4.027806e-02 -9.991885e-01 -4.050298e-19
   outer loop
     vertex -4.700411e-01 -2.385851e-01  8.100000e-01
     vertex -4.749991e-01 -2.383852e-01  8.500000e-01
     vertex -4.749991e-01 -2.383852e-01  8.100000e-01
   endloop
 endfacet
 facet normal -4.027806e-02 -9.991885e-01  0.000000e+00
   outer loop
     vertex -4.700411e-01 -2.385851e-01  8.100000e-01
     vertex -4.700411e-01 -2.385851e-01  8.500000e-01
     vertex -4.749991e-01 -2.383852e-01  8.500000e-01
   endloop
 endfacet
 facet normal  1.000000e+00  0.000000e+00  0.000000e+00
   outer loop
     vertex -4.700411e-01 -1.614149e-01  8.100000e-01
     vertex -4.700411e-01 -2.385851e-01  8.500000e-01
     vertex -4.700411e-01 -2.385851e-01  8.100000e-01
   endloop
 endfacet
 facet normal  1.000000e+00  0.000000e+00 -0.000000e+00
   outer loop
     vertex -4.700411e-01 -1.614149e-01  8.100000e-01
     vertex -4.700411e-01 -1.614149e-01  8.500000e-01
     vertex -4.700411e-01 -2.385851e-01  8.500000e-01
   endloop
 endfacet
 facet normal -4.027806e-02  9.991885e-01 -5.029073e-19
   outer loop
     vertex -4.749991e-01 -1.616148e-01  8.100000e-01
     vertex -4.700411e-01 -1.614149e-01  8.500000e-01
     vertex -4.700411e-01 -1.614149e-01  8.100000e-01
   endloop
 endfacet
 facet normal -4.027806e-02  9.991885e-01  0.000000e+00
   outer loop
     vertex -4.749991e-01 -1.616148e-01  8.100000e-01
     vertex -4.749991e-01 -1.616148e-01  8.500000e-01
     vertex -4.700411e-01 -1.614149e-01  8.500000e-01
   endloop
 endfacet
 facet normal  0.000000e+00  0.000000e+00 -1.000000e+00
   outer loop
     vertex -4.700411e-01 -1.614149e-01  8.100000e-01
     vertex -4.749991e-01 -2.383852e-01  8.100000e-01
     vertex -4.749991e-01 -1.616148e-01  8.100000e-01
   endloop
 endfacet
 facet normal  0.000000e+00 -0.000000e+00 -1.000000e+00
   outer loop
     vertex -4.700411e-01 -1.614149e-01  8.100000e-01
     vertex -4.700411e-01 -2.385851e-01  8.100000e-01
     vertex -4.749991e-01 -2.383852e-01  8.100000e-01
   endloop
 endfacet
 facet normal  0.000000e+00  0.000000e+00  1.000000e+00
   outer loop
     vertex -4.700411e-01 -1.614149e-01  8.500000e-01
     vertex -4.749991e-01 -1.616148e-01  8.500000e-01
     vertex -4.749991e-01 -2.383852e-01  8.500000e-01
   endloop
 endfacet
 facet normal  0.000000e+00  0.000000e+00  1.000000e+00
   outer loop
     vertex -4.700411e-01 -1.614149e-01  8.500000e-01
     vertex -4.749991e-01 -2.383852e-01  8.500000e-01
     vertex -4.700411e-01 -2.385851e-01  8.500000e-01
   endloop
 endfacet
endsolid
