solid
 facet normal -8.382559e-01 -5.452770e-01 -1.332665e-17
   outer loop
     vertex -5.365648e-01  5.024810e-01  8.100000e-01
     vertex -6.000000e-01  6.000000e-01  8.500000e-01
     vertex -6.000000e-01  6.000000e-01  8.100000e-01
   endloop
 endfacet
 facet normal -8.382559e-01 -5.452770e-01  0.000000e+00
   outer loop
     vertex -5.365648e-01  5.024810e-01  8.100000e-01
     vertex -5.365648e-01  5.024810e-01  8.500000e-01
     vertex -6.000000e-01  6.000000e-01  8.500000e-01
   endloop
 endfacet
 facet normal  9.967572e-01 -8.046743e-02 -6.638968e-19
   outer loop
     vertex -5.361656e-01  5.074269e-01  8.100000e-01
     vertex -5.365648e-01  5.024810e-01  8.500000e-01
     vertex -5.365648e-01  5.024810e-01  8.100000e-01
   endloop
 endfacet
 facet normal  9.967572e-01 -8.046743e-02  0.000000e+00
   outer loop
     vertex -5.361656e-01  5.074269e-01  8.100000e-01
     vertex -5.361656e-01  5.074269e-01  8.500000e-01
     vertex -5.365648e-01  5.024810e-01  8.500000e-01
   endloop
 endfacet
 facet normal  8.232506e-01  5.676781e-01  1.342382e-17
   outer loop
     vertex -6.000000e-01  6.000000e-01  8.100000e-01
     vertex -5.361656e-01  5.074269e-01  8.500000e-01
     vertex -5.361656e-01  5.074269e-01  8.100000e-01
   endloop
 endfacet
 facet normal  8.232506e-01  5.676781e-01 -0.000000e+00
   outer loop
     vertex -6.000000e-01  6.000000e-01  8.100000e-01
     vertex -6.000000e-01  6.000000e-01  8.500000e-01
     vertex -5.361656e-01  5.074269e-01  8.500000e-01
   endloop
 endfacet
 facet normal  0.000000e+00  0.000000e+00 -1.000000e+00
   outer loop
     vertex -6.000000e-01  6.000000e-01  8.100000e-01
     vertex -5.361656e-01  5.074269e-01  8.100000e-01
     vertex -5.365648e-01  5.024810e-01  8.100000e-01
   endloop
 endfacet
 facet normal  0.000000e+00  0.000000e+00  1.000000e+00
   outer loop
     vertex -6.000000e-01  6.000000e-01  8.500000e-01
     vertex -5.365648e-01  5.024810e-01  8.500000e-01
     vertex -5.361656e-01  5.074269e-01  8.500000e-01
   endloop
 endfacet
endsolid
