solid
 facet normal -8.660204e-01 -5.000086e-01 -3.442427e-18
   outer loop
     vertex -2.454431e-01 -4.463655e-01  8.100000e-01
     vertex -2.479242e-01 -4.420683e-01  8.500000e-01
     vertex -2.479242e-01 -4.420683e-01  8.100000e-01
   endloop
 endfacet
 facet normal -8.660204e-01 -5.000086e-01  0.000000e+00
   outer loop
     vertex -2.454431e-01 -4.463655e-01  8.100000e-01
     vertex -2.454431e-01 -4.463655e-01  8.500000e-01
     vertex -2.479242e-01 -4.420683e-01  8.500000e-01
   endloop
 endfacet
 facet normal  5.539874e-06 -1.000000e+00 -6.526716e-22
   outer loop
     vertex -1.545566e-01 -4.463650e-01  8.100000e-01
     vertex -2.454431e-01 -4.463655e-01  8.500000e-01
     vertex -2.454431e-01 -4.463655e-01  8.100000e-01
   endloop
 endfacet
 facet normal  5.539874e-06 -1.000000e+00  0.000000e+00
   outer loop
     vertex -1.545566e-01 -4.463650e-01  8.100000e-01
     vertex -1.545566e-01 -4.463650e-01  8.500000e-01
     vertex -2.454431e-01 -4.463655e-01  8.500000e-01
   endloop
 endfacet
 facet normal  8.660151e-01 -5.000179e-01 -3.325764e-18
   outer loop
     vertex -1.520755e-01 -4.420679e-01  8.100000e-01
     vertex -1.545566e-01 -4.463650e-01  8.500000e-01
     vertex -1.545566e-01 -4.463650e-01  8.100000e-01
   endloop
 endfacet
 facet normal  8.660151e-01 -5.000179e-01  0.000000e+00
   outer loop
     vertex -1.520755e-01 -4.420679e-01  8.100000e-01
     vertex -1.520755e-01 -4.420679e-01  8.500000e-01
     vertex -1.545566e-01 -4.463650e-01  8.500000e-01
   endloop
 endfacet
 facet normal -4.138815e-06  1.000000e+00 -7.434505e-22
   outer loop
     vertex -2.479242e-01 -4.420683e-01  8.100000e-01
     vertex -1.520755e-01 -4.420679e-01  8.500000e-01
     vertex -1.520755e-01 -4.420679e-01  8.100000e-01
   endloop
 endfacet
 facet normal -4.138815e-06  1.000000e+00  0.000000e+00
   outer loop
     vertex -2.479242e-01 -4.420683e-01  8.100000e-01
     vertex -2.479242e-01 -4.420683e-01  8.500000e-01
     vertex -1.520755e-01 -4.420679e-01  8.500000e-01
   endloop
 endfacet
 facet normal -0.000000e+00  0.000000e+00 -1.000000e+00
   outer loop
     vertex -1.545566e-01 -4.463650e-01  8.100000e-01
     vertex -2.454431e-01 -4.463655e-01  8.100000e-01
     vertex -2.479242e-01 -4.420683e-01  8.100000e-01
   endloop
 endfacet
 facet normal  0.000000e+00  0.000000e+00 -1.000000e+00
   outer loop
     vertex -1.520755e-01 -4.420679e-01  8.100000e-01
     vertex -1.545566e-01 -4.463650e-01  8.100000e-01
     vertex -2.479242e-01 -4.420683e-01  8.100000e-01
   endloop
 endfacet
 facet normal  0.000000e+00  0.000000e+00  1.000000e+00
   outer loop
     vertex -1.545566e-01 -4.463650e-01  8.500000e-01
     vertex -2.479242e-01 -4.420683e-01  8.500000e-01
     vertex -2.454431e-01 -4.463655e-01  8.500000e-01
   endloop
 endfacet
 facet normal  0.000000e+00  0.000000e+00  1.000000e+00
   outer loop
     vertex -1.520755e-01 -4.420679e-01  8.500000e-01
     vertex -2.479242e-01 -4.420683e-01  8.500000e-01
     vertex -1.545566e-01 -4.463650e-01  8.500000e-01
   endloop
 endfacet
endsolid
