solid
 facet normal  3.545931e-01 -9.350207e-01  1.106855e-18
   outer loop
     vertex -4.945108e-01 -2.415559e-01  8.100000e-01
     vertex -4.991503e-01 -2.433154e-01  8.500000e-01
     vertex -4.991503e-01 -2.433154e-01  8.100000e-01
   endloop
 endfacet
 facet normal  3.545931e-01 -9.350207e-01  0.000000e+00
   outer loop
     vertex -4.945108e-01 -2.415559e-01  8.100000e-01
     vertex -4.945108e-01 -2.415559e-01  8.500000e-01
     vertex -4.991503e-01 -2.433154e-01  8.500000e-01
   endloop
 endfacet
 facet normal  1.000000e+00  0.000000e+00  0.000000e+00
   outer loop
     vertex -4.945108e-01 -1.584441e-01  8.100000e-01
     vertex -4.945108e-01 -2.415559e-01  8.500000e-01
     vertex -4.945108e-01 -2.415559e-01  8.100000e-01
   endloop
 endfacet
 facet normal  1.000000e+00  0.000000e+00 -0.000000e+00
   outer loop
     vertex -4.945108e-01 -1.584441e-01  8.100000e-01
     vertex -4.945108e-01 -1.584441e-01  8.500000e-01
     vertex -4.945108e-01 -2.415559e-01  8.500000e-01
   endloop
 endfacet
 facet normal  3.545931e-01  9.350207e-01 -1.106855e-18
   outer loop
     vertex -4.991503e-01 -1.566846e-01  8.100000e-01
     vertex -4.945108e-01 -1.584441e-01  8.500000e-01
     vertex -4.945108e-01 -1.584441e-01  8.100000e-01
   endloop
 endfacet
 facet normal  3.545931e-01  9.350207e-01 -0.000000e+00
   outer loop
     vertex -4.991503e-01 -1.566846e-01  8.100000e-01
     vertex -4.991503e-01 -1.566846e-01  8.500000e-01
     vertex -4.945108e-01 -1.584441e-01  8.500000e-01
   endloop
 endfacet
 facet normal -1.000000e+00  0.000000e+00  0.000000e+00
   outer loop
     vertex -4.991503e-01 -2.433154e-01  8.100000e-01
     vertex -4.991503e-01 -1.566846e-01  8.500000e-01
     vertex -4.991503e-01 -1.566846e-01  8.100000e-01
   endloop
 endfacet
 facet normal -1.000000e+00  0.000000e+00  0.000000e+00
   outer loop
     vertex -4.991503e-01 -2.433154e-01  8.100000e-01
     vertex -4.991503e-01 -2.433154e-01  8.500000e-01
     vertex -4.991503e-01 -1.566846e-01  8.500000e-01
   endloop
 endfacet
 facet normal  0.000000e+00 -0.000000e+00 -1.000000e+00
   outer loop
     vertex -4.945108e-01 -1.584441e-01  8.100000e-01
     vertex -4.945108e-01 -2.415559e-01  8.100000e-01
     vertex -4.991503e-01 -2.433154e-01  8.100000e-01
   endloop
 endfacet
 facet normal -0.000000e+00  0.000000e+00 -1.000000e+00
   outer loop
     vertex -4.945108e-01 -1.584441e-01  8.100000e-01
     vertex -4.991503e-01 -2.433154e-01  8.100000e-01
     vertex -4.991503e-01 -1.566846e-01  8.100000e-01
   endloop
 endfacet
 facet normal  0.000000e+00  0.000000e+00  1.000000e+00
   outer loop
     vertex -4.945108e-01 -1.584441e-01  8.500000e-01
     vertex -4.991503e-01 -2.433154e-01  8.500000e-01
     vertex -4.945108e-01 -2.415559e-01  8.500000e-01
   endloop
 endfacet
 facet normal  0.000000e+00  0.000000e+00  1.000000e+00
   outer loop
     vertex -4.945108e-01 -1.584441e-01  8.500000e-01
     vertex -4.991503e-01 -1.566846e-01  8.500000e-01
     vertex -4.991503e-01 -2.433154e-01  8.500000e-01
   endloop
 endfacet
endsolid
