solid
 facet normal  4.286744e-01  9.034590e-01 -3.778827e-18
   outer loop
     vertex -5.036333e-01  4.454425e-01  8.100000e-01
     vertex -4.991503e-01  4.433154e-01  8.500000e-01
     vertex -4.991503e-01  4.433154e-01  8.100000e-01
   endloop
 endfacet
 facet normal  4.286744e-01  9.034590e-01 -0.000000e+00
   outer loop
     vertex -5.036333e-01  4.454425e-01  8.100000e-01
     vertex -5.036333e-01  4.454425e-01  8.500000e-01
     vertex -4.991503e-01  4.433154e-01  8.500000e-01
   endloop
 endfacet
 facet normal -1.000000e+00  0.000000e+00  0.000000e+00
   outer loop
     vertex -5.036333e-01  3.545575e-01  8.100000e-01
     vertex -5.036333e-01  4.454425e-01  8.500000e-01
     vertex -5.036333e-01  4.454425e-01  8.100000e-01
   endloop
 endfacet
 facet normal -1.000000e+00  0.000000e+00  0.000000e+00
   outer loop
     vertex -5.036333e-01  3.545575e-01  8.100000e-01
     vertex -5.036333e-01  3.545575e-01  8.500000e-01
     vertex -5.036333e-01  4.454425e-01  8.500000e-01
   endloop
 endfacet
 facet normal  4.286845e-01 -9.034543e-01 -1.352006e-18
   outer loop
     vertex -4.991503e-01  3.566846e-01  8.100000e-01
     vertex -5.036333e-01  3.545575e-01  8.500000e-01
     vertex -5.036333e-01  3.545575e-01  8.100000e-01
   endloop
 endfacet
 facet normal  4.286845e-01 -9.034543e-01  0.000000e+00
   outer loop
     vertex -4.991503e-01  3.566846e-01  8.100000e-01
     vertex -4.991503e-01  3.566846e-01  8.500000e-01
     vertex -5.036333e-01  3.545575e-01  8.500000e-01
   endloop
 endfacet
 facet normal  1.000000e+00  0.000000e+00  0.000000e+00
   outer loop
     vertex -4.991503e-01  4.433154e-01  8.100000e-01
     vertex -4.991503e-01  3.566846e-01  8.500000e-01
     vertex -4.991503e-01  3.566846e-01  8.100000e-01
   endloop
 endfacet
 facet normal  1.000000e+00  0.000000e+00 -0.000000e+00
   outer loop
     vertex -4.991503e-01  4.433154e-01  8.100000e-01
     vertex -4.991503e-01  4.433154e-01  8.500000e-01
     vertex -4.991503e-01  3.566846e-01  8.500000e-01
   endloop
 endfacet
 facet normal  0.000000e+00  0.000000e+00 -1.000000e+00
   outer loop
     vertex -5.036333e-01  4.454425e-01  8.100000e-01
     vertex -4.991503e-01  3.566846e-01  8.100000e-01
     vertex -5.036333e-01  3.545575e-01  8.100000e-01
   endloop
 endfacet
 facet normal -0.000000e+00 -0.000000e+00 -1.000000e+00
   outer loop
     vertex -4.991503e-01  4.433154e-01  8.100000e-01
     vertex -4.991503e-01  3.566846e-01  8.100000e-01
     vertex -5.036333e-01  4.454425e-01  8.100000e-01
   endloop
 endfacet
 facet normal  0.000000e+00  0.000000e+00  1.000000e+00
   outer loop
     vertex -5.036333e-01  4.454425e-01  8.500000e-01
     vertex -5.036333e-01  3.545575e-01  8.500000e-01
     vertex -4.991503e-01  3.566846e-01  8.500000e-01
   endloop
 endfacet
 facet normal  0.000000e+00  0.000000e+00  1.000000e+00
   outer loop
     vertex -4.991503e-01  4.433154e-01  8.500000e-01
     vertex -5.036333e-01  4.454425e-01  8.500000e-01
     vertex -4.991503e-01  3.566846e-01  8.500000e-01
   endloop
 endfacet
endsolid
