solid
 facet normal -9.913821e-01  1.310018e-01 -5.769256e-18
   outer loop
     vertex  2.538816e-01 -4.341408e-01  8.100000e-01
     vertex  2.650000e-01 -3.500000e-01  8.500000e-01
     vertex  2.650000e-01 -3.500000e-01  8.100000e-01
   endloop
 endfacet
 facet normal -9.913821e-01  1.310018e-01  0.000000e+00
   outer loop
     vertex  2.538816e-01 -4.341408e-01  8.100000e-01
     vertex  2.538816e-01 -4.341408e-01  8.500000e-01
     vertex  2.650000e-01 -3.500000e-01  8.500000e-01
   endloop
 endfacet
 facet normal  7.211924e-01 -6.927349e-01  4.014619e-19
   outer loop
     vertex  2.573189e-01 -4.305623e-01  8.100000e-01
     vertex  2.538816e-01 -4.341408e-01  8.500000e-01
     vertex  2.538816e-01 -4.341408e-01  8.100000e-01
   endloop
 endfacet
 facet normal  7.211924e-01 -6.927349e-01  0.000000e+00
   outer loop
     vertex  2.573189e-01 -4.305623e-01  8.100000e-01
     vertex  2.573189e-01 -4.305623e-01  8.500000e-01
     vertex  2.538816e-01 -4.341408e-01  8.500000e-01
   endloop
 endfacet
 facet normal  9.954856e-01 -9.491311e-02  2.075517e-18
   outer loop
     vertex  2.650000e-01 -3.500000e-01  8.100000e-01
     vertex  2.573189e-01 -4.305623e-01  8.500000e-01
     vertex  2.573189e-01 -4.305623e-01  8.100000e-01
   endloop
 endfacet
 facet normal  9.954856e-01 -9.491311e-02  0.000000e+00
   outer loop
     vertex  2.650000e-01 -3.500000e-01  8.100000e-01
     vertex  2.650000e-01 -3.500000e-01  8.500000e-01
     vertex  2.573189e-01 -4.305623e-01  8.500000e-01
   endloop
 endfacet
 facet normal  0.000000e+00  0.000000e+00 -1.000000e+00
   outer loop
     vertex  2.650000e-01 -3.500000e-01  8.100000e-01
     vertex  2.573189e-01 -4.305623e-01  8.100000e-01
     vertex  2.538816e-01 -4.341408e-01  8.100000e-01
   endloop
 endfacet
 facet normal  0.000000e+00  0.000000e+00  1.000000e+00
   outer loop
     vertex  2.650000e-01 -3.500000e-01  8.500000e-01
     vertex  2.538816e-01 -4.341408e-01  8.500000e-01
     vertex  2.573189e-01 -4.305623e-01  8.500000e-01
   endloop
 endfacet
endsolid
