solid
 facet normal -8.660280e-01  4.999955e-01 -4.499759e-20
   outer loop
     vertex  5.520762e-01 -5.079312e-01  8.100000e-01
     vertex  5.545571e-01 -5.036340e-01  8.500000e-01
     vertex  5.545571e-01 -5.036340e-01  8.100000e-01
   endloop
 endfacet
 facet normal -8.660280e-01  4.999955e-01  0.000000e+00
   outer loop
     vertex  5.520762e-01 -5.079312e-01  8.100000e-01
     vertex  5.520762e-01 -5.079312e-01  8.500000e-01
     vertex  5.545571e-01 -5.036340e-01  8.500000e-01
   endloop
 endfacet
 facet normal -8.870273e-01 -4.617170e-01  5.863570e-17
   outer loop
     vertex  6.000000e-01 -6.000000e-01  8.100000e-01
     vertex  5.520762e-01 -5.079312e-01  8.500000e-01
     vertex  5.520762e-01 -5.079312e-01  8.100000e-01
   endloop
 endfacet
 facet normal -8.870273e-01 -4.617170e-01  0.000000e+00
   outer loop
     vertex  6.000000e-01 -6.000000e-01  8.100000e-01
     vertex  6.000000e-01 -6.000000e-01  8.500000e-01
     vertex  5.520762e-01 -5.079312e-01  8.500000e-01
   endloop
 endfacet
 facet normal  9.044779e-01  4.265204e-01 -1.889822e-17
   outer loop
     vertex  5.545571e-01 -5.036340e-01  8.100000e-01
     vertex  6.000000e-01 -6.000000e-01  8.500000e-01
     vertex  6.000000e-01 -6.000000e-01  8.100000e-01
   endloop
 endfacet
 facet normal  9.044779e-01  4.265204e-01 -0.000000e+00
   outer loop
     vertex  5.545571e-01 -5.036340e-01  8.100000e-01
     vertex  5.545571e-01 -5.036340e-01  8.500000e-01
     vertex  6.000000e-01 -6.000000e-01  8.500000e-01
   endloop
 endfacet
 facet normal  0.000000e+00 -0.000000e+00 -1.000000e+00
   outer loop
     vertex  5.545571e-01 -5.036340e-01  8.100000e-01
     vertex  6.000000e-01 -6.000000e-01  8.100000e-01
     vertex  5.520762e-01 -5.079312e-01  8.100000e-01
   endloop
 endfacet
 facet normal  0.000000e+00  0.000000e+00  1.000000e+00
   outer loop
     vertex  5.545571e-01 -5.036340e-01  8.500000e-01
     vertex  5.520762e-01 -5.079312e-01  8.500000e-01
     vertex  6.000000e-01 -6.000000e-01  8.500000e-01
   endloop
 endfacet
endsolid
