solid
 facet normal  1.000000e+00  0.000000e+00  0.000000e+00
   outer loop
     vertex -5.341821e-01  2.828575e-01  8.100000e-01
     vertex -5.341821e-01  1.171425e-01  8.500000e-01
     vertex -5.341821e-01  1.171425e-01  8.100000e-01
   endloop
 endfacet
 facet normal  1.000000e+00  0.000000e+00 -0.000000e+00
   outer loop
     vertex -5.341821e-01  2.828575e-01  8.100000e-01
     vertex -5.341821e-01  2.828575e-01  8.500000e-01
     vertex -5.341821e-01  1.171425e-01  8.500000e-01
   endloop
 endfacet
 facet normal  9.709410e-01  2.393188e-01  7.060297e-19
   outer loop
     vertex -5.353696e-01  2.876754e-01  8.100000e-01
     vertex -5.341821e-01  2.828575e-01  8.500000e-01
     vertex -5.341821e-01  2.828575e-01  8.100000e-01
   endloop
 endfacet
 facet normal  9.709410e-01  2.393188e-01 -0.000000e+00
   outer loop
     vertex -5.353696e-01  2.876754e-01  8.100000e-01
     vertex -5.353696e-01  2.876754e-01  8.500000e-01
     vertex -5.341821e-01  2.828575e-01  8.500000e-01
   endloop
 endfacet
 facet normal -1.000000e+00  0.000000e+00  0.000000e+00
   outer loop
     vertex -5.353696e-01  1.123246e-01  8.100000e-01
     vertex -5.353696e-01  2.876754e-01  8.500000e-01
     vertex -5.353696e-01  2.876754e-01  8.100000e-01
   endloop
 endfacet
 facet normal -1.000000e+00  0.000000e+00  0.000000e+00
   outer loop
     vertex -5.353696e-01  1.123246e-01  8.100000e-01
     vertex -5.353696e-01  1.123246e-01  8.500000e-01
     vertex -5.353696e-01  2.876754e-01  8.500000e-01
   endloop
 endfacet
 facet normal  9.709410e-01 -2.393188e-01  1.615544e-18
   outer loop
     vertex -5.341821e-01  1.171425e-01  8.100000e-01
     vertex -5.353696e-01  1.123246e-01  8.500000e-01
     vertex -5.353696e-01  1.123246e-01  8.100000e-01
   endloop
 endfacet
 facet normal  9.709410e-01 -2.393188e-01  0.000000e+00
   outer loop
     vertex -5.341821e-01  1.171425e-01  8.100000e-01
     vertex -5.341821e-01  1.171425e-01  8.500000e-01
     vertex -5.353696e-01  1.123246e-01  8.500000e-01
   endloop
 endfacet
 facet normal  0.000000e+00  0.000000e+00 -1.000000e+00
   outer loop
     vertex -5.353696e-01  2.876754e-01  8.100000e-01
     vertex -5.341821e-01  1.171425e-01  8.100000e-01
     vertex -5.353696e-01  1.123246e-01  8.100000e-01
   endloop
 endfacet
 facet normal  0.000000e+00  0.000000e+00 -1.000000e+00
   outer loop
     vertex -5.353696e-01  2.876754e-01  8.100000e-01
     vertex -5.341821e-01  2.828575e-01  8.100000e-01
     vertex -5.341821e-01  1.171425e-01  8.100000e-01
   endloop
 endfacet
 facet normal  0.000000e+00  0.000000e+00  1.000000e+00
   outer loop
     vertex -5.353696e-01  2.876754e-01  8.500000e-01
     vertex -5.353696e-01  1.123246e-01  8.500000e-01
     vertex -5.341821e-01  1.171425e-01  8.500000e-01
   endloop
 endfacet
 facet normal  0.000000e+00  0.000000e+00  1.000000e+00
   outer loop
     vertex -5.353696e-01  2.876754e-01  8.500000e-01
     vertex -5.341821e-01  1.171425e-01  8.500000e-01
     vertex -5.341821e-01  2.828575e-01  8.500000e-01
   endloop
 endfacet
endsolid
