solid
 facet normal  1.000000e+00  0.000000e+00  0.000000e+00
   outer loop
     vertex -5.257078e-01 -1.350015e-01  8.100000e-01
     vertex -5.257078e-01 -2.649985e-01  8.500000e-01
     vertex -5.257078e-01 -2.649985e-01  8.100000e-01
   endloop
 endfacet
 facet normal  1.000000e+00  0.000000e+00 -0.000000e+00
   outer loop
     vertex -5.257078e-01 -1.350015e-01  8.100000e-01
     vertex -5.257078e-01 -1.350015e-01  8.500000e-01
     vertex -5.257078e-01 -2.649985e-01  8.500000e-01
   endloop
 endfacet
 facet normal  8.451874e-01  5.344700e-01  1.446916e-18
   outer loop
     vertex -5.283598e-01 -1.308077e-01  8.100000e-01
     vertex -5.257078e-01 -1.350015e-01  8.500000e-01
     vertex -5.257078e-01 -1.350015e-01  8.100000e-01
   endloop
 endfacet
 facet normal  8.451874e-01  5.344700e-01 -0.000000e+00
   outer loop
     vertex -5.283598e-01 -1.308077e-01  8.100000e-01
     vertex -5.283598e-01 -1.308077e-01  8.500000e-01
     vertex -5.257078e-01 -1.350015e-01  8.500000e-01
   endloop
 endfacet
 facet normal -1.000000e+00  0.000000e+00  0.000000e+00
   outer loop
     vertex -5.283598e-01 -2.691923e-01  8.100000e-01
     vertex -5.283598e-01 -1.308077e-01  8.500000e-01
     vertex -5.283598e-01 -1.308077e-01  8.100000e-01
   endloop
 endfacet
 facet normal -1.000000e+00  0.000000e+00  0.000000e+00
   outer loop
     vertex -5.283598e-01 -2.691923e-01  8.100000e-01
     vertex -5.283598e-01 -2.691923e-01  8.500000e-01
     vertex -5.283598e-01 -1.308077e-01  8.500000e-01
   endloop
 endfacet
 facet normal  8.451874e-01 -5.344700e-01 -1.446916e-18
   outer loop
     vertex -5.257078e-01 -2.649985e-01  8.100000e-01
     vertex -5.283598e-01 -2.691923e-01  8.500000e-01
     vertex -5.283598e-01 -2.691923e-01  8.100000e-01
   endloop
 endfacet
 facet normal  8.451874e-01 -5.344700e-01  0.000000e+00
   outer loop
     vertex -5.257078e-01 -2.649985e-01  8.100000e-01
     vertex -5.257078e-01 -2.649985e-01  8.500000e-01
     vertex -5.283598e-01 -2.691923e-01  8.500000e-01
   endloop
 endfacet
 facet normal  0.000000e+00  0.000000e+00 -1.000000e+00
   outer loop
     vertex -5.283598e-01 -1.308077e-01  8.100000e-01
     vertex -5.257078e-01 -1.350015e-01  8.100000e-01
     vertex -5.283598e-01 -2.691923e-01  8.100000e-01
   endloop
 endfacet
 facet normal  0.000000e+00 -0.000000e+00 -1.000000e+00
   outer loop
     vertex -5.257078e-01 -1.350015e-01  8.100000e-01
     vertex -5.257078e-01 -2.649985e-01  8.100000e-01
     vertex -5.283598e-01 -2.691923e-01  8.100000e-01
   endloop
 endfacet
 facet normal  0.000000e+00  0.000000e+00  1.000000e+00
   outer loop
     vertex -5.283598e-01 -1.308077e-01  8.500000e-01
     vertex -5.283598e-01 -2.691923e-01  8.500000e-01
     vertex -5.257078e-01 -1.350015e-01  8.500000e-01
   endloop
 endfacet
 facet normal  0.000000e+00  0.000000e+00  1.000000e+00
   outer loop
     vertex -5.257078e-01 -1.350015e-01  8.500000e-01
     vertex -5.283598e-01 -2.691923e-01  8.500000e-01
     vertex -5.257078e-01 -2.649985e-01  8.500000e-01
   endloop
 endfacet
endsolid
