solid
 facet normal -9.927078e-01  1.205454e-01  9.798877e-19
   outer loop
     vertex  1.608169e-01 -4.848838e-01  8.100000e-01
     vertex  1.614150e-01 -4.799580e-01  8.500000e-01
     vertex  1.614150e-01 -4.799580e-01  8.100000e-01
   endloop
 endfacet
 facet normal -9.927078e-01  1.205454e-01  0.000000e+00
   outer loop
     vertex  1.608169e-01 -4.848838e-01  8.100000e-01
     vertex  1.608169e-01 -4.848838e-01  8.500000e-01
     vertex  1.614150e-01 -4.799580e-01  8.500000e-01
   endloop
 endfacet
 facet normal  1.411709e-05 -1.000000e+00  1.693336e-21
   outer loop
     vertex  2.391829e-01 -4.848827e-01  8.100000e-01
     vertex  1.608169e-01 -4.848838e-01  8.500000e-01
     vertex  1.608169e-01 -4.848838e-01  8.100000e-01
   endloop
 endfacet
 facet normal  1.411709e-05 -1.000000e+00  0.000000e+00
   outer loop
     vertex  2.391829e-01 -4.848827e-01  8.100000e-01
     vertex  2.391829e-01 -4.848827e-01  8.500000e-01
     vertex  1.608169e-01 -4.848838e-01  8.500000e-01
   endloop
 endfacet
 facet normal  9.927108e-01  1.205209e-01 -2.830899e-19
   outer loop
     vertex  2.385849e-01 -4.799568e-01  8.100000e-01
     vertex  2.391829e-01 -4.848827e-01  8.500000e-01
     vertex  2.391829e-01 -4.848827e-01  8.100000e-01
   endloop
 endfacet
 facet normal  9.927108e-01  1.205209e-01 -0.000000e+00
   outer loop
     vertex  2.385849e-01 -4.799568e-01  8.100000e-01
     vertex  2.385849e-01 -4.799568e-01  8.500000e-01
     vertex  2.391829e-01 -4.848827e-01  8.500000e-01
   endloop
 endfacet
 facet normal -1.443439e-05  1.000000e+00  1.027905e-21
   outer loop
     vertex  1.614150e-01 -4.799580e-01  8.100000e-01
     vertex  2.385849e-01 -4.799568e-01  8.500000e-01
     vertex  2.385849e-01 -4.799568e-01  8.100000e-01
   endloop
 endfacet
 facet normal -1.443439e-05  1.000000e+00  0.000000e+00
   outer loop
     vertex  1.614150e-01 -4.799580e-01  8.100000e-01
     vertex  1.614150e-01 -4.799580e-01  8.500000e-01
     vertex  2.385849e-01 -4.799568e-01  8.500000e-01
   endloop
 endfacet
 facet normal -0.000000e+00  0.000000e+00 -1.000000e+00
   outer loop
     vertex  2.391829e-01 -4.848827e-01  8.100000e-01
     vertex  1.608169e-01 -4.848838e-01  8.100000e-01
     vertex  1.614150e-01 -4.799580e-01  8.100000e-01
   endloop
 endfacet
 facet normal  0.000000e+00 -0.000000e+00 -1.000000e+00
   outer loop
     vertex  2.385849e-01 -4.799568e-01  8.100000e-01
     vertex  2.391829e-01 -4.848827e-01  8.100000e-01
     vertex  1.614150e-01 -4.799580e-01  8.100000e-01
   endloop
 endfacet
 facet normal  0.000000e+00  0.000000e+00  1.000000e+00
   outer loop
     vertex  2.391829e-01 -4.848827e-01  8.500000e-01
     vertex  1.614150e-01 -4.799580e-01  8.500000e-01
     vertex  1.608169e-01 -4.848838e-01  8.500000e-01
   endloop
 endfacet
 facet normal  0.000000e+00  0.000000e+00  1.000000e+00
   outer loop
     vertex  2.385849e-01 -4.799568e-01  8.500000e-01
     vertex  1.614150e-01 -4.799580e-01  8.500000e-01
     vertex  2.391829e-01 -4.848827e-01  8.500000e-01
   endloop
 endfacet
endsolid
