solid
 facet normal  0.000000e+00  1.000000e+00  0.000000e+00
   outer loop
     vertex -4.242912e-01  6.500000e-02  8.100000e-01
     vertex -3.500000e-01  6.500000e-02  8.500000e-01
     vertex -3.500000e-01  6.500000e-02  8.100000e-01
   endloop
 endfacet
 facet normal  0.000000e+00  1.000000e+00  0.000000e+00
   outer loop
     vertex -4.242912e-01  6.500000e-02  8.100000e-01
     vertex -4.242912e-01  6.500000e-02  8.500000e-01
     vertex -3.500000e-01  6.500000e-02  8.500000e-01
   endloop
 endfacet
 facet normal -7.994580e-01  6.007220e-01  1.890112e-18
   outer loop
     vertex -4.272720e-01  6.103308e-02  8.100000e-01
     vertex -4.242912e-01  6.500000e-02  8.500000e-01
     vertex -4.242912e-01  6.500000e-02  8.100000e-01
   endloop
 endfacet
 facet normal -7.994580e-01  6.007220e-01  0.000000e+00
   outer loop
     vertex -4.272720e-01  6.103308e-02  8.100000e-01
     vertex -4.272720e-01  6.103308e-02  8.500000e-01
     vertex -4.242912e-01  6.500000e-02  8.500000e-01
   endloop
 endfacet
 facet normal  5.126959e-02 -9.986848e-01 -7.956326e-18
   outer loop
     vertex -3.500000e-01  6.500000e-02  8.100000e-01
     vertex -4.272720e-01  6.103308e-02  8.500000e-01
     vertex -4.272720e-01  6.103308e-02  8.100000e-01
   endloop
 endfacet
 facet normal  5.126959e-02 -9.986848e-01  0.000000e+00
   outer loop
     vertex -3.500000e-01  6.500000e-02  8.100000e-01
     vertex -3.500000e-01  6.500000e-02  8.500000e-01
     vertex -4.272720e-01  6.103308e-02  8.500000e-01
   endloop
 endfacet
 facet normal -0.000000e+00  0.000000e+00 -1.000000e+00
   outer loop
     vertex -3.500000e-01  6.500000e-02  8.100000e-01
     vertex -4.272720e-01  6.103308e-02  8.100000e-01
     vertex -4.242912e-01  6.500000e-02  8.100000e-01
   endloop
 endfacet
 facet normal  0.000000e+00  0.000000e+00  1.000000e+00
   outer loop
     vertex -3.500000e-01  6.500000e-02  8.500000e-01
     vertex -4.242912e-01  6.500000e-02  8.500000e-01
     vertex -4.272720e-01  6.103308e-02  8.500000e-01
   endloop
 endfacet
endsolid
