solid
 facet normal -9.350113e-01 -3.546180e-01  1.914878e-18
   outer loop
     vertex -2.415562e-01 -4.554881e-01  8.100000e-01
     vertex -2.433159e-01 -4.508485e-01  8.500000e-01
     vertex -2.433159e-01 -4.508485e-01  8.100000e-01
   endloop
 endfacet
 facet normal -9.350113e-01 -3.546180e-01  0.000000e+00
   outer loop
     vertex -2.415562e-01 -4.554881e-01  8.100000e-01
     vertex -2.415562e-01 -4.554881e-01  8.500000e-01
     vertex -2.433159e-01 -4.508485e-01  8.500000e-01
   endloop
 endfacet
 facet normal  8.445156e-06 -1.000000e+00  7.150296e-22
   outer loop
     vertex -1.584435e-01 -4.554874e-01  8.100000e-01
     vertex -2.415562e-01 -4.554881e-01  8.500000e-01
     vertex -2.415562e-01 -4.554881e-01  8.100000e-01
   endloop
 endfacet
 facet normal  8.445156e-06 -1.000000e+00  0.000000e+00
   outer loop
     vertex -1.584435e-01 -4.554874e-01  8.100000e-01
     vertex -1.584435e-01 -4.554874e-01  8.500000e-01
     vertex -2.415562e-01 -4.554881e-01  8.500000e-01
   endloop
 endfacet
 facet normal  9.350090e-01 -3.546241e-01 -1.669385e-18
   outer loop
     vertex -1.566839e-01 -4.508479e-01  8.100000e-01
     vertex -1.584435e-01 -4.554874e-01  8.500000e-01
     vertex -1.584435e-01 -4.554874e-01  8.100000e-01
   endloop
 endfacet
 facet normal  9.350090e-01 -3.546241e-01  0.000000e+00
   outer loop
     vertex -1.566839e-01 -4.508479e-01  8.100000e-01
     vertex -1.566839e-01 -4.508479e-01  8.500000e-01
     vertex -1.584435e-01 -4.554874e-01  8.500000e-01
   endloop
 endfacet
 facet normal -7.045894e-06  1.000000e+00 -6.169364e-22
   outer loop
     vertex -2.433159e-01 -4.508485e-01  8.100000e-01
     vertex -1.566839e-01 -4.508479e-01  8.500000e-01
     vertex -1.566839e-01 -4.508479e-01  8.100000e-01
   endloop
 endfacet
 facet normal -7.045894e-06  1.000000e+00  0.000000e+00
   outer loop
     vertex -2.433159e-01 -4.508485e-01  8.100000e-01
     vertex -2.433159e-01 -4.508485e-01  8.500000e-01
     vertex -1.566839e-01 -4.508479e-01  8.500000e-01
   endloop
 endfacet
 facet normal -0.000000e+00  0.000000e+00 -1.000000e+00
   outer loop
     vertex -1.584435e-01 -4.554874e-01  8.100000e-01
     vertex -2.415562e-01 -4.554881e-01  8.100000e-01
     vertex -2.433159e-01 -4.508485e-01  8.100000e-01
   endloop
 endfacet
 facet normal  0.000000e+00  0.000000e+00 -1.000000e+00
   outer loop
     vertex -1.566839e-01 -4.508479e-01  8.100000e-01
     vertex -1.584435e-01 -4.554874e-01  8.100000e-01
     vertex -2.433159e-01 -4.508485e-01  8.100000e-01
   endloop
 endfacet
 facet normal  0.000000e+00  0.000000e+00  1.000000e+00
   outer loop
     vertex -1.584435e-01 -4.554874e-01  8.500000e-01
     vertex -2.433159e-01 -4.508485e-01  8.500000e-01
     vertex -2.415562e-01 -4.554881e-01  8.500000e-01
   endloop
 endfacet
 facet normal  0.000000e+00  0.000000e+00  1.000000e+00
   outer loop
     vertex -1.566839e-01 -4.508479e-01  8.500000e-01
     vertex -2.433159e-01 -4.508485e-01  8.500000e-01
     vertex -1.584435e-01 -4.554874e-01  8.500000e-01
   endloop
 endfacet
endsolid
