solid
 facet normal -9.986848e-01 -5.127035e-02 -1.738627e-18
   outer loop
     vertex  1.389670e-01 -4.272720e-01  8.100000e-01
     vertex  1.350000e-01 -3.500000e-01  8.500000e-01
     vertex  1.350000e-01 -3.500000e-01  8.100000e-01
   endloop
 endfacet
 facet normal -9.986848e-01 -5.127035e-02  0.000000e+00
   outer loop
     vertex  1.389670e-01 -4.272720e-01  8.100000e-01
     vertex  1.389670e-01 -4.272720e-01  8.500000e-01
     vertex  1.350000e-01 -3.500000e-01  8.500000e-01
   endloop
 endfacet
 facet normal -6.631076e-01 -7.485241e-01  2.583470e-18
   outer loop
     vertex  1.426812e-01 -4.305624e-01  8.100000e-01
     vertex  1.389670e-01 -4.272720e-01  8.500000e-01
     vertex  1.389670e-01 -4.272720e-01  8.100000e-01
   endloop
 endfacet
 facet normal -6.631076e-01 -7.485241e-01  0.000000e+00
   outer loop
     vertex  1.426812e-01 -4.305624e-01  8.100000e-01
     vertex  1.426812e-01 -4.305624e-01  8.500000e-01
     vertex  1.389670e-01 -4.272720e-01  8.500000e-01
   endloop
 endfacet
 facet normal  9.954854e-01  9.491446e-02  5.887247e-18
   outer loop
     vertex  1.350000e-01 -3.500000e-01  8.100000e-01
     vertex  1.426812e-01 -4.305624e-01  8.500000e-01
     vertex  1.426812e-01 -4.305624e-01  8.100000e-01
   endloop
 endfacet
 facet normal  9.954854e-01  9.491446e-02 -0.000000e+00
   outer loop
     vertex  1.350000e-01 -3.500000e-01  8.100000e-01
     vertex  1.350000e-01 -3.500000e-01  8.500000e-01
     vertex  1.426812e-01 -4.305624e-01  8.500000e-01
   endloop
 endfacet
 facet normal  0.000000e+00  0.000000e+00 -1.000000e+00
   outer loop
     vertex  1.350000e-01 -3.500000e-01  8.100000e-01
     vertex  1.426812e-01 -4.305624e-01  8.100000e-01
     vertex  1.389670e-01 -4.272720e-01  8.100000e-01
   endloop
 endfacet
 facet normal  0.000000e+00  0.000000e+00  1.000000e+00
   outer loop
     vertex  1.350000e-01 -3.500000e-01  8.500000e-01
     vertex  1.389670e-01 -4.272720e-01  8.500000e-01
     vertex  1.426812e-01 -4.305624e-01  8.500000e-01
   endloop
 endfacet
endsolid
