solid
 facet normal -9.034502e-01  4.286931e-01  3.506282e-18
   outer loop
     vertex -2.454429e-01 -5.036340e-01  8.100000e-01
     vertex -2.433157e-01 -4.991511e-01  8.500000e-01
     vertex -2.433157e-01 -4.991511e-01  8.100000e-01
   endloop
 endfacet
 facet normal -9.034502e-01  4.286931e-01  0.000000e+00
   outer loop
     vertex -2.454429e-01 -5.036340e-01  8.100000e-01
     vertex -2.454429e-01 -5.036340e-01  8.500000e-01
     vertex -2.433157e-01 -4.991511e-01  8.500000e-01
   endloop
 endfacet
 facet normal  1.091267e-05 -1.000000e+00  1.128175e-21
   outer loop
     vertex -1.545576e-01 -5.036330e-01  8.100000e-01
     vertex -2.454429e-01 -5.036340e-01  8.500000e-01
     vertex -2.454429e-01 -5.036340e-01  8.100000e-01
   endloop
 endfacet
 facet normal  1.091267e-05 -1.000000e+00  0.000000e+00
   outer loop
     vertex -1.545576e-01 -5.036330e-01  8.100000e-01
     vertex -1.545576e-01 -5.036330e-01  8.500000e-01
     vertex -2.454429e-01 -5.036340e-01  8.500000e-01
   endloop
 endfacet
 facet normal  9.034564e-01  4.286800e-01 -2.083561e-18
   outer loop
     vertex -1.566848e-01 -4.991501e-01  8.100000e-01
     vertex -1.545576e-01 -5.036330e-01  8.500000e-01
     vertex -1.545576e-01 -5.036330e-01  8.100000e-01
   endloop
 endfacet
 facet normal  9.034564e-01  4.286800e-01 -0.000000e+00
   outer loop
     vertex -1.566848e-01 -4.991501e-01  8.100000e-01
     vertex -1.566848e-01 -4.991501e-01  8.500000e-01
     vertex -1.545576e-01 -5.036330e-01  8.500000e-01
   endloop
 endfacet
 facet normal -1.188952e-05  1.000000e+00 -1.576843e-21
   outer loop
     vertex -2.433157e-01 -4.991511e-01  8.100000e-01
     vertex -1.566848e-01 -4.991501e-01  8.500000e-01
     vertex -1.566848e-01 -4.991501e-01  8.100000e-01
   endloop
 endfacet
 facet normal -1.188952e-05  1.000000e+00  0.000000e+00
   outer loop
     vertex -2.433157e-01 -4.991511e-01  8.100000e-01
     vertex -2.433157e-01 -4.991511e-01  8.500000e-01
     vertex -1.566848e-01 -4.991501e-01  8.500000e-01
   endloop
 endfacet
 facet normal -0.000000e+00  0.000000e+00 -1.000000e+00
   outer loop
     vertex -1.545576e-01 -5.036330e-01  8.100000e-01
     vertex -2.454429e-01 -5.036340e-01  8.100000e-01
     vertex -2.433157e-01 -4.991511e-01  8.100000e-01
   endloop
 endfacet
 facet normal  0.000000e+00 -0.000000e+00 -1.000000e+00
   outer loop
     vertex -1.566848e-01 -4.991501e-01  8.100000e-01
     vertex -1.545576e-01 -5.036330e-01  8.100000e-01
     vertex -2.433157e-01 -4.991511e-01  8.100000e-01
   endloop
 endfacet
 facet normal  0.000000e+00  0.000000e+00  1.000000e+00
   outer loop
     vertex -1.545576e-01 -5.036330e-01  8.500000e-01
     vertex -2.433157e-01 -4.991511e-01  8.500000e-01
     vertex -2.454429e-01 -5.036340e-01  8.500000e-01
   endloop
 endfacet
 facet normal  0.000000e+00  0.000000e+00  1.000000e+00
   outer loop
     vertex -1.566848e-01 -4.991501e-01  8.500000e-01
     vertex -2.433157e-01 -4.991511e-01  8.500000e-01
     vertex -1.545576e-01 -5.036330e-01  8.500000e-01
   endloop
 endfacet
endsolid
