solid
 facet normal -9.797895e-01  2.000312e-01  1.546583e-18
   outer loop
     vertex  5.598243e-01 -4.897455e-01  8.100000e-01
     vertex  5.608169e-01 -4.848838e-01  8.500000e-01
     vertex  5.608169e-01 -4.848838e-01  8.100000e-01
   endloop
 endfacet
 facet normal -9.797895e-01  2.000312e-01  0.000000e+00
   outer loop
     vertex  5.598243e-01 -4.897455e-01  8.100000e-01
     vertex  5.598243e-01 -4.897455e-01  8.500000e-01
     vertex  5.608169e-01 -4.848838e-01  8.500000e-01
   endloop
 endfacet
 facet normal -9.395658e-01 -3.423685e-01 -1.447526e-17
   outer loop
     vertex  6.000000e-01 -6.000000e-01  8.100000e-01
     vertex  5.598243e-01 -4.897455e-01  8.500000e-01
     vertex  5.598243e-01 -4.897455e-01  8.100000e-01
   endloop
 endfacet
 facet normal -9.395658e-01 -3.423685e-01  0.000000e+00
   outer loop
     vertex  6.000000e-01 -6.000000e-01  8.100000e-01
     vertex  6.000000e-01 -6.000000e-01  8.500000e-01
     vertex  5.598243e-01 -4.897455e-01  8.500000e-01
   endloop
 endfacet
 facet normal  9.466635e-01  3.222240e-01 -1.869904e-17
   outer loop
     vertex  5.608169e-01 -4.848838e-01  8.100000e-01
     vertex  6.000000e-01 -6.000000e-01  8.500000e-01
     vertex  6.000000e-01 -6.000000e-01  8.100000e-01
   endloop
 endfacet
 facet normal  9.466635e-01  3.222240e-01 -0.000000e+00
   outer loop
     vertex  5.608169e-01 -4.848838e-01  8.100000e-01
     vertex  5.608169e-01 -4.848838e-01  8.500000e-01
     vertex  6.000000e-01 -6.000000e-01  8.500000e-01
   endloop
 endfacet
 facet normal  0.000000e+00 -0.000000e+00 -1.000000e+00
   outer loop
     vertex  5.608169e-01 -4.848838e-01  8.100000e-01
     vertex  6.000000e-01 -6.000000e-01  8.100000e-01
     vertex  5.598243e-01 -4.897455e-01  8.100000e-01
   endloop
 endfacet
 facet normal  0.000000e+00  0.000000e+00  1.000000e+00
   outer loop
     vertex  5.608169e-01 -4.848838e-01  8.500000e-01
     vertex  5.598243e-01 -4.897455e-01  8.500000e-01
     vertex  6.000000e-01 -6.000000e-01  8.500000e-01
   endloop
 endfacet
endsolid
