solid
 facet normal -8.229837e-01  5.680650e-01  4.146148e-18
   outer loop
     vertex  1.492574e-01 -5.120148e-01  8.100000e-01
     vertex  1.520761e-01 -5.079312e-01  8.500000e-01
     vertex  1.520761e-01 -5.079312e-01  8.100000e-01
   endloop
 endfacet
 facet normal -8.229837e-01  5.680650e-01  0.000000e+00
   outer loop
     vertex  1.492574e-01 -5.120148e-01  8.100000e-01
     vertex  1.492574e-01 -5.120148e-01  8.500000e-01
     vertex  1.520761e-01 -5.079312e-01  8.500000e-01
   endloop
 endfacet
 facet normal  8.796412e-06 -1.000000e+00  9.935602e-22
   outer loop
     vertex  2.507419e-01 -5.120139e-01  8.100000e-01
     vertex  1.492574e-01 -5.120148e-01  8.500000e-01
     vertex  1.492574e-01 -5.120148e-01  8.100000e-01
   endloop
 endfacet
 facet normal  8.796412e-06 -1.000000e+00  0.000000e+00
   outer loop
     vertex  2.507419e-01 -5.120139e-01  8.100000e-01
     vertex  2.507419e-01 -5.120139e-01  8.500000e-01
     vertex  1.492574e-01 -5.120148e-01  8.500000e-01
   endloop
 endfacet
 facet normal  8.229929e-01  5.680517e-01  1.497819e-18
   outer loop
     vertex  2.479233e-01 -5.079302e-01  8.100000e-01
     vertex  2.507419e-01 -5.120139e-01  8.500000e-01
     vertex  2.507419e-01 -5.120139e-01  8.100000e-01
   endloop
 endfacet
 facet normal  8.229929e-01  5.680517e-01 -0.000000e+00
   outer loop
     vertex  2.479233e-01 -5.079302e-01  8.100000e-01
     vertex  2.479233e-01 -5.079302e-01  8.500000e-01
     vertex  2.507419e-01 -5.120139e-01  8.500000e-01
   endloop
 endfacet
 facet normal -9.870923e-06  1.000000e+00  1.771711e-23
   outer loop
     vertex  1.520761e-01 -5.079312e-01  8.100000e-01
     vertex  2.479233e-01 -5.079302e-01  8.500000e-01
     vertex  2.479233e-01 -5.079302e-01  8.100000e-01
   endloop
 endfacet
 facet normal -9.870923e-06  1.000000e+00  0.000000e+00
   outer loop
     vertex  1.520761e-01 -5.079312e-01  8.100000e-01
     vertex  1.520761e-01 -5.079312e-01  8.500000e-01
     vertex  2.479233e-01 -5.079302e-01  8.500000e-01
   endloop
 endfacet
 facet normal -0.000000e+00  0.000000e+00 -1.000000e+00
   outer loop
     vertex  2.507419e-01 -5.120139e-01  8.100000e-01
     vertex  1.492574e-01 -5.120148e-01  8.100000e-01
     vertex  1.520761e-01 -5.079312e-01  8.100000e-01
   endloop
 endfacet
 facet normal  0.000000e+00 -0.000000e+00 -1.000000e+00
   outer loop
     vertex  2.479233e-01 -5.079302e-01  8.100000e-01
     vertex  2.507419e-01 -5.120139e-01  8.100000e-01
     vertex  1.520761e-01 -5.079312e-01  8.100000e-01
   endloop
 endfacet
 facet normal  0.000000e+00  0.000000e+00  1.000000e+00
   outer loop
     vertex  2.507419e-01 -5.120139e-01  8.500000e-01
     vertex  1.520761e-01 -5.079312e-01  8.500000e-01
     vertex  1.492574e-01 -5.120148e-01  8.500000e-01
   endloop
 endfacet
 facet normal  0.000000e+00  0.000000e+00  1.000000e+00
   outer loop
     vertex  2.479233e-01 -5.079302e-01  8.500000e-01
     vertex  1.520761e-01 -5.079312e-01  8.500000e-01
     vertex  2.507419e-01 -5.120139e-01  8.500000e-01
   endloop
 endfacet
endsolid
