solid
 facet normal -8.662593e-01  4.995946e-01  4.092581e-17
   outer loop
     vertex  5.492570e-01 -4.379846e-01  8.100000e-01
     vertex  6.000000e-01 -3.500000e-01  8.500000e-01
     vertex  6.000000e-01 -3.500000e-01  8.100000e-01
   endloop
 endfacet
 facet normal -8.662593e-01  4.995946e-01  0.000000e+00
   outer loop
     vertex  5.492570e-01 -4.379846e-01  8.100000e-01
     vertex  5.492570e-01 -4.379846e-01  8.500000e-01
     vertex  6.000000e-01 -3.500000e-01  8.500000e-01
   endloop
 endfacet
 facet normal -8.229746e-01 -5.680781e-01 -9.226337e-19
   outer loop
     vertex  5.520758e-01 -4.420683e-01  8.100000e-01
     vertex  5.492570e-01 -4.379846e-01  8.500000e-01
     vertex  5.492570e-01 -4.379846e-01  8.100000e-01
   endloop
 endfacet
 facet normal -8.229746e-01 -5.680781e-01  0.000000e+00
   outer loop
     vertex  5.520758e-01 -4.420683e-01  8.100000e-01
     vertex  5.520758e-01 -4.420683e-01  8.500000e-01
     vertex  5.492570e-01 -4.379846e-01  8.500000e-01
   endloop
 endfacet
 facet normal  8.870247e-01 -4.617220e-01  5.554580e-17
   outer loop
     vertex  6.000000e-01 -3.500000e-01  8.100000e-01
     vertex  5.520758e-01 -4.420683e-01  8.500000e-01
     vertex  5.520758e-01 -4.420683e-01  8.100000e-01
   endloop
 endfacet
 facet normal  8.870247e-01 -4.617220e-01  0.000000e+00
   outer loop
     vertex  6.000000e-01 -3.500000e-01  8.100000e-01
     vertex  6.000000e-01 -3.500000e-01  8.500000e-01
     vertex  5.520758e-01 -4.420683e-01  8.500000e-01
   endloop
 endfacet
 facet normal  0.000000e+00  0.000000e+00 -1.000000e+00
   outer loop
     vertex  6.000000e-01 -3.500000e-01  8.100000e-01
     vertex  5.520758e-01 -4.420683e-01  8.100000e-01
     vertex  5.492570e-01 -4.379846e-01  8.100000e-01
   endloop
 endfacet
 facet normal  0.000000e+00  0.000000e+00  1.000000e+00
   outer loop
     vertex  6.000000e-01 -3.500000e-01  8.500000e-01
     vertex  5.492570e-01 -4.379846e-01  8.500000e-01
     vertex  5.520758e-01 -4.420683e-01  8.500000e-01
   endloop
 endfacet
endsolid
