solid
 facet normal -9.605190e-01  2.782142e-01 -1.197334e-18
   outer loop
     vertex  5.584438e-01 -4.945116e-01  8.100000e-01
     vertex  5.598243e-01 -4.897455e-01  8.500000e-01
     vertex  5.598243e-01 -4.897455e-01  8.100000e-01
   endloop
 endfacet
 facet normal -9.605190e-01  2.782142e-01  0.000000e+00
   outer loop
     vertex  5.584438e-01 -4.945116e-01  8.100000e-01
     vertex  5.584438e-01 -4.945116e-01  8.500000e-01
     vertex  5.598243e-01 -4.897455e-01  8.500000e-01
   endloop
 endfacet
 facet normal -9.304081e-01 -3.665253e-01 -5.576191e-17
   outer loop
     vertex  6.000000e-01 -6.000000e-01  8.100000e-01
     vertex  5.584438e-01 -4.945116e-01  8.500000e-01
     vertex  5.584438e-01 -4.945116e-01  8.100000e-01
   endloop
 endfacet
 facet normal -9.304081e-01 -3.665253e-01  0.000000e+00
   outer loop
     vertex  6.000000e-01 -6.000000e-01  8.100000e-01
     vertex  6.000000e-01 -6.000000e-01  8.500000e-01
     vertex  5.584438e-01 -4.945116e-01  8.500000e-01
   endloop
 endfacet
 facet normal  9.395658e-01  3.423685e-01 -1.447526e-17
   outer loop
     vertex  5.598243e-01 -4.897455e-01  8.100000e-01
     vertex  6.000000e-01 -6.000000e-01  8.500000e-01
     vertex  6.000000e-01 -6.000000e-01  8.100000e-01
   endloop
 endfacet
 facet normal  9.395658e-01  3.423685e-01 -0.000000e+00
   outer loop
     vertex  5.598243e-01 -4.897455e-01  8.100000e-01
     vertex  5.598243e-01 -4.897455e-01  8.500000e-01
     vertex  6.000000e-01 -6.000000e-01  8.500000e-01
   endloop
 endfacet
 facet normal  0.000000e+00 -0.000000e+00 -1.000000e+00
   outer loop
     vertex  5.598243e-01 -4.897455e-01  8.100000e-01
     vertex  6.000000e-01 -6.000000e-01  8.100000e-01
     vertex  5.584438e-01 -4.945116e-01  8.100000e-01
   endloop
 endfacet
 facet normal  0.000000e+00  0.000000e+00  1.000000e+00
   outer loop
     vertex  5.598243e-01 -4.897455e-01  8.500000e-01
     vertex  5.584438e-01 -4.945116e-01  8.500000e-01
     vertex  6.000000e-01 -6.000000e-01  8.500000e-01
   endloop
 endfacet
endsolid
