solid
 facet normal -3.546241e-01  9.350090e-01 -1.552027e-18
   outer loop
     vertex -4.554875e-01  2.415565e-01  8.100000e-01
     vertex -4.508480e-01  2.433161e-01  8.500000e-01
     vertex -4.508480e-01  2.433161e-01  8.100000e-01
   endloop
 endfacet
 facet normal -3.546241e-01  9.350090e-01  0.000000e+00
   outer loop
     vertex -4.554875e-01  2.415565e-01  8.100000e-01
     vertex -4.554875e-01  2.415565e-01  8.500000e-01
     vertex -4.508480e-01  2.433161e-01  8.500000e-01
   endloop
 endfacet
 facet normal -1.000000e+00  0.000000e+00  0.000000e+00
   outer loop
     vertex -4.554875e-01  1.584435e-01  8.100000e-01
     vertex -4.554875e-01  2.415565e-01  8.500000e-01
     vertex -4.554875e-01  2.415565e-01  8.100000e-01
   endloop
 endfacet
 facet normal -1.000000e+00  0.000000e+00  0.000000e+00
   outer loop
     vertex -4.554875e-01  1.584435e-01  8.100000e-01
     vertex -4.554875e-01  1.584435e-01  8.500000e-01
     vertex -4.554875e-01  2.415565e-01  8.500000e-01
   endloop
 endfacet
 facet normal -3.546241e-01 -9.350090e-01  1.669385e-18
   outer loop
     vertex -4.508480e-01  1.566839e-01  8.100000e-01
     vertex -4.554875e-01  1.584435e-01  8.500000e-01
     vertex -4.554875e-01  1.584435e-01  8.100000e-01
   endloop
 endfacet
 facet normal -3.546241e-01 -9.350090e-01  0.000000e+00
   outer loop
     vertex -4.508480e-01  1.566839e-01  8.100000e-01
     vertex -4.508480e-01  1.566839e-01  8.500000e-01
     vertex -4.554875e-01  1.584435e-01  8.500000e-01
   endloop
 endfacet
 facet normal  1.000000e+00  0.000000e+00  0.000000e+00
   outer loop
     vertex -4.508480e-01  2.433161e-01  8.100000e-01
     vertex -4.508480e-01  1.566839e-01  8.500000e-01
     vertex -4.508480e-01  1.566839e-01  8.100000e-01
   endloop
 endfacet
 facet normal  1.000000e+00  0.000000e+00 -0.000000e+00
   outer loop
     vertex -4.508480e-01  2.433161e-01  8.100000e-01
     vertex -4.508480e-01  2.433161e-01  8.500000e-01
     vertex -4.508480e-01  1.566839e-01  8.500000e-01
   endloop
 endfacet
 facet normal  0.000000e+00  0.000000e+00 -1.000000e+00
   outer loop
     vertex -4.508480e-01  2.433161e-01  8.100000e-01
     vertex -4.554875e-01  1.584435e-01  8.100000e-01
     vertex -4.554875e-01  2.415565e-01  8.100000e-01
   endloop
 endfacet
 facet normal  0.000000e+00 -0.000000e+00 -1.000000e+00
   outer loop
     vertex -4.508480e-01  2.433161e-01  8.100000e-01
     vertex -4.508480e-01  1.566839e-01  8.100000e-01
     vertex -4.554875e-01  1.584435e-01  8.100000e-01
   endloop
 endfacet
 facet normal  0.000000e+00  0.000000e+00  1.000000e+00
   outer loop
     vertex -4.508480e-01  2.433161e-01  8.500000e-01
     vertex -4.554875e-01  2.415565e-01  8.500000e-01
     vertex -4.554875e-01  1.584435e-01  8.500000e-01
   endloop
 endfacet
 facet normal  0.000000e+00  0.000000e+00  1.000000e+00
   outer loop
     vertex -4.508480e-01  2.433161e-01  8.500000e-01
     vertex -4.554875e-01  1.584435e-01  8.500000e-01
     vertex -4.508480e-01  1.566839e-01  8.500000e-01
   endloop
 endfacet
endsolid
