solid
 facet normal  3.670948e-02  9.993260e-01 -3.487843e-18
   outer loop
     vertex -2.538814e-01 -4.341410e-01  8.100000e-01
     vertex -1.492567e-01 -4.379843e-01  8.500000e-01
     vertex -1.492567e-01 -4.379843e-01  8.100000e-01
   endloop
 endfacet
 facet normal  3.670948e-02  9.993260e-01 -0.000000e+00
   outer loop
     vertex -2.538814e-01 -4.341410e-01  8.100000e-01
     vertex -2.538814e-01 -4.341410e-01  8.500000e-01
     vertex -1.492567e-01 -4.379843e-01  8.500000e-01
   endloop
 endfacet
 facet normal -7.745958e-01 -6.324566e-01  3.374137e-18
   outer loop
     vertex -2.507431e-01 -4.379846e-01  8.100000e-01
     vertex -2.538814e-01 -4.341410e-01  8.500000e-01
     vertex -2.538814e-01 -4.341410e-01  8.100000e-01
   endloop
 endfacet
 facet normal -7.745958e-01 -6.324566e-01  0.000000e+00
   outer loop
     vertex -2.507431e-01 -4.379846e-01  8.100000e-01
     vertex -2.507431e-01 -4.379846e-01  8.500000e-01
     vertex -2.538814e-01 -4.341410e-01  8.500000e-01
   endloop
 endfacet
 facet normal  3.007301e-06 -1.000000e+00  6.590266e-22
   outer loop
     vertex -1.492567e-01 -4.379843e-01  8.100000e-01
     vertex -2.507431e-01 -4.379846e-01  8.500000e-01
     vertex -2.507431e-01 -4.379846e-01  8.100000e-01
   endloop
 endfacet
 facet normal  3.007301e-06 -1.000000e+00  0.000000e+00
   outer loop
     vertex -1.492567e-01 -4.379843e-01  8.100000e-01
     vertex -1.492567e-01 -4.379843e-01  8.500000e-01
     vertex -2.507431e-01 -4.379846e-01  8.500000e-01
   endloop
 endfacet
 facet normal -0.000000e+00  0.000000e+00 -1.000000e+00
   outer loop
     vertex -1.492567e-01 -4.379843e-01  8.100000e-01
     vertex -2.507431e-01 -4.379846e-01  8.100000e-01
     vertex -2.538814e-01 -4.341410e-01  8.100000e-01
   endloop
 endfacet
 facet normal  0.000000e+00  0.000000e+00  1.000000e+00
   outer loop
     vertex -1.492567e-01 -4.379843e-01  8.500000e-01
     vertex -2.538814e-01 -4.341410e-01  8.500000e-01
     vertex -2.507431e-01 -4.379846e-01  8.500000e-01
   endloop
 endfacet
endsolid
