solid
 facet normal -3.060073e-01 -9.520292e-01 -1.822452e-17
   outer loop
     vertex -4.799571e-01  5.614150e-01  8.100000e-01
     vertex -6.000000e-01  6.000000e-01  8.500000e-01
     vertex -6.000000e-01  6.000000e-01  8.100000e-01
   endloop
 endfacet
 facet normal -3.060073e-01 -9.520292e-01  0.000000e+00
   outer loop
     vertex -4.799571e-01  5.614150e-01  8.100000e-01
     vertex -4.799571e-01  5.614150e-01  8.500000e-01
     vertex -6.000000e-01  6.000000e-01  8.500000e-01
   endloop
 endfacet
 facet normal  4.027180e-02 -9.991888e-01 -2.444404e-19
   outer loop
     vertex -4.749991e-01  5.616149e-01  8.100000e-01
     vertex -4.799571e-01  5.614150e-01  8.500000e-01
     vertex -4.799571e-01  5.614150e-01  8.100000e-01
   endloop
 endfacet
 facet normal  4.027180e-02 -9.991888e-01  0.000000e+00
   outer loop
     vertex -4.749991e-01  5.616149e-01  8.100000e-01
     vertex -4.749991e-01  5.616149e-01  8.500000e-01
     vertex -4.799571e-01  5.614150e-01  8.500000e-01
   endloop
 endfacet
 facet normal  2.935540e-01 -9.559425e-01  1.223831e-17
   outer loop
     vertex -3.500000e-01  6.000000e-01  8.100000e-01
     vertex -4.749991e-01  5.616149e-01  8.500000e-01
     vertex -4.749991e-01  5.616149e-01  8.100000e-01
   endloop
 endfacet
 facet normal  2.935540e-01 -9.559425e-01  0.000000e+00
   outer loop
     vertex -3.500000e-01  6.000000e-01  8.100000e-01
     vertex -3.500000e-01  6.000000e-01  8.500000e-01
     vertex -4.749991e-01  5.616149e-01  8.500000e-01
   endloop
 endfacet
 facet normal  0.000000e+00  1.000000e+00  0.000000e+00
   outer loop
     vertex -6.000000e-01  6.000000e-01  8.100000e-01
     vertex -3.500000e-01  6.000000e-01  8.500000e-01
     vertex -3.500000e-01  6.000000e-01  8.100000e-01
   endloop
 endfacet
 facet normal  0.000000e+00  1.000000e+00  0.000000e+00
   outer loop
     vertex -6.000000e-01  6.000000e-01  8.100000e-01
     vertex -6.000000e-01  6.000000e-01  8.500000e-01
     vertex -3.500000e-01  6.000000e-01  8.500000e-01
   endloop
 endfacet
 facet normal -0.000000e+00  0.000000e+00 -1.000000e+00
   outer loop
     vertex -3.500000e-01  6.000000e-01  8.100000e-01
     vertex -4.749991e-01  5.616149e-01  8.100000e-01
     vertex -6.000000e-01  6.000000e-01  8.100000e-01
   endloop
 endfacet
 facet normal -0.000000e+00  0.000000e+00 -1.000000e+00
   outer loop
     vertex -4.749991e-01  5.616149e-01  8.100000e-01
     vertex -4.799571e-01  5.614150e-01  8.100000e-01
     vertex -6.000000e-01  6.000000e-01  8.100000e-01
   endloop
 endfacet
 facet normal  0.000000e+00  0.000000e+00  1.000000e+00
   outer loop
     vertex -3.500000e-01  6.000000e-01  8.500000e-01
     vertex -6.000000e-01  6.000000e-01  8.500000e-01
     vertex -4.749991e-01  5.616149e-01  8.500000e-01
   endloop
 endfacet
 facet normal  0.000000e+00  0.000000e+00  1.000000e+00
   outer loop
     vertex -4.749991e-01  5.616149e-01  8.500000e-01
     vertex -6.000000e-01  6.000000e-01  8.500000e-01
     vertex -4.799571e-01  5.614150e-01  8.500000e-01
   endloop
 endfacet
endsolid
