solid
 facet normal  3.670949e-02  9.993260e-01  4.827885e-19
   outer loop
     vertex -5.388135e-02 -4.341410e-01  8.100000e-01
     vertex  5.074329e-02 -4.379843e-01  8.500000e-01
     vertex  5.074329e-02 -4.379843e-01  8.100000e-01
   endloop
 endfacet
 facet normal  3.670949e-02  9.993260e-01 -0.000000e+00
   outer loop
     vertex -5.388135e-02 -4.341410e-01  8.100000e-01
     vertex -5.388135e-02 -4.341410e-01  8.500000e-01
     vertex  5.074329e-02 -4.379843e-01  8.500000e-01
   endloop
 endfacet
 facet normal -7.745958e-01 -6.324566e-01 -2.299014e-18
   outer loop
     vertex -5.074304e-02 -4.379846e-01  8.100000e-01
     vertex -5.388135e-02 -4.341410e-01  8.500000e-01
     vertex -5.388135e-02 -4.341410e-01  8.100000e-01
   endloop
 endfacet
 facet normal -7.745958e-01 -6.324566e-01  0.000000e+00
   outer loop
     vertex -5.074304e-02 -4.379846e-01  8.100000e-01
     vertex -5.074304e-02 -4.379846e-01  8.500000e-01
     vertex -5.388135e-02 -4.341410e-01  8.500000e-01
   endloop
 endfacet
 facet normal  3.007302e-06 -1.000000e+00 -3.348825e-22
   outer loop
     vertex  5.074329e-02 -4.379843e-01  8.100000e-01
     vertex -5.074304e-02 -4.379846e-01  8.500000e-01
     vertex -5.074304e-02 -4.379846e-01  8.100000e-01
   endloop
 endfacet
 facet normal  3.007302e-06 -1.000000e+00  0.000000e+00
   outer loop
     vertex  5.074329e-02 -4.379843e-01  8.100000e-01
     vertex  5.074329e-02 -4.379843e-01  8.500000e-01
     vertex -5.074304e-02 -4.379846e-01  8.500000e-01
   endloop
 endfacet
 facet normal -0.000000e+00  0.000000e+00 -1.000000e+00
   outer loop
     vertex  5.074329e-02 -4.379843e-01  8.100000e-01
     vertex -5.074304e-02 -4.379846e-01  8.100000e-01
     vertex -5.388135e-02 -4.341410e-01  8.100000e-01
   endloop
 endfacet
 facet normal  0.000000e+00  0.000000e+00  1.000000e+00
   outer loop
     vertex  5.074329e-02 -4.379843e-01  8.500000e-01
     vertex -5.388135e-02 -4.341410e-01  8.500000e-01
     vertex -5.074304e-02 -4.379846e-01  8.500000e-01
   endloop
 endfacet
endsolid
