solid
 facet normal  4.999915e-01  8.660303e-01  2.140749e-18
   outer loop
     vertex -5.079305e-01 -3.520765e-01  8.100000e-01
     vertex -5.036333e-01 -3.545575e-01  8.500000e-01
     vertex -5.036333e-01 -3.545575e-01  8.100000e-01
   endloop
 endfacet
 facet normal  4.999915e-01  8.660303e-01 -0.000000e+00
   outer loop
     vertex -5.079305e-01 -3.520765e-01  8.100000e-01
     vertex -5.079305e-01 -3.520765e-01  8.500000e-01
     vertex -5.036333e-01 -3.545575e-01  8.500000e-01
   endloop
 endfacet
 facet normal -9.374455e-01  3.481321e-01 -1.394273e-17
   outer loop
     vertex -6.000000e-01 -6.000000e-01  8.100000e-01
     vertex -5.079305e-01 -3.520765e-01  8.500000e-01
     vertex -5.079305e-01 -3.520765e-01  8.100000e-01
   endloop
 endfacet
 facet normal -9.374455e-01  3.481321e-01  0.000000e+00
   outer loop
     vertex -6.000000e-01 -6.000000e-01  8.100000e-01
     vertex -6.000000e-01 -6.000000e-01  8.500000e-01
     vertex -5.079305e-01 -3.520765e-01  8.500000e-01
   endloop
 endfacet
 facet normal  9.308252e-01 -3.654647e-01  8.110055e-17
   outer loop
     vertex -5.036333e-01 -3.545575e-01  8.100000e-01
     vertex -6.000000e-01 -6.000000e-01  8.500000e-01
     vertex -6.000000e-01 -6.000000e-01  8.100000e-01
   endloop
 endfacet
 facet normal  9.308252e-01 -3.654647e-01  0.000000e+00
   outer loop
     vertex -5.036333e-01 -3.545575e-01  8.100000e-01
     vertex -5.036333e-01 -3.545575e-01  8.500000e-01
     vertex -6.000000e-01 -6.000000e-01  8.500000e-01
   endloop
 endfacet
 facet normal -0.000000e+00  0.000000e+00 -1.000000e+00
   outer loop
     vertex -5.036333e-01 -3.545575e-01  8.100000e-01
     vertex -6.000000e-01 -6.000000e-01  8.100000e-01
     vertex -5.079305e-01 -3.520765e-01  8.100000e-01
   endloop
 endfacet
 facet normal  0.000000e+00  0.000000e+00  1.000000e+00
   outer loop
     vertex -5.036333e-01 -3.545575e-01  8.500000e-01
     vertex -5.079305e-01 -3.520765e-01  8.500000e-01
     vertex -6.000000e-01 -6.000000e-01  8.500000e-01
   endloop
 endfacet
endsolid
