solid
 facet normal  5.344761e-01  8.451836e-01  4.047858e-18
   outer loop
     vertex -3.350018e-01 -5.257076e-01  8.100000e-01
     vertex -3.308080e-01 -5.283596e-01  8.500000e-01
     vertex -3.308080e-01 -5.283596e-01  8.100000e-01
   endloop
 endfacet
 facet normal  5.344761e-01  8.451836e-01 -0.000000e+00
   outer loop
     vertex -3.350018e-01 -5.257076e-01  8.100000e-01
     vertex -3.350018e-01 -5.257076e-01  8.500000e-01
     vertex -3.308080e-01 -5.283596e-01  8.500000e-01
   endloop
 endfacet
 facet normal -2.699431e-01  9.628763e-01  1.074126e-16
   outer loop
     vertex -6.000000e-01 -6.000000e-01  8.100000e-01
     vertex -3.350018e-01 -5.257076e-01  8.500000e-01
     vertex -3.350018e-01 -5.257076e-01  8.100000e-01
   endloop
 endfacet
 facet normal -2.699431e-01  9.628763e-01  0.000000e+00
   outer loop
     vertex -6.000000e-01 -6.000000e-01  8.100000e-01
     vertex -6.000000e-01 -6.000000e-01  8.500000e-01
     vertex -3.350018e-01 -5.257076e-01  8.500000e-01
   endloop
 endfacet
 facet normal  2.571795e-01 -9.663636e-01 -1.519543e-16
   outer loop
     vertex -3.308080e-01 -5.283596e-01  8.100000e-01
     vertex -6.000000e-01 -6.000000e-01  8.500000e-01
     vertex -6.000000e-01 -6.000000e-01  8.100000e-01
   endloop
 endfacet
 facet normal  2.571795e-01 -9.663636e-01  0.000000e+00
   outer loop
     vertex -3.308080e-01 -5.283596e-01  8.100000e-01
     vertex -3.308080e-01 -5.283596e-01  8.500000e-01
     vertex -6.000000e-01 -6.000000e-01  8.500000e-01
   endloop
 endfacet
 facet normal -0.000000e+00  0.000000e+00 -1.000000e+00
   outer loop
     vertex -3.308080e-01 -5.283596e-01  8.100000e-01
     vertex -6.000000e-01 -6.000000e-01  8.100000e-01
     vertex -3.350018e-01 -5.257076e-01  8.100000e-01
   endloop
 endfacet
 facet normal  0.000000e+00  0.000000e+00  1.000000e+00
   outer loop
     vertex -3.308080e-01 -5.283596e-01  8.500000e-01
     vertex -3.350018e-01 -5.257076e-01  8.500000e-01
     vertex -6.000000e-01 -6.000000e-01  8.500000e-01
   endloop
 endfacet
endsolid
