solid
 facet normal -1.000000e+00  0.000000e+00  0.000000e+00
   outer loop
     vertex -4.848829e-01 -2.391830e-01  8.100000e-01
     vertex -4.848829e-01 -1.608170e-01  8.500000e-01
     vertex -4.848829e-01 -1.608170e-01  8.100000e-01
   endloop
 endfacet
 facet normal -1.000000e+00  0.000000e+00  0.000000e+00
   outer loop
     vertex -4.848829e-01 -2.391830e-01  8.100000e-01
     vertex -4.848829e-01 -2.391830e-01  8.500000e-01
     vertex -4.848829e-01 -1.608170e-01  8.500000e-01
   endloop
 endfacet
 facet normal  1.205264e-01 -9.927101e-01 -6.204239e-19
   outer loop
     vertex -4.799571e-01 -2.385849e-01  8.100000e-01
     vertex -4.848829e-01 -2.391830e-01  8.500000e-01
     vertex -4.848829e-01 -2.391830e-01  8.100000e-01
   endloop
 endfacet
 facet normal  1.205264e-01 -9.927101e-01  0.000000e+00
   outer loop
     vertex -4.799571e-01 -2.385849e-01  8.100000e-01
     vertex -4.799571e-01 -2.385849e-01  8.500000e-01
     vertex -4.848829e-01 -2.391830e-01  8.500000e-01
   endloop
 endfacet
 facet normal  1.000000e+00  0.000000e+00  0.000000e+00
   outer loop
     vertex -4.799571e-01 -1.614151e-01  8.100000e-01
     vertex -4.799571e-01 -2.385849e-01  8.500000e-01
     vertex -4.799571e-01 -2.385849e-01  8.100000e-01
   endloop
 endfacet
 facet normal  1.000000e+00  0.000000e+00 -0.000000e+00
   outer loop
     vertex -4.799571e-01 -1.614151e-01  8.100000e-01
     vertex -4.799571e-01 -1.614151e-01  8.500000e-01
     vertex -4.799571e-01 -2.385849e-01  8.500000e-01
   endloop
 endfacet
 facet normal  1.205264e-01  9.927101e-01  6.204239e-19
   outer loop
     vertex -4.848829e-01 -1.608170e-01  8.100000e-01
     vertex -4.799571e-01 -1.614151e-01  8.500000e-01
     vertex -4.799571e-01 -1.614151e-01  8.100000e-01
   endloop
 endfacet
 facet normal  1.205264e-01  9.927101e-01 -0.000000e+00
   outer loop
     vertex -4.848829e-01 -1.608170e-01  8.100000e-01
     vertex -4.848829e-01 -1.608170e-01  8.500000e-01
     vertex -4.799571e-01 -1.614151e-01  8.500000e-01
   endloop
 endfacet
 facet normal -0.000000e+00  0.000000e+00 -1.000000e+00
   outer loop
     vertex -4.799571e-01 -1.614151e-01  8.100000e-01
     vertex -4.848829e-01 -2.391830e-01  8.100000e-01
     vertex -4.848829e-01 -1.608170e-01  8.100000e-01
   endloop
 endfacet
 facet normal  0.000000e+00 -0.000000e+00 -1.000000e+00
   outer loop
     vertex -4.799571e-01 -1.614151e-01  8.100000e-01
     vertex -4.799571e-01 -2.385849e-01  8.100000e-01
     vertex -4.848829e-01 -2.391830e-01  8.100000e-01
   endloop
 endfacet
 facet normal  0.000000e+00  0.000000e+00  1.000000e+00
   outer loop
     vertex -4.799571e-01 -1.614151e-01  8.500000e-01
     vertex -4.848829e-01 -1.608170e-01  8.500000e-01
     vertex -4.848829e-01 -2.391830e-01  8.500000e-01
   endloop
 endfacet
 facet normal  0.000000e+00  0.000000e+00  1.000000e+00
   outer loop
     vertex -4.799571e-01 -1.614151e-01  8.500000e-01
     vertex -4.848829e-01 -2.391830e-01  8.500000e-01
     vertex -4.799571e-01 -2.385849e-01  8.500000e-01
   endloop
 endfacet
endsolid
