solid
 facet normal -9.986849e-01  5.126920e-02  7.892191e-18
   outer loop
     vertex -1.389669e-01 -4.272720e-01  8.100000e-01
     vertex -1.350000e-01 -3.500000e-01  8.500000e-01
     vertex -1.350000e-01 -3.500000e-01  8.100000e-01
   endloop
 endfacet
 facet normal -9.986849e-01  5.126920e-02  0.000000e+00
   outer loop
     vertex -1.389669e-01 -4.272720e-01  8.100000e-01
     vertex -1.389669e-01 -4.272720e-01  8.500000e-01
     vertex -1.350000e-01 -3.500000e-01  8.500000e-01
   endloop
 endfacet
 facet normal  6.007250e-01 -7.994557e-01  3.619541e-18
   outer loop
     vertex -1.350000e-01 -4.242912e-01  8.100000e-01
     vertex -1.389669e-01 -4.272720e-01  8.500000e-01
     vertex -1.389669e-01 -4.272720e-01  8.100000e-01
   endloop
 endfacet
 facet normal  6.007250e-01 -7.994557e-01  0.000000e+00
   outer loop
     vertex -1.350000e-01 -4.242912e-01  8.100000e-01
     vertex -1.350000e-01 -4.242912e-01  8.500000e-01
     vertex -1.389669e-01 -4.272720e-01  8.500000e-01
   endloop
 endfacet
 facet normal  1.000000e+00  0.000000e+00  0.000000e+00
   outer loop
     vertex -1.350000e-01 -3.500000e-01  8.100000e-01
     vertex -1.350000e-01 -4.242912e-01  8.500000e-01
     vertex -1.350000e-01 -4.242912e-01  8.100000e-01
   endloop
 endfacet
 facet normal  1.000000e+00  0.000000e+00 -0.000000e+00
   outer loop
     vertex -1.350000e-01 -3.500000e-01  8.100000e-01
     vertex -1.350000e-01 -3.500000e-01  8.500000e-01
     vertex -1.350000e-01 -4.242912e-01  8.500000e-01
   endloop
 endfacet
 facet normal  0.000000e+00 -0.000000e+00 -1.000000e+00
   outer loop
     vertex -1.350000e-01 -3.500000e-01  8.100000e-01
     vertex -1.350000e-01 -4.242912e-01  8.100000e-01
     vertex -1.389669e-01 -4.272720e-01  8.100000e-01
   endloop
 endfacet
 facet normal  0.000000e+00  0.000000e+00  1.000000e+00
   outer loop
     vertex -1.350000e-01 -3.500000e-01  8.500000e-01
     vertex -1.389669e-01 -4.272720e-01  8.500000e-01
     vertex -1.350000e-01 -4.242912e-01  8.500000e-01
   endloop
 endfacet
endsolid
