solid
 facet normal  3.545985e-01 -9.350187e-01  3.584590e-18
   outer loop
     vertex -4.945108e-01 -4.155585e-02  8.100000e-01
     vertex -4.991503e-01 -4.331537e-02  8.500000e-01
     vertex -4.991503e-01 -4.331537e-02  8.100000e-01
   endloop
 endfacet
 facet normal  3.545985e-01 -9.350187e-01  0.000000e+00
   outer loop
     vertex -4.945108e-01 -4.155585e-02  8.100000e-01
     vertex -4.945108e-01 -4.155585e-02  8.500000e-01
     vertex -4.991503e-01 -4.331537e-02  8.500000e-01
   endloop
 endfacet
 facet normal  1.000000e+00  0.000000e+00  0.000000e+00
   outer loop
     vertex -4.945108e-01  4.155585e-02  8.100000e-01
     vertex -4.945108e-01 -4.155585e-02  8.500000e-01
     vertex -4.945108e-01 -4.155585e-02  8.100000e-01
   endloop
 endfacet
 facet normal  1.000000e+00  0.000000e+00 -0.000000e+00
   outer loop
     vertex -4.945108e-01  4.155585e-02  8.100000e-01
     vertex -4.945108e-01  4.155585e-02  8.500000e-01
     vertex -4.945108e-01 -4.155585e-02  8.500000e-01
   endloop
 endfacet
 facet normal  3.545985e-01  9.350187e-01 -3.584590e-18
   outer loop
     vertex -4.991503e-01  4.331537e-02  8.100000e-01
     vertex -4.945108e-01  4.155585e-02  8.500000e-01
     vertex -4.945108e-01  4.155585e-02  8.100000e-01
   endloop
 endfacet
 facet normal  3.545985e-01  9.350187e-01 -0.000000e+00
   outer loop
     vertex -4.991503e-01  4.331537e-02  8.100000e-01
     vertex -4.991503e-01  4.331537e-02  8.500000e-01
     vertex -4.945108e-01  4.155585e-02  8.500000e-01
   endloop
 endfacet
 facet normal -1.000000e+00  0.000000e+00  0.000000e+00
   outer loop
     vertex -4.991503e-01 -4.331537e-02  8.100000e-01
     vertex -4.991503e-01  4.331537e-02  8.500000e-01
     vertex -4.991503e-01  4.331537e-02  8.100000e-01
   endloop
 endfacet
 facet normal -1.000000e+00  0.000000e+00  0.000000e+00
   outer loop
     vertex -4.991503e-01 -4.331537e-02  8.100000e-01
     vertex -4.991503e-01 -4.331537e-02  8.500000e-01
     vertex -4.991503e-01  4.331537e-02  8.500000e-01
   endloop
 endfacet
 facet normal  0.000000e+00 -0.000000e+00 -1.000000e+00
   outer loop
     vertex -4.945108e-01  4.155585e-02  8.100000e-01
     vertex -4.945108e-01 -4.155585e-02  8.100000e-01
     vertex -4.991503e-01 -4.331537e-02  8.100000e-01
   endloop
 endfacet
 facet normal -0.000000e+00  0.000000e+00 -1.000000e+00
   outer loop
     vertex -4.945108e-01  4.155585e-02  8.100000e-01
     vertex -4.991503e-01 -4.331537e-02  8.100000e-01
     vertex -4.991503e-01  4.331537e-02  8.100000e-01
   endloop
 endfacet
 facet normal  0.000000e+00  0.000000e+00  1.000000e+00
   outer loop
     vertex -4.945108e-01  4.155585e-02  8.500000e-01
     vertex -4.991503e-01 -4.331537e-02  8.500000e-01
     vertex -4.945108e-01 -4.155585e-02  8.500000e-01
   endloop
 endfacet
 facet normal  0.000000e+00  0.000000e+00  1.000000e+00
   outer loop
     vertex -4.945108e-01  4.155585e-02  8.500000e-01
     vertex -4.991503e-01  4.331537e-02  8.500000e-01
     vertex -4.991503e-01 -4.331537e-02  8.500000e-01
   endloop
 endfacet
endsolid
