solid
 facet normal -4.265274e-01  9.044746e-01  2.467067e-17
   outer loop
     vertex -4.463651e-01  5.545566e-01  8.100000e-01
     vertex -3.500000e-01  6.000000e-01  8.500000e-01
     vertex -3.500000e-01  6.000000e-01  8.100000e-01
   endloop
 endfacet
 facet normal -4.265274e-01  9.044746e-01  0.000000e+00
   outer loop
     vertex -4.463651e-01  5.545566e-01  8.100000e-01
     vertex -4.463651e-01  5.545566e-01  8.500000e-01
     vertex -3.500000e-01  6.000000e-01  8.500000e-01
   endloop
 endfacet
 facet normal -5.000166e-01 -8.660158e-01  8.119379e-19
   outer loop
     vertex -4.420679e-01  5.520756e-01  8.100000e-01
     vertex -4.463651e-01  5.545566e-01  8.500000e-01
     vertex -4.463651e-01  5.545566e-01  8.100000e-01
   endloop
 endfacet
 facet normal -5.000166e-01 -8.660158e-01  0.000000e+00
   outer loop
     vertex -4.420679e-01  5.520756e-01  8.100000e-01
     vertex -4.420679e-01  5.520756e-01  8.500000e-01
     vertex -4.463651e-01  5.545566e-01  8.500000e-01
   endloop
 endfacet
 facet normal  4.617251e-01 -8.870231e-01  4.307870e-17
   outer loop
     vertex -3.500000e-01  6.000000e-01  8.100000e-01
     vertex -4.420679e-01  5.520756e-01  8.500000e-01
     vertex -4.420679e-01  5.520756e-01  8.100000e-01
   endloop
 endfacet
 facet normal  4.617251e-01 -8.870231e-01  0.000000e+00
   outer loop
     vertex -3.500000e-01  6.000000e-01  8.100000e-01
     vertex -3.500000e-01  6.000000e-01  8.500000e-01
     vertex -4.420679e-01  5.520756e-01  8.500000e-01
   endloop
 endfacet
 facet normal  0.000000e+00  0.000000e+00 -1.000000e+00
   outer loop
     vertex -3.500000e-01  6.000000e-01  8.100000e-01
     vertex -4.420679e-01  5.520756e-01  8.100000e-01
     vertex -4.463651e-01  5.545566e-01  8.100000e-01
   endloop
 endfacet
 facet normal  0.000000e+00  0.000000e+00  1.000000e+00
   outer loop
     vertex -3.500000e-01  6.000000e-01  8.500000e-01
     vertex -4.463651e-01  5.545566e-01  8.500000e-01
     vertex -4.420679e-01  5.520756e-01  8.500000e-01
   endloop
 endfacet
endsolid
