solid
 facet normal  2.782009e-01 -9.605229e-01  1.919099e-18
   outer loop
     vertex -4.897446e-01  1.598246e-01  8.100000e-01
     vertex -4.945108e-01  1.584442e-01  8.500000e-01
     vertex -4.945108e-01  1.584442e-01  8.100000e-01
   endloop
 endfacet
 facet normal  2.782009e-01 -9.605229e-01  0.000000e+00
   outer loop
     vertex -4.897446e-01  1.598246e-01  8.100000e-01
     vertex -4.897446e-01  1.598246e-01  8.500000e-01
     vertex -4.945108e-01  1.584442e-01  8.500000e-01
   endloop
 endfacet
 facet normal  1.000000e+00  0.000000e+00  0.000000e+00
   outer loop
     vertex -4.897446e-01  2.401754e-01  8.100000e-01
     vertex -4.897446e-01  1.598246e-01  8.500000e-01
     vertex -4.897446e-01  1.598246e-01  8.100000e-01
   endloop
 endfacet
 facet normal  1.000000e+00  0.000000e+00 -0.000000e+00
   outer loop
     vertex -4.897446e-01  2.401754e-01  8.100000e-01
     vertex -4.897446e-01  2.401754e-01  8.500000e-01
     vertex -4.897446e-01  1.598246e-01  8.500000e-01
   endloop
 endfacet
 facet normal  2.782009e-01  9.605229e-01 -1.919099e-18
   outer loop
     vertex -4.945108e-01  2.415558e-01  8.100000e-01
     vertex -4.897446e-01  2.401754e-01  8.500000e-01
     vertex -4.897446e-01  2.401754e-01  8.100000e-01
   endloop
 endfacet
 facet normal  2.782009e-01  9.605229e-01 -0.000000e+00
   outer loop
     vertex -4.945108e-01  2.415558e-01  8.100000e-01
     vertex -4.945108e-01  2.415558e-01  8.500000e-01
     vertex -4.897446e-01  2.401754e-01  8.500000e-01
   endloop
 endfacet
 facet normal -1.000000e+00  0.000000e+00  0.000000e+00
   outer loop
     vertex -4.945108e-01  1.584442e-01  8.100000e-01
     vertex -4.945108e-01  2.415558e-01  8.500000e-01
     vertex -4.945108e-01  2.415558e-01  8.100000e-01
   endloop
 endfacet
 facet normal -1.000000e+00  0.000000e+00  0.000000e+00
   outer loop
     vertex -4.945108e-01  1.584442e-01  8.100000e-01
     vertex -4.945108e-01  1.584442e-01  8.500000e-01
     vertex -4.945108e-01  2.415558e-01  8.500000e-01
   endloop
 endfacet
 facet normal  0.000000e+00 -0.000000e+00 -1.000000e+00
   outer loop
     vertex -4.897446e-01  2.401754e-01  8.100000e-01
     vertex -4.897446e-01  1.598246e-01  8.100000e-01
     vertex -4.945108e-01  1.584442e-01  8.100000e-01
   endloop
 endfacet
 facet normal -0.000000e+00  0.000000e+00 -1.000000e+00
   outer loop
     vertex -4.897446e-01  2.401754e-01  8.100000e-01
     vertex -4.945108e-01  1.584442e-01  8.100000e-01
     vertex -4.945108e-01  2.415558e-01  8.100000e-01
   endloop
 endfacet
 facet normal  0.000000e+00  0.000000e+00  1.000000e+00
   outer loop
     vertex -4.897446e-01  2.401754e-01  8.500000e-01
     vertex -4.945108e-01  1.584442e-01  8.500000e-01
     vertex -4.897446e-01  1.598246e-01  8.500000e-01
   endloop
 endfacet
 facet normal  0.000000e+00  0.000000e+00  1.000000e+00
   outer loop
     vertex -4.897446e-01  2.401754e-01  8.500000e-01
     vertex -4.945108e-01  2.415558e-01  8.500000e-01
     vertex -4.945108e-01  1.584442e-01  8.500000e-01
   endloop
 endfacet
endsolid
