solid
 facet normal  7.485025e-01 -6.631319e-01  3.568380e-18
   outer loop
     vertex -5.194364e-01 -5.731763e-02  8.100000e-01
     vertex -5.227269e-01 -6.103168e-02  8.500000e-01
     vertex -5.227269e-01 -6.103168e-02  8.100000e-01
   endloop
 endfacet
 facet normal  7.485025e-01 -6.631319e-01  0.000000e+00
   outer loop
     vertex -5.194364e-01 -5.731763e-02  8.100000e-01
     vertex -5.194364e-01 -5.731763e-02  8.500000e-01
     vertex -5.227269e-01 -6.103168e-02  8.500000e-01
   endloop
 endfacet
 facet normal  1.000000e+00  0.000000e+00  0.000000e+00
   outer loop
     vertex -5.194364e-01  5.731763e-02  8.100000e-01
     vertex -5.194364e-01 -5.731763e-02  8.500000e-01
     vertex -5.194364e-01 -5.731763e-02  8.100000e-01
   endloop
 endfacet
 facet normal  1.000000e+00  0.000000e+00 -0.000000e+00
   outer loop
     vertex -5.194364e-01  5.731763e-02  8.100000e-01
     vertex -5.194364e-01  5.731763e-02  8.500000e-01
     vertex -5.194364e-01 -5.731763e-02  8.500000e-01
   endloop
 endfacet
 facet normal  7.485025e-01  6.631319e-01 -3.568380e-18
   outer loop
     vertex -5.227269e-01  6.103168e-02  8.100000e-01
     vertex -5.194364e-01  5.731763e-02  8.500000e-01
     vertex -5.194364e-01  5.731763e-02  8.100000e-01
   endloop
 endfacet
 facet normal  7.485025e-01  6.631319e-01 -0.000000e+00
   outer loop
     vertex -5.227269e-01  6.103168e-02  8.100000e-01
     vertex -5.227269e-01  6.103168e-02  8.500000e-01
     vertex -5.194364e-01  5.731763e-02  8.500000e-01
   endloop
 endfacet
 facet normal -1.000000e+00  0.000000e+00  0.000000e+00
   outer loop
     vertex -5.227269e-01 -6.103168e-02  8.100000e-01
     vertex -5.227269e-01  6.103168e-02  8.500000e-01
     vertex -5.227269e-01  6.103168e-02  8.100000e-01
   endloop
 endfacet
 facet normal -1.000000e+00  0.000000e+00  0.000000e+00
   outer loop
     vertex -5.227269e-01 -6.103168e-02  8.100000e-01
     vertex -5.227269e-01 -6.103168e-02  8.500000e-01
     vertex -5.227269e-01  6.103168e-02  8.500000e-01
   endloop
 endfacet
 facet normal  0.000000e+00  0.000000e+00 -1.000000e+00
   outer loop
     vertex -5.227269e-01  6.103168e-02  8.100000e-01
     vertex -5.194364e-01 -5.731763e-02  8.100000e-01
     vertex -5.227269e-01 -6.103168e-02  8.100000e-01
   endloop
 endfacet
 facet normal  0.000000e+00  0.000000e+00 -1.000000e+00
   outer loop
     vertex -5.227269e-01  6.103168e-02  8.100000e-01
     vertex -5.194364e-01  5.731763e-02  8.100000e-01
     vertex -5.194364e-01 -5.731763e-02  8.100000e-01
   endloop
 endfacet
 facet normal  0.000000e+00  0.000000e+00  1.000000e+00
   outer loop
     vertex -5.227269e-01  6.103168e-02  8.500000e-01
     vertex -5.227269e-01 -6.103168e-02  8.500000e-01
     vertex -5.194364e-01 -5.731763e-02  8.500000e-01
   endloop
 endfacet
 facet normal  0.000000e+00  0.000000e+00  1.000000e+00
   outer loop
     vertex -5.227269e-01  6.103168e-02  8.500000e-01
     vertex -5.194364e-01 -5.731763e-02  8.500000e-01
     vertex -5.194364e-01  5.731763e-02  8.500000e-01
   endloop
 endfacet
endsolid
