solid
 facet normal -6.927412e-01 -7.211862e-01  3.501939e-18
   outer loop
     vertex -4.305623e-01 -5.731891e-02  8.100000e-01
     vertex -4.341408e-01 -5.388153e-02  8.500000e-01
     vertex -4.341408e-01 -5.388153e-02  8.100000e-01
   endloop
 endfacet
 facet normal -6.927412e-01 -7.211862e-01  0.000000e+00
   outer loop
     vertex -4.305623e-01 -5.731891e-02  8.100000e-01
     vertex -4.305623e-01 -5.731891e-02  8.500000e-01
     vertex -4.341408e-01 -5.388153e-02  8.500000e-01
   endloop
 endfacet
 facet normal -9.491307e-02 -9.954856e-01 -1.142513e-17
   outer loop
     vertex -3.500000e-01 -6.500000e-02  8.100000e-01
     vertex -4.305623e-01 -5.731891e-02  8.500000e-01
     vertex -4.305623e-01 -5.731891e-02  8.100000e-01
   endloop
 endfacet
 facet normal -9.491307e-02 -9.954856e-01  0.000000e+00
   outer loop
     vertex -3.500000e-01 -6.500000e-02  8.100000e-01
     vertex -3.500000e-01 -6.500000e-02  8.500000e-01
     vertex -4.305623e-01 -5.731891e-02  8.500000e-01
   endloop
 endfacet
 facet normal  1.000000e+00  0.000000e+00  0.000000e+00
   outer loop
     vertex -3.500000e-01  6.500000e-02  8.100000e-01
     vertex -3.500000e-01 -6.500000e-02  8.500000e-01
     vertex -3.500000e-01 -6.500000e-02  8.100000e-01
   endloop
 endfacet
 facet normal  1.000000e+00  0.000000e+00 -0.000000e+00
   outer loop
     vertex -3.500000e-01  6.500000e-02  8.100000e-01
     vertex -3.500000e-01  6.500000e-02  8.500000e-01
     vertex -3.500000e-01 -6.500000e-02  8.500000e-01
   endloop
 endfacet
 facet normal -9.491307e-02  9.954856e-01  1.142513e-17
   outer loop
     vertex -4.305623e-01  5.731891e-02  8.100000e-01
     vertex -3.500000e-01  6.500000e-02  8.500000e-01
     vertex -3.500000e-01  6.500000e-02  8.100000e-01
   endloop
 endfacet
 facet normal -9.491307e-02  9.954856e-01  0.000000e+00
   outer loop
     vertex -4.305623e-01  5.731891e-02  8.100000e-01
     vertex -4.305623e-01  5.731891e-02  8.500000e-01
     vertex -3.500000e-01  6.500000e-02  8.500000e-01
   endloop
 endfacet
 facet normal -6.927412e-01  7.211862e-01 -3.501939e-18
   outer loop
     vertex -4.341408e-01  5.388153e-02  8.100000e-01
     vertex -4.305623e-01  5.731891e-02  8.500000e-01
     vertex -4.305623e-01  5.731891e-02  8.100000e-01
   endloop
 endfacet
 facet normal -6.927412e-01  7.211862e-01  0.000000e+00
   outer loop
     vertex -4.341408e-01  5.388153e-02  8.100000e-01
     vertex -4.341408e-01  5.388153e-02  8.500000e-01
     vertex -4.305623e-01  5.731891e-02  8.500000e-01
   endloop
 endfacet
 facet normal -1.000000e+00  0.000000e+00  0.000000e+00
   outer loop
     vertex -4.341408e-01 -5.388153e-02  8.100000e-01
     vertex -4.341408e-01  5.388153e-02  8.500000e-01
     vertex -4.341408e-01  5.388153e-02  8.100000e-01
   endloop
 endfacet
 facet normal -1.000000e+00  0.000000e+00  0.000000e+00
   outer loop
     vertex -4.341408e-01 -5.388153e-02  8.100000e-01
     vertex -4.341408e-01 -5.388153e-02  8.500000e-01
     vertex -4.341408e-01  5.388153e-02  8.500000e-01
   endloop
 endfacet
 facet normal  0.000000e+00  0.000000e+00 -1.000000e+00
   outer loop
     vertex -3.500000e-01 -6.500000e-02  8.100000e-01
     vertex -4.305623e-01 -5.731891e-02  8.100000e-01
     vertex -4.341408e-01 -5.388153e-02  8.100000e-01
   endloop
 endfacet
 facet normal  0.000000e+00  0.000000e+00 -1.000000e+00
   outer loop
     vertex -3.500000e-01  6.500000e-02  8.100000e-01
     vertex -4.341408e-01  5.388153e-02  8.100000e-01
     vertex -4.305623e-01  5.731891e-02  8.100000e-01
   endloop
 endfacet
 facet normal  0.000000e+00  0.000000e+00 -1.000000e+00
   outer loop
     vertex -3.500000e-01  6.500000e-02  8.100000e-01
     vertex -4.341408e-01 -5.388153e-02  8.100000e-01
     vertex -4.341408e-01  5.388153e-02  8.100000e-01
   endloop
 endfacet
 facet normal  0.000000e+00 -0.000000e+00 -1.000000e+00
   outer loop
     vertex -3.500000e-01  6.500000e-02  8.100000e-01
     vertex -3.500000e-01 -6.500000e-02  8.100000e-01
     vertex -4.341408e-01 -5.388153e-02  8.100000e-01
   endloop
 endfacet
 facet normal  0.000000e+00  0.000000e+00  1.000000e+00
   outer loop
     vertex -3.500000e-01 -6.500000e-02  8.500000e-01
     vertex -4.341408e-01 -5.388153e-02  8.500000e-01
     vertex -4.305623e-01 -5.731891e-02  8.500000e-01
   endloop
 endfacet
 facet normal  0.000000e+00  0.000000e+00  1.000000e+00
   outer loop
     vertex -3.500000e-01  6.500000e-02  8.500000e-01
     vertex -4.305623e-01  5.731891e-02  8.500000e-01
     vertex -4.341408e-01  5.388153e-02  8.500000e-01
   endloop
 endfacet
 facet normal  0.000000e+00  0.000000e+00  1.000000e+00
   outer loop
     vertex -3.500000e-01  6.500000e-02  8.500000e-01
     vertex -4.341408e-01  5.388153e-02  8.500000e-01
     vertex -4.341408e-01 -5.388153e-02  8.500000e-01
   endloop
 endfacet
 facet normal  0.000000e+00  0.000000e+00  1.000000e+00
   outer loop
     vertex -3.500000e-01  6.500000e-02  8.500000e-01
     vertex -4.341408e-01 -5.388153e-02  8.500000e-01
     vertex -3.500000e-01 -6.500000e-02  8.500000e-01
   endloop
 endfacet
endsolid
