solid
 facet normal  5.392622e-01  8.421379e-01 -1.253992e-17
   outer loop
     vertex -6.000000e-01  6.000000e-01  8.100000e-01
     vertex -5.158578e-01  5.461196e-01  8.500000e-01
     vertex -5.158578e-01  5.461196e-01  8.100000e-01
   endloop
 endfacet
 facet normal  5.392622e-01  8.421379e-01 -0.000000e+00
   outer loop
     vertex -6.000000e-01  6.000000e-01  8.100000e-01
     vertex -6.000000e-01  6.000000e-01  8.500000e-01
     vertex -5.158578e-01  5.461196e-01  8.500000e-01
   endloop
 endfacet
 facet normal -5.797118e-01 -8.148216e-01 -8.135611e-19
   outer loop
     vertex -5.194364e-01  5.426824e-01  8.100000e-01
     vertex -6.000000e-01  6.000000e-01  8.500000e-01
     vertex -6.000000e-01  6.000000e-01  8.100000e-01
   endloop
 endfacet
 facet normal -5.797118e-01 -8.148216e-01  0.000000e+00
   outer loop
     vertex -5.194364e-01  5.426824e-01  8.100000e-01
     vertex -5.194364e-01  5.426824e-01  8.500000e-01
     vertex -6.000000e-01  6.000000e-01  8.500000e-01
   endloop
 endfacet
 facet normal  6.927169e-01 -7.212096e-01  2.773957e-19
   outer loop
     vertex -5.158578e-01  5.461196e-01  8.100000e-01
     vertex -5.194364e-01  5.426824e-01  8.500000e-01
     vertex -5.194364e-01  5.426824e-01  8.100000e-01
   endloop
 endfacet
 facet normal  6.927169e-01 -7.212096e-01  0.000000e+00
   outer loop
     vertex -5.158578e-01  5.461196e-01  8.100000e-01
     vertex -5.158578e-01  5.461196e-01  8.500000e-01
     vertex -5.194364e-01  5.426824e-01  8.500000e-01
   endloop
 endfacet
 facet normal -0.000000e+00  0.000000e+00 -1.000000e+00
   outer loop
     vertex -5.158578e-01  5.461196e-01  8.100000e-01
     vertex -5.194364e-01  5.426824e-01  8.100000e-01
     vertex -6.000000e-01  6.000000e-01  8.100000e-01
   endloop
 endfacet
 facet normal  0.000000e+00  0.000000e+00  1.000000e+00
   outer loop
     vertex -5.158578e-01  5.461196e-01  8.500000e-01
     vertex -6.000000e-01  6.000000e-01  8.500000e-01
     vertex -5.194364e-01  5.426824e-01  8.500000e-01
   endloop
 endfacet
endsolid
