solid
 facet normal -4.647143e-01  8.854607e-01  2.711820e-18
   outer loop
     vertex  5.264135e-01 -5.306661e-01  8.100000e-01
     vertex  5.308071e-01 -5.283602e-01  8.500000e-01
     vertex  5.308071e-01 -5.283602e-01  8.100000e-01
   endloop
 endfacet
 facet normal -4.647143e-01  8.854607e-01  0.000000e+00
   outer loop
     vertex  5.264135e-01 -5.306661e-01  8.100000e-01
     vertex  5.264135e-01 -5.306661e-01  8.500000e-01
     vertex  5.308071e-01 -5.283602e-01  8.500000e-01
   endloop
 endfacet
 facet normal -6.857630e-01 -7.278249e-01  9.144417e-17
   outer loop
     vertex  6.000000e-01 -6.000000e-01  8.100000e-01
     vertex  5.264135e-01 -5.306661e-01  8.500000e-01
     vertex  5.264135e-01 -5.306661e-01  8.100000e-01
   endloop
 endfacet
 facet normal -6.857630e-01 -7.278249e-01  0.000000e+00
   outer loop
     vertex  6.000000e-01 -6.000000e-01  8.100000e-01
     vertex  6.000000e-01 -6.000000e-01  8.500000e-01
     vertex  5.264135e-01 -5.306661e-01  8.500000e-01
   endloop
 endfacet
 facet normal  7.192841e-01  6.947161e-01  1.074787e-16
   outer loop
     vertex  5.308071e-01 -5.283602e-01  8.100000e-01
     vertex  6.000000e-01 -6.000000e-01  8.500000e-01
     vertex  6.000000e-01 -6.000000e-01  8.100000e-01
   endloop
 endfacet
 facet normal  7.192841e-01  6.947161e-01 -0.000000e+00
   outer loop
     vertex  5.308071e-01 -5.283602e-01  8.100000e-01
     vertex  5.308071e-01 -5.283602e-01  8.500000e-01
     vertex  6.000000e-01 -6.000000e-01  8.500000e-01
   endloop
 endfacet
 facet normal  0.000000e+00 -0.000000e+00 -1.000000e+00
   outer loop
     vertex  5.308071e-01 -5.283602e-01  8.100000e-01
     vertex  6.000000e-01 -6.000000e-01  8.100000e-01
     vertex  5.264135e-01 -5.306661e-01  8.100000e-01
   endloop
 endfacet
 facet normal  0.000000e+00  0.000000e+00  1.000000e+00
   outer loop
     vertex  5.308071e-01 -5.283602e-01  8.500000e-01
     vertex  5.264135e-01 -5.306661e-01  8.500000e-01
     vertex  6.000000e-01 -6.000000e-01  8.500000e-01
   endloop
 endfacet
endsolid
