solid
 facet normal -6.007417e-01  7.994432e-01 -2.043756e-19
   outer loop
     vertex  5.350010e-01 -5.257082e-01  8.100000e-01
     vertex  5.389678e-01 -5.227273e-01  8.500000e-01
     vertex  5.389678e-01 -5.227273e-01  8.100000e-01
   endloop
 endfacet
 facet normal -6.007417e-01  7.994432e-01  0.000000e+00
   outer loop
     vertex  5.350010e-01 -5.257082e-01  8.100000e-01
     vertex  5.350010e-01 -5.257082e-01  8.500000e-01
     vertex  5.389678e-01 -5.227273e-01  8.500000e-01
   endloop
 endfacet
 facet normal -7.526084e-01 -6.584684e-01  7.455051e-18
   outer loop
     vertex  6.000000e-01 -6.000000e-01  8.100000e-01
     vertex  5.350010e-01 -5.257082e-01  8.500000e-01
     vertex  5.350010e-01 -5.257082e-01  8.100000e-01
   endloop
 endfacet
 facet normal -7.526084e-01 -6.584684e-01  0.000000e+00
   outer loop
     vertex  6.000000e-01 -6.000000e-01  8.100000e-01
     vertex  6.000000e-01 -6.000000e-01  8.500000e-01
     vertex  5.350010e-01 -5.257082e-01  8.500000e-01
   endloop
 endfacet
 facet normal  7.847469e-01  6.198163e-01  1.837963e-17
   outer loop
     vertex  5.389678e-01 -5.227273e-01  8.100000e-01
     vertex  6.000000e-01 -6.000000e-01  8.500000e-01
     vertex  6.000000e-01 -6.000000e-01  8.100000e-01
   endloop
 endfacet
 facet normal  7.847469e-01  6.198163e-01 -0.000000e+00
   outer loop
     vertex  5.389678e-01 -5.227273e-01  8.100000e-01
     vertex  5.389678e-01 -5.227273e-01  8.500000e-01
     vertex  6.000000e-01 -6.000000e-01  8.500000e-01
   endloop
 endfacet
 facet normal  0.000000e+00 -0.000000e+00 -1.000000e+00
   outer loop
     vertex  5.389678e-01 -5.227273e-01  8.100000e-01
     vertex  6.000000e-01 -6.000000e-01  8.100000e-01
     vertex  5.350010e-01 -5.257082e-01  8.100000e-01
   endloop
 endfacet
 facet normal  0.000000e+00  0.000000e+00  1.000000e+00
   outer loop
     vertex  5.389678e-01 -5.227273e-01  8.500000e-01
     vertex  5.350010e-01 -5.257082e-01  8.500000e-01
     vertex  6.000000e-01 -6.000000e-01  8.500000e-01
   endloop
 endfacet
endsolid
