solid
 facet normal  6.198110e-01  7.847511e-01 -1.914686e-17
   outer loop
     vertex -6.000000e-01  6.000000e-01  8.100000e-01
     vertex -5.227269e-01  5.389683e-01  8.500000e-01
     vertex -5.227269e-01  5.389683e-01  8.100000e-01
   endloop
 endfacet
 facet normal  6.198110e-01  7.847511e-01 -0.000000e+00
   outer loop
     vertex -6.000000e-01  6.000000e-01  8.100000e-01
     vertex -6.000000e-01  6.000000e-01  8.500000e-01
     vertex -5.227269e-01  5.389683e-01  8.500000e-01
   endloop
 endfacet
 facet normal -6.584637e-01 -7.526125e-01  8.964503e-17
   outer loop
     vertex -5.257078e-01  5.350015e-01  8.100000e-01
     vertex -6.000000e-01  6.000000e-01  8.500000e-01
     vertex -6.000000e-01  6.000000e-01  8.100000e-01
   endloop
 endfacet
 facet normal -6.584637e-01 -7.526125e-01  0.000000e+00
   outer loop
     vertex -5.257078e-01  5.350015e-01  8.100000e-01
     vertex -5.257078e-01  5.350015e-01  8.500000e-01
     vertex -6.000000e-01  6.000000e-01  8.500000e-01
   endloop
 endfacet
 facet normal  7.994373e-01 -6.007496e-01 -2.857666e-18
   outer loop
     vertex -5.227269e-01  5.389683e-01  8.100000e-01
     vertex -5.257078e-01  5.350015e-01  8.500000e-01
     vertex -5.257078e-01  5.350015e-01  8.100000e-01
   endloop
 endfacet
 facet normal  7.994373e-01 -6.007496e-01  0.000000e+00
   outer loop
     vertex -5.227269e-01  5.389683e-01  8.100000e-01
     vertex -5.227269e-01  5.389683e-01  8.500000e-01
     vertex -5.257078e-01  5.350015e-01  8.500000e-01
   endloop
 endfacet
 facet normal -0.000000e+00  0.000000e+00 -1.000000e+00
   outer loop
     vertex -5.227269e-01  5.389683e-01  8.100000e-01
     vertex -5.257078e-01  5.350015e-01  8.100000e-01
     vertex -6.000000e-01  6.000000e-01  8.100000e-01
   endloop
 endfacet
 facet normal  0.000000e+00  0.000000e+00  1.000000e+00
   outer loop
     vertex -5.227269e-01  5.389683e-01  8.500000e-01
     vertex -6.000000e-01  6.000000e-01  8.500000e-01
     vertex -5.257078e-01  5.350015e-01  8.500000e-01
   endloop
 endfacet
endsolid
