solid
 facet normal -9.739798e-01  2.266346e-01 -1.072566e-16
   outer loop
     vertex -6.000000e-01 -6.000000e-01  8.100000e-01
     vertex -5.341821e-01 -3.171425e-01  8.500000e-01
     vertex -5.341821e-01 -3.171425e-01  8.100000e-01
   endloop
 endfacet
 facet normal -9.739798e-01  2.266346e-01  0.000000e+00
   outer loop
     vertex -6.000000e-01 -6.000000e-01  8.100000e-01
     vertex -6.000000e-01 -6.000000e-01  8.500000e-01
     vertex -5.341821e-01 -3.171425e-01  8.500000e-01
   endloop
 endfacet
 facet normal  9.718831e-01 -2.354637e-01  5.521785e-17
   outer loop
     vertex -5.326108e-01 -3.218491e-01  8.100000e-01
     vertex -6.000000e-01 -6.000000e-01  8.500000e-01
     vertex -6.000000e-01 -6.000000e-01  8.100000e-01
   endloop
 endfacet
 facet normal  9.718831e-01 -2.354637e-01  0.000000e+00
   outer loop
     vertex -5.326108e-01 -3.218491e-01  8.100000e-01
     vertex -5.326108e-01 -3.218491e-01  8.500000e-01
     vertex -6.000000e-01 -6.000000e-01  8.500000e-01
   endloop
 endfacet
 facet normal  9.485356e-01  3.166706e-01  2.110876e-18
   outer loop
     vertex -5.341821e-01 -3.171425e-01  8.100000e-01
     vertex -5.326108e-01 -3.218491e-01  8.500000e-01
     vertex -5.326108e-01 -3.218491e-01  8.100000e-01
   endloop
 endfacet
 facet normal  9.485356e-01  3.166706e-01 -0.000000e+00
   outer loop
     vertex -5.341821e-01 -3.171425e-01  8.100000e-01
     vertex -5.341821e-01 -3.171425e-01  8.500000e-01
     vertex -5.326108e-01 -3.218491e-01  8.500000e-01
   endloop
 endfacet
 facet normal  0.000000e+00 -0.000000e+00 -1.000000e+00
   outer loop
     vertex -5.341821e-01 -3.171425e-01  8.100000e-01
     vertex -5.326108e-01 -3.218491e-01  8.100000e-01
     vertex -6.000000e-01 -6.000000e-01  8.100000e-01
   endloop
 endfacet
 facet normal  0.000000e+00  0.000000e+00  1.000000e+00
   outer loop
     vertex -5.341821e-01 -3.171425e-01  8.500000e-01
     vertex -6.000000e-01 -6.000000e-01  8.500000e-01
     vertex -5.326108e-01 -3.218491e-01  8.500000e-01
   endloop
 endfacet
endsolid
