solid
 facet normal  2.000185e-01 -9.797921e-01 -2.061173e-18
   outer loop
     vertex -4.848829e-01  3.608171e-01  8.100000e-01
     vertex -4.897446e-01  3.598246e-01  8.500000e-01
     vertex -4.897446e-01  3.598246e-01  8.100000e-01
   endloop
 endfacet
 facet normal  2.000185e-01 -9.797921e-01  0.000000e+00
   outer loop
     vertex -4.848829e-01  3.608171e-01  8.100000e-01
     vertex -4.848829e-01  3.608171e-01  8.500000e-01
     vertex -4.897446e-01  3.598246e-01  8.500000e-01
   endloop
 endfacet
 facet normal  1.000000e+00  0.000000e+00  0.000000e+00
   outer loop
     vertex -4.848829e-01  4.391830e-01  8.100000e-01
     vertex -4.848829e-01  3.608171e-01  8.500000e-01
     vertex -4.848829e-01  3.608171e-01  8.100000e-01
   endloop
 endfacet
 facet normal  1.000000e+00  0.000000e+00 -0.000000e+00
   outer loop
     vertex -4.848829e-01  4.391830e-01  8.100000e-01
     vertex -4.848829e-01  4.391830e-01  8.500000e-01
     vertex -4.848829e-01  3.608171e-01  8.500000e-01
   endloop
 endfacet
 facet normal  2.000067e-01  9.797945e-01 -1.825977e-19
   outer loop
     vertex -4.897446e-01  4.401754e-01  8.100000e-01
     vertex -4.848829e-01  4.391830e-01  8.500000e-01
     vertex -4.848829e-01  4.391830e-01  8.100000e-01
   endloop
 endfacet
 facet normal  2.000067e-01  9.797945e-01 -0.000000e+00
   outer loop
     vertex -4.897446e-01  4.401754e-01  8.100000e-01
     vertex -4.897446e-01  4.401754e-01  8.500000e-01
     vertex -4.848829e-01  4.391830e-01  8.500000e-01
   endloop
 endfacet
 facet normal -1.000000e+00  0.000000e+00  0.000000e+00
   outer loop
     vertex -4.897446e-01  3.598246e-01  8.100000e-01
     vertex -4.897446e-01  4.401754e-01  8.500000e-01
     vertex -4.897446e-01  4.401754e-01  8.100000e-01
   endloop
 endfacet
 facet normal -1.000000e+00  0.000000e+00  0.000000e+00
   outer loop
     vertex -4.897446e-01  3.598246e-01  8.100000e-01
     vertex -4.897446e-01  3.598246e-01  8.500000e-01
     vertex -4.897446e-01  4.401754e-01  8.500000e-01
   endloop
 endfacet
 facet normal  0.000000e+00  0.000000e+00 -1.000000e+00
   outer loop
     vertex -4.897446e-01  4.401754e-01  8.100000e-01
     vertex -4.848829e-01  3.608171e-01  8.100000e-01
     vertex -4.897446e-01  3.598246e-01  8.100000e-01
   endloop
 endfacet
 facet normal -0.000000e+00 -0.000000e+00 -1.000000e+00
   outer loop
     vertex -4.848829e-01  4.391830e-01  8.100000e-01
     vertex -4.848829e-01  3.608171e-01  8.100000e-01
     vertex -4.897446e-01  4.401754e-01  8.100000e-01
   endloop
 endfacet
 facet normal  0.000000e+00  0.000000e+00  1.000000e+00
   outer loop
     vertex -4.897446e-01  4.401754e-01  8.500000e-01
     vertex -4.897446e-01  3.598246e-01  8.500000e-01
     vertex -4.848829e-01  3.608171e-01  8.500000e-01
   endloop
 endfacet
 facet normal  0.000000e+00  0.000000e+00  1.000000e+00
   outer loop
     vertex -4.848829e-01  4.391830e-01  8.500000e-01
     vertex -4.897446e-01  4.401754e-01  8.500000e-01
     vertex -4.848829e-01  3.608171e-01  8.500000e-01
   endloop
 endfacet
endsolid
