solid
 facet normal -4.287188e-01  9.034380e-01 -2.937278e-19
   outer loop
     vertex -4.508480e-01  4.433160e-01  8.100000e-01
     vertex -4.463651e-01  4.454434e-01  8.500000e-01
     vertex -4.463651e-01  4.454434e-01  8.100000e-01
   endloop
 endfacet
 facet normal -4.287188e-01  9.034380e-01  0.000000e+00
   outer loop
     vertex -4.508480e-01  4.433160e-01  8.100000e-01
     vertex -4.508480e-01  4.433160e-01  8.500000e-01
     vertex -4.463651e-01  4.454434e-01  8.500000e-01
   endloop
 endfacet
 facet normal -1.000000e+00  0.000000e+00  0.000000e+00
   outer loop
     vertex -4.508480e-01  3.566839e-01  8.100000e-01
     vertex -4.508480e-01  4.433160e-01  8.500000e-01
     vertex -4.508480e-01  4.433160e-01  8.100000e-01
   endloop
 endfacet
 facet normal -1.000000e+00  0.000000e+00  0.000000e+00
   outer loop
     vertex -4.508480e-01  3.566839e-01  8.100000e-01
     vertex -4.508480e-01  3.566839e-01  8.500000e-01
     vertex -4.508480e-01  4.433160e-01  8.500000e-01
   endloop
 endfacet
 facet normal -4.287087e-01 -9.034428e-01 -1.351161e-18
   outer loop
     vertex -4.463651e-01  3.545566e-01  8.100000e-01
     vertex -4.508480e-01  3.566839e-01  8.500000e-01
     vertex -4.508480e-01  3.566839e-01  8.100000e-01
   endloop
 endfacet
 facet normal -4.287087e-01 -9.034428e-01  0.000000e+00
   outer loop
     vertex -4.463651e-01  3.545566e-01  8.100000e-01
     vertex -4.463651e-01  3.545566e-01  8.500000e-01
     vertex -4.508480e-01  3.566839e-01  8.500000e-01
   endloop
 endfacet
 facet normal  1.000000e+00  0.000000e+00  0.000000e+00
   outer loop
     vertex -4.463651e-01  4.454434e-01  8.100000e-01
     vertex -4.463651e-01  3.545566e-01  8.500000e-01
     vertex -4.463651e-01  3.545566e-01  8.100000e-01
   endloop
 endfacet
 facet normal  1.000000e+00  0.000000e+00 -0.000000e+00
   outer loop
     vertex -4.463651e-01  4.454434e-01  8.100000e-01
     vertex -4.463651e-01  4.454434e-01  8.500000e-01
     vertex -4.463651e-01  3.545566e-01  8.500000e-01
   endloop
 endfacet
 facet normal  0.000000e+00  0.000000e+00 -1.000000e+00
   outer loop
     vertex -4.508480e-01  4.433160e-01  8.100000e-01
     vertex -4.463651e-01  3.545566e-01  8.100000e-01
     vertex -4.508480e-01  3.566839e-01  8.100000e-01
   endloop
 endfacet
 facet normal  0.000000e+00 -0.000000e+00 -1.000000e+00
   outer loop
     vertex -4.463651e-01  4.454434e-01  8.100000e-01
     vertex -4.463651e-01  3.545566e-01  8.100000e-01
     vertex -4.508480e-01  4.433160e-01  8.100000e-01
   endloop
 endfacet
 facet normal  0.000000e+00  0.000000e+00  1.000000e+00
   outer loop
     vertex -4.508480e-01  4.433160e-01  8.500000e-01
     vertex -4.508480e-01  3.566839e-01  8.500000e-01
     vertex -4.463651e-01  3.545566e-01  8.500000e-01
   endloop
 endfacet
 facet normal  0.000000e+00  0.000000e+00  1.000000e+00
   outer loop
     vertex -4.463651e-01  4.454434e-01  8.500000e-01
     vertex -4.508480e-01  4.433160e-01  8.500000e-01
     vertex -4.463651e-01  3.545566e-01  8.500000e-01
   endloop
 endfacet
endsolid
