solid
 facet normal -9.350177e-01  3.546011e-01  3.500383e-18
   outer loop
     vertex  5.566843e-01 -4.991511e-01  8.100000e-01
     vertex  5.584438e-01 -4.945116e-01  8.500000e-01
     vertex  5.584438e-01 -4.945116e-01  8.100000e-01
   endloop
 endfacet
 facet normal -9.350177e-01  3.546011e-01  0.000000e+00
   outer loop
     vertex  5.566843e-01 -4.991511e-01  8.100000e-01
     vertex  5.566843e-01 -4.991511e-01  8.500000e-01
     vertex  5.584438e-01 -4.945116e-01  8.500000e-01
   endloop
 endfacet
 facet normal -9.188323e-01 -3.946482e-01  7.951897e-17
   outer loop
     vertex  6.000000e-01 -6.000000e-01  8.100000e-01
     vertex  5.566843e-01 -4.991511e-01  8.500000e-01
     vertex  5.566843e-01 -4.991511e-01  8.100000e-01
   endloop
 endfacet
 facet normal -9.188323e-01 -3.946482e-01  0.000000e+00
   outer loop
     vertex  6.000000e-01 -6.000000e-01  8.100000e-01
     vertex  6.000000e-01 -6.000000e-01  8.500000e-01
     vertex  5.566843e-01 -4.991511e-01  8.500000e-01
   endloop
 endfacet
 facet normal  9.304081e-01  3.665253e-01 -5.576191e-17
   outer loop
     vertex  5.584438e-01 -4.945116e-01  8.100000e-01
     vertex  6.000000e-01 -6.000000e-01  8.500000e-01
     vertex  6.000000e-01 -6.000000e-01  8.100000e-01
   endloop
 endfacet
 facet normal  9.304081e-01  3.665253e-01 -0.000000e+00
   outer loop
     vertex  5.584438e-01 -4.945116e-01  8.100000e-01
     vertex  5.584438e-01 -4.945116e-01  8.500000e-01
     vertex  6.000000e-01 -6.000000e-01  8.500000e-01
   endloop
 endfacet
 facet normal  0.000000e+00 -0.000000e+00 -1.000000e+00
   outer loop
     vertex  5.584438e-01 -4.945116e-01  8.100000e-01
     vertex  6.000000e-01 -6.000000e-01  8.100000e-01
     vertex  5.566843e-01 -4.991511e-01  8.100000e-01
   endloop
 endfacet
 facet normal  0.000000e+00  0.000000e+00  1.000000e+00
   outer loop
     vertex  5.584438e-01 -4.945116e-01  8.500000e-01
     vertex  5.566843e-01 -4.991511e-01  8.500000e-01
     vertex  6.000000e-01 -6.000000e-01  8.500000e-01
   endloop
 endfacet
endsolid
