solid
 facet normal -3.060123e-01  9.520276e-01  3.901414e-17
   outer loop
     vertex -4.700411e-01  5.614149e-01  8.100000e-01
     vertex -3.500000e-01  6.000000e-01  8.500000e-01
     vertex -3.500000e-01  6.000000e-01  8.100000e-01
   endloop
 endfacet
 facet normal -3.060123e-01  9.520276e-01  0.000000e+00
   outer loop
     vertex -4.700411e-01  5.614149e-01  8.100000e-01
     vertex -4.700411e-01  5.614149e-01  8.500000e-01
     vertex -3.500000e-01  6.000000e-01  8.500000e-01
   endloop
 endfacet
 facet normal -1.205448e-01 -9.927079e-01  8.297141e-19
   outer loop
     vertex -4.651153e-01  5.608168e-01  8.100000e-01
     vertex -4.700411e-01  5.614149e-01  8.500000e-01
     vertex -4.700411e-01  5.614149e-01  8.100000e-01
   endloop
 endfacet
 facet normal -1.205448e-01 -9.927079e-01  0.000000e+00
   outer loop
     vertex -4.651153e-01  5.608168e-01  8.100000e-01
     vertex -4.651153e-01  5.608168e-01  8.500000e-01
     vertex -4.700411e-01  5.614149e-01  8.500000e-01
   endloop
 endfacet
 facet normal  3.222273e-01 -9.466623e-01 -8.380135e-17
   outer loop
     vertex -3.500000e-01  6.000000e-01  8.100000e-01
     vertex -4.651153e-01  5.608168e-01  8.500000e-01
     vertex -4.651153e-01  5.608168e-01  8.100000e-01
   endloop
 endfacet
 facet normal  3.222273e-01 -9.466623e-01  0.000000e+00
   outer loop
     vertex -3.500000e-01  6.000000e-01  8.100000e-01
     vertex -3.500000e-01  6.000000e-01  8.500000e-01
     vertex -4.651153e-01  5.608168e-01  8.500000e-01
   endloop
 endfacet
 facet normal  0.000000e+00  0.000000e+00 -1.000000e+00
   outer loop
     vertex -3.500000e-01  6.000000e-01  8.100000e-01
     vertex -4.651153e-01  5.608168e-01  8.100000e-01
     vertex -4.700411e-01  5.614149e-01  8.100000e-01
   endloop
 endfacet
 facet normal  0.000000e+00  0.000000e+00  1.000000e+00
   outer loop
     vertex -3.500000e-01  6.000000e-01  8.500000e-01
     vertex -4.700411e-01  5.614149e-01  8.500000e-01
     vertex -4.651153e-01  5.608168e-01  8.500000e-01
   endloop
 endfacet
endsolid
