solid
 facet normal -9.927078e-01  1.205454e-01  5.904771e-19
   outer loop
     vertex  3.608169e-01 -4.848838e-01  8.100000e-01
     vertex  3.614150e-01 -4.799580e-01  8.500000e-01
     vertex  3.614150e-01 -4.799580e-01  8.100000e-01
   endloop
 endfacet
 facet normal -9.927078e-01  1.205454e-01  0.000000e+00
   outer loop
     vertex  3.608169e-01 -4.848838e-01  8.100000e-01
     vertex  3.608169e-01 -4.848838e-01  8.500000e-01
     vertex  3.614150e-01 -4.799580e-01  8.500000e-01
   endloop
 endfacet
 facet normal  1.411710e-05 -1.000000e+00 -2.039568e-21
   outer loop
     vertex  4.391829e-01 -4.848827e-01  8.100000e-01
     vertex  3.608169e-01 -4.848838e-01  8.500000e-01
     vertex  3.608169e-01 -4.848838e-01  8.100000e-01
   endloop
 endfacet
 facet normal  1.411710e-05 -1.000000e+00  0.000000e+00
   outer loop
     vertex  4.391829e-01 -4.848827e-01  8.100000e-01
     vertex  4.391829e-01 -4.848827e-01  8.500000e-01
     vertex  3.608169e-01 -4.848838e-01  8.500000e-01
   endloop
 endfacet
 facet normal  9.927108e-01  1.205209e-01 -7.793902e-19
   outer loop
     vertex  4.385848e-01 -4.799568e-01  8.100000e-01
     vertex  4.391829e-01 -4.848827e-01  8.500000e-01
     vertex  4.391829e-01 -4.848827e-01  8.100000e-01
   endloop
 endfacet
 facet normal  9.927108e-01  1.205209e-01 -0.000000e+00
   outer loop
     vertex  4.385848e-01 -4.799568e-01  8.100000e-01
     vertex  4.385848e-01 -4.799568e-01  8.500000e-01
     vertex  4.391829e-01 -4.848827e-01  8.500000e-01
   endloop
 endfacet
 facet normal -1.443440e-05  1.000000e+00 -1.962328e-21
   outer loop
     vertex  3.614150e-01 -4.799580e-01  8.100000e-01
     vertex  4.385848e-01 -4.799568e-01  8.500000e-01
     vertex  4.385848e-01 -4.799568e-01  8.100000e-01
   endloop
 endfacet
 facet normal -1.443440e-05  1.000000e+00  0.000000e+00
   outer loop
     vertex  3.614150e-01 -4.799580e-01  8.100000e-01
     vertex  3.614150e-01 -4.799580e-01  8.500000e-01
     vertex  4.385848e-01 -4.799568e-01  8.500000e-01
   endloop
 endfacet
 facet normal -0.000000e+00  0.000000e+00 -1.000000e+00
   outer loop
     vertex  4.391829e-01 -4.848827e-01  8.100000e-01
     vertex  3.608169e-01 -4.848838e-01  8.100000e-01
     vertex  3.614150e-01 -4.799580e-01  8.100000e-01
   endloop
 endfacet
 facet normal  0.000000e+00 -0.000000e+00 -1.000000e+00
   outer loop
     vertex  4.385848e-01 -4.799568e-01  8.100000e-01
     vertex  4.391829e-01 -4.848827e-01  8.100000e-01
     vertex  3.614150e-01 -4.799580e-01  8.100000e-01
   endloop
 endfacet
 facet normal  0.000000e+00  0.000000e+00  1.000000e+00
   outer loop
     vertex  4.391829e-01 -4.848827e-01  8.500000e-01
     vertex  3.614150e-01 -4.799580e-01  8.500000e-01
     vertex  3.608169e-01 -4.848838e-01  8.500000e-01
   endloop
 endfacet
 facet normal  0.000000e+00  0.000000e+00  1.000000e+00
   outer loop
     vertex  4.385848e-01 -4.799568e-01  8.500000e-01
     vertex  3.614150e-01 -4.799580e-01  8.500000e-01
     vertex  4.391829e-01 -4.848827e-01  8.500000e-01
   endloop
 endfacet
endsolid
