solid
 facet normal -8.232506e-01 -5.676781e-01  1.342382e-17
   outer loop
     vertex -5.361656e-01  5.074269e-01  8.100000e-01
     vertex -6.000000e-01  6.000000e-01  8.500000e-01
     vertex -6.000000e-01  6.000000e-01  8.100000e-01
   endloop
 endfacet
 facet normal -8.232506e-01 -5.676781e-01  0.000000e+00
   outer loop
     vertex -5.361656e-01  5.074269e-01  8.100000e-01
     vertex -5.361656e-01  5.074269e-01  8.500000e-01
     vertex -6.000000e-01  6.000000e-01  8.500000e-01
   endloop
 endfacet
 facet normal  9.870505e-01 -1.604099e-01  1.010908e-18
   outer loop
     vertex -5.353696e-01  5.123247e-01  8.100000e-01
     vertex -5.361656e-01  5.074269e-01  8.500000e-01
     vertex -5.361656e-01  5.074269e-01  8.100000e-01
   endloop
 endfacet
 facet normal  9.870505e-01 -1.604099e-01  0.000000e+00
   outer loop
     vertex -5.353696e-01  5.123247e-01  8.100000e-01
     vertex -5.353696e-01  5.123247e-01  8.500000e-01
     vertex -5.361656e-01  5.074269e-01  8.500000e-01
   endloop
 endfacet
 facet normal  8.049350e-01  5.933630e-01 -2.964783e-18
   outer loop
     vertex -6.000000e-01  6.000000e-01  8.100000e-01
     vertex -5.353696e-01  5.123247e-01  8.500000e-01
     vertex -5.353696e-01  5.123247e-01  8.100000e-01
   endloop
 endfacet
 facet normal  8.049350e-01  5.933630e-01 -0.000000e+00
   outer loop
     vertex -6.000000e-01  6.000000e-01  8.100000e-01
     vertex -6.000000e-01  6.000000e-01  8.500000e-01
     vertex -5.353696e-01  5.123247e-01  8.500000e-01
   endloop
 endfacet
 facet normal  0.000000e+00  0.000000e+00 -1.000000e+00
   outer loop
     vertex -6.000000e-01  6.000000e-01  8.100000e-01
     vertex -5.353696e-01  5.123247e-01  8.100000e-01
     vertex -5.361656e-01  5.074269e-01  8.100000e-01
   endloop
 endfacet
 facet normal  0.000000e+00  0.000000e+00  1.000000e+00
   outer loop
     vertex -6.000000e-01  6.000000e-01  8.500000e-01
     vertex -5.361656e-01  5.074269e-01  8.500000e-01
     vertex -5.353696e-01  5.123247e-01  8.500000e-01
   endloop
 endfacet
endsolid
