solid
 facet normal -9.188309e-01  3.946514e-01 -5.172655e-17
   outer loop
     vertex  5.566841e-01 -4.508485e-01  8.100000e-01
     vertex  6.000000e-01 -3.500000e-01  8.500000e-01
     vertex  6.000000e-01 -3.500000e-01  8.100000e-01
   endloop
 endfacet
 facet normal -9.188309e-01  3.946514e-01  0.000000e+00
   outer loop
     vertex  5.566841e-01 -4.508485e-01  8.100000e-01
     vertex  5.566841e-01 -4.508485e-01  8.500000e-01
     vertex  6.000000e-01 -3.500000e-01  8.500000e-01
   endloop
 endfacet
 facet normal -9.350113e-01 -3.546180e-01  1.003821e-18
   outer loop
     vertex  5.584437e-01 -4.554881e-01  8.100000e-01
     vertex  5.566841e-01 -4.508485e-01  8.500000e-01
     vertex  5.566841e-01 -4.508485e-01  8.100000e-01
   endloop
 endfacet
 facet normal -9.350113e-01 -3.546180e-01  0.000000e+00
   outer loop
     vertex  5.584437e-01 -4.554881e-01  8.100000e-01
     vertex  5.584437e-01 -4.554881e-01  8.500000e-01
     vertex  5.566841e-01 -4.508485e-01  8.500000e-01
   endloop
 endfacet
 facet normal  9.304073e-01 -3.665272e-01 -8.674127e-17
   outer loop
     vertex  6.000000e-01 -3.500000e-01  8.100000e-01
     vertex  5.584437e-01 -4.554881e-01  8.500000e-01
     vertex  5.584437e-01 -4.554881e-01  8.100000e-01
   endloop
 endfacet
 facet normal  9.304073e-01 -3.665272e-01  0.000000e+00
   outer loop
     vertex  6.000000e-01 -3.500000e-01  8.100000e-01
     vertex  6.000000e-01 -3.500000e-01  8.500000e-01
     vertex  5.584437e-01 -4.554881e-01  8.500000e-01
   endloop
 endfacet
 facet normal  0.000000e+00  0.000000e+00 -1.000000e+00
   outer loop
     vertex  6.000000e-01 -3.500000e-01  8.100000e-01
     vertex  5.584437e-01 -4.554881e-01  8.100000e-01
     vertex  5.566841e-01 -4.508485e-01  8.100000e-01
   endloop
 endfacet
 facet normal  0.000000e+00  0.000000e+00  1.000000e+00
   outer loop
     vertex  6.000000e-01 -3.500000e-01  8.500000e-01
     vertex  5.566841e-01 -4.508485e-01  8.500000e-01
     vertex  5.584437e-01 -4.554881e-01  8.500000e-01
   endloop
 endfacet
endsolid
