solid
 facet normal -4.287087e-01 -9.034428e-01  4.094814e-18
   outer loop
     vertex -4.463651e-01 -4.544336e-02  8.100000e-01
     vertex -4.508480e-01 -4.331610e-02  8.500000e-01
     vertex -4.508480e-01 -4.331610e-02  8.100000e-01
   endloop
 endfacet
 facet normal -4.287087e-01 -9.034428e-01  0.000000e+00
   outer loop
     vertex -4.463651e-01 -4.544336e-02  8.100000e-01
     vertex -4.463651e-01 -4.544336e-02  8.500000e-01
     vertex -4.508480e-01 -4.331610e-02  8.500000e-01
   endloop
 endfacet
 facet normal  1.000000e+00  0.000000e+00  0.000000e+00
   outer loop
     vertex -4.463651e-01  4.544336e-02  8.100000e-01
     vertex -4.463651e-01 -4.544336e-02  8.500000e-01
     vertex -4.463651e-01 -4.544336e-02  8.100000e-01
   endloop
 endfacet
 facet normal  1.000000e+00  0.000000e+00 -0.000000e+00
   outer loop
     vertex -4.463651e-01  4.544336e-02  8.100000e-01
     vertex -4.463651e-01  4.544336e-02  8.500000e-01
     vertex -4.463651e-01 -4.544336e-02  8.500000e-01
   endloop
 endfacet
 facet normal -4.287087e-01  9.034428e-01 -4.094814e-18
   outer loop
     vertex -4.508480e-01  4.331610e-02  8.100000e-01
     vertex -4.463651e-01  4.544336e-02  8.500000e-01
     vertex -4.463651e-01  4.544336e-02  8.100000e-01
   endloop
 endfacet
 facet normal -4.287087e-01  9.034428e-01  0.000000e+00
   outer loop
     vertex -4.508480e-01  4.331610e-02  8.100000e-01
     vertex -4.508480e-01  4.331610e-02  8.500000e-01
     vertex -4.463651e-01  4.544336e-02  8.500000e-01
   endloop
 endfacet
 facet normal -1.000000e+00  0.000000e+00  0.000000e+00
   outer loop
     vertex -4.508480e-01 -4.331610e-02  8.100000e-01
     vertex -4.508480e-01  4.331610e-02  8.500000e-01
     vertex -4.508480e-01  4.331610e-02  8.100000e-01
   endloop
 endfacet
 facet normal -1.000000e+00  0.000000e+00  0.000000e+00
   outer loop
     vertex -4.508480e-01 -4.331610e-02  8.100000e-01
     vertex -4.508480e-01 -4.331610e-02  8.500000e-01
     vertex -4.508480e-01  4.331610e-02  8.500000e-01
   endloop
 endfacet
 facet normal  0.000000e+00 -0.000000e+00 -1.000000e+00
   outer loop
     vertex -4.463651e-01  4.544336e-02  8.100000e-01
     vertex -4.463651e-01 -4.544336e-02  8.100000e-01
     vertex -4.508480e-01 -4.331610e-02  8.100000e-01
   endloop
 endfacet
 facet normal  0.000000e+00  0.000000e+00 -1.000000e+00
   outer loop
     vertex -4.463651e-01  4.544336e-02  8.100000e-01
     vertex -4.508480e-01 -4.331610e-02  8.100000e-01
     vertex -4.508480e-01  4.331610e-02  8.100000e-01
   endloop
 endfacet
 facet normal  0.000000e+00  0.000000e+00  1.000000e+00
   outer loop
     vertex -4.463651e-01  4.544336e-02  8.500000e-01
     vertex -4.508480e-01 -4.331610e-02  8.500000e-01
     vertex -4.463651e-01 -4.544336e-02  8.500000e-01
   endloop
 endfacet
 facet normal  0.000000e+00  0.000000e+00  1.000000e+00
   outer loop
     vertex -4.463651e-01  4.544336e-02  8.500000e-01
     vertex -4.508480e-01  4.331610e-02  8.500000e-01
     vertex -4.508480e-01 -4.331610e-02  8.500000e-01
   endloop
 endfacet
endsolid
