solid
 facet normal -1.205448e-01  9.927079e-01  3.289475e-19
   outer loop
     vertex -4.700411e-01  2.385851e-01  8.100000e-01
     vertex -4.651153e-01  2.391832e-01  8.500000e-01
     vertex -4.651153e-01  2.391832e-01  8.100000e-01
   endloop
 endfacet
 facet normal -1.205448e-01  9.927079e-01  0.000000e+00
   outer loop
     vertex -4.700411e-01  2.385851e-01  8.100000e-01
     vertex -4.700411e-01  2.385851e-01  8.500000e-01
     vertex -4.651153e-01  2.391832e-01  8.500000e-01
   endloop
 endfacet
 facet normal -1.000000e+00  0.000000e+00  0.000000e+00
   outer loop
     vertex -4.700411e-01  1.614149e-01  8.100000e-01
     vertex -4.700411e-01  2.385851e-01  8.500000e-01
     vertex -4.700411e-01  2.385851e-01  8.100000e-01
   endloop
 endfacet
 facet normal -1.000000e+00  0.000000e+00  0.000000e+00
   outer loop
     vertex -4.700411e-01  1.614149e-01  8.100000e-01
     vertex -4.700411e-01  1.614149e-01  8.500000e-01
     vertex -4.700411e-01  2.385851e-01  8.500000e-01
   endloop
 endfacet
 facet normal -1.205448e-01 -9.927079e-01 -3.289475e-19
   outer loop
     vertex -4.651153e-01  1.608168e-01  8.100000e-01
     vertex -4.700411e-01  1.614149e-01  8.500000e-01
     vertex -4.700411e-01  1.614149e-01  8.100000e-01
   endloop
 endfacet
 facet normal -1.205448e-01 -9.927079e-01  0.000000e+00
   outer loop
     vertex -4.651153e-01  1.608168e-01  8.100000e-01
     vertex -4.651153e-01  1.608168e-01  8.500000e-01
     vertex -4.700411e-01  1.614149e-01  8.500000e-01
   endloop
 endfacet
 facet normal  1.000000e+00  0.000000e+00  0.000000e+00
   outer loop
     vertex -4.651153e-01  2.391832e-01  8.100000e-01
     vertex -4.651153e-01  1.608168e-01  8.500000e-01
     vertex -4.651153e-01  1.608168e-01  8.100000e-01
   endloop
 endfacet
 facet normal  1.000000e+00  0.000000e+00 -0.000000e+00
   outer loop
     vertex -4.651153e-01  2.391832e-01  8.100000e-01
     vertex -4.651153e-01  2.391832e-01  8.500000e-01
     vertex -4.651153e-01  1.608168e-01  8.500000e-01
   endloop
 endfacet
 facet normal  0.000000e+00  0.000000e+00 -1.000000e+00
   outer loop
     vertex -4.651153e-01  2.391832e-01  8.100000e-01
     vertex -4.700411e-01  1.614149e-01  8.100000e-01
     vertex -4.700411e-01  2.385851e-01  8.100000e-01
   endloop
 endfacet
 facet normal  0.000000e+00 -0.000000e+00 -1.000000e+00
   outer loop
     vertex -4.651153e-01  2.391832e-01  8.100000e-01
     vertex -4.651153e-01  1.608168e-01  8.100000e-01
     vertex -4.700411e-01  1.614149e-01  8.100000e-01
   endloop
 endfacet
 facet normal  0.000000e+00  0.000000e+00  1.000000e+00
   outer loop
     vertex -4.651153e-01  2.391832e-01  8.500000e-01
     vertex -4.700411e-01  2.385851e-01  8.500000e-01
     vertex -4.700411e-01  1.614149e-01  8.500000e-01
   endloop
 endfacet
 facet normal  0.000000e+00  0.000000e+00  1.000000e+00
   outer loop
     vertex -4.651153e-01  2.391832e-01  8.500000e-01
     vertex -4.700411e-01  1.614149e-01  8.500000e-01
     vertex -4.651153e-01  1.608168e-01  8.500000e-01
   endloop
 endfacet
endsolid
