solid
 facet normal -9.954854e-01 -9.491446e-02  1.111191e-17
   outer loop
     vertex -5.731879e-02 -4.305624e-01  8.100000e-01
     vertex -6.500000e-02 -3.500000e-01  8.500000e-01
     vertex -6.500000e-02 -3.500000e-01  8.100000e-01
   endloop
 endfacet
 facet normal -9.954854e-01 -9.491446e-02  0.000000e+00
   outer loop
     vertex -5.731879e-02 -4.305624e-01  8.100000e-01
     vertex -5.731879e-02 -4.305624e-01  8.500000e-01
     vertex -6.500000e-02 -3.500000e-01  8.500000e-01
   endloop
 endfacet
 facet normal -7.211875e-01 -6.927400e-01 -3.729957e-18
   outer loop
     vertex -5.388135e-02 -4.341410e-01  8.100000e-01
     vertex -5.731879e-02 -4.305624e-01  8.500000e-01
     vertex -5.731879e-02 -4.305624e-01  8.100000e-01
   endloop
 endfacet
 facet normal -7.211875e-01 -6.927400e-01  0.000000e+00
   outer loop
     vertex -5.388135e-02 -4.341410e-01  8.100000e-01
     vertex -5.388135e-02 -4.341410e-01  8.500000e-01
     vertex -5.731879e-02 -4.305624e-01  8.500000e-01
   endloop
 endfacet
 facet normal -3.670949e-02 -9.993260e-01  4.827885e-19
   outer loop
     vertex  5.074329e-02 -4.379843e-01  8.100000e-01
     vertex -5.388135e-02 -4.341410e-01  8.500000e-01
     vertex -5.388135e-02 -4.341410e-01  8.100000e-01
   endloop
 endfacet
 facet normal -3.670949e-02 -9.993260e-01  0.000000e+00
   outer loop
     vertex  5.074329e-02 -4.379843e-01  8.100000e-01
     vertex  5.074329e-02 -4.379843e-01  8.500000e-01
     vertex -5.388135e-02 -4.341410e-01  8.500000e-01
   endloop
 endfacet
 facet normal  7.745872e-01 -6.324672e-01  3.767582e-18
   outer loop
     vertex  5.388159e-02 -4.341408e-01  8.100000e-01
     vertex  5.074329e-02 -4.379843e-01  8.500000e-01
     vertex  5.074329e-02 -4.379843e-01  8.100000e-01
   endloop
 endfacet
 facet normal  7.745872e-01 -6.324672e-01  0.000000e+00
   outer loop
     vertex  5.388159e-02 -4.341408e-01  8.100000e-01
     vertex  5.388159e-02 -4.341408e-01  8.500000e-01
     vertex  5.074329e-02 -4.379843e-01  8.500000e-01
   endloop
 endfacet
 facet normal  9.913821e-01 -1.310018e-01  1.387123e-17
   outer loop
     vertex  6.500000e-02 -3.500000e-01  8.100000e-01
     vertex  5.388159e-02 -4.341408e-01  8.500000e-01
     vertex  5.388159e-02 -4.341408e-01  8.100000e-01
   endloop
 endfacet
 facet normal  9.913821e-01 -1.310018e-01  0.000000e+00
   outer loop
     vertex  6.500000e-02 -3.500000e-01  8.100000e-01
     vertex  6.500000e-02 -3.500000e-01  8.500000e-01
     vertex  5.388159e-02 -4.341408e-01  8.500000e-01
   endloop
 endfacet
 facet normal  0.000000e+00  1.000000e+00  0.000000e+00
   outer loop
     vertex -6.500000e-02 -3.500000e-01  8.100000e-01
     vertex  6.500000e-02 -3.500000e-01  8.500000e-01
     vertex  6.500000e-02 -3.500000e-01  8.100000e-01
   endloop
 endfacet
 facet normal  0.000000e+00  1.000000e+00  0.000000e+00
   outer loop
     vertex -6.500000e-02 -3.500000e-01  8.100000e-01
     vertex -6.500000e-02 -3.500000e-01  8.500000e-01
     vertex  6.500000e-02 -3.500000e-01  8.500000e-01
   endloop
 endfacet
 facet normal  0.000000e+00  0.000000e+00 -1.000000e+00
   outer loop
     vertex -6.500000e-02 -3.500000e-01  8.100000e-01
     vertex -5.388135e-02 -4.341410e-01  8.100000e-01
     vertex -5.731879e-02 -4.305624e-01  8.100000e-01
   endloop
 endfacet
 facet normal  0.000000e+00  0.000000e+00 -1.000000e+00
   outer loop
     vertex  5.388159e-02 -4.341408e-01  8.100000e-01
     vertex  5.074329e-02 -4.379843e-01  8.100000e-01
     vertex -5.388135e-02 -4.341410e-01  8.100000e-01
   endloop
 endfacet
 facet normal -0.000000e+00  0.000000e+00 -1.000000e+00
   outer loop
     vertex  6.500000e-02 -3.500000e-01  8.100000e-01
     vertex -5.388135e-02 -4.341410e-01  8.100000e-01
     vertex -6.500000e-02 -3.500000e-01  8.100000e-01
   endloop
 endfacet
 facet normal  0.000000e+00  0.000000e+00 -1.000000e+00
   outer loop
     vertex  6.500000e-02 -3.500000e-01  8.100000e-01
     vertex  5.388159e-02 -4.341408e-01  8.100000e-01
     vertex -5.388135e-02 -4.341410e-01  8.100000e-01
   endloop
 endfacet
 facet normal  0.000000e+00  0.000000e+00  1.000000e+00
   outer loop
     vertex -6.500000e-02 -3.500000e-01  8.500000e-01
     vertex -5.731879e-02 -4.305624e-01  8.500000e-01
     vertex -5.388135e-02 -4.341410e-01  8.500000e-01
   endloop
 endfacet
 facet normal  0.000000e+00  0.000000e+00  1.000000e+00
   outer loop
     vertex  5.388159e-02 -4.341408e-01  8.500000e-01
     vertex -5.388135e-02 -4.341410e-01  8.500000e-01
     vertex  5.074329e-02 -4.379843e-01  8.500000e-01
   endloop
 endfacet
 facet normal  0.000000e+00  0.000000e+00  1.000000e+00
   outer loop
     vertex  6.500000e-02 -3.500000e-01  8.500000e-01
     vertex -6.500000e-02 -3.500000e-01  8.500000e-01
     vertex -5.388135e-02 -4.341410e-01  8.500000e-01
   endloop
 endfacet
 facet normal  0.000000e+00  0.000000e+00  1.000000e+00
   outer loop
     vertex  6.500000e-02 -3.500000e-01  8.500000e-01
     vertex -5.388135e-02 -4.341410e-01  8.500000e-01
     vertex  5.388159e-02 -4.341408e-01  8.500000e-01
   endloop
 endfacet
endsolid
