solid
 facet normal -8.045876e-02  9.967579e-01  2.739586e-19
   outer loop
     vertex -2.975196e-01 -5.365649e-01  8.100000e-01
     vertex -2.925737e-01 -5.361656e-01  8.500000e-01
     vertex -2.925737e-01 -5.361656e-01  8.100000e-01
   endloop
 endfacet
 facet normal -8.045876e-02  9.967579e-01  0.000000e+00
   outer loop
     vertex -2.975196e-01 -5.365649e-01  8.100000e-01
     vertex -2.975196e-01 -5.365649e-01  8.500000e-01
     vertex -2.925737e-01 -5.361656e-01  8.500000e-01
   endloop
 endfacet
 facet normal -2.052515e-01  9.787093e-01 -1.118797e-16
   outer loop
     vertex -6.000000e-01 -6.000000e-01  8.100000e-01
     vertex -2.975196e-01 -5.365649e-01  8.500000e-01
     vertex -2.975196e-01 -5.365649e-01  8.100000e-01
   endloop
 endfacet
 facet normal -2.052515e-01  9.787093e-01  0.000000e+00
   outer loop
     vertex -6.000000e-01 -6.000000e-01  8.100000e-01
     vertex -6.000000e-01 -6.000000e-01  8.500000e-01
     vertex -2.975196e-01 -5.365649e-01  8.500000e-01
   endloop
 endfacet
 facet normal  1.264792e-01 -9.919693e-01  1.378248e-16
   outer loop
     vertex -1.024815e-01 -5.365648e-01  8.100000e-01
     vertex -6.000000e-01 -6.000000e-01  8.500000e-01
     vertex -6.000000e-01 -6.000000e-01  8.100000e-01
   endloop
 endfacet
 facet normal  1.264792e-01 -9.919693e-01  0.000000e+00
   outer loop
     vertex -1.024815e-01 -5.365648e-01  8.100000e-01
     vertex -1.024815e-01 -5.365648e-01  8.500000e-01
     vertex -6.000000e-01 -6.000000e-01  8.500000e-01
   endloop
 endfacet
 facet normal  8.047636e-02  9.967565e-01 -4.046946e-19
   outer loop
     vertex -1.074274e-01 -5.361655e-01  8.100000e-01
     vertex -1.024815e-01 -5.365648e-01  8.500000e-01
     vertex -1.024815e-01 -5.365648e-01  8.100000e-01
   endloop
 endfacet
 facet normal  8.047636e-02  9.967565e-01 -0.000000e+00
   outer loop
     vertex -1.074274e-01 -5.361655e-01  8.100000e-01
     vertex -1.074274e-01 -5.361655e-01  8.500000e-01
     vertex -1.024815e-01 -5.365648e-01  8.500000e-01
   endloop
 endfacet
 facet normal -7.215918e-07  1.000000e+00  1.146446e-22
   outer loop
     vertex -2.925737e-01 -5.361656e-01  8.100000e-01
     vertex -1.074274e-01 -5.361655e-01  8.500000e-01
     vertex -1.074274e-01 -5.361655e-01  8.100000e-01
   endloop
 endfacet
 facet normal -7.215918e-07  1.000000e+00  0.000000e+00
   outer loop
     vertex -2.925737e-01 -5.361656e-01  8.100000e-01
     vertex -2.925737e-01 -5.361656e-01  8.500000e-01
     vertex -1.074274e-01 -5.361655e-01  8.500000e-01
   endloop
 endfacet
 facet normal -0.000000e+00  0.000000e+00 -1.000000e+00
   outer loop
     vertex -1.024815e-01 -5.365648e-01  8.100000e-01
     vertex -2.975196e-01 -5.365649e-01  8.100000e-01
     vertex -2.925737e-01 -5.361656e-01  8.100000e-01
   endloop
 endfacet
 facet normal  0.000000e+00  0.000000e+00 -1.000000e+00
   outer loop
     vertex -1.024815e-01 -5.365648e-01  8.100000e-01
     vertex -6.000000e-01 -6.000000e-01  8.100000e-01
     vertex -2.975196e-01 -5.365649e-01  8.100000e-01
   endloop
 endfacet
 facet normal  0.000000e+00  0.000000e+00 -1.000000e+00
   outer loop
     vertex -1.024815e-01 -5.365648e-01  8.100000e-01
     vertex -2.925737e-01 -5.361656e-01  8.100000e-01
     vertex -1.074274e-01 -5.361655e-01  8.100000e-01
   endloop
 endfacet
 facet normal  0.000000e+00  0.000000e+00  1.000000e+00
   outer loop
     vertex -1.024815e-01 -5.365648e-01  8.500000e-01
     vertex -2.925737e-01 -5.361656e-01  8.500000e-01
     vertex -2.975196e-01 -5.365649e-01  8.500000e-01
   endloop
 endfacet
 facet normal  0.000000e+00  0.000000e+00  1.000000e+00
   outer loop
     vertex -1.024815e-01 -5.365648e-01  8.500000e-01
     vertex -2.975196e-01 -5.365649e-01  8.500000e-01
     vertex -6.000000e-01 -6.000000e-01  8.500000e-01
   endloop
 endfacet
 facet normal  0.000000e+00  0.000000e+00  1.000000e+00
   outer loop
     vertex -1.024815e-01 -5.365648e-01  8.500000e-01
     vertex -1.074274e-01 -5.361655e-01  8.500000e-01
     vertex -2.925737e-01 -5.361656e-01  8.500000e-01
   endloop
 endfacet
endsolid
