solid
 facet normal -1.000000e+00  0.000000e+00  0.000000e+00
   outer loop
     vertex -4.420679e-01 -4.792444e-02  8.100000e-01
     vertex -4.420679e-01  4.792444e-02  8.500000e-01
     vertex -4.420679e-01  4.792444e-02  8.100000e-01
   endloop
 endfacet
 facet normal -1.000000e+00  0.000000e+00  0.000000e+00
   outer loop
     vertex -4.420679e-01 -4.792444e-02  8.100000e-01
     vertex -4.420679e-01 -4.792444e-02  8.500000e-01
     vertex -4.420679e-01  4.792444e-02  8.500000e-01
   endloop
 endfacet
 facet normal -5.680770e-01 -8.229754e-01 -1.375557e-18
   outer loop
     vertex -4.379844e-01 -5.074323e-02  8.100000e-01
     vertex -4.420679e-01 -4.792444e-02  8.500000e-01
     vertex -4.420679e-01 -4.792444e-02  8.100000e-01
   endloop
 endfacet
 facet normal -5.680770e-01 -8.229754e-01  0.000000e+00
   outer loop
     vertex -4.379844e-01 -5.074323e-02  8.100000e-01
     vertex -4.379844e-01 -5.074323e-02  8.500000e-01
     vertex -4.420679e-01 -4.792444e-02  8.500000e-01
   endloop
 endfacet
 facet normal  1.000000e+00  0.000000e+00  0.000000e+00
   outer loop
     vertex -4.379844e-01  5.074323e-02  8.100000e-01
     vertex -4.379844e-01 -5.074323e-02  8.500000e-01
     vertex -4.379844e-01 -5.074323e-02  8.100000e-01
   endloop
 endfacet
 facet normal  1.000000e+00  0.000000e+00 -0.000000e+00
   outer loop
     vertex -4.379844e-01  5.074323e-02  8.100000e-01
     vertex -4.379844e-01  5.074323e-02  8.500000e-01
     vertex -4.379844e-01 -5.074323e-02  8.500000e-01
   endloop
 endfacet
 facet normal -5.680770e-01  8.229754e-01  1.375557e-18
   outer loop
     vertex -4.420679e-01  4.792444e-02  8.100000e-01
     vertex -4.379844e-01  5.074323e-02  8.500000e-01
     vertex -4.379844e-01  5.074323e-02  8.100000e-01
   endloop
 endfacet
 facet normal -5.680770e-01  8.229754e-01  0.000000e+00
   outer loop
     vertex -4.420679e-01  4.792444e-02  8.100000e-01
     vertex -4.420679e-01  4.792444e-02  8.500000e-01
     vertex -4.379844e-01  5.074323e-02  8.500000e-01
   endloop
 endfacet
 facet normal  0.000000e+00  0.000000e+00 -1.000000e+00
   outer loop
     vertex -4.379844e-01  5.074323e-02  8.100000e-01
     vertex -4.420679e-01 -4.792444e-02  8.100000e-01
     vertex -4.420679e-01  4.792444e-02  8.100000e-01
   endloop
 endfacet
 facet normal  0.000000e+00 -0.000000e+00 -1.000000e+00
   outer loop
     vertex -4.379844e-01  5.074323e-02  8.100000e-01
     vertex -4.379844e-01 -5.074323e-02  8.100000e-01
     vertex -4.420679e-01 -4.792444e-02  8.100000e-01
   endloop
 endfacet
 facet normal  0.000000e+00  0.000000e+00  1.000000e+00
   outer loop
     vertex -4.379844e-01  5.074323e-02  8.500000e-01
     vertex -4.420679e-01  4.792444e-02  8.500000e-01
     vertex -4.420679e-01 -4.792444e-02  8.500000e-01
   endloop
 endfacet
 facet normal  0.000000e+00  0.000000e+00  1.000000e+00
   outer loop
     vertex -4.379844e-01  5.074323e-02  8.500000e-01
     vertex -4.420679e-01 -4.792444e-02  8.500000e-01
     vertex -4.379844e-01 -5.074323e-02  8.500000e-01
   endloop
 endfacet
endsolid
