solid
 facet normal -9.350177e-01  3.546011e-01  2.897579e-18
   outer loop
     vertex  1.566843e-01 -4.991511e-01  8.100000e-01
     vertex  1.584438e-01 -4.945116e-01  8.500000e-01
     vertex  1.584438e-01 -4.945116e-01  8.100000e-01
   endloop
 endfacet
 facet normal -9.350177e-01  3.546011e-01  0.000000e+00
   outer loop
     vertex  1.566843e-01 -4.991511e-01  8.100000e-01
     vertex  1.566843e-01 -4.991511e-01  8.500000e-01
     vertex  1.584438e-01 -4.945116e-01  8.500000e-01
   endloop
 endfacet
 facet normal  1.188952e-05 -1.000000e+00 -2.403010e-22
   outer loop
     vertex  2.433152e-01 -4.991501e-01  8.100000e-01
     vertex  1.566843e-01 -4.991511e-01  8.500000e-01
     vertex  1.566843e-01 -4.991511e-01  8.100000e-01
   endloop
 endfacet
 facet normal  1.188952e-05 -1.000000e+00  0.000000e+00
   outer loop
     vertex  2.433152e-01 -4.991501e-01  8.100000e-01
     vertex  2.433152e-01 -4.991501e-01  8.500000e-01
     vertex  1.566843e-01 -4.991511e-01  8.500000e-01
   endloop
 endfacet
 facet normal  9.350225e-01  3.545883e-01 -4.089515e-19
   outer loop
     vertex  2.415558e-01 -4.945105e-01  8.100000e-01
     vertex  2.433152e-01 -4.991501e-01  8.500000e-01
     vertex  2.433152e-01 -4.991501e-01  8.100000e-01
   endloop
 endfacet
 facet normal  9.350225e-01  3.545883e-01 -0.000000e+00
   outer loop
     vertex  2.415558e-01 -4.945105e-01  8.100000e-01
     vertex  2.415558e-01 -4.945105e-01  8.500000e-01
     vertex  2.433152e-01 -4.991501e-01  8.500000e-01
   endloop
 endfacet
 facet normal -1.275990e-05  1.000000e+00  6.588998e-22
   outer loop
     vertex  1.584438e-01 -4.945116e-01  8.100000e-01
     vertex  2.415558e-01 -4.945105e-01  8.500000e-01
     vertex  2.415558e-01 -4.945105e-01  8.100000e-01
   endloop
 endfacet
 facet normal -1.275990e-05  1.000000e+00  0.000000e+00
   outer loop
     vertex  1.584438e-01 -4.945116e-01  8.100000e-01
     vertex  1.584438e-01 -4.945116e-01  8.500000e-01
     vertex  2.415558e-01 -4.945105e-01  8.500000e-01
   endloop
 endfacet
 facet normal -0.000000e+00  0.000000e+00 -1.000000e+00
   outer loop
     vertex  2.433152e-01 -4.991501e-01  8.100000e-01
     vertex  1.566843e-01 -4.991511e-01  8.100000e-01
     vertex  1.584438e-01 -4.945116e-01  8.100000e-01
   endloop
 endfacet
 facet normal  0.000000e+00 -0.000000e+00 -1.000000e+00
   outer loop
     vertex  2.415558e-01 -4.945105e-01  8.100000e-01
     vertex  2.433152e-01 -4.991501e-01  8.100000e-01
     vertex  1.584438e-01 -4.945116e-01  8.100000e-01
   endloop
 endfacet
 facet normal  0.000000e+00  0.000000e+00  1.000000e+00
   outer loop
     vertex  2.433152e-01 -4.991501e-01  8.500000e-01
     vertex  1.584438e-01 -4.945116e-01  8.500000e-01
     vertex  1.566843e-01 -4.991511e-01  8.500000e-01
   endloop
 endfacet
 facet normal  0.000000e+00  0.000000e+00  1.000000e+00
   outer loop
     vertex  2.415558e-01 -4.945105e-01  8.500000e-01
     vertex  1.584438e-01 -4.945116e-01  8.500000e-01
     vertex  2.433152e-01 -4.991501e-01  8.500000e-01
   endloop
 endfacet
endsolid
