solid
 facet normal  4.265151e-01  9.044805e-01 -7.840420e-17
   outer loop
     vertex -6.000000e-01  6.000000e-01  8.100000e-01
     vertex -5.036333e-01  5.545575e-01  8.500000e-01
     vertex -5.036333e-01  5.545575e-01  8.100000e-01
   endloop
 endfacet
 facet normal  4.265151e-01  9.044805e-01 -0.000000e+00
   outer loop
     vertex -6.000000e-01  6.000000e-01  8.100000e-01
     vertex -6.000000e-01  6.000000e-01  8.500000e-01
     vertex -5.036333e-01  5.545575e-01  8.500000e-01
   endloop
 endfacet
 facet normal -4.617117e-01 -8.870301e-01  2.787590e-17
   outer loop
     vertex -5.079305e-01  5.520765e-01  8.100000e-01
     vertex -6.000000e-01  6.000000e-01  8.500000e-01
     vertex -6.000000e-01  6.000000e-01  8.100000e-01
   endloop
 endfacet
 facet normal -4.617117e-01 -8.870301e-01  0.000000e+00
   outer loop
     vertex -5.079305e-01  5.520765e-01  8.100000e-01
     vertex -5.079305e-01  5.520765e-01  8.500000e-01
     vertex -6.000000e-01  6.000000e-01  8.500000e-01
   endloop
 endfacet
 facet normal  4.999915e-01 -8.660303e-01 -5.361286e-19
   outer loop
     vertex -5.036333e-01  5.545575e-01  8.100000e-01
     vertex -5.079305e-01  5.520765e-01  8.500000e-01
     vertex -5.079305e-01  5.520765e-01  8.100000e-01
   endloop
 endfacet
 facet normal  4.999915e-01 -8.660303e-01  0.000000e+00
   outer loop
     vertex -5.036333e-01  5.545575e-01  8.100000e-01
     vertex -5.036333e-01  5.545575e-01  8.500000e-01
     vertex -5.079305e-01  5.520765e-01  8.500000e-01
   endloop
 endfacet
 facet normal -0.000000e+00  0.000000e+00 -1.000000e+00
   outer loop
     vertex -5.036333e-01  5.545575e-01  8.100000e-01
     vertex -5.079305e-01  5.520765e-01  8.100000e-01
     vertex -6.000000e-01  6.000000e-01  8.100000e-01
   endloop
 endfacet
 facet normal  0.000000e+00  0.000000e+00  1.000000e+00
   outer loop
     vertex -5.036333e-01  5.545575e-01  8.500000e-01
     vertex -6.000000e-01  6.000000e-01  8.500000e-01
     vertex -5.079305e-01  5.520765e-01  8.500000e-01
   endloop
 endfacet
endsolid
