solid
 facet normal -3.946540e-01  9.188298e-01 -6.413751e-17
   outer loop
     vertex -4.508480e-01  5.566840e-01  8.100000e-01
     vertex -3.500000e-01  6.000000e-01  8.500000e-01
     vertex -3.500000e-01  6.000000e-01  8.100000e-01
   endloop
 endfacet
 facet normal -3.946540e-01  9.188298e-01  0.000000e+00
   outer loop
     vertex -4.508480e-01  5.566840e-01  8.100000e-01
     vertex -4.508480e-01  5.566840e-01  8.500000e-01
     vertex -3.500000e-01  6.000000e-01  8.500000e-01
   endloop
 endfacet
 facet normal -4.287188e-01 -9.034380e-01  2.937278e-19
   outer loop
     vertex -4.463651e-01  5.545566e-01  8.100000e-01
     vertex -4.508480e-01  5.566840e-01  8.500000e-01
     vertex -4.508480e-01  5.566840e-01  8.100000e-01
   endloop
 endfacet
 facet normal -4.287188e-01 -9.034380e-01  0.000000e+00
   outer loop
     vertex -4.463651e-01  5.545566e-01  8.100000e-01
     vertex -4.463651e-01  5.545566e-01  8.500000e-01
     vertex -4.508480e-01  5.566840e-01  8.500000e-01
   endloop
 endfacet
 facet normal  4.265274e-01 -9.044746e-01  2.467067e-17
   outer loop
     vertex -3.500000e-01  6.000000e-01  8.100000e-01
     vertex -4.463651e-01  5.545566e-01  8.500000e-01
     vertex -4.463651e-01  5.545566e-01  8.100000e-01
   endloop
 endfacet
 facet normal  4.265274e-01 -9.044746e-01  0.000000e+00
   outer loop
     vertex -3.500000e-01  6.000000e-01  8.100000e-01
     vertex -3.500000e-01  6.000000e-01  8.500000e-01
     vertex -4.463651e-01  5.545566e-01  8.500000e-01
   endloop
 endfacet
 facet normal  0.000000e+00  0.000000e+00 -1.000000e+00
   outer loop
     vertex -3.500000e-01  6.000000e-01  8.100000e-01
     vertex -4.463651e-01  5.545566e-01  8.100000e-01
     vertex -4.508480e-01  5.566840e-01  8.100000e-01
   endloop
 endfacet
 facet normal  0.000000e+00  0.000000e+00  1.000000e+00
   outer loop
     vertex -3.500000e-01  6.000000e-01  8.500000e-01
     vertex -4.508480e-01  5.566840e-01  8.500000e-01
     vertex -4.463651e-01  5.545566e-01  8.500000e-01
   endloop
 endfacet
endsolid
