solid
 facet normal -2.393087e-01  9.709435e-01  1.991723e-18
   outer loop
     vertex  1.123241e-01 -5.353697e-01  8.100000e-01
     vertex  1.171419e-01 -5.341823e-01  8.500000e-01
     vertex  1.171419e-01 -5.341823e-01  8.100000e-01
   endloop
 endfacet
 facet normal -2.393087e-01  9.709435e-01  0.000000e+00
   outer loop
     vertex  1.123241e-01 -5.353697e-01  8.100000e-01
     vertex  1.123241e-01 -5.353697e-01  8.500000e-01
     vertex  1.171419e-01 -5.341823e-01  8.500000e-01
   endloop
 endfacet
 facet normal  1.305383e-06 -1.000000e+00  2.467263e-22
   outer loop
     vertex  2.876749e-01 -5.353695e-01  8.100000e-01
     vertex  1.123241e-01 -5.353697e-01  8.500000e-01
     vertex  1.123241e-01 -5.353697e-01  8.100000e-01
   endloop
 endfacet
 facet normal  1.305383e-06 -1.000000e+00  0.000000e+00
   outer loop
     vertex  2.876749e-01 -5.353695e-01  8.100000e-01
     vertex  2.876749e-01 -5.353695e-01  8.500000e-01
     vertex  1.123241e-01 -5.353697e-01  8.500000e-01
   endloop
 endfacet
 facet normal  2.393246e-01  9.709396e-01 -9.107584e-19
   outer loop
     vertex  2.828571e-01 -5.341820e-01  8.100000e-01
     vertex  2.876749e-01 -5.353695e-01  8.500000e-01
     vertex  2.876749e-01 -5.353695e-01  8.100000e-01
   endloop
 endfacet
 facet normal  2.393246e-01  9.709396e-01 -0.000000e+00
   outer loop
     vertex  2.828571e-01 -5.341820e-01  8.100000e-01
     vertex  2.828571e-01 -5.341820e-01  8.500000e-01
     vertex  2.876749e-01 -5.353695e-01  8.500000e-01
   endloop
 endfacet
 facet normal -1.887576e-06  1.000000e+00 -2.140178e-23
   outer loop
     vertex  1.171419e-01 -5.341823e-01  8.100000e-01
     vertex  2.828571e-01 -5.341820e-01  8.500000e-01
     vertex  2.828571e-01 -5.341820e-01  8.100000e-01
   endloop
 endfacet
 facet normal -1.887576e-06  1.000000e+00  0.000000e+00
   outer loop
     vertex  1.171419e-01 -5.341823e-01  8.100000e-01
     vertex  1.171419e-01 -5.341823e-01  8.500000e-01
     vertex  2.828571e-01 -5.341820e-01  8.500000e-01
   endloop
 endfacet
 facet normal -0.000000e+00  0.000000e+00 -1.000000e+00
   outer loop
     vertex  2.876749e-01 -5.353695e-01  8.100000e-01
     vertex  1.123241e-01 -5.353697e-01  8.100000e-01
     vertex  1.171419e-01 -5.341823e-01  8.100000e-01
   endloop
 endfacet
 facet normal  0.000000e+00  0.000000e+00 -1.000000e+00
   outer loop
     vertex  2.876749e-01 -5.353695e-01  8.100000e-01
     vertex  1.171419e-01 -5.341823e-01  8.100000e-01
     vertex  2.828571e-01 -5.341820e-01  8.100000e-01
   endloop
 endfacet
 facet normal  0.000000e+00  0.000000e+00  1.000000e+00
   outer loop
     vertex  2.876749e-01 -5.353695e-01  8.500000e-01
     vertex  1.171419e-01 -5.341823e-01  8.500000e-01
     vertex  1.123241e-01 -5.353697e-01  8.500000e-01
   endloop
 endfacet
 facet normal  0.000000e+00  0.000000e+00  1.000000e+00
   outer loop
     vertex  2.876749e-01 -5.353695e-01  8.500000e-01
     vertex  2.828571e-01 -5.341820e-01  8.500000e-01
     vertex  1.171419e-01 -5.341823e-01  8.500000e-01
   endloop
 endfacet
endsolid
