solid
 facet normal  1.604210e-01  9.870487e-01  1.128985e-18
   outer loop
     vertex -3.123252e-01 -5.353695e-01  8.100000e-01
     vertex -3.074274e-01 -5.361655e-01  8.500000e-01
     vertex -3.074274e-01 -5.361655e-01  8.100000e-01
   endloop
 endfacet
 facet normal  1.604210e-01  9.870487e-01 -0.000000e+00
   outer loop
     vertex -3.123252e-01 -5.353695e-01  8.100000e-01
     vertex -3.123252e-01 -5.353695e-01  8.500000e-01
     vertex -3.074274e-01 -5.361655e-01  8.500000e-01
   endloop
 endfacet
 facet normal -2.192012e-01  9.756797e-01  1.066502e-16
   outer loop
     vertex -6.000000e-01 -6.000000e-01  8.100000e-01
     vertex -3.123252e-01 -5.353695e-01  8.500000e-01
     vertex -3.123252e-01 -5.353695e-01  8.100000e-01
   endloop
 endfacet
 facet normal -2.192012e-01  9.756797e-01  0.000000e+00
   outer loop
     vertex -6.000000e-01 -6.000000e-01  8.100000e-01
     vertex -6.000000e-01 -6.000000e-01  8.500000e-01
     vertex -3.123252e-01 -5.353695e-01  8.500000e-01
   endloop
 endfacet
 facet normal  2.131686e-01 -9.770154e-01  6.806209e-17
   outer loop
     vertex -3.074274e-01 -5.361655e-01  8.100000e-01
     vertex -6.000000e-01 -6.000000e-01  8.500000e-01
     vertex -6.000000e-01 -6.000000e-01  8.100000e-01
   endloop
 endfacet
 facet normal  2.131686e-01 -9.770154e-01  0.000000e+00
   outer loop
     vertex -3.074274e-01 -5.361655e-01  8.100000e-01
     vertex -3.074274e-01 -5.361655e-01  8.500000e-01
     vertex -6.000000e-01 -6.000000e-01  8.500000e-01
   endloop
 endfacet
 facet normal -0.000000e+00  0.000000e+00 -1.000000e+00
   outer loop
     vertex -3.074274e-01 -5.361655e-01  8.100000e-01
     vertex -6.000000e-01 -6.000000e-01  8.100000e-01
     vertex -3.123252e-01 -5.353695e-01  8.100000e-01
   endloop
 endfacet
 facet normal  0.000000e+00  0.000000e+00  1.000000e+00
   outer loop
     vertex -3.074274e-01 -5.361655e-01  8.500000e-01
     vertex -3.123252e-01 -5.353695e-01  8.500000e-01
     vertex -6.000000e-01 -6.000000e-01  8.500000e-01
   endloop
 endfacet
endsolid
