solid
 facet normal -9.927096e-01 -1.205308e-01 -5.400505e-19
   outer loop
     vertex  1.614150e-01 -4.700419e-01  8.100000e-01
     vertex  1.608169e-01 -4.651160e-01  8.500000e-01
     vertex  1.608169e-01 -4.651160e-01  8.100000e-01
   endloop
 endfacet
 facet normal -9.927096e-01 -1.205308e-01  0.000000e+00
   outer loop
     vertex  1.614150e-01 -4.700419e-01  8.100000e-01
     vertex  1.614150e-01 -4.700419e-01  8.500000e-01
     vertex  1.608169e-01 -4.651160e-01  8.500000e-01
   endloop
 endfacet
 facet normal  1.324736e-05 -1.000000e+00  1.302765e-21
   outer loop
     vertex  2.385851e-01 -4.700409e-01  8.100000e-01
     vertex  1.614150e-01 -4.700419e-01  8.500000e-01
     vertex  1.614150e-01 -4.700419e-01  8.100000e-01
   endloop
 endfacet
 facet normal  1.324736e-05 -1.000000e+00  0.000000e+00
   outer loop
     vertex  2.385851e-01 -4.700409e-01  8.100000e-01
     vertex  2.385851e-01 -4.700409e-01  8.500000e-01
     vertex  1.614150e-01 -4.700419e-01  8.500000e-01
   endloop
 endfacet
 facet normal  9.927063e-01 -1.205577e-01  1.036300e-18
   outer loop
     vertex  2.391833e-01 -4.651151e-01  8.100000e-01
     vertex  2.385851e-01 -4.700409e-01  8.500000e-01
     vertex  2.385851e-01 -4.700409e-01  8.100000e-01
   endloop
 endfacet
 facet normal  9.927063e-01 -1.205577e-01  0.000000e+00
   outer loop
     vertex  2.391833e-01 -4.651151e-01  8.100000e-01
     vertex  2.391833e-01 -4.651151e-01  8.500000e-01
     vertex  2.385851e-01 -4.700409e-01  8.500000e-01
   endloop
 endfacet
 facet normal -1.168230e-05  1.000000e+00 -5.723343e-22
   outer loop
     vertex  1.608169e-01 -4.651160e-01  8.100000e-01
     vertex  2.391833e-01 -4.651151e-01  8.500000e-01
     vertex  2.391833e-01 -4.651151e-01  8.100000e-01
   endloop
 endfacet
 facet normal -1.168230e-05  1.000000e+00  0.000000e+00
   outer loop
     vertex  1.608169e-01 -4.651160e-01  8.100000e-01
     vertex  1.608169e-01 -4.651160e-01  8.500000e-01
     vertex  2.391833e-01 -4.651151e-01  8.500000e-01
   endloop
 endfacet
 facet normal -0.000000e+00  0.000000e+00 -1.000000e+00
   outer loop
     vertex  2.385851e-01 -4.700409e-01  8.100000e-01
     vertex  1.614150e-01 -4.700419e-01  8.100000e-01
     vertex  1.608169e-01 -4.651160e-01  8.100000e-01
   endloop
 endfacet
 facet normal  0.000000e+00  0.000000e+00 -1.000000e+00
   outer loop
     vertex  2.391833e-01 -4.651151e-01  8.100000e-01
     vertex  2.385851e-01 -4.700409e-01  8.100000e-01
     vertex  1.608169e-01 -4.651160e-01  8.100000e-01
   endloop
 endfacet
 facet normal  0.000000e+00  0.000000e+00  1.000000e+00
   outer loop
     vertex  2.385851e-01 -4.700409e-01  8.500000e-01
     vertex  1.608169e-01 -4.651160e-01  8.500000e-01
     vertex  1.614150e-01 -4.700419e-01  8.500000e-01
   endloop
 endfacet
 facet normal  0.000000e+00  0.000000e+00  1.000000e+00
   outer loop
     vertex  2.391833e-01 -4.651151e-01  8.500000e-01
     vertex  1.608169e-01 -4.651160e-01  8.500000e-01
     vertex  2.385851e-01 -4.700409e-01  8.500000e-01
   endloop
 endfacet
endsolid
