solid
 facet normal -8.229837e-01  5.680650e-01  3.344903e-18
   outer loop
     vertex  3.492574e-01 -5.120148e-01  8.100000e-01
     vertex  3.520761e-01 -5.079312e-01  8.500000e-01
     vertex  3.520761e-01 -5.079312e-01  8.100000e-01
   endloop
 endfacet
 facet normal -8.229837e-01  5.680650e-01  0.000000e+00
   outer loop
     vertex  3.492574e-01 -5.120148e-01  8.100000e-01
     vertex  3.492574e-01 -5.120148e-01  8.500000e-01
     vertex  3.520761e-01 -5.079312e-01  8.500000e-01
   endloop
 endfacet
 facet normal  8.796412e-06 -1.000000e+00 -2.571552e-22
   outer loop
     vertex  4.507419e-01 -5.120139e-01  8.100000e-01
     vertex  3.492574e-01 -5.120148e-01  8.500000e-01
     vertex  3.492574e-01 -5.120148e-01  8.100000e-01
   endloop
 endfacet
 facet normal  8.796412e-06 -1.000000e+00  0.000000e+00
   outer loop
     vertex  4.507419e-01 -5.120139e-01  8.100000e-01
     vertex  4.507419e-01 -5.120139e-01  8.500000e-01
     vertex  3.492574e-01 -5.120148e-01  8.500000e-01
   endloop
 endfacet
 facet normal  8.229871e-01  5.680600e-01 -1.334639e-19
   outer loop
     vertex  4.479232e-01 -5.079302e-01  8.100000e-01
     vertex  4.507419e-01 -5.120139e-01  8.500000e-01
     vertex  4.507419e-01 -5.120139e-01  8.100000e-01
   endloop
 endfacet
 facet normal  8.229871e-01  5.680600e-01 -0.000000e+00
   outer loop
     vertex  4.479232e-01 -5.079302e-01  8.100000e-01
     vertex  4.479232e-01 -5.079302e-01  8.500000e-01
     vertex  4.507419e-01 -5.120139e-01  8.500000e-01
   endloop
 endfacet
 facet normal -9.870929e-06  1.000000e+00  6.273721e-22
   outer loop
     vertex  3.520761e-01 -5.079312e-01  8.100000e-01
     vertex  4.479232e-01 -5.079302e-01  8.500000e-01
     vertex  4.479232e-01 -5.079302e-01  8.100000e-01
   endloop
 endfacet
 facet normal -9.870929e-06  1.000000e+00  0.000000e+00
   outer loop
     vertex  3.520761e-01 -5.079312e-01  8.100000e-01
     vertex  3.520761e-01 -5.079312e-01  8.500000e-01
     vertex  4.479232e-01 -5.079302e-01  8.500000e-01
   endloop
 endfacet
 facet normal -0.000000e+00  0.000000e+00 -1.000000e+00
   outer loop
     vertex  4.507419e-01 -5.120139e-01  8.100000e-01
     vertex  3.492574e-01 -5.120148e-01  8.100000e-01
     vertex  3.520761e-01 -5.079312e-01  8.100000e-01
   endloop
 endfacet
 facet normal  0.000000e+00 -0.000000e+00 -1.000000e+00
   outer loop
     vertex  4.479232e-01 -5.079302e-01  8.100000e-01
     vertex  4.507419e-01 -5.120139e-01  8.100000e-01
     vertex  3.520761e-01 -5.079312e-01  8.100000e-01
   endloop
 endfacet
 facet normal  0.000000e+00  0.000000e+00  1.000000e+00
   outer loop
     vertex  4.507419e-01 -5.120139e-01  8.500000e-01
     vertex  3.520761e-01 -5.079312e-01  8.500000e-01
     vertex  3.492574e-01 -5.120148e-01  8.500000e-01
   endloop
 endfacet
 facet normal  0.000000e+00  0.000000e+00  1.000000e+00
   outer loop
     vertex  4.479232e-01 -5.079302e-01  8.500000e-01
     vertex  3.520761e-01 -5.079312e-01  8.500000e-01
     vertex  4.507419e-01 -5.120139e-01  8.500000e-01
   endloop
 endfacet
endsolid
