solid
 facet normal -1.205448e-01 -9.927079e-01  3.010563e-19
   outer loop
     vertex -4.651153e-01 -3.918323e-02  8.100000e-01
     vertex -4.700411e-01 -3.858508e-02  8.500000e-01
     vertex -4.700411e-01 -3.858508e-02  8.100000e-01
   endloop
 endfacet
 facet normal -1.205448e-01 -9.927079e-01  0.000000e+00
   outer loop
     vertex -4.651153e-01 -3.918323e-02  8.100000e-01
     vertex -4.651153e-01 -3.918323e-02  8.500000e-01
     vertex -4.700411e-01 -3.858508e-02  8.500000e-01
   endloop
 endfacet
 facet normal  1.000000e+00  0.000000e+00  0.000000e+00
   outer loop
     vertex -4.651153e-01  3.918323e-02  8.100000e-01
     vertex -4.651153e-01 -3.918323e-02  8.500000e-01
     vertex -4.651153e-01 -3.918323e-02  8.100000e-01
   endloop
 endfacet
 facet normal  1.000000e+00  0.000000e+00 -0.000000e+00
   outer loop
     vertex -4.651153e-01  3.918323e-02  8.100000e-01
     vertex -4.651153e-01  3.918323e-02  8.500000e-01
     vertex -4.651153e-01 -3.918323e-02  8.500000e-01
   endloop
 endfacet
 facet normal -1.205448e-01  9.927079e-01 -3.010563e-19
   outer loop
     vertex -4.700411e-01  3.858508e-02  8.100000e-01
     vertex -4.651153e-01  3.918323e-02  8.500000e-01
     vertex -4.651153e-01  3.918323e-02  8.100000e-01
   endloop
 endfacet
 facet normal -1.205448e-01  9.927079e-01  0.000000e+00
   outer loop
     vertex -4.700411e-01  3.858508e-02  8.100000e-01
     vertex -4.700411e-01  3.858508e-02  8.500000e-01
     vertex -4.651153e-01  3.918323e-02  8.500000e-01
   endloop
 endfacet
 facet normal -1.000000e+00  0.000000e+00  0.000000e+00
   outer loop
     vertex -4.700411e-01 -3.858508e-02  8.100000e-01
     vertex -4.700411e-01  3.858508e-02  8.500000e-01
     vertex -4.700411e-01  3.858508e-02  8.100000e-01
   endloop
 endfacet
 facet normal -1.000000e+00  0.000000e+00  0.000000e+00
   outer loop
     vertex -4.700411e-01 -3.858508e-02  8.100000e-01
     vertex -4.700411e-01 -3.858508e-02  8.500000e-01
     vertex -4.700411e-01  3.858508e-02  8.500000e-01
   endloop
 endfacet
 facet normal  0.000000e+00 -0.000000e+00 -1.000000e+00
   outer loop
     vertex -4.651153e-01  3.918323e-02  8.100000e-01
     vertex -4.651153e-01 -3.918323e-02  8.100000e-01
     vertex -4.700411e-01 -3.858508e-02  8.100000e-01
   endloop
 endfacet
 facet normal  0.000000e+00  0.000000e+00 -1.000000e+00
   outer loop
     vertex -4.651153e-01  3.918323e-02  8.100000e-01
     vertex -4.700411e-01 -3.858508e-02  8.100000e-01
     vertex -4.700411e-01  3.858508e-02  8.100000e-01
   endloop
 endfacet
 facet normal  0.000000e+00  0.000000e+00  1.000000e+00
   outer loop
     vertex -4.651153e-01  3.918323e-02  8.500000e-01
     vertex -4.700411e-01 -3.858508e-02  8.500000e-01
     vertex -4.651153e-01 -3.918323e-02  8.500000e-01
   endloop
 endfacet
 facet normal  0.000000e+00  0.000000e+00  1.000000e+00
   outer loop
     vertex -4.651153e-01  3.918323e-02  8.500000e-01
     vertex -4.700411e-01  3.858508e-02  8.500000e-01
     vertex -4.700411e-01 -3.858508e-02  8.500000e-01
   endloop
 endfacet
endsolid
