solid
 facet normal -3.145979e-01  9.492250e-01 -8.168196e-17
   outer loop
     vertex -6.000000e-01 -6.000000e-01  8.100000e-01
     vertex -3.461199e-01 -5.158575e-01  8.500000e-01
     vertex -3.461199e-01 -5.158575e-01  8.100000e-01
   endloop
 endfacet
 facet normal -3.145979e-01  9.492250e-01  0.000000e+00
   outer loop
     vertex -6.000000e-01 -6.000000e-01  8.100000e-01
     vertex -6.000000e-01 -6.000000e-01  8.500000e-01
     vertex -3.461199e-01 -5.158575e-01  8.500000e-01
   endloop
 endfacet
 facet normal  2.987891e-01 -9.543192e-01 -1.588173e-16
   outer loop
     vertex -3.426827e-01 -5.194362e-01  8.100000e-01
     vertex -6.000000e-01 -6.000000e-01  8.500000e-01
     vertex -6.000000e-01 -6.000000e-01  8.100000e-01
   endloop
 endfacet
 facet normal  2.987891e-01 -9.543192e-01  0.000000e+00
   outer loop
     vertex -3.426827e-01 -5.194362e-01  8.100000e-01
     vertex -3.426827e-01 -5.194362e-01  8.500000e-01
     vertex -6.000000e-01 -6.000000e-01  8.500000e-01
   endloop
 endfacet
 facet normal  7.212119e-01  6.927146e-01  4.263217e-18
   outer loop
     vertex -3.461199e-01 -5.158575e-01  8.100000e-01
     vertex -3.426827e-01 -5.194362e-01  8.500000e-01
     vertex -3.426827e-01 -5.194362e-01  8.100000e-01
   endloop
 endfacet
 facet normal  7.212119e-01  6.927146e-01 -0.000000e+00
   outer loop
     vertex -3.461199e-01 -5.158575e-01  8.100000e-01
     vertex -3.461199e-01 -5.158575e-01  8.500000e-01
     vertex -3.426827e-01 -5.194362e-01  8.500000e-01
   endloop
 endfacet
 facet normal  0.000000e+00 -0.000000e+00 -1.000000e+00
   outer loop
     vertex -3.461199e-01 -5.158575e-01  8.100000e-01
     vertex -3.426827e-01 -5.194362e-01  8.100000e-01
     vertex -6.000000e-01 -6.000000e-01  8.100000e-01
   endloop
 endfacet
 facet normal  0.000000e+00  0.000000e+00  1.000000e+00
   outer loop
     vertex -3.461199e-01 -5.158575e-01  8.500000e-01
     vertex -6.000000e-01 -6.000000e-01  8.500000e-01
     vertex -3.426827e-01 -5.194362e-01  8.500000e-01
   endloop
 endfacet
endsolid
