solid
 facet normal -7.211975e-01  6.927295e-01  2.274754e-18
   outer loop
     vertex  1.426819e-01 -5.194370e-01  8.100000e-01
     vertex  1.461192e-01 -5.158584e-01  8.500000e-01
     vertex  1.461192e-01 -5.158584e-01  8.100000e-01
   endloop
 endfacet
 facet normal -7.211975e-01  6.927295e-01  0.000000e+00
   outer loop
     vertex  1.426819e-01 -5.194370e-01  8.100000e-01
     vertex  1.426819e-01 -5.194370e-01  8.500000e-01
     vertex  1.461192e-01 -5.158584e-01  8.500000e-01
   endloop
 endfacet
 facet normal  6.722180e-06 -1.000000e+00  6.377069e-23
   outer loop
     vertex  2.573173e-01 -5.194362e-01  8.100000e-01
     vertex  1.426819e-01 -5.194370e-01  8.500000e-01
     vertex  1.426819e-01 -5.194370e-01  8.100000e-01
   endloop
 endfacet
 facet normal  6.722180e-06 -1.000000e+00  0.000000e+00
   outer loop
     vertex  2.573173e-01 -5.194362e-01  8.100000e-01
     vertex  2.573173e-01 -5.194362e-01  8.500000e-01
     vertex  1.426819e-01 -5.194370e-01  8.500000e-01
   endloop
 endfacet
 facet normal  7.212103e-01  6.927162e-01  4.055383e-18
   outer loop
     vertex  2.538801e-01 -5.158575e-01  8.100000e-01
     vertex  2.573173e-01 -5.194362e-01  8.500000e-01
     vertex  2.573173e-01 -5.194362e-01  8.100000e-01
   endloop
 endfacet
 facet normal  7.212103e-01  6.927162e-01 -0.000000e+00
   outer loop
     vertex  2.538801e-01 -5.158575e-01  8.100000e-01
     vertex  2.538801e-01 -5.158575e-01  8.500000e-01
     vertex  2.573173e-01 -5.194362e-01  8.500000e-01
   endloop
 endfacet
 facet normal -7.787614e-06  1.000000e+00  3.326241e-22
   outer loop
     vertex  1.461192e-01 -5.158584e-01  8.100000e-01
     vertex  2.538801e-01 -5.158575e-01  8.500000e-01
     vertex  2.538801e-01 -5.158575e-01  8.100000e-01
   endloop
 endfacet
 facet normal -7.787614e-06  1.000000e+00  0.000000e+00
   outer loop
     vertex  1.461192e-01 -5.158584e-01  8.100000e-01
     vertex  1.461192e-01 -5.158584e-01  8.500000e-01
     vertex  2.538801e-01 -5.158575e-01  8.500000e-01
   endloop
 endfacet
 facet normal -0.000000e+00  0.000000e+00 -1.000000e+00
   outer loop
     vertex  2.573173e-01 -5.194362e-01  8.100000e-01
     vertex  1.426819e-01 -5.194370e-01  8.100000e-01
     vertex  1.461192e-01 -5.158584e-01  8.100000e-01
   endloop
 endfacet
 facet normal  0.000000e+00 -0.000000e+00 -1.000000e+00
   outer loop
     vertex  2.538801e-01 -5.158575e-01  8.100000e-01
     vertex  2.573173e-01 -5.194362e-01  8.100000e-01
     vertex  1.461192e-01 -5.158584e-01  8.100000e-01
   endloop
 endfacet
 facet normal  0.000000e+00  0.000000e+00  1.000000e+00
   outer loop
     vertex  2.573173e-01 -5.194362e-01  8.500000e-01
     vertex  1.461192e-01 -5.158584e-01  8.500000e-01
     vertex  1.426819e-01 -5.194370e-01  8.500000e-01
   endloop
 endfacet
 facet normal  0.000000e+00  0.000000e+00  1.000000e+00
   outer loop
     vertex  2.538801e-01 -5.158575e-01  8.500000e-01
     vertex  1.461192e-01 -5.158584e-01  8.500000e-01
     vertex  2.573173e-01 -5.194362e-01  8.500000e-01
   endloop
 endfacet
endsolid
