solid
 facet normal  4.647352e-01  8.854497e-01 -4.032415e-18
   outer loop
     vertex -3.308080e-01 -5.283596e-01  8.100000e-01
     vertex -3.264145e-01 -5.306656e-01  8.500000e-01
     vertex -3.264145e-01 -5.306656e-01  8.100000e-01
   endloop
 endfacet
 facet normal  4.647352e-01  8.854497e-01 -0.000000e+00
   outer loop
     vertex -3.308080e-01 -5.283596e-01  8.100000e-01
     vertex -3.308080e-01 -5.283596e-01  8.500000e-01
     vertex -3.264145e-01 -5.306656e-01  8.500000e-01
   endloop
 endfacet
 facet normal -2.571795e-01  9.663636e-01 -1.519543e-16
   outer loop
     vertex -6.000000e-01 -6.000000e-01  8.100000e-01
     vertex -3.308080e-01 -5.283596e-01  8.500000e-01
     vertex -3.308080e-01 -5.283596e-01  8.100000e-01
   endloop
 endfacet
 facet normal -2.571795e-01  9.663636e-01  0.000000e+00
   outer loop
     vertex -6.000000e-01 -6.000000e-01  8.100000e-01
     vertex -6.000000e-01 -6.000000e-01  8.500000e-01
     vertex -3.308080e-01 -5.283596e-01  8.500000e-01
   endloop
 endfacet
 facet normal  2.456623e-01 -9.693555e-01  9.948658e-17
   outer loop
     vertex -3.264145e-01 -5.306656e-01  8.100000e-01
     vertex -6.000000e-01 -6.000000e-01  8.500000e-01
     vertex -6.000000e-01 -6.000000e-01  8.100000e-01
   endloop
 endfacet
 facet normal  2.456623e-01 -9.693555e-01  0.000000e+00
   outer loop
     vertex -3.264145e-01 -5.306656e-01  8.100000e-01
     vertex -3.264145e-01 -5.306656e-01  8.500000e-01
     vertex -6.000000e-01 -6.000000e-01  8.500000e-01
   endloop
 endfacet
 facet normal -0.000000e+00  0.000000e+00 -1.000000e+00
   outer loop
     vertex -3.264145e-01 -5.306656e-01  8.100000e-01
     vertex -6.000000e-01 -6.000000e-01  8.100000e-01
     vertex -3.308080e-01 -5.283596e-01  8.100000e-01
   endloop
 endfacet
 facet normal  0.000000e+00  0.000000e+00  1.000000e+00
   outer loop
     vertex -3.264145e-01 -5.306656e-01  8.500000e-01
     vertex -3.308080e-01 -5.283596e-01  8.500000e-01
     vertex -6.000000e-01 -6.000000e-01  8.500000e-01
   endloop
 endfacet
endsolid
