solid
 facet normal  1.000000e+00  0.000000e+00  0.000000e+00
   outer loop
     vertex -5.326108e-01 -1.218491e-01  8.100000e-01
     vertex -5.326108e-01 -2.781509e-01  8.500000e-01
     vertex -5.326108e-01 -2.781509e-01  8.100000e-01
   endloop
 endfacet
 facet normal  1.000000e+00  0.000000e+00 -0.000000e+00
   outer loop
     vertex -5.326108e-01 -1.218491e-01  8.100000e-01
     vertex -5.326108e-01 -1.218491e-01  8.500000e-01
     vertex -5.326108e-01 -2.781509e-01  8.500000e-01
   endloop
 endfacet
 facet normal  9.485356e-01  3.166706e-01  1.020506e-18
   outer loop
     vertex -5.341821e-01 -1.171425e-01  8.100000e-01
     vertex -5.326108e-01 -1.218491e-01  8.500000e-01
     vertex -5.326108e-01 -1.218491e-01  8.100000e-01
   endloop
 endfacet
 facet normal  9.485356e-01  3.166706e-01 -0.000000e+00
   outer loop
     vertex -5.341821e-01 -1.171425e-01  8.100000e-01
     vertex -5.341821e-01 -1.171425e-01  8.500000e-01
     vertex -5.326108e-01 -1.218491e-01  8.500000e-01
   endloop
 endfacet
 facet normal -1.000000e+00  0.000000e+00  0.000000e+00
   outer loop
     vertex -5.341821e-01 -2.828575e-01  8.100000e-01
     vertex -5.341821e-01 -1.171425e-01  8.500000e-01
     vertex -5.341821e-01 -1.171425e-01  8.100000e-01
   endloop
 endfacet
 facet normal -1.000000e+00  0.000000e+00  0.000000e+00
   outer loop
     vertex -5.341821e-01 -2.828575e-01  8.100000e-01
     vertex -5.341821e-01 -2.828575e-01  8.500000e-01
     vertex -5.341821e-01 -1.171425e-01  8.500000e-01
   endloop
 endfacet
 facet normal  9.485356e-01 -3.166706e-01 -2.110876e-18
   outer loop
     vertex -5.326108e-01 -2.781509e-01  8.100000e-01
     vertex -5.341821e-01 -2.828575e-01  8.500000e-01
     vertex -5.341821e-01 -2.828575e-01  8.100000e-01
   endloop
 endfacet
 facet normal  9.485356e-01 -3.166706e-01  0.000000e+00
   outer loop
     vertex -5.326108e-01 -2.781509e-01  8.100000e-01
     vertex -5.326108e-01 -2.781509e-01  8.500000e-01
     vertex -5.341821e-01 -2.828575e-01  8.500000e-01
   endloop
 endfacet
 facet normal  0.000000e+00  0.000000e+00 -1.000000e+00
   outer loop
     vertex -5.341821e-01 -1.171425e-01  8.100000e-01
     vertex -5.326108e-01 -2.781509e-01  8.100000e-01
     vertex -5.341821e-01 -2.828575e-01  8.100000e-01
   endloop
 endfacet
 facet normal  0.000000e+00  0.000000e+00 -1.000000e+00
   outer loop
     vertex -5.341821e-01 -1.171425e-01  8.100000e-01
     vertex -5.326108e-01 -1.218491e-01  8.100000e-01
     vertex -5.326108e-01 -2.781509e-01  8.100000e-01
   endloop
 endfacet
 facet normal  0.000000e+00  0.000000e+00  1.000000e+00
   outer loop
     vertex -5.341821e-01 -1.171425e-01  8.500000e-01
     vertex -5.341821e-01 -2.828575e-01  8.500000e-01
     vertex -5.326108e-01 -2.781509e-01  8.500000e-01
   endloop
 endfacet
 facet normal  0.000000e+00  0.000000e+00  1.000000e+00
   outer loop
     vertex -5.341821e-01 -1.171425e-01  8.500000e-01
     vertex -5.326108e-01 -2.781509e-01  8.500000e-01
     vertex -5.326108e-01 -1.218491e-01  8.500000e-01
   endloop
 endfacet
endsolid
