solid
 facet normal -3.671712e-01  9.301534e-01  5.151160e-17
   outer loop
     vertex  2.505129e-01  7.651680e-02  8.100000e-01
     vertex  5.000000e-01  1.750000e-01  8.500000e-01
     vertex  5.000000e-01  1.750000e-01  8.100000e-01
   endloop
 endfacet
 facet normal -3.671712e-01  9.301534e-01  0.000000e+00
   outer loop
     vertex  2.505129e-01  7.651680e-02  8.100000e-01
     vertex  2.505129e-01  7.651680e-02  8.500000e-01
     vertex  5.000000e-01  1.750000e-01  8.500000e-01
   endloop
 endfacet
 facet normal -4.223920e-02 -9.991075e-01  1.283356e-19
   outer loop
     vertex  2.559470e-01  7.628706e-02  8.100000e-01
     vertex  2.505129e-01  7.651680e-02  8.500000e-01
     vertex  2.505129e-01  7.651680e-02  8.100000e-01
   endloop
 endfacet
 facet normal -4.223920e-02 -9.991075e-01  0.000000e+00
   outer loop
     vertex  2.559470e-01  7.628706e-02  8.100000e-01
     vertex  2.559470e-01  7.628706e-02  8.500000e-01
     vertex  2.505129e-01  7.651680e-02  8.500000e-01
   endloop
 endfacet
 facet normal  3.749629e-01 -9.270398e-01 -2.961302e-17
   outer loop
     vertex  5.000000e-01  1.750000e-01  8.100000e-01
     vertex  2.559470e-01  7.628706e-02  8.500000e-01
     vertex  2.559470e-01  7.628706e-02  8.100000e-01
   endloop
 endfacet
 facet normal  3.749629e-01 -9.270398e-01  0.000000e+00
   outer loop
     vertex  5.000000e-01  1.750000e-01  8.100000e-01
     vertex  5.000000e-01  1.750000e-01  8.500000e-01
     vertex  2.559470e-01  7.628706e-02  8.500000e-01
   endloop
 endfacet
 facet normal  0.000000e+00  0.000000e+00 -1.000000e+00
   outer loop
     vertex  5.000000e-01  1.750000e-01  8.100000e-01
     vertex  2.559470e-01  7.628706e-02  8.100000e-01
     vertex  2.505129e-01  7.651680e-02  8.100000e-01
   endloop
 endfacet
 facet normal  0.000000e+00  0.000000e+00  1.000000e+00
   outer loop
     vertex  5.000000e-01  1.750000e-01  8.500000e-01
     vertex  2.505129e-01  7.651680e-02  8.500000e-01
     vertex  2.559470e-01  7.628706e-02  8.500000e-01
   endloop
 endfacet
endsolid
