solid
 facet normal  1.766161e-01  9.842798e-01  3.790013e-17
   outer loop
     vertex -5.000000e-01  1.750000e-01  8.100000e-01
     vertex  1.926933e-01  5.070531e-02  8.500000e-01
     vertex  1.926933e-01  5.070531e-02  8.100000e-01
   endloop
 endfacet
 facet normal  1.766161e-01  9.842798e-01 -0.000000e+00
   outer loop
     vertex -5.000000e-01  1.750000e-01  8.100000e-01
     vertex -5.000000e-01  1.750000e-01  8.500000e-01
     vertex  1.926933e-01  5.070531e-02  8.500000e-01
   endloop
 endfacet
 facet normal -1.832713e-01 -9.830624e-01 -2.159856e-16
   outer loop
     vertex  1.892362e-01  4.650641e-02  8.100000e-01
     vertex -5.000000e-01  1.750000e-01  8.500000e-01
     vertex -5.000000e-01  1.750000e-01  8.100000e-01
   endloop
 endfacet
 facet normal -1.832713e-01 -9.830624e-01  0.000000e+00
   outer loop
     vertex  1.892362e-01  4.650641e-02  8.100000e-01
     vertex  1.892362e-01  4.650641e-02  8.500000e-01
     vertex -5.000000e-01  1.750000e-01  8.500000e-01
   endloop
 endfacet
 facet normal  7.720046e-01 -6.356170e-01  3.619875e-18
   outer loop
     vertex  1.926933e-01  5.070531e-02  8.100000e-01
     vertex  1.892362e-01  4.650641e-02  8.500000e-01
     vertex  1.892362e-01  4.650641e-02  8.100000e-01
   endloop
 endfacet
 facet normal  7.720046e-01 -6.356170e-01  0.000000e+00
   outer loop
     vertex  1.926933e-01  5.070531e-02  8.100000e-01
     vertex  1.926933e-01  5.070531e-02  8.500000e-01
     vertex  1.892362e-01  4.650641e-02  8.500000e-01
   endloop
 endfacet
 facet normal -0.000000e+00  0.000000e+00 -1.000000e+00
   outer loop
     vertex  1.926933e-01  5.070531e-02  8.100000e-01
     vertex  1.892362e-01  4.650641e-02  8.100000e-01
     vertex -5.000000e-01  1.750000e-01  8.100000e-01
   endloop
 endfacet
 facet normal  0.000000e+00  0.000000e+00  1.000000e+00
   outer loop
     vertex  1.926933e-01  5.070531e-02  8.500000e-01
     vertex -5.000000e-01  1.750000e-01  8.500000e-01
     vertex  1.892362e-01  4.650641e-02  8.500000e-01
   endloop
 endfacet
endsolid
