solid
 facet normal -5.457712e-01  8.379343e-01 -2.463976e-17
   outer loop
     vertex  3.079813e-01  4.993256e-02  8.100000e-01
     vertex  5.000000e-01  1.750000e-01  8.500000e-01
     vertex  5.000000e-01  1.750000e-01  8.100000e-01
   endloop
 endfacet
 facet normal -5.457712e-01  8.379343e-01  0.000000e+00
   outer loop
     vertex  3.079813e-01  4.993256e-02  8.100000e-01
     vertex  3.079813e-01  4.993256e-02  8.500000e-01
     vertex  5.000000e-01  1.750000e-01  8.500000e-01
   endloop
 endfacet
 facet normal -7.804592e-01 -6.252067e-01 -1.130722e-18
   outer loop
     vertex  3.113817e-01  4.568770e-02  8.100000e-01
     vertex  3.079813e-01  4.993256e-02  8.500000e-01
     vertex  3.079813e-01  4.993256e-02  8.100000e-01
   endloop
 endfacet
 facet normal -7.804592e-01 -6.252067e-01  0.000000e+00
   outer loop
     vertex  3.113817e-01  4.568770e-02  8.100000e-01
     vertex  3.113817e-01  4.568770e-02  8.500000e-01
     vertex  3.079813e-01  4.993256e-02  8.500000e-01
   endloop
 endfacet
 facet normal  5.654512e-01 -8.247818e-01 -9.194328e-17
   outer loop
     vertex  5.000000e-01  1.750000e-01  8.100000e-01
     vertex  3.113817e-01  4.568770e-02  8.500000e-01
     vertex  3.113817e-01  4.568770e-02  8.100000e-01
   endloop
 endfacet
 facet normal  5.654512e-01 -8.247818e-01  0.000000e+00
   outer loop
     vertex  5.000000e-01  1.750000e-01  8.100000e-01
     vertex  5.000000e-01  1.750000e-01  8.500000e-01
     vertex  3.113817e-01  4.568770e-02  8.500000e-01
   endloop
 endfacet
 facet normal  0.000000e+00  0.000000e+00 -1.000000e+00
   outer loop
     vertex  5.000000e-01  1.750000e-01  8.100000e-01
     vertex  3.113817e-01  4.568770e-02  8.100000e-01
     vertex  3.079813e-01  4.993256e-02  8.100000e-01
   endloop
 endfacet
 facet normal  0.000000e+00  0.000000e+00  1.000000e+00
   outer loop
     vertex  5.000000e-01  1.750000e-01  8.500000e-01
     vertex  3.079813e-01  4.993256e-02  8.500000e-01
     vertex  3.113817e-01  4.568770e-02  8.500000e-01
   endloop
 endfacet
endsolid
