solid
 facet normal -9.918708e-01 -1.272487e-01  1.498056e-17
   outer loop
     vertex  2.075000e-01 -1.750000e-01  8.100000e-01
     vertex  1.913546e-01 -4.915084e-02  8.500000e-01
     vertex  1.913546e-01 -4.915084e-02  8.100000e-01
   endloop
 endfacet
 facet normal -9.918708e-01 -1.272487e-01  0.000000e+00
   outer loop
     vertex  2.075000e-01 -1.750000e-01  8.100000e-01
     vertex  2.075000e-01 -1.750000e-01  8.500000e-01
     vertex  1.913546e-01 -4.915084e-02  8.500000e-01
   endloop
 endfacet
 facet normal  9.947709e-01  1.021317e-01 -8.556839e-18
   outer loop
     vertex  1.949942e-01 -5.319257e-02  8.100000e-01
     vertex  2.075000e-01 -1.750000e-01  8.500000e-01
     vertex  2.075000e-01 -1.750000e-01  8.100000e-01
   endloop
 endfacet
 facet normal  9.947709e-01  1.021317e-01 -0.000000e+00
   outer loop
     vertex  1.949942e-01 -5.319257e-02  8.100000e-01
     vertex  1.949942e-01 -5.319257e-02  8.500000e-01
     vertex  2.075000e-01 -1.750000e-01  8.500000e-01
   endloop
 endfacet
 facet normal  7.431081e-01  6.691714e-01  2.752202e-18
   outer loop
     vertex  1.913546e-01 -4.915084e-02  8.100000e-01
     vertex  1.949942e-01 -5.319257e-02  8.500000e-01
     vertex  1.949942e-01 -5.319257e-02  8.100000e-01
   endloop
 endfacet
 facet normal  7.431081e-01  6.691714e-01 -0.000000e+00
   outer loop
     vertex  1.913546e-01 -4.915084e-02  8.100000e-01
     vertex  1.913546e-01 -4.915084e-02  8.500000e-01
     vertex  1.949942e-01 -5.319257e-02  8.500000e-01
   endloop
 endfacet
 facet normal  0.000000e+00  0.000000e+00 -1.000000e+00
   outer loop
     vertex  1.913546e-01 -4.915084e-02  8.100000e-01
     vertex  1.949942e-01 -5.319257e-02  8.100000e-01
     vertex  2.075000e-01 -1.750000e-01  8.100000e-01
   endloop
 endfacet
 facet normal  0.000000e+00  0.000000e+00  1.000000e+00
   outer loop
     vertex  1.913546e-01 -4.915084e-02  8.500000e-01
     vertex  2.075000e-01 -1.750000e-01  8.500000e-01
     vertex  1.949942e-01 -5.319257e-02  8.500000e-01
   endloop
 endfacet
endsolid
