solid
 facet normal -5.849032e-01  8.111031e-01 -1.250741e-16
   outer loop
     vertex  3.144721e-01  4.121202e-02  8.100000e-01
     vertex  5.000000e-01  1.750000e-01  8.500000e-01
     vertex  5.000000e-01  1.750000e-01  8.100000e-01
   endloop
 endfacet
 facet normal -5.849032e-01  8.111031e-01  0.000000e+00
   outer loop
     vertex  3.144721e-01  4.121202e-02  8.100000e-01
     vertex  3.144721e-01  4.121202e-02  8.500000e-01
     vertex  5.000000e-01  1.750000e-01  8.500000e-01
   endloop
 endfacet
 facet normal -8.611776e-01 -5.083042e-01 -2.330987e-19
   outer loop
     vertex  3.172368e-01  3.652811e-02  8.100000e-01
     vertex  3.144721e-01  4.121202e-02  8.500000e-01
     vertex  3.144721e-01  4.121202e-02  8.100000e-01
   endloop
 endfacet
 facet normal -8.611776e-01 -5.083042e-01  0.000000e+00
   outer loop
     vertex  3.172368e-01  3.652811e-02  8.100000e-01
     vertex  3.172368e-01  3.652811e-02  8.500000e-01
     vertex  3.144721e-01  4.121202e-02  8.500000e-01
   endloop
 endfacet
 facet normal  6.038989e-01 -7.970609e-01 -1.070630e-16
   outer loop
     vertex  5.000000e-01  1.750000e-01  8.100000e-01
     vertex  3.172368e-01  3.652811e-02  8.500000e-01
     vertex  3.172368e-01  3.652811e-02  8.100000e-01
   endloop
 endfacet
 facet normal  6.038989e-01 -7.970609e-01  0.000000e+00
   outer loop
     vertex  5.000000e-01  1.750000e-01  8.100000e-01
     vertex  5.000000e-01  1.750000e-01  8.500000e-01
     vertex  3.172368e-01  3.652811e-02  8.500000e-01
   endloop
 endfacet
 facet normal  0.000000e+00  0.000000e+00 -1.000000e+00
   outer loop
     vertex  5.000000e-01  1.750000e-01  8.100000e-01
     vertex  3.172368e-01  3.652811e-02  8.100000e-01
     vertex  3.144721e-01  4.121202e-02  8.100000e-01
   endloop
 endfacet
 facet normal  0.000000e+00  0.000000e+00  1.000000e+00
   outer loop
     vertex  5.000000e-01  1.750000e-01  8.500000e-01
     vertex  3.144721e-01  4.121202e-02  8.500000e-01
     vertex  3.172368e-01  3.652811e-02  8.500000e-01
   endloop
 endfacet
endsolid
