solid
 facet normal  5.678259e-01  8.231487e-01  1.889464e-16
   outer loop
     vertex  3.117732e-01 -4.515704e-02  8.100000e-01
     vertex  5.000000e-01 -1.750000e-01  8.500000e-01
     vertex  5.000000e-01 -1.750000e-01  8.100000e-01
   endloop
 endfacet
 facet normal  5.678259e-01  8.231487e-01 -0.000000e+00
   outer loop
     vertex  3.117732e-01 -4.515704e-02  8.100000e-01
     vertex  3.117732e-01 -4.515704e-02  8.500000e-01
     vertex  5.000000e-01 -1.750000e-01  8.500000e-01
   endloop
 endfacet
 facet normal -7.861057e-01  6.180920e-01 -2.910439e-19
   outer loop
     vertex  3.084567e-01 -4.937509e-02  8.100000e-01
     vertex  3.117732e-01 -4.515704e-02  8.500000e-01
     vertex  3.117732e-01 -4.515704e-02  8.100000e-01
   endloop
 endfacet
 facet normal -7.861057e-01  6.180920e-01  0.000000e+00
   outer loop
     vertex  3.084567e-01 -4.937509e-02  8.100000e-01
     vertex  3.084567e-01 -4.937509e-02  8.500000e-01
     vertex  3.117732e-01 -4.515704e-02  8.500000e-01
   endloop
 endfacet
 facet normal -5.484263e-01 -8.361989e-01 -3.782433e-17
   outer loop
     vertex  5.000000e-01 -1.750000e-01  8.100000e-01
     vertex  3.084567e-01 -4.937509e-02  8.500000e-01
     vertex  3.084567e-01 -4.937509e-02  8.100000e-01
   endloop
 endfacet
 facet normal -5.484263e-01 -8.361989e-01  0.000000e+00
   outer loop
     vertex  5.000000e-01 -1.750000e-01  8.100000e-01
     vertex  5.000000e-01 -1.750000e-01  8.500000e-01
     vertex  3.084567e-01 -4.937509e-02  8.500000e-01
   endloop
 endfacet
 facet normal  0.000000e+00  0.000000e+00 -1.000000e+00
   outer loop
     vertex  5.000000e-01 -1.750000e-01  8.100000e-01
     vertex  3.084567e-01 -4.937509e-02  8.100000e-01
     vertex  3.117732e-01 -4.515704e-02  8.100000e-01
   endloop
 endfacet
 facet normal  0.000000e+00  0.000000e+00  1.000000e+00
   outer loop
     vertex  5.000000e-01 -1.750000e-01  8.500000e-01
     vertex  3.117732e-01 -4.515704e-02  8.500000e-01
     vertex  3.084567e-01 -4.937509e-02  8.500000e-01
   endloop
 endfacet
endsolid
