solid
 facet normal -2.528699e-01  9.675003e-01 -2.476340e-16
   outer loop
     vertex -5.000000e-01 -1.750000e-01  8.100000e-01
     vertex  1.734883e-01  1.025726e-03  8.500000e-01
     vertex  1.734883e-01  1.025726e-03  8.100000e-01
   endloop
 endfacet
 facet normal -2.528699e-01  9.675003e-01  0.000000e+00
   outer loop
     vertex -5.000000e-01 -1.750000e-01  8.100000e-01
     vertex -5.000000e-01 -1.750000e-01  8.500000e-01
     vertex  1.734883e-01  1.025726e-03  8.500000e-01
   endloop
 endfacet
 facet normal  2.454952e-01 -9.693978e-01  2.215626e-16
   outer loop
     vertex  1.736088e-01 -4.411896e-03  8.100000e-01
     vertex -5.000000e-01 -1.750000e-01  8.500000e-01
     vertex -5.000000e-01 -1.750000e-01  8.100000e-01
   endloop
 endfacet
 facet normal  2.454952e-01 -9.693978e-01  0.000000e+00
   outer loop
     vertex  1.736088e-01 -4.411896e-03  8.100000e-01
     vertex  1.736088e-01 -4.411896e-03  8.500000e-01
     vertex -5.000000e-01 -1.750000e-01  8.500000e-01
   endloop
 endfacet
 facet normal  9.997549e-01  2.214070e-02 -1.884799e-19
   outer loop
     vertex  1.734883e-01  1.025726e-03  8.100000e-01
     vertex  1.736088e-01 -4.411896e-03  8.500000e-01
     vertex  1.736088e-01 -4.411896e-03  8.100000e-01
   endloop
 endfacet
 facet normal  9.997549e-01  2.214070e-02 -0.000000e+00
   outer loop
     vertex  1.734883e-01  1.025726e-03  8.100000e-01
     vertex  1.734883e-01  1.025726e-03  8.500000e-01
     vertex  1.736088e-01 -4.411896e-03  8.500000e-01
   endloop
 endfacet
 facet normal  0.000000e+00 -0.000000e+00 -1.000000e+00
   outer loop
     vertex  1.734883e-01  1.025726e-03  8.100000e-01
     vertex  1.736088e-01 -4.411896e-03  8.100000e-01
     vertex -5.000000e-01 -1.750000e-01  8.100000e-01
   endloop
 endfacet
 facet normal  0.000000e+00  0.000000e+00  1.000000e+00
   outer loop
     vertex  1.734883e-01  1.025726e-03  8.500000e-01
     vertex -5.000000e-01 -1.750000e-01  8.500000e-01
     vertex  1.736088e-01 -4.411896e-03  8.500000e-01
   endloop
 endfacet
endsolid
