solid
 facet normal  1.587520e-01  9.873185e-01 -1.894409e-16
   outer loop
     vertex -5.000000e-01  1.750000e-01  8.100000e-01
     vertex  2.047247e-01  6.168658e-02  8.500000e-01
     vertex  2.047247e-01  6.168658e-02  8.100000e-01
   endloop
 endfacet
 facet normal  1.587520e-01  9.873185e-01 -0.000000e+00
   outer loop
     vertex -5.000000e-01  1.750000e-01  8.100000e-01
     vertex -5.000000e-01  1.750000e-01  8.500000e-01
     vertex  2.047247e-01  6.168658e-02  8.500000e-01
   endloop
 endfacet
 facet normal -1.643202e-01 -9.864070e-01  1.853386e-16
   outer loop
     vertex  2.004572e-01  5.831461e-02  8.100000e-01
     vertex -5.000000e-01  1.750000e-01  8.500000e-01
     vertex -5.000000e-01  1.750000e-01  8.100000e-01
   endloop
 endfacet
 facet normal -1.643202e-01 -9.864070e-01  0.000000e+00
   outer loop
     vertex  2.004572e-01  5.831461e-02  8.100000e-01
     vertex  2.004572e-01  5.831461e-02  8.500000e-01
     vertex -5.000000e-01  1.750000e-01  8.500000e-01
   endloop
 endfacet
 facet normal  6.199712e-01 -7.846246e-01  2.582879e-18
   outer loop
     vertex  2.047247e-01  6.168658e-02  8.100000e-01
     vertex  2.004572e-01  5.831461e-02  8.500000e-01
     vertex  2.004572e-01  5.831461e-02  8.100000e-01
   endloop
 endfacet
 facet normal  6.199712e-01 -7.846246e-01  0.000000e+00
   outer loop
     vertex  2.047247e-01  6.168658e-02  8.100000e-01
     vertex  2.047247e-01  6.168658e-02  8.500000e-01
     vertex  2.004572e-01  5.831461e-02  8.500000e-01
   endloop
 endfacet
 facet normal -0.000000e+00  0.000000e+00 -1.000000e+00
   outer loop
     vertex  2.047247e-01  6.168658e-02  8.100000e-01
     vertex  2.004572e-01  5.831461e-02  8.100000e-01
     vertex -5.000000e-01  1.750000e-01  8.100000e-01
   endloop
 endfacet
 facet normal  0.000000e+00  0.000000e+00  1.000000e+00
   outer loop
     vertex  2.047247e-01  6.168658e-02  8.500000e-01
     vertex -5.000000e-01  1.750000e-01  8.500000e-01
     vertex  2.004572e-01  5.831461e-02  8.500000e-01
   endloop
 endfacet
endsolid
