solid
 facet normal  5.846227e-01  8.113053e-01  1.913026e-18
   outer loop
     vertex  2.030873e-01 -6.045071e-02  8.100000e-01
     vertex  2.075000e-01 -6.363045e-02  8.500000e-01
     vertex  2.075000e-01 -6.363045e-02  8.100000e-01
   endloop
 endfacet
 facet normal  5.846227e-01  8.113053e-01 -0.000000e+00
   outer loop
     vertex  2.030873e-01 -6.045071e-02  8.100000e-01
     vertex  2.030873e-01 -6.045071e-02  8.500000e-01
     vertex  2.075000e-01 -6.363045e-02  8.500000e-01
   endloop
 endfacet
 facet normal -9.992589e-01 -3.849337e-02 -2.885004e-18
   outer loop
     vertex  2.075000e-01 -1.750000e-01  8.100000e-01
     vertex  2.030873e-01 -6.045071e-02  8.500000e-01
     vertex  2.030873e-01 -6.045071e-02  8.100000e-01
   endloop
 endfacet
 facet normal -9.992589e-01 -3.849337e-02  0.000000e+00
   outer loop
     vertex  2.075000e-01 -1.750000e-01  8.100000e-01
     vertex  2.075000e-01 -1.750000e-01  8.500000e-01
     vertex  2.030873e-01 -6.045071e-02  8.500000e-01
   endloop
 endfacet
 facet normal  1.000000e+00  0.000000e+00  0.000000e+00
   outer loop
     vertex  2.075000e-01 -6.363045e-02  8.100000e-01
     vertex  2.075000e-01 -1.750000e-01  8.500000e-01
     vertex  2.075000e-01 -1.750000e-01  8.100000e-01
   endloop
 endfacet
 facet normal  1.000000e+00  0.000000e+00 -0.000000e+00
   outer loop
     vertex  2.075000e-01 -6.363045e-02  8.100000e-01
     vertex  2.075000e-01 -6.363045e-02  8.500000e-01
     vertex  2.075000e-01 -1.750000e-01  8.500000e-01
   endloop
 endfacet
 facet normal -0.000000e+00 -0.000000e+00 -1.000000e+00
   outer loop
     vertex  2.075000e-01 -6.363045e-02  8.100000e-01
     vertex  2.075000e-01 -1.750000e-01  8.100000e-01
     vertex  2.030873e-01 -6.045071e-02  8.100000e-01
   endloop
 endfacet
 facet normal  0.000000e+00  0.000000e+00  1.000000e+00
   outer loop
     vertex  2.075000e-01 -6.363045e-02  8.500000e-01
     vertex  2.030873e-01 -6.045071e-02  8.500000e-01
     vertex  2.075000e-01 -1.750000e-01  8.500000e-01
   endloop
 endfacet
endsolid
