solid
 facet normal  1.702863e-01  9.853946e-01 -2.022707e-16
   outer loop
     vertex -5.000000e-01  1.750000e-01  8.100000e-01
     vertex  1.964399e-01  5.464801e-02  8.500000e-01
     vertex  1.964399e-01  5.464801e-02  8.100000e-01
   endloop
 endfacet
 facet normal  1.702863e-01  9.853946e-01 -0.000000e+00
   outer loop
     vertex -5.000000e-01  1.750000e-01  8.100000e-01
     vertex -5.000000e-01  1.750000e-01  8.500000e-01
     vertex  1.964399e-01  5.464801e-02  8.500000e-01
   endloop
 endfacet
 facet normal -1.766161e-01 -9.842798e-01  3.790013e-17
   outer loop
     vertex  1.926933e-01  5.070531e-02  8.100000e-01
     vertex -5.000000e-01  1.750000e-01  8.500000e-01
     vertex -5.000000e-01  1.750000e-01  8.100000e-01
   endloop
 endfacet
 facet normal -1.766161e-01 -9.842798e-01  0.000000e+00
   outer loop
     vertex  1.926933e-01  5.070531e-02  8.100000e-01
     vertex  1.926933e-01  5.070531e-02  8.500000e-01
     vertex -5.000000e-01  1.750000e-01  8.500000e-01
   endloop
 endfacet
 facet normal  7.249007e-01 -6.888533e-01 -1.311779e-18
   outer loop
     vertex  1.964399e-01  5.464801e-02  8.100000e-01
     vertex  1.926933e-01  5.070531e-02  8.500000e-01
     vertex  1.926933e-01  5.070531e-02  8.100000e-01
   endloop
 endfacet
 facet normal  7.249007e-01 -6.888533e-01  0.000000e+00
   outer loop
     vertex  1.964399e-01  5.464801e-02  8.100000e-01
     vertex  1.964399e-01  5.464801e-02  8.500000e-01
     vertex  1.926933e-01  5.070531e-02  8.500000e-01
   endloop
 endfacet
 facet normal -0.000000e+00  0.000000e+00 -1.000000e+00
   outer loop
     vertex  1.964399e-01  5.464801e-02  8.100000e-01
     vertex  1.926933e-01  5.070531e-02  8.100000e-01
     vertex -5.000000e-01  1.750000e-01  8.100000e-01
   endloop
 endfacet
 facet normal  0.000000e+00  0.000000e+00  1.000000e+00
   outer loop
     vertex  1.964399e-01  5.464801e-02  8.500000e-01
     vertex -5.000000e-01  1.750000e-01  8.500000e-01
     vertex  1.926933e-01  5.070531e-02  8.500000e-01
   endloop
 endfacet
endsolid
