solid
 facet normal  2.122668e-01  9.772118e-01 -6.629058e-17
   outer loop
     vertex -5.000000e-01  1.750000e-01  8.100000e-01
     vertex  1.786288e-01  2.759044e-02  8.500000e-01
     vertex  1.786288e-01  2.759044e-02  8.100000e-01
   endloop
 endfacet
 facet normal  2.122668e-01  9.772118e-01 -0.000000e+00
   outer loop
     vertex -5.000000e-01  1.750000e-01  8.100000e-01
     vertex -5.000000e-01  1.750000e-01  8.500000e-01
     vertex  1.786288e-01  2.759044e-02  8.500000e-01
   endloop
 endfacet
 facet normal -2.198662e-01 -9.755300e-01 -1.978446e-16
   outer loop
     vertex  1.768492e-01  2.245087e-02  8.100000e-01
     vertex -5.000000e-01  1.750000e-01  8.500000e-01
     vertex -5.000000e-01  1.750000e-01  8.100000e-01
   endloop
 endfacet
 facet normal -2.198662e-01 -9.755300e-01  0.000000e+00
   outer loop
     vertex  1.768492e-01  2.245087e-02  8.100000e-01
     vertex  1.768492e-01  2.245087e-02  8.500000e-01
     vertex -5.000000e-01  1.750000e-01  8.500000e-01
   endloop
 endfacet
 facet normal  9.449565e-01 -3.271958e-01  2.984612e-18
   outer loop
     vertex  1.786288e-01  2.759044e-02  8.100000e-01
     vertex  1.768492e-01  2.245087e-02  8.500000e-01
     vertex  1.768492e-01  2.245087e-02  8.100000e-01
   endloop
 endfacet
 facet normal  9.449565e-01 -3.271958e-01  0.000000e+00
   outer loop
     vertex  1.786288e-01  2.759044e-02  8.100000e-01
     vertex  1.786288e-01  2.759044e-02  8.500000e-01
     vertex  1.768492e-01  2.245087e-02  8.500000e-01
   endloop
 endfacet
 facet normal -0.000000e+00  0.000000e+00 -1.000000e+00
   outer loop
     vertex  1.786288e-01  2.759044e-02  8.100000e-01
     vertex  1.768492e-01  2.245087e-02  8.100000e-01
     vertex -5.000000e-01  1.750000e-01  8.100000e-01
   endloop
 endfacet
 facet normal  0.000000e+00  0.000000e+00  1.000000e+00
   outer loop
     vertex  1.786288e-01  2.759044e-02  8.500000e-01
     vertex -5.000000e-01  1.750000e-01  8.500000e-01
     vertex  1.768492e-01  2.245087e-02  8.500000e-01
   endloop
 endfacet
endsolid
