solid
 facet normal -4.073062e-01  9.132916e-01 -1.443326e-17
   outer loop
     vertex  2.719601e-01  7.329965e-02  8.100000e-01
     vertex  5.000000e-01  1.750000e-01  8.500000e-01
     vertex  5.000000e-01  1.750000e-01  8.100000e-01
   endloop
 endfacet
 facet normal -4.073062e-01  9.132916e-01  0.000000e+00
   outer loop
     vertex  2.719601e-01  7.329965e-02  8.100000e-01
     vertex  2.719601e-01  7.329965e-02  8.500000e-01
     vertex  5.000000e-01  1.750000e-01  8.500000e-01
   endloop
 endfacet
 facet normal -3.208539e-01 -9.471287e-01  1.208886e-18
   outer loop
     vertex  2.771115e-01  7.155455e-02  8.100000e-01
     vertex  2.719601e-01  7.329965e-02  8.500000e-01
     vertex  2.719601e-01  7.329965e-02  8.100000e-01
   endloop
 endfacet
 facet normal -3.208539e-01 -9.471287e-01  0.000000e+00
   outer loop
     vertex  2.771115e-01  7.155455e-02  8.100000e-01
     vertex  2.771115e-01  7.155455e-02  8.500000e-01
     vertex  2.719601e-01  7.329965e-02  8.500000e-01
   endloop
 endfacet
 facet normal  4.209823e-01 -9.070688e-01  1.443160e-16
   outer loop
     vertex  5.000000e-01  1.750000e-01  8.100000e-01
     vertex  2.771115e-01  7.155455e-02  8.500000e-01
     vertex  2.771115e-01  7.155455e-02  8.100000e-01
   endloop
 endfacet
 facet normal  4.209823e-01 -9.070688e-01  0.000000e+00
   outer loop
     vertex  5.000000e-01  1.750000e-01  8.100000e-01
     vertex  5.000000e-01  1.750000e-01  8.500000e-01
     vertex  2.771115e-01  7.155455e-02  8.500000e-01
   endloop
 endfacet
 facet normal  0.000000e+00  0.000000e+00 -1.000000e+00
   outer loop
     vertex  5.000000e-01  1.750000e-01  8.100000e-01
     vertex  2.771115e-01  7.155455e-02  8.100000e-01
     vertex  2.719601e-01  7.329965e-02  8.100000e-01
   endloop
 endfacet
 facet normal  0.000000e+00  0.000000e+00  1.000000e+00
   outer loop
     vertex  5.000000e-01  1.750000e-01  8.500000e-01
     vertex  2.719601e-01  7.329965e-02  8.500000e-01
     vertex  2.771115e-01  7.155455e-02  8.500000e-01
   endloop
 endfacet
endsolid
