solid
 facet normal  2.275026e-01  9.737775e-01  5.398717e-17
   outer loop
     vertex -5.000000e-01  1.750000e-01  8.100000e-01
     vertex  1.754391e-01  1.719786e-02  8.500000e-01
     vertex  1.754391e-01  1.719786e-02  8.100000e-01
   endloop
 endfacet
 facet normal  2.275026e-01  9.737775e-01 -0.000000e+00
   outer loop
     vertex -5.000000e-01  1.750000e-01  8.100000e-01
     vertex -5.000000e-01  1.750000e-01  8.500000e-01
     vertex  1.754391e-01  1.719786e-02  8.500000e-01
   endloop
 endfacet
 facet normal -2.351232e-01 -9.719656e-01 -4.386469e-17
   outer loop
     vertex  1.744059e-01  1.185797e-02  8.100000e-01
     vertex -5.000000e-01  1.750000e-01  8.500000e-01
     vertex -5.000000e-01  1.750000e-01  8.100000e-01
   endloop
 endfacet
 facet normal -2.351232e-01 -9.719656e-01  0.000000e+00
   outer loop
     vertex  1.744059e-01  1.185797e-02  8.100000e-01
     vertex  1.744059e-01  1.185797e-02  8.500000e-01
     vertex -5.000000e-01  1.750000e-01  8.500000e-01
   endloop
 endfacet
 facet normal  9.817889e-01 -1.899753e-01  1.042500e-19
   outer loop
     vertex  1.754391e-01  1.719786e-02  8.100000e-01
     vertex  1.744059e-01  1.185797e-02  8.500000e-01
     vertex  1.744059e-01  1.185797e-02  8.100000e-01
   endloop
 endfacet
 facet normal  9.817889e-01 -1.899753e-01  0.000000e+00
   outer loop
     vertex  1.754391e-01  1.719786e-02  8.100000e-01
     vertex  1.754391e-01  1.719786e-02  8.500000e-01
     vertex  1.744059e-01  1.185797e-02  8.500000e-01
   endloop
 endfacet
 facet normal -0.000000e+00  0.000000e+00 -1.000000e+00
   outer loop
     vertex  1.754391e-01  1.719786e-02  8.100000e-01
     vertex  1.744059e-01  1.185797e-02  8.100000e-01
     vertex -5.000000e-01  1.750000e-01  8.100000e-01
   endloop
 endfacet
 facet normal  0.000000e+00  0.000000e+00  1.000000e+00
   outer loop
     vertex  1.754391e-01  1.719786e-02  8.500000e-01
     vertex -5.000000e-01  1.750000e-01  8.500000e-01
     vertex  1.744059e-01  1.185797e-02  8.500000e-01
   endloop
 endfacet
endsolid
