solid
 facet normal -4.877583e-01  8.729787e-01 -1.106864e-16
   outer loop
     vertex  2.960981e-01  6.107413e-02  8.100000e-01
     vertex  5.000000e-01  1.750000e-01  8.500000e-01
     vertex  5.000000e-01  1.750000e-01  8.100000e-01
   endloop
 endfacet
 facet normal -4.877583e-01  8.729787e-01  0.000000e+00
   outer loop
     vertex  2.960981e-01  6.107413e-02  8.100000e-01
     vertex  2.960981e-01  6.107413e-02  8.500000e-01
     vertex  5.000000e-01  1.750000e-01  8.500000e-01
   endloop
 endfacet
 facet normal -6.304283e-01 -7.762475e-01 -3.579883e-18
   outer loop
     vertex  3.003201e-01  5.764525e-02  8.100000e-01
     vertex  2.960981e-01  6.107413e-02  8.500000e-01
     vertex  2.960981e-01  6.107413e-02  8.100000e-01
   endloop
 endfacet
 facet normal -6.304283e-01 -7.762475e-01  0.000000e+00
   outer loop
     vertex  3.003201e-01  5.764525e-02  8.100000e-01
     vertex  3.003201e-01  5.764525e-02  8.500000e-01
     vertex  2.960981e-01  6.107413e-02  8.500000e-01
   endloop
 endfacet
 facet normal  5.066864e-01 -8.621304e-01  9.733089e-17
   outer loop
     vertex  5.000000e-01  1.750000e-01  8.100000e-01
     vertex  3.003201e-01  5.764525e-02  8.500000e-01
     vertex  3.003201e-01  5.764525e-02  8.100000e-01
   endloop
 endfacet
 facet normal  5.066864e-01 -8.621304e-01  0.000000e+00
   outer loop
     vertex  5.000000e-01  1.750000e-01  8.100000e-01
     vertex  5.000000e-01  1.750000e-01  8.500000e-01
     vertex  3.003201e-01  5.764525e-02  8.500000e-01
   endloop
 endfacet
 facet normal  0.000000e+00  0.000000e+00 -1.000000e+00
   outer loop
     vertex  5.000000e-01  1.750000e-01  8.100000e-01
     vertex  3.003201e-01  5.764525e-02  8.100000e-01
     vertex  2.960981e-01  6.107413e-02  8.100000e-01
   endloop
 endfacet
 facet normal  0.000000e+00  0.000000e+00  1.000000e+00
   outer loop
     vertex  5.000000e-01  1.750000e-01  8.500000e-01
     vertex  2.960981e-01  6.107413e-02  8.500000e-01
     vertex  3.003201e-01  5.764525e-02  8.500000e-01
   endloop
 endfacet
endsolid
