solid
 facet normal  1.973881e-01  9.803254e-01  1.236485e-16
   outer loop
     vertex -5.000000e-01  1.750000e-01  8.100000e-01
     vertex  1.832590e-01  3.742613e-02  8.500000e-01
     vertex  1.832590e-01  3.742613e-02  8.100000e-01
   endloop
 endfacet
 facet normal  1.973881e-01  9.803254e-01 -0.000000e+00
   outer loop
     vertex -5.000000e-01  1.750000e-01  8.100000e-01
     vertex -5.000000e-01  1.750000e-01  8.500000e-01
     vertex  1.832590e-01  3.742613e-02  8.500000e-01
   endloop
 endfacet
 facet normal -2.047569e-01 -9.788129e-01  1.488374e-17
   outer loop
     vertex  1.807690e-01  3.259062e-02  8.100000e-01
     vertex -5.000000e-01  1.750000e-01  8.500000e-01
     vertex -5.000000e-01  1.750000e-01  8.100000e-01
   endloop
 endfacet
 facet normal -2.047569e-01 -9.788129e-01  0.000000e+00
   outer loop
     vertex  1.807690e-01  3.259062e-02  8.100000e-01
     vertex  1.807690e-01  3.259062e-02  8.500000e-01
     vertex -5.000000e-01  1.750000e-01  8.500000e-01
   endloop
 endfacet
 facet normal  8.890517e-01 -4.578069e-01  2.066504e-18
   outer loop
     vertex  1.832590e-01  3.742613e-02  8.100000e-01
     vertex  1.807690e-01  3.259062e-02  8.500000e-01
     vertex  1.807690e-01  3.259062e-02  8.100000e-01
   endloop
 endfacet
 facet normal  8.890517e-01 -4.578069e-01  0.000000e+00
   outer loop
     vertex  1.832590e-01  3.742613e-02  8.100000e-01
     vertex  1.832590e-01  3.742613e-02  8.500000e-01
     vertex  1.807690e-01  3.259062e-02  8.500000e-01
   endloop
 endfacet
 facet normal -0.000000e+00  0.000000e+00 -1.000000e+00
   outer loop
     vertex  1.832590e-01  3.742613e-02  8.100000e-01
     vertex  1.807690e-01  3.259062e-02  8.100000e-01
     vertex -5.000000e-01  1.750000e-01  8.100000e-01
   endloop
 endfacet
 facet normal  0.000000e+00  0.000000e+00  1.000000e+00
   outer loop
     vertex  1.832590e-01  3.742613e-02  8.500000e-01
     vertex -5.000000e-01  1.750000e-01  8.500000e-01
     vertex  1.807690e-01  3.259062e-02  8.500000e-01
   endloop
 endfacet
endsolid
