solid
 facet normal  1.409942e-01  9.900104e-01 -7.950331e-17
   outer loop
     vertex -5.000000e-01  1.750000e-01  8.100000e-01
     vertex  2.238502e-01  7.191154e-02  8.500000e-01
     vertex  2.238502e-01  7.191154e-02  8.100000e-01
   endloop
 endfacet
 facet normal  1.409942e-01  9.900104e-01 -0.000000e+00
   outer loop
     vertex -5.000000e-01  1.750000e-01  8.100000e-01
     vertex -5.000000e-01  1.750000e-01  8.500000e-01
     vertex  2.238502e-01  7.191154e-02  8.500000e-01
   endloop
 endfacet
 facet normal -1.447133e-01 -9.894736e-01 -1.167814e-16
   outer loop
     vertex  2.188080e-01  6.987231e-02  8.100000e-01
     vertex -5.000000e-01  1.750000e-01  8.500000e-01
     vertex -5.000000e-01  1.750000e-01  8.100000e-01
   endloop
 endfacet
 facet normal -1.447133e-01 -9.894736e-01  0.000000e+00
   outer loop
     vertex  2.188080e-01  6.987231e-02  8.100000e-01
     vertex  2.188080e-01  6.987231e-02  8.500000e-01
     vertex -5.000000e-01  1.750000e-01  8.500000e-01
   endloop
 endfacet
 facet normal  3.749321e-01 -9.270523e-01  8.529032e-19
   outer loop
     vertex  2.238502e-01  7.191154e-02  8.100000e-01
     vertex  2.188080e-01  6.987231e-02  8.500000e-01
     vertex  2.188080e-01  6.987231e-02  8.100000e-01
   endloop
 endfacet
 facet normal  3.749321e-01 -9.270523e-01  0.000000e+00
   outer loop
     vertex  2.238502e-01  7.191154e-02  8.100000e-01
     vertex  2.238502e-01  7.191154e-02  8.500000e-01
     vertex  2.188080e-01  6.987231e-02  8.500000e-01
   endloop
 endfacet
 facet normal -0.000000e+00  0.000000e+00 -1.000000e+00
   outer loop
     vertex  2.238502e-01  7.191154e-02  8.100000e-01
     vertex  2.188080e-01  6.987231e-02  8.100000e-01
     vertex -5.000000e-01  1.750000e-01  8.100000e-01
   endloop
 endfacet
 facet normal  0.000000e+00  0.000000e+00  1.000000e+00
   outer loop
     vertex  2.238502e-01  7.191154e-02  8.500000e-01
     vertex -5.000000e-01  1.750000e-01  8.500000e-01
     vertex  2.188080e-01  6.987231e-02  8.500000e-01
   endloop
 endfacet
endsolid
