solid
 facet normal  2.047569e-01  9.788129e-01  1.488374e-17
   outer loop
     vertex -5.000000e-01  1.750000e-01  8.100000e-01
     vertex  1.807690e-01  3.259062e-02  8.500000e-01
     vertex  1.807690e-01  3.259062e-02  8.100000e-01
   endloop
 endfacet
 facet normal  2.047569e-01  9.788129e-01 -0.000000e+00
   outer loop
     vertex -5.000000e-01  1.750000e-01  8.100000e-01
     vertex -5.000000e-01  1.750000e-01  8.500000e-01
     vertex  1.807690e-01  3.259062e-02  8.500000e-01
   endloop
 endfacet
 facet normal -2.122668e-01 -9.772118e-01 -6.629058e-17
   outer loop
     vertex  1.786288e-01  2.759044e-02  8.100000e-01
     vertex -5.000000e-01  1.750000e-01  8.500000e-01
     vertex -5.000000e-01  1.750000e-01  8.100000e-01
   endloop
 endfacet
 facet normal -2.122668e-01 -9.772118e-01  0.000000e+00
   outer loop
     vertex  1.786288e-01  2.759044e-02  8.100000e-01
     vertex  1.786288e-01  2.759044e-02  8.500000e-01
     vertex -5.000000e-01  1.750000e-01  8.500000e-01
   endloop
 endfacet
 facet normal  9.193272e-01 -3.934940e-01 -1.632067e-18
   outer loop
     vertex  1.807690e-01  3.259062e-02  8.100000e-01
     vertex  1.786288e-01  2.759044e-02  8.500000e-01
     vertex  1.786288e-01  2.759044e-02  8.100000e-01
   endloop
 endfacet
 facet normal  9.193272e-01 -3.934940e-01  0.000000e+00
   outer loop
     vertex  1.807690e-01  3.259062e-02  8.100000e-01
     vertex  1.807690e-01  3.259062e-02  8.500000e-01
     vertex  1.786288e-01  2.759044e-02  8.500000e-01
   endloop
 endfacet
 facet normal -0.000000e+00  0.000000e+00 -1.000000e+00
   outer loop
     vertex  1.807690e-01  3.259062e-02  8.100000e-01
     vertex  1.786288e-01  2.759044e-02  8.100000e-01
     vertex -5.000000e-01  1.750000e-01  8.100000e-01
   endloop
 endfacet
 facet normal  0.000000e+00  0.000000e+00  1.000000e+00
   outer loop
     vertex  1.807690e-01  3.259062e-02  8.500000e-01
     vertex -5.000000e-01  1.750000e-01  8.500000e-01
     vertex  1.786288e-01  2.759044e-02  8.500000e-01
   endloop
 endfacet
endsolid
