solid
 facet normal -9.822151e-01 -1.877592e-01 -7.195920e-17
   outer loop
     vertex  2.075000e-01 -1.750000e-01  8.100000e-01
     vertex  1.799202e-01 -3.072301e-02  8.500000e-01
     vertex  1.799202e-01 -3.072301e-02  8.100000e-01
   endloop
 endfacet
 facet normal -9.822151e-01 -1.877592e-01  0.000000e+00
   outer loop
     vertex  2.075000e-01 -1.750000e-01  8.100000e-01
     vertex  2.075000e-01 -1.750000e-01  8.500000e-01
     vertex  1.799202e-01 -3.072301e-02  8.500000e-01
   endloop
 endfacet
 facet normal  9.840197e-01  1.780595e-01 -9.999076e-18
   outer loop
     vertex  1.822797e-01 -3.562354e-02  8.100000e-01
     vertex  2.075000e-01 -1.750000e-01  8.500000e-01
     vertex  2.075000e-01 -1.750000e-01  8.100000e-01
   endloop
 endfacet
 facet normal  9.840197e-01  1.780595e-01 -0.000000e+00
   outer loop
     vertex  1.822797e-01 -3.562354e-02  8.100000e-01
     vertex  1.822797e-01 -3.562354e-02  8.500000e-01
     vertex  2.075000e-01 -1.750000e-01  8.500000e-01
   endloop
 endfacet
 facet normal  9.010028e-01  4.338132e-01 -3.818587e-18
   outer loop
     vertex  1.799202e-01 -3.072301e-02  8.100000e-01
     vertex  1.822797e-01 -3.562354e-02  8.500000e-01
     vertex  1.822797e-01 -3.562354e-02  8.100000e-01
   endloop
 endfacet
 facet normal  9.010028e-01  4.338132e-01 -0.000000e+00
   outer loop
     vertex  1.799202e-01 -3.072301e-02  8.100000e-01
     vertex  1.799202e-01 -3.072301e-02  8.500000e-01
     vertex  1.822797e-01 -3.562354e-02  8.500000e-01
   endloop
 endfacet
 facet normal  0.000000e+00  0.000000e+00 -1.000000e+00
   outer loop
     vertex  1.799202e-01 -3.072301e-02  8.100000e-01
     vertex  1.822797e-01 -3.562354e-02  8.100000e-01
     vertex  2.075000e-01 -1.750000e-01  8.100000e-01
   endloop
 endfacet
 facet normal  0.000000e+00  0.000000e+00  1.000000e+00
   outer loop
     vertex  1.799202e-01 -3.072301e-02  8.500000e-01
     vertex  2.075000e-01 -1.750000e-01  8.500000e-01
     vertex  1.822797e-01 -3.562354e-02  8.500000e-01
   endloop
 endfacet
endsolid
