solid
 facet normal -6.857034e-01  7.278811e-01  5.378195e-17
   outer loop
     vertex  3.257463e-01  1.084357e-02  8.100000e-01
     vertex  5.000000e-01  1.750000e-01  8.500000e-01
     vertex  5.000000e-01  1.750000e-01  8.100000e-01
   endloop
 endfacet
 facet normal -6.857034e-01  7.278811e-01  0.000000e+00
   outer loop
     vertex  3.257463e-01  1.084357e-02  8.100000e-01
     vertex  3.257463e-01  1.084357e-02  8.500000e-01
     vertex  5.000000e-01  1.750000e-01  8.500000e-01
   endloop
 endfacet
 facet normal -9.943192e-01 -1.064394e-01  1.677018e-19
   outer loop
     vertex  3.263252e-01  5.435516e-03  8.100000e-01
     vertex  3.257463e-01  1.084357e-02  8.500000e-01
     vertex  3.257463e-01  1.084357e-02  8.100000e-01
   endloop
 endfacet
 facet normal -9.943192e-01 -1.064394e-01  0.000000e+00
   outer loop
     vertex  3.263252e-01  5.435516e-03  8.100000e-01
     vertex  3.263252e-01  5.435516e-03  8.500000e-01
     vertex  3.257463e-01  1.084357e-02  8.500000e-01
   endloop
 endfacet
 facet normal  6.985890e-01 -7.155231e-01 -6.781537e-17
   outer loop
     vertex  5.000000e-01  1.750000e-01  8.100000e-01
     vertex  3.263252e-01  5.435516e-03  8.500000e-01
     vertex  3.263252e-01  5.435516e-03  8.100000e-01
   endloop
 endfacet
 facet normal  6.985890e-01 -7.155231e-01  0.000000e+00
   outer loop
     vertex  5.000000e-01  1.750000e-01  8.100000e-01
     vertex  5.000000e-01  1.750000e-01  8.500000e-01
     vertex  3.263252e-01  5.435516e-03  8.500000e-01
   endloop
 endfacet
 facet normal  0.000000e+00  0.000000e+00 -1.000000e+00
   outer loop
     vertex  5.000000e-01  1.750000e-01  8.100000e-01
     vertex  3.263252e-01  5.435516e-03  8.100000e-01
     vertex  3.257463e-01  1.084357e-02  8.100000e-01
   endloop
 endfacet
 facet normal  0.000000e+00  0.000000e+00  1.000000e+00
   outer loop
     vertex  5.000000e-01  1.750000e-01  8.500000e-01
     vertex  3.257463e-01  1.084357e-02  8.500000e-01
     vertex  3.263252e-01  5.435516e-03  8.500000e-01
   endloop
 endfacet
endsolid
