solid
 facet normal -2.454952e-01  9.693978e-01  2.215626e-16
   outer loop
     vertex -5.000000e-01 -1.750000e-01  8.100000e-01
     vertex  1.736088e-01 -4.411896e-03  8.500000e-01
     vertex  1.736088e-01 -4.411896e-03  8.100000e-01
   endloop
 endfacet
 facet normal -2.454952e-01  9.693978e-01  0.000000e+00
   outer loop
     vertex -5.000000e-01 -1.750000e-01  8.100000e-01
     vertex -5.000000e-01 -1.750000e-01  8.500000e-01
     vertex  1.736088e-01 -4.411896e-03  8.500000e-01
   endloop
 endfacet
 facet normal  2.379820e-01 -9.712696e-01  1.667216e-16
   outer loop
     vertex  1.741152e-01 -9.827225e-03  8.100000e-01
     vertex -5.000000e-01 -1.750000e-01  8.500000e-01
     vertex -5.000000e-01 -1.750000e-01  8.100000e-01
   endloop
 endfacet
 facet normal  2.379820e-01 -9.712696e-01  0.000000e+00
   outer loop
     vertex  1.741152e-01 -9.827225e-03  8.100000e-01
     vertex  1.741152e-01 -9.827225e-03  8.500000e-01
     vertex -5.000000e-01 -1.750000e-01  8.500000e-01
   endloop
 endfacet
 facet normal  9.956560e-01  9.310771e-02  5.845959e-19
   outer loop
     vertex  1.736088e-01 -4.411896e-03  8.100000e-01
     vertex  1.741152e-01 -9.827225e-03  8.500000e-01
     vertex  1.741152e-01 -9.827225e-03  8.100000e-01
   endloop
 endfacet
 facet normal  9.956560e-01  9.310771e-02 -0.000000e+00
   outer loop
     vertex  1.736088e-01 -4.411896e-03  8.100000e-01
     vertex  1.736088e-01 -4.411896e-03  8.500000e-01
     vertex  1.741152e-01 -9.827225e-03  8.500000e-01
   endloop
 endfacet
 facet normal  0.000000e+00 -0.000000e+00 -1.000000e+00
   outer loop
     vertex  1.736088e-01 -4.411896e-03  8.100000e-01
     vertex  1.741152e-01 -9.827225e-03  8.100000e-01
     vertex -5.000000e-01 -1.750000e-01  8.100000e-01
   endloop
 endfacet
 facet normal  0.000000e+00  0.000000e+00  1.000000e+00
   outer loop
     vertex  1.736088e-01 -4.411896e-03  8.500000e-01
     vertex -5.000000e-01 -1.750000e-01  8.500000e-01
     vertex  1.741152e-01 -9.827225e-03  8.500000e-01
   endloop
 endfacet
endsolid
