solid
 facet normal -6.715526e-01  7.409569e-01 -3.837988e-17
   outer loop
     vertex  3.247847e-01  1.619684e-02  8.100000e-01
     vertex  5.000000e-01  1.750000e-01  8.500000e-01
     vertex  5.000000e-01  1.750000e-01  8.100000e-01
   endloop
 endfacet
 facet normal -6.715526e-01  7.409569e-01  0.000000e+00
   outer loop
     vertex  3.247847e-01  1.619684e-02  8.100000e-01
     vertex  3.247847e-01  1.619684e-02  8.500000e-01
     vertex  5.000000e-01  1.750000e-01  8.500000e-01
   endloop
 endfacet
 facet normal -9.842467e-01 -1.768004e-01  9.988003e-19
   outer loop
     vertex  3.257463e-01  1.084357e-02  8.100000e-01
     vertex  3.247847e-01  1.619684e-02  8.500000e-01
     vertex  3.247847e-01  1.619684e-02  8.100000e-01
   endloop
 endfacet
 facet normal -9.842467e-01 -1.768004e-01  0.000000e+00
   outer loop
     vertex  3.257463e-01  1.084357e-02  8.100000e-01
     vertex  3.257463e-01  1.084357e-02  8.500000e-01
     vertex  3.247847e-01  1.619684e-02  8.500000e-01
   endloop
 endfacet
 facet normal  6.857034e-01 -7.278811e-01  5.378195e-17
   outer loop
     vertex  5.000000e-01  1.750000e-01  8.100000e-01
     vertex  3.257463e-01  1.084357e-02  8.500000e-01
     vertex  3.257463e-01  1.084357e-02  8.100000e-01
   endloop
 endfacet
 facet normal  6.857034e-01 -7.278811e-01  0.000000e+00
   outer loop
     vertex  5.000000e-01  1.750000e-01  8.100000e-01
     vertex  5.000000e-01  1.750000e-01  8.500000e-01
     vertex  3.257463e-01  1.084357e-02  8.500000e-01
   endloop
 endfacet
 facet normal  0.000000e+00  0.000000e+00 -1.000000e+00
   outer loop
     vertex  5.000000e-01  1.750000e-01  8.100000e-01
     vertex  3.257463e-01  1.084357e-02  8.100000e-01
     vertex  3.247847e-01  1.619684e-02  8.100000e-01
   endloop
 endfacet
 facet normal  0.000000e+00  0.000000e+00  1.000000e+00
   outer loop
     vertex  5.000000e-01  1.750000e-01  8.500000e-01
     vertex  3.247847e-01  1.619684e-02  8.500000e-01
     vertex  3.257463e-01  1.084357e-02  8.500000e-01
   endloop
 endfacet
endsolid
