solid
 facet normal  1.447133e-01  9.894736e-01 -1.167814e-16
   outer loop
     vertex -5.000000e-01  1.750000e-01  8.100000e-01
     vertex  2.188080e-01  6.987231e-02  8.500000e-01
     vertex  2.188080e-01  6.987231e-02  8.100000e-01
   endloop
 endfacet
 facet normal  1.447133e-01  9.894736e-01 -0.000000e+00
   outer loop
     vertex -5.000000e-01  1.750000e-01  8.100000e-01
     vertex -5.000000e-01  1.750000e-01  8.500000e-01
     vertex  2.188080e-01  6.987231e-02  8.500000e-01
   endloop
 endfacet
 facet normal -1.489248e-01 -9.888485e-01  1.826153e-16
   outer loop
     vertex  2.139233e-01  6.748007e-02  8.100000e-01
     vertex -5.000000e-01  1.750000e-01  8.500000e-01
     vertex -5.000000e-01  1.750000e-01  8.100000e-01
   endloop
 endfacet
 facet normal -1.489248e-01 -9.888485e-01  0.000000e+00
   outer loop
     vertex  2.139233e-01  6.748007e-02  8.100000e-01
     vertex  2.139233e-01  6.748007e-02  8.500000e-01
     vertex -5.000000e-01  1.750000e-01  8.500000e-01
   endloop
 endfacet
 facet normal  4.398325e-01 -8.980798e-01  1.374675e-18
   outer loop
     vertex  2.188080e-01  6.987231e-02  8.100000e-01
     vertex  2.139233e-01  6.748007e-02  8.500000e-01
     vertex  2.139233e-01  6.748007e-02  8.100000e-01
   endloop
 endfacet
 facet normal  4.398325e-01 -8.980798e-01  0.000000e+00
   outer loop
     vertex  2.188080e-01  6.987231e-02  8.100000e-01
     vertex  2.188080e-01  6.987231e-02  8.500000e-01
     vertex  2.139233e-01  6.748007e-02  8.500000e-01
   endloop
 endfacet
 facet normal -0.000000e+00  0.000000e+00 -1.000000e+00
   outer loop
     vertex  2.188080e-01  6.987231e-02  8.100000e-01
     vertex  2.139233e-01  6.748007e-02  8.100000e-01
     vertex -5.000000e-01  1.750000e-01  8.100000e-01
   endloop
 endfacet
 facet normal  0.000000e+00  0.000000e+00  1.000000e+00
   outer loop
     vertex  2.188080e-01  6.987231e-02  8.500000e-01
     vertex -5.000000e-01  1.750000e-01  8.500000e-01
     vertex  2.139233e-01  6.748007e-02  8.500000e-01
   endloop
 endfacet
endsolid
