solid
 facet normal  1.329020e-01  9.911292e-01 -1.952960e-16
   outer loop
     vertex -5.000000e-01  1.750000e-01  8.100000e-01
     vertex  2.396644e-01  7.581728e-02  8.500000e-01
     vertex  2.396644e-01  7.581728e-02  8.100000e-01
   endloop
 endfacet
 facet normal  1.329020e-01  9.911292e-01 -0.000000e+00
   outer loop
     vertex -5.000000e-01  1.750000e-01  8.100000e-01
     vertex -5.000000e-01  1.750000e-01  8.500000e-01
     vertex  2.396644e-01  7.581728e-02  8.500000e-01
   endloop
 endfacet
 facet normal -1.350814e-01 -9.908345e-01  6.678864e-18
   outer loop
     vertex  2.343048e-01  7.489154e-02  8.100000e-01
     vertex -5.000000e-01  1.750000e-01  8.500000e-01
     vertex -5.000000e-01  1.750000e-01  8.100000e-01
   endloop
 endfacet
 facet normal -1.350814e-01 -9.908345e-01  0.000000e+00
   outer loop
     vertex  2.343048e-01  7.489154e-02  8.100000e-01
     vertex  2.343048e-01  7.489154e-02  8.500000e-01
     vertex -5.000000e-01  1.750000e-01  8.500000e-01
   endloop
 endfacet
 facet normal  1.702058e-01 -9.854085e-01 -8.391071e-19
   outer loop
     vertex  2.396644e-01  7.581728e-02  8.100000e-01
     vertex  2.343048e-01  7.489154e-02  8.500000e-01
     vertex  2.343048e-01  7.489154e-02  8.100000e-01
   endloop
 endfacet
 facet normal  1.702058e-01 -9.854085e-01  0.000000e+00
   outer loop
     vertex  2.396644e-01  7.581728e-02  8.100000e-01
     vertex  2.396644e-01  7.581728e-02  8.500000e-01
     vertex  2.343048e-01  7.489154e-02  8.500000e-01
   endloop
 endfacet
 facet normal -0.000000e+00  0.000000e+00 -1.000000e+00
   outer loop
     vertex  2.396644e-01  7.581728e-02  8.100000e-01
     vertex  2.343048e-01  7.489154e-02  8.100000e-01
     vertex -5.000000e-01  1.750000e-01  8.100000e-01
   endloop
 endfacet
 facet normal  0.000000e+00  0.000000e+00  1.000000e+00
   outer loop
     vertex  2.396644e-01  7.581728e-02  8.500000e-01
     vertex -5.000000e-01  1.750000e-01  8.500000e-01
     vertex  2.343048e-01  7.489154e-02  8.500000e-01
   endloop
 endfacet
endsolid
