solid
 facet normal -2.227445e-01  9.748769e-01  6.456321e-17
   outer loop
     vertex -5.000000e-01 -1.750000e-01  8.100000e-01
     vertex  1.762736e-01 -2.048181e-02  8.500000e-01
     vertex  1.762736e-01 -2.048181e-02  8.100000e-01
   endloop
 endfacet
 facet normal -2.227445e-01  9.748769e-01  0.000000e+00
   outer loop
     vertex -5.000000e-01 -1.750000e-01  8.100000e-01
     vertex -5.000000e-01 -1.750000e-01  8.500000e-01
     vertex  1.762736e-01 -2.048181e-02  8.500000e-01
   endloop
 endfacet
 facet normal  2.151249e-01 -9.765865e-01  2.055766e-16
   outer loop
     vertex  1.779148e-01 -2.566725e-02  8.100000e-01
     vertex -5.000000e-01 -1.750000e-01  8.500000e-01
     vertex -5.000000e-01 -1.750000e-01  8.100000e-01
   endloop
 endfacet
 facet normal  2.151249e-01 -9.765865e-01  0.000000e+00
   outer loop
     vertex  1.779148e-01 -2.566725e-02  8.100000e-01
     vertex  1.779148e-01 -2.566725e-02  8.500000e-01
     vertex -5.000000e-01 -1.750000e-01  8.500000e-01
   endloop
 endfacet
 facet normal  9.533889e-01  3.017444e-01  2.799863e-18
   outer loop
     vertex  1.762736e-01 -2.048181e-02  8.100000e-01
     vertex  1.779148e-01 -2.566725e-02  8.500000e-01
     vertex  1.779148e-01 -2.566725e-02  8.100000e-01
   endloop
 endfacet
 facet normal  9.533889e-01  3.017444e-01 -0.000000e+00
   outer loop
     vertex  1.762736e-01 -2.048181e-02  8.100000e-01
     vertex  1.762736e-01 -2.048181e-02  8.500000e-01
     vertex  1.779148e-01 -2.566725e-02  8.500000e-01
   endloop
 endfacet
 facet normal  0.000000e+00 -0.000000e+00 -1.000000e+00
   outer loop
     vertex  1.762736e-01 -2.048181e-02  8.100000e-01
     vertex  1.779148e-01 -2.566725e-02  8.100000e-01
     vertex -5.000000e-01 -1.750000e-01  8.100000e-01
   endloop
 endfacet
 facet normal  0.000000e+00  0.000000e+00  1.000000e+00
   outer loop
     vertex  1.762736e-01 -2.048181e-02  8.500000e-01
     vertex -5.000000e-01 -1.750000e-01  8.500000e-01
     vertex  1.779148e-01 -2.566725e-02  8.500000e-01
   endloop
 endfacet
endsolid
