solid
 facet normal -5.066864e-01  8.621304e-01  9.733089e-17
   outer loop
     vertex  3.003201e-01  5.764525e-02  8.100000e-01
     vertex  5.000000e-01  1.750000e-01  8.500000e-01
     vertex  5.000000e-01  1.750000e-01  8.100000e-01
   endloop
 endfacet
 facet normal -5.066864e-01  8.621304e-01  0.000000e+00
   outer loop
     vertex  3.003201e-01  5.764525e-02  8.100000e-01
     vertex  3.003201e-01  5.764525e-02  8.500000e-01
     vertex  5.000000e-01  1.750000e-01  8.500000e-01
   endloop
 endfacet
 facet normal -6.839796e-01 -7.295012e-01 -3.788938e-18
   outer loop
     vertex  3.042878e-01  5.392513e-02  8.100000e-01
     vertex  3.003201e-01  5.764525e-02  8.500000e-01
     vertex  3.003201e-01  5.764525e-02  8.100000e-01
   endloop
 endfacet
 facet normal -6.839796e-01 -7.295012e-01  0.000000e+00
   outer loop
     vertex  3.042878e-01  5.392513e-02  8.100000e-01
     vertex  3.042878e-01  5.392513e-02  8.500000e-01
     vertex  3.003201e-01  5.764525e-02  8.500000e-01
   endloop
 endfacet
 facet normal  5.261023e-01 -8.504213e-01  9.480601e-17
   outer loop
     vertex  5.000000e-01  1.750000e-01  8.100000e-01
     vertex  3.042878e-01  5.392513e-02  8.500000e-01
     vertex  3.042878e-01  5.392513e-02  8.100000e-01
   endloop
 endfacet
 facet normal  5.261023e-01 -8.504213e-01  0.000000e+00
   outer loop
     vertex  5.000000e-01  1.750000e-01  8.100000e-01
     vertex  5.000000e-01  1.750000e-01  8.500000e-01
     vertex  3.042878e-01  5.392513e-02  8.500000e-01
   endloop
 endfacet
 facet normal  0.000000e+00  0.000000e+00 -1.000000e+00
   outer loop
     vertex  5.000000e-01  1.750000e-01  8.100000e-01
     vertex  3.042878e-01  5.392513e-02  8.100000e-01
     vertex  3.003201e-01  5.764525e-02  8.100000e-01
   endloop
 endfacet
 facet normal  0.000000e+00  0.000000e+00  1.000000e+00
   outer loop
     vertex  5.000000e-01  1.750000e-01  8.500000e-01
     vertex  3.003201e-01  5.764525e-02  8.500000e-01
     vertex  3.042878e-01  5.392513e-02  8.500000e-01
   endloop
 endfacet
endsolid
