solid
 facet normal  6.570498e-01  7.538472e-01 -2.432544e-17
   outer loop
     vertex  3.235269e-01 -2.118681e-02  8.100000e-01
     vertex  5.000000e-01 -1.750000e-01  8.500000e-01
     vertex  5.000000e-01 -1.750000e-01  8.100000e-01
   endloop
 endfacet
 facet normal  6.570498e-01  7.538472e-01 -0.000000e+00
   outer loop
     vertex  3.235269e-01 -2.118681e-02  8.100000e-01
     vertex  3.235269e-01 -2.118681e-02  8.500000e-01
     vertex  5.000000e-01 -1.750000e-01  8.500000e-01
   endloop
 endfacet
 facet normal -9.506055e-01  3.104018e-01 -3.212344e-18
   outer loop
     vertex  3.218613e-01 -2.628749e-02  8.100000e-01
     vertex  3.235269e-01 -2.118681e-02  8.500000e-01
     vertex  3.235269e-01 -2.118681e-02  8.100000e-01
   endloop
 endfacet
 facet normal -9.506055e-01  3.104018e-01  0.000000e+00
   outer loop
     vertex  3.218613e-01 -2.628749e-02  8.100000e-01
     vertex  3.218613e-01 -2.628749e-02  8.500000e-01
     vertex  3.235269e-01 -2.118681e-02  8.500000e-01
   endloop
 endfacet
 facet normal -6.408546e-01 -7.676623e-01  6.365525e-18
   outer loop
     vertex  5.000000e-01 -1.750000e-01  8.100000e-01
     vertex  3.218613e-01 -2.628749e-02  8.500000e-01
     vertex  3.218613e-01 -2.628749e-02  8.100000e-01
   endloop
 endfacet
 facet normal -6.408546e-01 -7.676623e-01  0.000000e+00
   outer loop
     vertex  5.000000e-01 -1.750000e-01  8.100000e-01
     vertex  5.000000e-01 -1.750000e-01  8.500000e-01
     vertex  3.218613e-01 -2.628749e-02  8.500000e-01
   endloop
 endfacet
 facet normal  0.000000e+00  0.000000e+00 -1.000000e+00
   outer loop
     vertex  5.000000e-01 -1.750000e-01  8.100000e-01
     vertex  3.218613e-01 -2.628749e-02  8.100000e-01
     vertex  3.235269e-01 -2.118681e-02  8.100000e-01
   endloop
 endfacet
 facet normal  0.000000e+00  0.000000e+00  1.000000e+00
   outer loop
     vertex  5.000000e-01 -1.750000e-01  8.500000e-01
     vertex  3.235269e-01 -2.118681e-02  8.500000e-01
     vertex  3.218613e-01 -2.628749e-02  8.500000e-01
   endloop
 endfacet
endsolid
