solid
 facet normal -9.863034e-01 -1.649412e-01 -3.366702e-17
   outer loop
     vertex  2.075000e-01 -1.750000e-01  8.100000e-01
     vertex  1.849813e-01 -4.034407e-02  8.500000e-01
     vertex  1.849813e-01 -4.034407e-02  8.100000e-01
   endloop
 endfacet
 facet normal -9.863034e-01 -1.649412e-01  0.000000e+00
   outer loop
     vertex  2.075000e-01 -1.750000e-01  8.100000e-01
     vertex  2.075000e-01 -1.750000e-01  8.500000e-01
     vertex  1.849813e-01 -4.034407e-02  8.500000e-01
   endloop
 endfacet
 facet normal  9.889723e-01  1.481009e-01 -1.741490e-17
   outer loop
     vertex  1.880114e-01 -4.486078e-02  8.100000e-01
     vertex  2.075000e-01 -1.750000e-01  8.500000e-01
     vertex  2.075000e-01 -1.750000e-01  8.100000e-01
   endloop
 endfacet
 facet normal  9.889723e-01  1.481009e-01 -0.000000e+00
   outer loop
     vertex  1.880114e-01 -4.486078e-02  8.100000e-01
     vertex  1.880114e-01 -4.486078e-02  8.500000e-01
     vertex  2.075000e-01 -1.750000e-01  8.500000e-01
   endloop
 endfacet
 facet normal  8.304386e-01  5.571101e-01 -3.109004e-18
   outer loop
     vertex  1.849813e-01 -4.034407e-02  8.100000e-01
     vertex  1.880114e-01 -4.486078e-02  8.500000e-01
     vertex  1.880114e-01 -4.486078e-02  8.100000e-01
   endloop
 endfacet
 facet normal  8.304386e-01  5.571101e-01 -0.000000e+00
   outer loop
     vertex  1.849813e-01 -4.034407e-02  8.100000e-01
     vertex  1.849813e-01 -4.034407e-02  8.500000e-01
     vertex  1.880114e-01 -4.486078e-02  8.500000e-01
   endloop
 endfacet
 facet normal  0.000000e+00  0.000000e+00 -1.000000e+00
   outer loop
     vertex  1.849813e-01 -4.034407e-02  8.100000e-01
     vertex  1.880114e-01 -4.486078e-02  8.100000e-01
     vertex  2.075000e-01 -1.750000e-01  8.100000e-01
   endloop
 endfacet
 facet normal  0.000000e+00  0.000000e+00  1.000000e+00
   outer loop
     vertex  1.849813e-01 -4.034407e-02  8.500000e-01
     vertex  2.075000e-01 -1.750000e-01  8.500000e-01
     vertex  1.880114e-01 -4.486078e-02  8.500000e-01
   endloop
 endfacet
endsolid
