solid
 facet normal  6.936917e-01  7.202720e-01  6.032943e-19
   outer loop
     vertex  1.949942e-01 -5.319257e-02  8.100000e-01
     vertex  1.989117e-01 -5.696554e-02  8.500000e-01
     vertex  1.989117e-01 -5.696554e-02  8.100000e-01
   endloop
 endfacet
 facet normal  6.936917e-01  7.202720e-01 -0.000000e+00
   outer loop
     vertex  1.949942e-01 -5.319257e-02  8.100000e-01
     vertex  1.949942e-01 -5.319257e-02  8.500000e-01
     vertex  1.989117e-01 -5.696554e-02  8.500000e-01
   endloop
 endfacet
 facet normal -9.947709e-01 -1.021317e-01 -8.556839e-18
   outer loop
     vertex  2.075000e-01 -1.750000e-01  8.100000e-01
     vertex  1.949942e-01 -5.319257e-02  8.500000e-01
     vertex  1.949942e-01 -5.319257e-02  8.100000e-01
   endloop
 endfacet
 facet normal -9.947709e-01 -1.021317e-01  0.000000e+00
   outer loop
     vertex  2.075000e-01 -1.750000e-01  8.100000e-01
     vertex  2.075000e-01 -1.750000e-01  8.500000e-01
     vertex  1.949942e-01 -5.319257e-02  8.500000e-01
   endloop
 endfacet
 facet normal  9.973634e-01  7.256875e-02  1.355593e-17
   outer loop
     vertex  1.989117e-01 -5.696554e-02  8.100000e-01
     vertex  2.075000e-01 -1.750000e-01  8.500000e-01
     vertex  2.075000e-01 -1.750000e-01  8.100000e-01
   endloop
 endfacet
 facet normal  9.973634e-01  7.256875e-02 -0.000000e+00
   outer loop
     vertex  1.989117e-01 -5.696554e-02  8.100000e-01
     vertex  1.989117e-01 -5.696554e-02  8.500000e-01
     vertex  2.075000e-01 -1.750000e-01  8.500000e-01
   endloop
 endfacet
 facet normal -0.000000e+00 -0.000000e+00 -1.000000e+00
   outer loop
     vertex  1.989117e-01 -5.696554e-02  8.100000e-01
     vertex  2.075000e-01 -1.750000e-01  8.100000e-01
     vertex  1.949942e-01 -5.319257e-02  8.100000e-01
   endloop
 endfacet
 facet normal  0.000000e+00  0.000000e+00  1.000000e+00
   outer loop
     vertex  1.989117e-01 -5.696554e-02  8.500000e-01
     vertex  1.949942e-01 -5.319257e-02  8.500000e-01
     vertex  2.075000e-01 -1.750000e-01  8.500000e-01
   endloop
 endfacet
endsolid
