solid
 facet normal  2.198662e-01  9.755300e-01 -1.978446e-16
   outer loop
     vertex -5.000000e-01  1.750000e-01  8.100000e-01
     vertex  1.768492e-01  2.245087e-02  8.500000e-01
     vertex  1.768492e-01  2.245087e-02  8.100000e-01
   endloop
 endfacet
 facet normal  2.198662e-01  9.755300e-01 -0.000000e+00
   outer loop
     vertex -5.000000e-01  1.750000e-01  8.100000e-01
     vertex -5.000000e-01  1.750000e-01  8.500000e-01
     vertex  1.768492e-01  2.245087e-02  8.500000e-01
   endloop
 endfacet
 facet normal -2.275026e-01 -9.737775e-01  5.398717e-17
   outer loop
     vertex  1.754391e-01  1.719786e-02  8.100000e-01
     vertex -5.000000e-01  1.750000e-01  8.500000e-01
     vertex -5.000000e-01  1.750000e-01  8.100000e-01
   endloop
 endfacet
 facet normal -2.275026e-01 -9.737775e-01  0.000000e+00
   outer loop
     vertex  1.754391e-01  1.719786e-02  8.100000e-01
     vertex  1.754391e-01  1.719786e-02  8.500000e-01
     vertex -5.000000e-01  1.750000e-01  8.500000e-01
   endloop
 endfacet
 facet normal  9.658110e-01 -2.592471e-01 -9.177271e-19
   outer loop
     vertex  1.768492e-01  2.245087e-02  8.100000e-01
     vertex  1.754391e-01  1.719786e-02  8.500000e-01
     vertex  1.754391e-01  1.719786e-02  8.100000e-01
   endloop
 endfacet
 facet normal  9.658110e-01 -2.592471e-01  0.000000e+00
   outer loop
     vertex  1.768492e-01  2.245087e-02  8.100000e-01
     vertex  1.768492e-01  2.245087e-02  8.500000e-01
     vertex  1.754391e-01  1.719786e-02  8.500000e-01
   endloop
 endfacet
 facet normal -0.000000e+00  0.000000e+00 -1.000000e+00
   outer loop
     vertex  1.768492e-01  2.245087e-02  8.100000e-01
     vertex  1.754391e-01  1.719786e-02  8.100000e-01
     vertex -5.000000e-01  1.750000e-01  8.100000e-01
   endloop
 endfacet
 facet normal  0.000000e+00  0.000000e+00  1.000000e+00
   outer loop
     vertex  1.768492e-01  2.245087e-02  8.500000e-01
     vertex -5.000000e-01  1.750000e-01  8.500000e-01
     vertex  1.754391e-01  1.719786e-02  8.500000e-01
   endloop
 endfacet
endsolid
