solid
 facet normal  6.987538e-01  7.153622e-01  1.563076e-16
   outer loop
     vertex  3.263304e-01 -5.362427e-03  8.100000e-01
     vertex  5.000000e-01 -1.750000e-01  8.500000e-01
     vertex  5.000000e-01 -1.750000e-01  8.100000e-01
   endloop
 endfacet
 facet normal  6.987538e-01  7.153622e-01 -0.000000e+00
   outer loop
     vertex  3.263304e-01 -5.362427e-03  8.100000e-01
     vertex  3.263304e-01 -5.362427e-03  8.500000e-01
     vertex  5.000000e-01 -1.750000e-01  8.500000e-01
   endloop
 endfacet
 facet normal -9.944707e-01  1.050140e-01 -8.659062e-19
   outer loop
     vertex  3.257669e-01 -1.069849e-02  8.100000e-01
     vertex  3.263304e-01 -5.362427e-03  8.500000e-01
     vertex  3.263304e-01 -5.362427e-03  8.100000e-01
   endloop
 endfacet
 facet normal -9.944707e-01  1.050140e-01  0.000000e+00
   outer loop
     vertex  3.257669e-01 -1.069849e-02  8.100000e-01
     vertex  3.257669e-01 -1.069849e-02  8.500000e-01
     vertex  3.263304e-01 -5.362427e-03  8.500000e-01
   endloop
 endfacet
 facet normal -6.860672e-01 -7.275381e-01  1.155301e-16
   outer loop
     vertex  5.000000e-01 -1.750000e-01  8.100000e-01
     vertex  3.257669e-01 -1.069849e-02  8.500000e-01
     vertex  3.257669e-01 -1.069849e-02  8.100000e-01
   endloop
 endfacet
 facet normal -6.860672e-01 -7.275381e-01  0.000000e+00
   outer loop
     vertex  5.000000e-01 -1.750000e-01  8.100000e-01
     vertex  5.000000e-01 -1.750000e-01  8.500000e-01
     vertex  3.257669e-01 -1.069849e-02  8.500000e-01
   endloop
 endfacet
 facet normal  0.000000e+00  0.000000e+00 -1.000000e+00
   outer loop
     vertex  5.000000e-01 -1.750000e-01  8.100000e-01
     vertex  3.257669e-01 -1.069849e-02  8.100000e-01
     vertex  3.263304e-01 -5.362427e-03  8.100000e-01
   endloop
 endfacet
 facet normal  0.000000e+00  0.000000e+00  1.000000e+00
   outer loop
     vertex  5.000000e-01 -1.750000e-01  8.500000e-01
     vertex  3.263304e-01 -5.362427e-03  8.500000e-01
     vertex  3.257669e-01 -1.069849e-02  8.500000e-01
   endloop
 endfacet
endsolid
