solid
 facet normal -7.408603e-01  6.716591e-01  4.885962e-20
   outer loop
     vertex  3.048527e-01 -5.335035e-02  8.100000e-01
     vertex  3.084567e-01 -4.937509e-02  8.500000e-01
     vertex  3.084567e-01 -4.937509e-02  8.100000e-01
   endloop
 endfacet
 facet normal -7.408603e-01  6.716591e-01  0.000000e+00
   outer loop
     vertex  3.048527e-01 -5.335035e-02  8.100000e-01
     vertex  3.048527e-01 -5.335035e-02  8.500000e-01
     vertex  3.084567e-01 -4.937509e-02  8.500000e-01
   endloop
 endfacet
 facet normal -9.948840e-01  1.010239e-01  1.481886e-17
   outer loop
     vertex  2.925000e-01 -1.750000e-01  8.100000e-01
     vertex  3.048527e-01 -5.335035e-02  8.500000e-01
     vertex  3.048527e-01 -5.335035e-02  8.100000e-01
   endloop
 endfacet
 facet normal -9.948840e-01  1.010239e-01  0.000000e+00
   outer loop
     vertex  2.925000e-01 -1.750000e-01  8.100000e-01
     vertex  2.925000e-01 -1.750000e-01  8.500000e-01
     vertex  3.048527e-01 -5.335035e-02  8.500000e-01
   endloop
 endfacet
 facet normal  0.000000e+00 -1.000000e+00  0.000000e+00
   outer loop
     vertex  5.000000e-01 -1.750000e-01  8.100000e-01
     vertex  2.925000e-01 -1.750000e-01  8.500000e-01
     vertex  2.925000e-01 -1.750000e-01  8.100000e-01
   endloop
 endfacet
 facet normal  0.000000e+00 -1.000000e+00  0.000000e+00
   outer loop
     vertex  5.000000e-01 -1.750000e-01  8.100000e-01
     vertex  5.000000e-01 -1.750000e-01  8.500000e-01
     vertex  2.925000e-01 -1.750000e-01  8.500000e-01
   endloop
 endfacet
 facet normal  5.484263e-01  8.361989e-01 -3.782433e-17
   outer loop
     vertex  3.084567e-01 -4.937509e-02  8.100000e-01
     vertex  5.000000e-01 -1.750000e-01  8.500000e-01
     vertex  5.000000e-01 -1.750000e-01  8.100000e-01
   endloop
 endfacet
 facet normal  5.484263e-01  8.361989e-01 -0.000000e+00
   outer loop
     vertex  3.084567e-01 -4.937509e-02  8.100000e-01
     vertex  3.084567e-01 -4.937509e-02  8.500000e-01
     vertex  5.000000e-01 -1.750000e-01  8.500000e-01
   endloop
 endfacet
 facet normal  0.000000e+00  0.000000e+00 -1.000000e+00
   outer loop
     vertex  3.084567e-01 -4.937509e-02  8.100000e-01
     vertex  2.925000e-01 -1.750000e-01  8.100000e-01
     vertex  3.048527e-01 -5.335035e-02  8.100000e-01
   endloop
 endfacet
 facet normal  0.000000e+00  0.000000e+00 -1.000000e+00
   outer loop
     vertex  5.000000e-01 -1.750000e-01  8.100000e-01
     vertex  2.925000e-01 -1.750000e-01  8.100000e-01
     vertex  3.084567e-01 -4.937509e-02  8.100000e-01
   endloop
 endfacet
 facet normal  0.000000e+00  0.000000e+00  1.000000e+00
   outer loop
     vertex  3.084567e-01 -4.937509e-02  8.500000e-01
     vertex  3.048527e-01 -5.335035e-02  8.500000e-01
     vertex  2.925000e-01 -1.750000e-01  8.500000e-01
   endloop
 endfacet
 facet normal  0.000000e+00  0.000000e+00  1.000000e+00
   outer loop
     vertex  5.000000e-01 -1.750000e-01  8.500000e-01
     vertex  3.084567e-01 -4.937509e-02  8.500000e-01
     vertex  2.925000e-01 -1.750000e-01  8.500000e-01
   endloop
 endfacet
endsolid
