solid
 facet normal -4.695386e-01  8.829119e-01 -6.463643e-17
   outer loop
     vertex  2.916432e-01  6.419444e-02  8.100000e-01
     vertex  5.000000e-01  1.750000e-01  8.500000e-01
     vertex  5.000000e-01  1.750000e-01  8.100000e-01
   endloop
 endfacet
 facet normal -4.695386e-01  8.829119e-01  0.000000e+00
   outer loop
     vertex  2.916432e-01  6.419444e-02  8.100000e-01
     vertex  2.916432e-01  6.419444e-02  8.500000e-01
     vertex  5.000000e-01  1.750000e-01  8.500000e-01
   endloop
 endfacet
 facet normal -5.737007e-01 -8.190650e-01 -3.792357e-18
   outer loop
     vertex  2.960981e-01  6.107413e-02  8.100000e-01
     vertex  2.916432e-01  6.419444e-02  8.500000e-01
     vertex  2.916432e-01  6.419444e-02  8.100000e-01
   endloop
 endfacet
 facet normal -5.737007e-01 -8.190650e-01  0.000000e+00
   outer loop
     vertex  2.960981e-01  6.107413e-02  8.100000e-01
     vertex  2.960981e-01  6.107413e-02  8.500000e-01
     vertex  2.916432e-01  6.419444e-02  8.500000e-01
   endloop
 endfacet
 facet normal  4.877583e-01 -8.729787e-01 -1.106864e-16
   outer loop
     vertex  5.000000e-01  1.750000e-01  8.100000e-01
     vertex  2.960981e-01  6.107413e-02  8.500000e-01
     vertex  2.960981e-01  6.107413e-02  8.100000e-01
   endloop
 endfacet
 facet normal  4.877583e-01 -8.729787e-01  0.000000e+00
   outer loop
     vertex  5.000000e-01  1.750000e-01  8.100000e-01
     vertex  5.000000e-01  1.750000e-01  8.500000e-01
     vertex  2.960981e-01  6.107413e-02  8.500000e-01
   endloop
 endfacet
 facet normal  0.000000e+00  0.000000e+00 -1.000000e+00
   outer loop
     vertex  5.000000e-01  1.750000e-01  8.100000e-01
     vertex  2.960981e-01  6.107413e-02  8.100000e-01
     vertex  2.916432e-01  6.419444e-02  8.100000e-01
   endloop
 endfacet
 facet normal  0.000000e+00  0.000000e+00  1.000000e+00
   outer loop
     vertex  5.000000e-01  1.750000e-01  8.500000e-01
     vertex  2.916432e-01  6.419444e-02  8.500000e-01
     vertex  2.960981e-01  6.107413e-02  8.500000e-01
   endloop
 endfacet
endsolid
