solid
 facet normal  6.860672e-01  7.275381e-01  1.155301e-16
   outer loop
     vertex  3.257669e-01 -1.069849e-02  8.100000e-01
     vertex  5.000000e-01 -1.750000e-01  8.500000e-01
     vertex  5.000000e-01 -1.750000e-01  8.100000e-01
   endloop
 endfacet
 facet normal  6.860672e-01  7.275381e-01 -0.000000e+00
   outer loop
     vertex  3.257669e-01 -1.069849e-02  8.100000e-01
     vertex  3.257669e-01 -1.069849e-02  8.500000e-01
     vertex  5.000000e-01 -1.750000e-01  8.500000e-01
   endloop
 endfacet
 facet normal -9.846666e-01  1.744467e-01 -1.080063e-18
   outer loop
     vertex  3.248309e-01 -1.598195e-02  8.100000e-01
     vertex  3.257669e-01 -1.069849e-02  8.500000e-01
     vertex  3.257669e-01 -1.069849e-02  8.100000e-01
   endloop
 endfacet
 facet normal -9.846666e-01  1.744467e-01  0.000000e+00
   outer loop
     vertex  3.248309e-01 -1.598195e-02  8.100000e-01
     vertex  3.248309e-01 -1.598195e-02  8.500000e-01
     vertex  3.257669e-01 -1.069849e-02  8.500000e-01
   endloop
 endfacet
 facet normal -6.721482e-01 -7.404166e-01  4.783822e-17
   outer loop
     vertex  5.000000e-01 -1.750000e-01  8.100000e-01
     vertex  3.248309e-01 -1.598195e-02  8.500000e-01
     vertex  3.248309e-01 -1.598195e-02  8.100000e-01
   endloop
 endfacet
 facet normal -6.721482e-01 -7.404166e-01  0.000000e+00
   outer loop
     vertex  5.000000e-01 -1.750000e-01  8.100000e-01
     vertex  5.000000e-01 -1.750000e-01  8.500000e-01
     vertex  3.248309e-01 -1.598195e-02  8.500000e-01
   endloop
 endfacet
 facet normal  0.000000e+00  0.000000e+00 -1.000000e+00
   outer loop
     vertex  5.000000e-01 -1.750000e-01  8.100000e-01
     vertex  3.248309e-01 -1.598195e-02  8.100000e-01
     vertex  3.257669e-01 -1.069849e-02  8.100000e-01
   endloop
 endfacet
 facet normal  0.000000e+00  0.000000e+00  1.000000e+00
   outer loop
     vertex  5.000000e-01 -1.750000e-01  8.500000e-01
     vertex  3.257669e-01 -1.069849e-02  8.500000e-01
     vertex  3.248309e-01 -1.598195e-02  8.500000e-01
   endloop
 endfacet
endsolid
