solid
 facet normal  6.721482e-01  7.404166e-01  4.783822e-17
   outer loop
     vertex  3.248309e-01 -1.598195e-02  8.100000e-01
     vertex  5.000000e-01 -1.750000e-01  8.500000e-01
     vertex  5.000000e-01 -1.750000e-01  8.100000e-01
   endloop
 endfacet
 facet normal  6.721482e-01  7.404166e-01 -0.000000e+00
   outer loop
     vertex  3.248309e-01 -1.598195e-02  8.100000e-01
     vertex  3.248309e-01 -1.598195e-02  8.500000e-01
     vertex  5.000000e-01 -1.750000e-01  8.500000e-01
   endloop
 endfacet
 facet normal -9.700196e-01  2.430267e-01 -1.342067e-18
   outer loop
     vertex  3.235269e-01 -2.118681e-02  8.100000e-01
     vertex  3.248309e-01 -1.598195e-02  8.500000e-01
     vertex  3.248309e-01 -1.598195e-02  8.100000e-01
   endloop
 endfacet
 facet normal -9.700196e-01  2.430267e-01  0.000000e+00
   outer loop
     vertex  3.235269e-01 -2.118681e-02  8.100000e-01
     vertex  3.235269e-01 -2.118681e-02  8.500000e-01
     vertex  3.248309e-01 -1.598195e-02  8.500000e-01
   endloop
 endfacet
 facet normal -6.570498e-01 -7.538472e-01 -2.432544e-17
   outer loop
     vertex  5.000000e-01 -1.750000e-01  8.100000e-01
     vertex  3.235269e-01 -2.118681e-02  8.500000e-01
     vertex  3.235269e-01 -2.118681e-02  8.100000e-01
   endloop
 endfacet
 facet normal -6.570498e-01 -7.538472e-01  0.000000e+00
   outer loop
     vertex  5.000000e-01 -1.750000e-01  8.100000e-01
     vertex  5.000000e-01 -1.750000e-01  8.500000e-01
     vertex  3.235269e-01 -2.118681e-02  8.500000e-01
   endloop
 endfacet
 facet normal  0.000000e+00  0.000000e+00 -1.000000e+00
   outer loop
     vertex  5.000000e-01 -1.750000e-01  8.100000e-01
     vertex  3.235269e-01 -2.118681e-02  8.100000e-01
     vertex  3.248309e-01 -1.598195e-02  8.100000e-01
   endloop
 endfacet
 facet normal  0.000000e+00  0.000000e+00  1.000000e+00
   outer loop
     vertex  5.000000e-01 -1.750000e-01  8.500000e-01
     vertex  3.248309e-01 -1.598195e-02  8.500000e-01
     vertex  3.235269e-01 -2.118681e-02  8.500000e-01
   endloop
 endfacet
endsolid
