solid
 facet normal -6.561929e-01  7.545932e-01 -1.575840e-16
   outer loop
     vertex  3.234452e-01  2.146826e-02  8.100000e-01
     vertex  5.000000e-01  1.750000e-01  8.500000e-01
     vertex  5.000000e-01  1.750000e-01  8.100000e-01
   endloop
 endfacet
 facet normal -6.561929e-01  7.545932e-01  0.000000e+00
   outer loop
     vertex  3.234452e-01  2.146826e-02  8.100000e-01
     vertex  3.234452e-01  2.146826e-02  8.500000e-01
     vertex  5.000000e-01  1.750000e-01  8.500000e-01
   endloop
 endfacet
 facet normal -9.691999e-01 -2.462753e-01  1.007904e-18
   outer loop
     vertex  3.247847e-01  1.619684e-02  8.100000e-01
     vertex  3.234452e-01  2.146826e-02  8.500000e-01
     vertex  3.234452e-01  2.146826e-02  8.100000e-01
   endloop
 endfacet
 facet normal -9.691999e-01 -2.462753e-01  0.000000e+00
   outer loop
     vertex  3.247847e-01  1.619684e-02  8.100000e-01
     vertex  3.247847e-01  1.619684e-02  8.500000e-01
     vertex  3.234452e-01  2.146826e-02  8.500000e-01
   endloop
 endfacet
 facet normal  6.715526e-01 -7.409569e-01 -3.837988e-17
   outer loop
     vertex  5.000000e-01  1.750000e-01  8.100000e-01
     vertex  3.247847e-01  1.619684e-02  8.500000e-01
     vertex  3.247847e-01  1.619684e-02  8.100000e-01
   endloop
 endfacet
 facet normal  6.715526e-01 -7.409569e-01  0.000000e+00
   outer loop
     vertex  5.000000e-01  1.750000e-01  8.100000e-01
     vertex  5.000000e-01  1.750000e-01  8.500000e-01
     vertex  3.247847e-01  1.619684e-02  8.500000e-01
   endloop
 endfacet
 facet normal  0.000000e+00  0.000000e+00 -1.000000e+00
   outer loop
     vertex  5.000000e-01  1.750000e-01  8.100000e-01
     vertex  3.247847e-01  1.619684e-02  8.100000e-01
     vertex  3.234452e-01  2.146826e-02  8.100000e-01
   endloop
 endfacet
 facet normal  0.000000e+00  0.000000e+00  1.000000e+00
   outer loop
     vertex  5.000000e-01  1.750000e-01  8.500000e-01
     vertex  3.234452e-01  2.146826e-02  8.500000e-01
     vertex  3.247847e-01  1.619684e-02  8.500000e-01
   endloop
 endfacet
endsolid
